<svg width="40" height="40" viewBox="0 0 40 40" fill="none" xmlns="http://www.w3.org/2000/svg">
<mask id="mask0_44_914" style="mask-type:alpha" maskUnits="userSpaceOnUse" x="0" y="0" width="40" height="40">
<circle cx="20" cy="20" r="20" fill="#C4C4C4"/>
</mask>
<g mask="url(#mask0_44_914)">
<path d="M52.9998 -3.6666H-13V40.3324H52.9998V-3.6666Z" fill="#F0F0F0"/>
<path d="M8.99947 -3.6666H-13V40.3338H8.99947V-3.6666Z" fill="#D80027"/>
<path d="M53 -3.6666H31.0005V40.3338H53V-3.6666Z" fill="#D80027"/>
<path d="M24.125 21.3893L28.25 19.3268L26.1875 18.2956V16.2331L22.0625 18.2956L24.125 14.1707H22.0625L20 11.0768L17.9375 14.1707H15.875L17.9375 18.2956L13.8125 16.2331V18.2956L11.75 19.3268L15.875 21.3893L14.8439 23.4518H18.9689V26.5456H21.0314V23.4518H25.1563L24.125 21.3893Z" fill="#D80027"/>
</g>
</svg>
