<svg width="40" height="40" viewBox="0 0 40 40" fill="none" xmlns="http://www.w3.org/2000/svg">
<mask id="mask0_44_901" style="mask-type:alpha" maskUnits="userSpaceOnUse" x="0" y="0" width="40" height="40">
<circle cx="20" cy="20" r="20" fill="#C4C4C4"/>
</mask>
<g mask="url(#mask0_44_901)">
<path d="M-21.7009 40.0002H61.0001V-1.35034H-21.7009V40.0002Z" fill="#000066"/>
<path d="M-21.7009 40.0002V35.3771L51.7541 -1.3505H61.0001V3.27243L-12.455 40.0002H-21.7009ZM61.0001 40.0002V35.3771L-12.455 -1.35034H-21.7009V3.27267L51.7541 40.0002H61.0001Z" fill="white"/>
<path d="M12.7578 40.0002V-1.35034H26.5413V40.0002H12.7578V40.0002ZM-21.7009 26.2167V12.4332H61.0001V26.2167H-21.7009Z" fill="white"/>
<path d="M-21.7009 23.46V15.1899H61.0001V23.46H-21.7009ZM15.5146 40.0002V-1.35034H23.7845V40.0002H15.5146V40.0002ZM-21.7009 -1.35034L5.86607 12.4332H12.0301L-15.5369 -1.35034H-21.7009ZM-21.7009 40.0002L5.86607 26.2167H-0.297943L-21.7009 36.918V40.0002ZM27.269 26.2167L54.836 40.0002H61.0001L33.4331 26.2167H27.269ZM61.0001 -1.35034L33.4331 12.4332H39.5971L61.0001 1.73167V-1.35034Z" fill="#CC0000"/>
</g>
</svg>
