<svg width="56" height="56" viewBox="0 0 56 56" fill="none" xmlns="http://www.w3.org/2000/svg">
<circle cx="28" cy="28" r="28" fill="#EEE5FE" fill-opacity="0.5"/>
<circle cx="28" cy="28" r="23" fill="#EEE5FE"/>
<path d="M36 39H33.875V36.8095C33.875 35.9381 33.5392 35.1024 32.9414 34.4862C32.3436 33.87 31.5329 33.5238 30.6875 33.5238H24.3125C23.4671 33.5238 22.6564 33.87 22.0586 34.4862C21.4608 35.1024 21.125 35.9381 21.125 36.8095V39H19V36.8095C19 35.3571 19.5597 33.9643 20.556 32.9373C21.5523 31.9103 22.9035 31.3333 24.3125 31.3333H30.6875C32.0965 31.3333 33.4477 31.9103 34.444 32.9373C35.4403 33.9643 36 35.3571 36 36.8095V39ZM27.5 29.1429C26.6628 29.1429 25.8338 28.9729 25.0604 28.6426C24.2869 28.3124 23.5842 27.8283 22.9922 27.2181C22.4002 26.6079 21.9306 25.8835 21.6103 25.0862C21.2899 24.2889 21.125 23.4344 21.125 22.5714C21.125 21.7085 21.2899 20.8539 21.6103 20.0567C21.9306 19.2594 22.4002 18.5349 22.9922 17.9247C23.5842 17.3145 24.2869 16.8305 25.0604 16.5002C25.8338 16.17 26.6628 16 27.5 16C29.1908 16 30.8123 16.6923 32.0078 17.9247C33.2034 19.1571 33.875 20.8286 33.875 22.5714C33.875 24.3143 33.2034 25.9857 32.0078 27.2181C30.8123 28.4505 29.1908 29.1429 27.5 29.1429ZM27.5 26.9524C28.6272 26.9524 29.7082 26.4908 30.5052 25.6692C31.3022 24.8476 31.75 23.7333 31.75 22.5714C31.75 21.4095 31.3022 20.2952 30.5052 19.4736C29.7082 18.652 28.6272 18.1905 27.5 18.1905C26.3728 18.1905 25.2918 18.652 24.4948 19.4736C23.6978 20.2952 23.25 21.4095 23.25 22.5714C23.25 23.7333 23.6978 24.8476 24.4948 25.6692C25.2918 26.4908 26.3728 26.9524 27.5 26.9524Z" fill="#8950FC"/>
</svg>
