<svg width="220" height="120" viewBox="0 0 220 120" fill="none" xmlns="http://www.w3.org/2000/svg">
<path d="M26.8252 106.791L25.7363 103.622L24.5791 106.791H26.8252ZM25.2285 102.558H26.3271L28.9297 109.73H27.8652L27.1377 107.582H24.3008L23.5244 109.73H22.5283L25.2285 102.558ZM30.0088 104.779V104.105C30.6436 104.044 31.0863 103.941 31.3369 103.798C31.5876 103.651 31.7747 103.308 31.8984 102.768H32.5918V109.73H31.6543V104.779H30.0088Z" fill="#A1ACB8"/>
<path d="M46.3252 106.791L45.2363 103.622L44.0791 106.791H46.3252ZM44.7285 102.558H45.8271L48.4297 109.73H47.3652L46.6377 107.582H43.8008L43.0244 109.73H42.0283L44.7285 102.558ZM48.8643 109.73C48.8968 109.128 49.0205 108.604 49.2354 108.158C49.4535 107.712 49.8766 107.307 50.5049 106.942L51.4424 106.4C51.8623 106.156 52.1569 105.948 52.3262 105.775C52.5931 105.505 52.7266 105.196 52.7266 104.848C52.7266 104.441 52.6045 104.118 52.3604 103.881C52.1162 103.64 51.7907 103.52 51.3838 103.52C50.7816 103.52 50.3649 103.747 50.1338 104.203C50.0101 104.447 49.9417 104.786 49.9287 105.219H49.0352C49.0449 104.61 49.1572 104.114 49.3721 103.729C49.7529 103.052 50.4251 102.714 51.3887 102.714C52.1895 102.714 52.7738 102.93 53.1416 103.363C53.5127 103.796 53.6982 104.278 53.6982 104.809C53.6982 105.368 53.5013 105.847 53.1074 106.244C52.8796 106.475 52.471 106.755 51.8818 107.084L51.2129 107.455C50.8939 107.631 50.6432 107.799 50.4609 107.958C50.1354 108.241 49.9303 108.555 49.8457 108.9H53.6641V109.73H48.8643Z" fill="#A1ACB8"/>
<path d="M68.8252 106.791L67.7363 103.622L66.5791 106.791H68.8252ZM67.2285 102.558H68.3271L70.9297 109.73H69.8652L69.1377 107.582H66.3008L65.5244 109.73H64.5283L67.2285 102.558ZM73.6494 109.921C72.8226 109.921 72.222 109.695 71.8477 109.242C71.4766 108.786 71.291 108.233 71.291 107.582H72.209C72.248 108.035 72.3327 108.363 72.4629 108.568C72.6908 108.936 73.1025 109.12 73.6982 109.12C74.1605 109.12 74.5316 108.996 74.8115 108.749C75.0915 108.502 75.2314 108.183 75.2314 107.792C75.2314 107.31 75.0833 106.973 74.7871 106.781C74.4941 106.589 74.0856 106.493 73.5615 106.493C73.5029 106.493 73.4427 106.495 73.3809 106.498C73.3223 106.498 73.262 106.5 73.2002 106.503V105.727C73.2913 105.736 73.3678 105.743 73.4297 105.746C73.4915 105.749 73.5583 105.751 73.6299 105.751C73.9587 105.751 74.2288 105.699 74.4404 105.595C74.8115 105.412 74.9971 105.087 74.9971 104.618C74.9971 104.27 74.8734 104.001 74.626 103.812C74.3786 103.624 74.0905 103.529 73.7617 103.529C73.1758 103.529 72.7705 103.725 72.5459 104.115C72.4222 104.33 72.3522 104.636 72.3359 105.033H71.4668C71.4668 104.512 71.571 104.07 71.7793 103.705C72.1374 103.054 72.7673 102.729 73.6689 102.729C74.3818 102.729 74.9336 102.888 75.3242 103.207C75.7148 103.523 75.9102 103.982 75.9102 104.584C75.9102 105.014 75.7946 105.362 75.5635 105.629C75.4202 105.795 75.2347 105.925 75.0068 106.02C75.3747 106.12 75.6611 106.316 75.8662 106.605C76.0745 106.892 76.1787 107.243 76.1787 107.66C76.1787 108.327 75.959 108.871 75.5195 109.291C75.0801 109.711 74.4567 109.921 73.6494 109.921Z" fill="#A1ACB8"/>
<path d="M91.3252 106.791L90.2363 103.622L89.0791 106.791H91.3252ZM89.7285 102.558H90.8271L93.4297 109.73H92.3652L91.6377 107.582H88.8008L88.0244 109.73H87.0283L89.7285 102.558ZM96.8574 107.255V104.086L94.6162 107.255H96.8574ZM96.8721 109.73V108.021H93.8057V107.162L97.0088 102.719H97.751V107.255H98.7812V108.021H97.751V109.73H96.8721Z" fill="#A1ACB8"/>
<path d="M114.825 106.791L113.736 103.622L112.579 106.791H114.825ZM113.229 102.558H114.327L116.93 109.73H115.865L115.138 107.582H112.301L111.524 109.73H110.528L113.229 102.558ZM118.287 107.948C118.346 108.45 118.578 108.796 118.985 108.988C119.194 109.086 119.435 109.135 119.708 109.135C120.229 109.135 120.615 108.969 120.865 108.637C121.116 108.305 121.241 107.937 121.241 107.533C121.241 107.045 121.091 106.667 120.792 106.4C120.496 106.133 120.139 106 119.723 106C119.42 106 119.16 106.059 118.941 106.176C118.727 106.293 118.543 106.456 118.39 106.664L117.628 106.62L118.16 102.855H121.793V103.705H118.819L118.521 105.648C118.684 105.525 118.839 105.432 118.985 105.37C119.246 105.263 119.547 105.209 119.889 105.209C120.53 105.209 121.074 105.416 121.52 105.829C121.965 106.243 122.188 106.767 122.188 107.401C122.188 108.062 121.983 108.645 121.573 109.149C121.166 109.654 120.515 109.906 119.62 109.906C119.05 109.906 118.546 109.747 118.106 109.428C117.67 109.105 117.426 108.612 117.374 107.948H118.287Z" fill="#A1ACB8"/>
<path d="M138.325 106.791L137.236 103.622L136.079 106.791H138.325ZM136.729 102.558H137.827L140.43 109.73H139.365L138.638 107.582H135.801L135.024 109.73H134.028L136.729 102.558ZM143.477 102.709C144.258 102.709 144.801 102.912 145.107 103.319C145.417 103.723 145.571 104.14 145.571 104.569H144.702C144.65 104.293 144.567 104.076 144.453 103.92C144.242 103.627 143.921 103.48 143.491 103.48C143 103.48 142.609 103.708 142.319 104.164C142.03 104.617 141.868 105.266 141.836 106.112C142.038 105.816 142.292 105.595 142.598 105.448C142.878 105.318 143.19 105.253 143.535 105.253C144.121 105.253 144.632 105.44 145.068 105.814C145.505 106.189 145.723 106.747 145.723 107.489C145.723 108.124 145.516 108.687 145.103 109.179C144.689 109.667 144.1 109.911 143.335 109.911C142.681 109.911 142.116 109.664 141.641 109.169C141.165 108.671 140.928 107.834 140.928 106.659C140.928 105.79 141.034 105.053 141.245 104.447C141.652 103.288 142.396 102.709 143.477 102.709ZM143.413 109.13C143.875 109.13 144.22 108.975 144.448 108.666C144.679 108.354 144.795 107.986 144.795 107.562C144.795 107.204 144.692 106.864 144.487 106.542C144.282 106.216 143.91 106.054 143.369 106.054C142.992 106.054 142.66 106.179 142.373 106.43C142.09 106.68 141.948 107.058 141.948 107.562C141.948 108.005 142.077 108.378 142.334 108.681C142.594 108.98 142.954 109.13 143.413 109.13Z" fill="#A1ACB8"/>
<path d="M161.825 106.791L160.736 103.622L159.579 106.791H161.825ZM160.229 102.558H161.327L163.93 109.73H162.865L162.138 107.582H159.301L158.524 109.73H157.528L160.229 102.558ZM169.281 102.855V103.622C169.057 103.84 168.757 104.219 168.383 104.76C168.012 105.3 167.683 105.883 167.396 106.508C167.113 107.117 166.898 107.672 166.752 108.173C166.658 108.495 166.535 109.014 166.386 109.73H165.414C165.635 108.396 166.124 107.068 166.879 105.746C167.325 104.971 167.794 104.302 168.285 103.739H164.418V102.855H169.281Z" fill="#A1ACB8"/>
<path d="M185.325 106.791L184.236 103.622L183.079 106.791H185.325ZM183.729 102.558H184.827L187.43 109.73H186.365L185.638 107.582H182.801L182.024 109.73H181.028L183.729 102.558ZM190.271 105.668C190.659 105.668 190.962 105.561 191.18 105.346C191.398 105.128 191.507 104.869 191.507 104.569C191.507 104.309 191.403 104.07 191.194 103.852C190.986 103.633 190.669 103.524 190.242 103.524C189.819 103.524 189.513 103.633 189.324 103.852C189.135 104.07 189.041 104.325 189.041 104.618C189.041 104.947 189.163 105.204 189.407 105.39C189.651 105.575 189.939 105.668 190.271 105.668ZM190.325 109.13C190.732 109.13 191.069 109.021 191.336 108.803C191.606 108.581 191.741 108.253 191.741 107.816C191.741 107.364 191.603 107.021 191.326 106.786C191.049 106.552 190.695 106.435 190.262 106.435C189.842 106.435 189.498 106.555 189.231 106.796C188.968 107.034 188.836 107.364 188.836 107.787C188.836 108.152 188.956 108.467 189.197 108.734C189.441 108.998 189.817 109.13 190.325 109.13ZM189.075 106.005C188.831 105.901 188.641 105.779 188.504 105.639C188.247 105.378 188.118 105.04 188.118 104.623C188.118 104.102 188.307 103.655 188.685 103.28C189.062 102.906 189.598 102.719 190.291 102.719C190.962 102.719 191.487 102.896 191.868 103.251C192.249 103.603 192.439 104.014 192.439 104.486C192.439 104.923 192.329 105.276 192.107 105.546C191.984 105.699 191.792 105.849 191.531 105.995C191.821 106.129 192.049 106.282 192.215 106.454C192.524 106.78 192.679 107.203 192.679 107.724C192.679 108.339 192.472 108.861 192.059 109.291C191.645 109.717 191.061 109.931 190.306 109.931C189.625 109.931 189.049 109.747 188.577 109.379C188.108 109.008 187.874 108.471 187.874 107.768C187.874 107.354 187.975 106.998 188.177 106.698C188.379 106.396 188.678 106.164 189.075 106.005Z" fill="#A1ACB8"/>
<path d="M208.825 106.791L207.736 103.622L206.579 106.791H208.825ZM207.229 102.558H208.327L210.93 109.73H209.865L209.138 107.582H206.301L205.524 109.73H204.528L207.229 102.558ZM212.38 108.041C212.406 108.526 212.593 108.861 212.941 109.047C213.12 109.145 213.322 109.193 213.547 109.193C213.967 109.193 214.325 109.019 214.621 108.671C214.917 108.319 215.127 107.608 215.251 106.537C215.056 106.846 214.813 107.064 214.523 107.191C214.237 107.315 213.928 107.377 213.596 107.377C212.922 107.377 212.388 107.167 211.994 106.747C211.604 106.327 211.408 105.787 211.408 105.126C211.408 104.491 211.602 103.933 211.989 103.451C212.377 102.969 212.948 102.729 213.703 102.729C214.722 102.729 215.425 103.188 215.812 104.105C216.027 104.61 216.135 105.242 216.135 106C216.135 106.856 216.006 107.615 215.749 108.275C215.323 109.376 214.6 109.926 213.581 109.926C212.897 109.926 212.378 109.747 212.023 109.389C211.669 109.031 211.491 108.581 211.491 108.041H212.38ZM213.713 106.605C214.061 106.605 214.379 106.492 214.665 106.264C214.955 106.033 215.1 105.631 215.1 105.058C215.1 104.543 214.969 104.161 214.709 103.91C214.452 103.656 214.123 103.529 213.723 103.529C213.293 103.529 212.951 103.674 212.697 103.964C212.447 104.25 212.321 104.634 212.321 105.116C212.321 105.572 212.432 105.935 212.653 106.205C212.875 106.472 213.228 106.605 213.713 106.605Z" fill="#A1ACB8"/>
<path d="M22 88.7301V74.9523C30.225 74.9523 37.275 65.1111 45.5 65.1111C53.725 65.1111 60.775 76.9206 69 76.9206C77.225 76.9206 84.275 61.1746 92.5 61.1746C100.725 61.1746 107.775 71.0158 116 71.0158C124.225 71.0158 131.275 25.7461 139.5 25.7461C147.725 25.7461 154.775 80.8571 163 80.8571C171.225 80.8571 178.275 35.5873 186.5 35.5873C194.725 35.5873 201.775 55.2698 210 55.2698C210 55.2698 210 55.2698 210 88.7301H22Z" fill="url(#paint0_linear_867_3816)"/>
<path d="M22 74.9523C30.225 74.9523 37.275 65.1111 45.5 65.1111C53.725 65.1111 60.775 76.9206 69 76.9206C77.225 76.9206 84.275 61.1746 92.5 61.1746C100.725 61.1746 107.775 71.0158 116 71.0158C124.225 71.0158 131.275 25.7461 139.5 25.7461C147.725 25.7461 154.775 80.8571 163 80.8571C171.225 80.8571 178.275 35.5873 186.5 35.5873C194.725 35.5873 201.775 55.2698 210 55.2698" stroke="#AA83FC" stroke-width="2"/>
<defs>
<linearGradient id="paint0_linear_867_3816" x1="22" y1="25.7461" x2="22" y2="88.7301" gradientUnits="userSpaceOnUse">
<stop stop-color="#AA83FC" stop-opacity="0.64"/>
<stop offset="0.85" stop-color="#DAC9FF" stop-opacity="0.0625"/>
<stop offset="1" stop-color="#F2ECFF" stop-opacity="0.0625"/>
</linearGradient>
</defs>
</svg>
