<svg width="130" height="155" viewBox="0 0 130 155" fill="none" xmlns="http://www.w3.org/2000/svg">
<path d="M65.8779 21.001C81.7524 21.001 96.9989 27.2016 108.367 38.2811C119.736 49.3605 126.327 64.4424 126.736 80.3115L111.521 80.7034C111.215 68.8015 106.271 57.4902 97.745 49.1806C89.2187 40.871 77.7837 36.2205 65.8779 36.2205V21.001Z" fill="#3EBD95"/>
<path d="M126.736 80.3115C126.997 90.4633 124.715 100.519 120.097 109.564C115.479 118.608 108.672 126.353 100.295 132.095C91.9187 137.836 82.239 141.39 72.1377 142.434C62.0363 143.479 51.8342 141.979 42.4604 138.073L48.3149 124.024C55.3452 126.954 62.9968 128.079 70.5728 127.296C78.1488 126.512 85.4085 123.847 91.6909 119.541C97.9733 115.235 103.079 109.426 106.542 102.642C110.006 95.8592 111.718 88.3172 111.522 80.7034L126.736 80.3115Z" fill="#3EBD95" fill-opacity="0.7"/>
<path d="M42.4604 138.073C32.7598 134.03 24.2709 127.545 17.8198 119.249C11.3687 110.953 7.17505 101.128 5.64697 90.7306L20.7047 88.5176C21.8508 96.3157 24.996 103.684 29.8344 109.906C34.6727 116.129 41.0394 120.992 48.3148 124.024L42.4604 138.073Z" fill="#3EBD95" fill-opacity="0.4"/>
<path d="M5.64699 90.7309C4.37589 82.0819 4.9824 73.2607 7.42526 64.867C9.86812 56.4734 14.09 48.7043 19.8039 42.0883C25.5177 35.4722 32.5894 30.1642 40.5379 26.5255C48.4865 22.8867 57.1255 21.0025 65.8674 21.001L65.8701 36.2205C59.3137 36.2216 52.8344 37.6348 46.873 40.3639C40.9115 43.0929 35.6078 47.0739 31.3224 52.0359C27.037 56.998 23.8706 62.8248 22.0385 69.12C20.2063 75.4152 19.7514 82.0312 20.7048 88.5179L5.64699 90.7309Z" fill="#3EBD95" fill-opacity="0.2"/>
<path d="M58.6562 94.0234V95.3906H54.7891V105.5H53.2109V95.3906H49.3438V94.0234H58.6562ZM61.4375 104.594C62.3698 104.594 63.0078 104.242 63.3516 103.539C63.7005 102.831 63.875 102.044 63.875 101.18C63.875 100.398 63.75 99.763 63.5 99.2734C63.1042 98.5026 62.4219 98.1172 61.4531 98.1172C60.5938 98.1172 59.9688 98.4453 59.5781 99.1016C59.1875 99.7578 58.9922 100.549 58.9922 101.477C58.9922 102.367 59.1875 103.109 59.5781 103.703C59.9688 104.297 60.5885 104.594 61.4375 104.594ZM61.4922 96.8906C62.5703 96.8906 63.4818 97.25 64.2266 97.9688C64.9714 98.6875 65.3438 99.7448 65.3438 101.141C65.3438 102.49 65.0156 103.604 64.3594 104.484C63.7031 105.365 62.6849 105.805 61.3047 105.805C60.1536 105.805 59.2396 105.417 58.5625 104.641C57.8854 103.859 57.5469 102.812 57.5469 101.5C57.5469 100.094 57.9036 98.974 58.6172 98.1406C59.3307 97.3073 60.2891 96.8906 61.4922 96.8906ZM67.3047 94.7969H68.7266V97.1328H70.0625V98.2812H68.7266V103.742C68.7266 104.034 68.8255 104.229 69.0234 104.328C69.1328 104.385 69.3151 104.414 69.5703 104.414C69.638 104.414 69.7109 104.414 69.7891 104.414C69.8672 104.409 69.9583 104.401 70.0625 104.391V105.5C69.901 105.547 69.7318 105.581 69.5547 105.602C69.3828 105.622 69.1953 105.633 68.9922 105.633C68.3359 105.633 67.8906 105.466 67.6562 105.133C67.4219 104.794 67.3047 104.357 67.3047 103.82V98.2812H66.1719V97.1328H67.3047V94.7969ZM72.5547 103.273C72.5547 103.68 72.7031 104 73 104.234C73.2969 104.469 73.6484 104.586 74.0547 104.586C74.5495 104.586 75.0286 104.471 75.4922 104.242C76.2734 103.862 76.6641 103.24 76.6641 102.375V101.242C76.4922 101.352 76.2708 101.443 76 101.516C75.7292 101.589 75.4635 101.641 75.2031 101.672L74.3516 101.781C73.8411 101.849 73.4583 101.956 73.2031 102.102C72.7708 102.346 72.5547 102.737 72.5547 103.273ZM75.9609 100.43C76.2839 100.388 76.5 100.253 76.6094 100.023C76.6719 99.8984 76.7031 99.7188 76.7031 99.4844C76.7031 99.0052 76.5312 98.6589 76.1875 98.4453C75.849 98.2266 75.362 98.1172 74.7266 98.1172C73.9922 98.1172 73.4714 98.3151 73.1641 98.7109C72.9922 98.9297 72.8802 99.2552 72.8281 99.6875H71.5156C71.5417 98.6562 71.875 97.9401 72.5156 97.5391C73.1615 97.1328 73.9089 96.9297 74.7578 96.9297C75.7422 96.9297 76.5417 97.1172 77.1562 97.4922C77.7656 97.8672 78.0703 98.4505 78.0703 99.2422V104.062C78.0703 104.208 78.099 104.326 78.1562 104.414C78.2188 104.503 78.3464 104.547 78.5391 104.547C78.6016 104.547 78.6719 104.544 78.75 104.539C78.8281 104.529 78.9115 104.516 79 104.5V105.539C78.7812 105.602 78.6146 105.641 78.5 105.656C78.3854 105.672 78.2292 105.68 78.0312 105.68C77.5469 105.68 77.1953 105.508 76.9766 105.164C76.862 104.982 76.7812 104.724 76.7344 104.391C76.4479 104.766 76.0365 105.091 75.5 105.367C74.9635 105.643 74.3724 105.781 73.7266 105.781C72.9505 105.781 72.3151 105.547 71.8203 105.078C71.3307 104.604 71.0859 104.013 71.0859 103.305C71.0859 102.529 71.3281 101.927 71.8125 101.5C72.2969 101.073 72.9323 100.81 73.7188 100.711L75.9609 100.43ZM80.4219 94.0234H81.8281V105.5H80.4219V94.0234Z" fill="#3EBD95"/>
<path d="M46.6844 67.025V64.35H52.3344V82H49.3344V67.025H46.6844ZM55.7754 68.45C55.7754 67.5833 56.0087 66.7917 56.4754 66.075C56.9421 65.3583 57.6337 64.7833 58.5504 64.35C59.4837 63.9167 60.6004 63.7 61.9004 63.7C63.2004 63.7 64.3087 63.9167 65.2254 64.35C66.1587 64.7833 66.8587 65.3583 67.3254 66.075C67.8087 66.7917 68.0504 67.5833 68.0504 68.45C68.0504 69.4167 67.7921 70.25 67.2754 70.95C66.7754 71.65 66.0254 72.1583 65.0254 72.475C66.1421 72.825 67.0004 73.3917 67.6004 74.175C68.2004 74.9417 68.5004 75.8833 68.5004 77C68.5004 78.7167 67.8921 80.0583 66.6754 81.025C65.4587 81.975 63.8671 82.45 61.9004 82.45C59.9337 82.45 58.3421 81.975 57.1254 81.025C55.9254 80.0583 55.3254 78.7167 55.3254 77C55.3254 75.8833 55.6254 74.9417 56.2254 74.175C56.8254 73.3917 57.6837 72.825 58.8004 72.475C57.8004 72.1583 57.0421 71.65 56.5254 70.95C56.0254 70.25 55.7754 69.4167 55.7754 68.45ZM58.6004 68.9C58.6004 69.8 58.8921 70.5 59.4754 71C60.0754 71.4833 60.8837 71.725 61.9004 71.725C62.9171 71.725 63.7254 71.4833 64.3254 71C64.9254 70.5 65.2254 69.8 65.2254 68.9C65.2254 68 64.9171 67.3 64.3004 66.8C63.7004 66.3 62.9004 66.05 61.9004 66.05C60.9004 66.05 60.1004 66.3 59.5004 66.8C58.9004 67.3 58.6004 68 58.6004 68.9ZM58.1004 76.85C58.1004 77.8667 58.4421 78.6667 59.1254 79.25C59.8087 79.8167 60.7337 80.1 61.9004 80.1C63.0671 80.1 63.9921 79.8167 64.6754 79.25C65.3587 78.6667 65.7004 77.8667 65.7004 76.85C65.7004 75.8167 65.3421 75.0417 64.6254 74.525C63.9254 73.9917 63.0171 73.725 61.9004 73.725C60.8004 73.725 59.8921 73.9917 59.1754 74.525C58.4587 75.0583 58.1004 75.8333 58.1004 76.85ZM77.2969 63.8C78.4635 63.8 79.4635 64.0083 80.2969 64.425C81.1302 64.825 81.7552 65.3833 82.1719 66.1C82.6052 66.8167 82.8219 67.6167 82.8219 68.5C82.8219 69.6167 82.5052 70.55 81.8719 71.3C81.2552 72.0333 80.3802 72.475 79.2469 72.625V72.75C80.4635 73.1 81.4135 73.625 82.0969 74.325C82.7969 75.0083 83.1469 75.9583 83.1469 77.175C83.1469 78.6583 82.6552 79.8667 81.6719 80.8C80.6885 81.7167 79.2802 82.175 77.4469 82.175C75.5635 82.175 74.0469 81.7 72.8969 80.75C71.7469 79.7833 71.0885 78.3583 70.9219 76.475H73.7469C73.8469 77.475 74.2052 78.275 74.8219 78.875C75.4385 79.4583 76.2719 79.75 77.3219 79.75C78.3052 79.75 79.0552 79.4917 79.5719 78.975C80.1052 78.4583 80.3719 77.7917 80.3719 76.975C80.3719 75.9917 79.9885 75.2417 79.2219 74.725C78.4719 74.2083 77.3802 73.95 75.9469 73.95H75.2719V71.6H75.9469C78.6635 71.6333 80.0219 70.7083 80.0219 68.825C80.0219 68.0083 79.7719 67.3667 79.2719 66.9C78.7719 66.4333 78.0885 66.2 77.2219 66.2C76.3552 66.2 75.6302 66.4667 75.0469 67C74.4635 67.5167 74.1135 68.275 73.9969 69.275H71.1969C71.3135 67.5417 71.8969 66.2 72.9469 65.25C73.9969 64.2833 75.4469 63.8 77.2969 63.8Z" fill="#566A7F"/>
</svg>
