<?xml version="1.0" encoding="utf-8"?>
<!-- Generator: Adobe Illustrator 25.4.1, SVG Export Plug-In . SVG Version: 6.00 Build 0)  -->
<svg version="1.1" id="Layer_1" xmlns="http://www.w3.org/2000/svg" xmlns:xlink="http://www.w3.org/1999/xlink" x="0px" y="0px"
	 viewBox="0 0 188.6 72.9" style="enable-background:new 0 0 188.6 72.9;" xml:space="preserve">
<style type="text/css">
	.st0{fill:#8592A3;}
	.st1{fill:#1BC5BD;}
	.st2{fill:#C9F7F5;}
	.st3{display:none;}
	.st4{display:inline;fill:url(#SVGID_1_);fill-opacity:0.9;}
	.st5{display:inline;fill:#8592A3;}
	.st6{display:inline;fill:#8950FC;fill-opacity:0.1;}
	.st7{display:inline;fill:#8950FC;fill-opacity:0.7;}
</style>
<g>
	<path class="st0" d="M19.1,69.5c0,0.5-0.1,0.9-0.2,1.1c-0.3,0.5-0.8,0.7-1.5,0.7c-0.4,0-0.8-0.1-1.1-0.3c-0.3-0.2-0.5-0.6-0.5-1.2
		v-0.4h0.7v0.4c0,0.3,0.1,0.5,0.2,0.7c0.1,0.2,0.4,0.2,0.7,0.2c0.4,0,0.7-0.1,0.8-0.4c0.1-0.2,0.1-0.5,0.1-1v-3.8h0.8V69.5z
		 M20.8,70.1c0,0.2,0.1,0.4,0.2,0.5c0.1,0.1,0.3,0.2,0.5,0.2c0.2,0,0.5-0.1,0.7-0.2c0.4-0.2,0.6-0.5,0.6-0.9v-0.6
		c-0.1,0.1-0.2,0.1-0.3,0.1c-0.1,0-0.3,0.1-0.4,0.1l-0.4,0.1c-0.3,0-0.4,0.1-0.6,0.2C20.9,69.6,20.8,69.8,20.8,70.1z M22.5,68.7
		c0.2,0,0.3-0.1,0.3-0.2c0-0.1,0-0.2,0-0.3c0-0.2-0.1-0.4-0.3-0.5c-0.2-0.1-0.4-0.2-0.7-0.2c-0.4,0-0.6,0.1-0.8,0.3
		c-0.1,0.1-0.1,0.3-0.2,0.5h-0.7c0-0.5,0.2-0.9,0.5-1.1c0.3-0.2,0.7-0.3,1.1-0.3c0.5,0,0.9,0.1,1.2,0.3c0.3,0.2,0.5,0.5,0.5,0.9v2.4
		c0,0.1,0,0.1,0,0.2c0,0,0.1,0.1,0.2,0.1c0,0,0.1,0,0.1,0c0,0,0.1,0,0.1,0v0.5c-0.1,0-0.2,0.1-0.2,0.1c-0.1,0-0.1,0-0.2,0
		c-0.2,0-0.4-0.1-0.5-0.3c-0.1-0.1-0.1-0.2-0.1-0.4c-0.1,0.2-0.3,0.4-0.6,0.5c-0.3,0.1-0.6,0.2-0.9,0.2c-0.4,0-0.7-0.1-1-0.4
		c-0.2-0.2-0.4-0.5-0.4-0.9c0-0.4,0.1-0.7,0.4-0.9c0.2-0.2,0.6-0.3,1-0.4L22.5,68.7z M24.7,67h0.7v0.6c0.2-0.2,0.4-0.4,0.6-0.5
		c0.2-0.1,0.5-0.2,0.7-0.2c0.6,0,1,0.2,1.2,0.6c0.1,0.2,0.2,0.6,0.2,1v2.7h-0.7v-2.6c0-0.3,0-0.5-0.1-0.6c-0.1-0.3-0.4-0.4-0.7-0.4
		c-0.2,0-0.3,0-0.4,0.1c-0.2,0.1-0.4,0.2-0.5,0.3c-0.1,0.1-0.2,0.3-0.2,0.4c0,0.1-0.1,0.4-0.1,0.6v2.2h-0.7V67z"/>
	<path class="st0" d="M67.9,68.8l-0.9-2.5l-0.9,2.5H67.9z M66.7,65.5h0.9l2.1,5.7h-0.9l-0.6-1.7h-2.3l-0.6,1.7h-0.8L66.7,65.5z
		 M72,70.7c0.3,0,0.6-0.1,0.8-0.4c0.2-0.3,0.3-0.7,0.3-1.2c0-0.3,0-0.6-0.1-0.9c-0.2-0.5-0.5-0.7-1-0.7c-0.5,0-0.8,0.2-1,0.7
		c-0.1,0.3-0.1,0.6-0.1,1c0,0.3,0,0.6,0.1,0.8C71.2,70.5,71.5,70.7,72,70.7z M70.2,67h0.7v0.6c0.1-0.2,0.3-0.3,0.5-0.4
		c0.2-0.2,0.5-0.2,0.8-0.2c0.5,0,0.9,0.2,1.2,0.5c0.3,0.4,0.5,0.9,0.5,1.6c0,0.9-0.2,1.6-0.7,2c-0.3,0.2-0.7,0.4-1.1,0.4
		c-0.3,0-0.6-0.1-0.8-0.2c-0.1-0.1-0.3-0.2-0.4-0.4v2.1h-0.7V67z M74.7,67h0.7v0.7c0.1-0.1,0.2-0.3,0.4-0.5c0.2-0.2,0.5-0.3,0.7-0.3
		c0,0,0,0,0.1,0c0,0,0.1,0,0.2,0v0.7c0,0-0.1,0-0.1,0c0,0-0.1,0-0.1,0c-0.4,0-0.6,0.1-0.8,0.3c-0.2,0.2-0.3,0.5-0.3,0.8v2.4h-0.7V67
		z"/>
	<path class="st0" d="M117.4,69.5c0,0.5-0.1,0.9-0.2,1.1c-0.3,0.5-0.8,0.7-1.5,0.7c-0.4,0-0.8-0.1-1.1-0.3c-0.3-0.2-0.5-0.6-0.5-1.2
		v-0.4h0.7v0.4c0,0.3,0.1,0.5,0.2,0.7c0.1,0.2,0.4,0.2,0.7,0.2c0.4,0,0.7-0.1,0.8-0.4c0.1-0.2,0.1-0.5,0.1-1v-3.8h0.8V69.5z
		 M119.2,67v2.8c0,0.2,0,0.4,0.1,0.5c0.1,0.2,0.4,0.4,0.7,0.4c0.5,0,0.8-0.2,1-0.7c0.1-0.2,0.1-0.6,0.1-1V67h0.7v4.2h-0.7l0-0.6
		c-0.1,0.2-0.2,0.3-0.3,0.4c-0.3,0.2-0.6,0.3-1,0.3c-0.6,0-1-0.2-1.2-0.6c-0.1-0.2-0.2-0.5-0.2-0.9V67H119.2z M122.9,65.5h0.7v5.7
		h-0.7V65.5z"/>
	<path class="st0" d="M164.4,65.3c1,0,1.8,0.3,2.2,1c0.4,0.5,0.6,1.2,0.6,1.9c0,0.9-0.2,1.6-0.7,2.1c-0.5,0.7-1.2,1-2.2,1
		c-0.9,0-1.6-0.3-2.1-0.9c-0.5-0.6-0.7-1.3-0.7-2.1c0-0.8,0.2-1.4,0.6-2C162.7,65.7,163.4,65.3,164.4,65.3z M164.4,70.7
		c0.7,0,1.2-0.2,1.5-0.7c0.3-0.5,0.5-1.1,0.5-1.7c0-0.7-0.2-1.2-0.5-1.6c-0.4-0.4-0.8-0.6-1.4-0.6c-0.6,0-1.1,0.2-1.5,0.6
		c-0.4,0.4-0.6,1-0.6,1.8c0,0.6,0.2,1.2,0.5,1.6C163.2,70.5,163.7,70.7,164.4,70.7z M169.6,66.9c0.5,0,0.9,0.1,1.1,0.3
		c0.3,0.2,0.5,0.6,0.5,1.2h-0.7c0-0.3-0.1-0.5-0.3-0.6c-0.1-0.2-0.4-0.3-0.7-0.3c-0.4,0-0.8,0.2-1,0.7c-0.1,0.3-0.2,0.6-0.2,1.1
		c0,0.4,0.1,0.8,0.3,1.1c0.2,0.3,0.5,0.4,0.8,0.4c0.3,0,0.5-0.1,0.7-0.3c0.2-0.2,0.3-0.4,0.4-0.7h0.7c-0.1,0.6-0.3,1-0.6,1.2
		c-0.3,0.3-0.7,0.4-1.2,0.4c-0.5,0-1-0.2-1.3-0.6c-0.3-0.4-0.5-0.9-0.5-1.5c0-0.7,0.2-1.3,0.5-1.7C168.6,67.1,169.1,66.9,169.6,66.9
		z M172.2,65.8h0.7V67h0.7v0.6h-0.7v2.7c0,0.1,0.1,0.2,0.1,0.3c0.1,0,0.1,0,0.3,0c0,0,0.1,0,0.1,0c0,0,0.1,0,0.1,0v0.6
		c-0.1,0-0.2,0-0.3,0.1c-0.1,0-0.2,0-0.3,0c-0.3,0-0.5-0.1-0.7-0.2c-0.1-0.2-0.2-0.4-0.2-0.7v-2.8h-0.6V67h0.6V65.8z"/>
	<path class="st1" d="M9.4,52.7V17.9c0-1.8,1.2-2.6,3.6-2.6h2.4c2.4,0,3.6,0.9,3.6,2.6v34.9c0,1.8-1.2,2.6-3.6,2.6h-2.4
		C10.7,55.4,9.4,54.5,9.4,52.7z"/>
	<path class="st2" d="M25.2,52.7V23.4c0-1.8,1.2-2.6,3.6-2.6h2.4c2.4,0,3.6,0.9,3.6,2.6v29.3c0,1.8-1.2,2.6-3.6,2.6h-2.4
		C26.4,55.4,25.2,54.5,25.2,52.7z"/>
	<path class="st1" d="M57.9,52.7V38.7c0-1.8,1.2-2.6,3.6-2.6h2.4c2.4,0,3.6,0.9,3.6,2.6v14.1c0,1.8-1.2,2.6-3.6,2.6h-2.4
		C59.1,55.4,57.9,54.5,57.9,52.7z"/>
	<path class="st2" d="M73.6,52.7v-9.9c0-1.8,1.2-2.6,3.6-2.6h2.4c2.4,0,3.6,0.9,3.6,2.6v9.9c0,1.8-1.2,2.6-3.6,2.6h-2.4
		C74.9,55.4,73.6,54.5,73.6,52.7z"/>
	<path class="st1" d="M106.3,52.7V23.4c0-1.8,1.2-2.6,3.6-2.6h2.4c2.4,0,3.6,0.9,3.6,2.6v29.3c0,1.8-1.2,2.6-3.6,2.6H110
		C107.6,55.4,106.3,54.5,106.3,52.7z"/>
	<path class="st2" d="M122.1,52.7V13c0-1.8,1.2-2.6,3.6-2.6h2.4c2.4,0,3.6,0.9,3.6,2.6v39.7c0,1.8-1.2,2.6-3.6,2.6h-2.4
		C123.3,55.4,122.1,54.5,122.1,52.7z"/>
	<path class="st1" d="M154.8,52.7V2.6c0-1.8,1.2-2.6,3.6-2.6h2.4c2.4,0,3.6,0.9,3.6,2.6v50.1c0,1.8-1.2,2.6-3.6,2.6h-2.4
		C156,55.4,154.8,54.5,154.8,52.7z"/>
	<path class="st2" d="M170.5,52.7V8.2c0-1.8,1.2-2.6,3.6-2.6h2.4c2.4,0,3.6,0.9,3.6,2.6v44.6c0,1.8-1.2,2.6-3.6,2.6h-2.4
		C171.7,55.4,170.5,54.5,170.5,52.7z"/>
</g>
<g class="st3">
	
		<linearGradient id="SVGID_1_" gradientUnits="userSpaceOnUse" x1="121.5732" y1="72.7008" x2="121.5732" y2="26.1228" gradientTransform="matrix(1 0 0 -1 0 82.1856)">
		<stop  offset="0" style="stop-color:#D8E3F0;stop-opacity:0.16"/>
		<stop  offset="1" style="stop-color:#BED1E6;stop-opacity:0.25"/>
	</linearGradient>
	<path class="st4" d="M132,9.5h-20.8v46.6H132V9.5z"/>
	<path class="st5" d="M8.4,67.1h1.1l1.6,4.9l1.6-4.9h1.1v5.7h-0.7v-3.4c0-0.1,0-0.3,0-0.6c0-0.3,0-0.6,0-0.9l-1.6,4.8h-0.8L9.1,68
		v0.2c0,0.1,0,0.4,0,0.6c0,0.3,0,0.5,0,0.6v3.4H8.4V67.1z"/>
	<path class="st5" d="M41.3,66.1v0.7h-1.9v5.1h-0.8v-5.1h-1.9v-0.7H41.3z"/>
	<path class="st5" d="M63.4,66.1l1.1,4.7l1.3-4.7h0.8l1.3,4.7l1.1-4.7h0.9l-1.5,5.7h-0.8l-1.3-4.8l-1.3,4.8h-0.8l-1.5-5.7H63.4z"/>
	<path class="st5" d="M97,66.1v0.7h-1.9v5.1h-0.8v-5.1h-1.9v-0.7H97z"/>
	<path class="st5" d="M119.6,66.1h4v0.7h-3.2v1.7h2.8v0.7h-2.8v2.6h-0.8V66.1z"/>
	<path class="st5" d="M148.2,70c0,0.3,0.1,0.6,0.2,0.8c0.3,0.4,0.7,0.6,1.4,0.6c0.3,0,0.6,0,0.8-0.1c0.5-0.2,0.7-0.5,0.7-0.9
		c0-0.3-0.1-0.5-0.3-0.7c-0.2-0.1-0.5-0.2-0.9-0.3l-0.8-0.2c-0.5-0.1-0.9-0.2-1.1-0.4c-0.4-0.2-0.5-0.6-0.5-1.1
		c0-0.5,0.2-0.9,0.5-1.3c0.4-0.3,0.9-0.5,1.5-0.5c0.6,0,1.1,0.1,1.5,0.4c0.4,0.3,0.6,0.8,0.6,1.4h-0.7c0-0.3-0.1-0.5-0.2-0.7
		c-0.2-0.3-0.6-0.4-1.2-0.4c-0.5,0-0.8,0.1-1,0.3c-0.2,0.2-0.3,0.4-0.3,0.7c0,0.3,0.1,0.5,0.4,0.6c0.2,0.1,0.5,0.2,1,0.3l0.8,0.2
		c0.4,0.1,0.7,0.2,0.9,0.4c0.4,0.3,0.5,0.7,0.5,1.2c0,0.6-0.2,1.1-0.7,1.4c-0.5,0.3-1,0.4-1.6,0.4c-0.7,0-1.3-0.2-1.7-0.5
		c-0.4-0.4-0.6-0.9-0.6-1.5H148.2z"/>
	<path class="st5" d="M176.1,70c0,0.3,0.1,0.6,0.2,0.8c0.3,0.4,0.7,0.6,1.4,0.6c0.3,0,0.6,0,0.8-0.1c0.5-0.2,0.7-0.5,0.7-0.9
		c0-0.3-0.1-0.5-0.3-0.7c-0.2-0.1-0.5-0.2-0.9-0.3l-0.8-0.2c-0.5-0.1-0.9-0.2-1.1-0.4c-0.4-0.2-0.5-0.6-0.5-1.1
		c0-0.5,0.2-0.9,0.5-1.3c0.4-0.3,0.9-0.5,1.5-0.5c0.6,0,1.1,0.1,1.5,0.4c0.4,0.3,0.6,0.8,0.6,1.4H179c0-0.3-0.1-0.5-0.2-0.7
		c-0.2-0.3-0.6-0.4-1.2-0.4c-0.5,0-0.8,0.1-1,0.3c-0.2,0.2-0.3,0.4-0.3,0.7c0,0.3,0.1,0.5,0.4,0.6c0.2,0.1,0.5,0.2,1,0.3l0.8,0.2
		c0.4,0.1,0.7,0.2,0.9,0.4c0.4,0.3,0.5,0.7,0.5,1.2c0,0.6-0.2,1.1-0.7,1.4c-0.5,0.3-1,0.4-1.6,0.4c-0.7,0-1.3-0.2-1.7-0.5
		c-0.4-0.4-0.6-0.9-0.6-1.5H176.1z"/>
	<path class="st6" d="M0.8,53.6V37.8c0-1.6,0.8-2.4,2.4-2.4h15.9c1.6,0,2.4,0.8,2.4,2.4v15.9c0,1.6-0.8,2.4-2.4,2.4H3.2
		C1.6,56.1,0.8,55.3,0.8,53.6z"/>
	<path class="st6" d="M28.7,53.6V9.3c0-1.6,0.8-2.4,2.4-2.4H47c1.6,0,2.4,0.8,2.4,2.4v44.3c0,1.6-0.8,2.4-2.4,2.4H31.1
		C29.5,56.1,28.7,55.3,28.7,53.6z"/>
	<path class="st6" d="M56.5,53.6V27.4c0-1.6,0.8-2.4,2.4-2.4h15.9c1.6,0,2.4,0.8,2.4,2.4v26.2c0,1.6-0.8,2.4-2.4,2.4H58.9
		C57.3,56.1,56.5,55.3,56.5,53.6z"/>
	<path class="st6" d="M83.2,53.6V35.2c0-1.6,0.8-2.4,2.4-2.4h15.9c1.6,0,2.4,0.8,2.4,2.4v18.4c0,1.6-0.8,2.4-2.4,2.4H85.6
		C84,56.1,83.2,55.3,83.2,53.6z"/>
	<path class="st7" d="M111,53.6V11.9c0-1.6,0.8-2.4,2.4-2.4h15.9c1.6,0,2.4,0.8,2.4,2.4v41.7c0,1.6-0.8,2.4-2.4,2.4h-15.9
		C111.8,56.1,111,55.3,111,53.6z"/>
	<path class="st6" d="M138.9,53.6v-21c0-1.6,0.8-2.4,2.4-2.4h15.9c1.6,0,2.4,0.8,2.4,2.4v21c0,1.6-0.8,2.4-2.4,2.4h-15.9
		C139.7,56.1,138.9,55.3,138.9,53.6z"/>
	<path class="st6" d="M166.7,53.6v-34c0-1.6,0.8-2.4,2.4-2.4h15.9c1.6,0,2.4,0.8,2.4,2.4v34c0,1.6-0.8,2.4-2.4,2.4h-15.9
		C167.5,56.1,166.7,55.3,166.7,53.6z"/>
</g>
</svg>
