<?xml version="1.0" encoding="utf-8"?>
<!-- Generator: Adobe Illustrator 25.4.1, SVG Export Plug-In . SVG Version: 6.00 Build 0)  -->
<svg version="1.1" id="Layer_1" xmlns="http://www.w3.org/2000/svg" xmlns:xlink="http://www.w3.org/1999/xlink" x="0px" y="0px"
	 viewBox="0 0 188.6 72.9" style="enable-background:new 0 0 188.6 72.9;" xml:space="preserve">
<style type="text/css">
	.st0{fill:url(#SVGID_1_);fill-opacity:0.9;}
	.st1{fill:#8592A3;}
	.st2{fill:#8950FC;fill-opacity:0.1;}
	.st3{fill:#8950FC;fill-opacity:0.7;}
</style>
<linearGradient id="SVGID_1_" gradientUnits="userSpaceOnUse" x1="121.5732" y1="72.7008" x2="121.5732" y2="26.1228" gradientTransform="matrix(1 0 0 -1 0 82.1856)">
	<stop  offset="0" style="stop-color:#D8E3F0;stop-opacity:0.16"/>
	<stop  offset="1" style="stop-color:#BED1E6;stop-opacity:0.25"/>
</linearGradient>
<path class="st0" d="M132,9.5h-20.8v46.6H132V9.5z"/>
<path class="st1" d="M8.4,67.1h1.1l1.6,4.9l1.6-4.9h1.1v5.7h-0.7v-3.4c0-0.1,0-0.3,0-0.6c0-0.3,0-0.6,0-0.9l-1.6,4.8h-0.8L9.1,68
	v0.2c0,0.1,0,0.4,0,0.6c0,0.3,0,0.5,0,0.6v3.4H8.4V67.1z"/>
<path class="st1" d="M41.3,66.1v0.7h-1.9v5.1h-0.8v-5.1h-1.9v-0.7H41.3z"/>
<path class="st1" d="M63.4,66.1l1.1,4.7l1.3-4.7h0.8l1.3,4.7l1.1-4.7h0.9l-1.5,5.7h-0.8l-1.3-4.8l-1.3,4.8h-0.8l-1.5-5.7H63.4z"/>
<path class="st1" d="M97,66.1v0.7h-1.9v5.1h-0.8v-5.1h-1.9v-0.7H97z"/>
<path class="st1" d="M119.6,66.1h4v0.7h-3.2v1.7h2.8v0.7h-2.8v2.6h-0.8V66.1z"/>
<path class="st1" d="M148.2,70c0,0.3,0.1,0.6,0.2,0.8c0.3,0.4,0.7,0.6,1.4,0.6c0.3,0,0.6,0,0.8-0.1c0.5-0.2,0.7-0.5,0.7-0.9
	c0-0.3-0.1-0.5-0.3-0.7c-0.2-0.1-0.5-0.2-0.9-0.3l-0.8-0.2c-0.5-0.1-0.9-0.2-1.1-0.4c-0.4-0.2-0.5-0.6-0.5-1.1
	c0-0.5,0.2-0.9,0.5-1.3c0.4-0.3,0.9-0.5,1.5-0.5c0.6,0,1.1,0.1,1.5,0.4c0.4,0.3,0.6,0.8,0.6,1.4h-0.7c0-0.3-0.1-0.5-0.2-0.7
	c-0.2-0.3-0.6-0.4-1.2-0.4c-0.5,0-0.8,0.1-1,0.3c-0.2,0.2-0.3,0.4-0.3,0.7c0,0.3,0.1,0.5,0.4,0.6c0.2,0.1,0.5,0.2,1,0.3l0.8,0.2
	c0.4,0.1,0.7,0.2,0.9,0.4c0.4,0.3,0.5,0.7,0.5,1.2c0,0.6-0.2,1.1-0.7,1.4c-0.5,0.3-1,0.4-1.6,0.4c-0.7,0-1.3-0.2-1.7-0.5
	c-0.4-0.4-0.6-0.9-0.6-1.5H148.2z"/>
<path class="st1" d="M176.1,70c0,0.3,0.1,0.6,0.2,0.8c0.3,0.4,0.7,0.6,1.4,0.6c0.3,0,0.6,0,0.8-0.1c0.5-0.2,0.7-0.5,0.7-0.9
	c0-0.3-0.1-0.5-0.3-0.7c-0.2-0.1-0.5-0.2-0.9-0.3l-0.8-0.2c-0.5-0.1-0.9-0.2-1.1-0.4c-0.4-0.2-0.5-0.6-0.5-1.1
	c0-0.5,0.2-0.9,0.5-1.3c0.4-0.3,0.9-0.5,1.5-0.5c0.6,0,1.1,0.1,1.5,0.4c0.4,0.3,0.6,0.8,0.6,1.4H179c0-0.3-0.1-0.5-0.2-0.7
	c-0.2-0.3-0.6-0.4-1.2-0.4c-0.5,0-0.8,0.1-1,0.3c-0.2,0.2-0.3,0.4-0.3,0.7c0,0.3,0.1,0.5,0.4,0.6c0.2,0.1,0.5,0.2,1,0.3l0.8,0.2
	c0.4,0.1,0.7,0.2,0.9,0.4c0.4,0.3,0.5,0.7,0.5,1.2c0,0.6-0.2,1.1-0.7,1.4c-0.5,0.3-1,0.4-1.6,0.4c-0.7,0-1.3-0.2-1.7-0.5
	c-0.4-0.4-0.6-0.9-0.6-1.5H176.1z"/>
<path class="st2" d="M0.8,53.6V37.8c0-1.6,0.8-2.4,2.4-2.4h15.9c1.6,0,2.4,0.8,2.4,2.4v15.9c0,1.6-0.8,2.4-2.4,2.4H3.2
	C1.6,56.1,0.8,55.3,0.8,53.6z"/>
<path class="st2" d="M28.7,53.6V9.3c0-1.6,0.8-2.4,2.4-2.4H47c1.6,0,2.4,0.8,2.4,2.4v44.3c0,1.6-0.8,2.4-2.4,2.4H31.1
	C29.5,56.1,28.7,55.3,28.7,53.6z"/>
<path class="st2" d="M56.5,53.6V27.4c0-1.6,0.8-2.4,2.4-2.4h15.9c1.6,0,2.4,0.8,2.4,2.4v26.2c0,1.6-0.8,2.4-2.4,2.4H58.9
	C57.3,56.1,56.5,55.3,56.5,53.6z"/>
<path class="st2" d="M83.2,53.6V35.2c0-1.6,0.8-2.4,2.4-2.4h15.9c1.6,0,2.4,0.8,2.4,2.4v18.4c0,1.6-0.8,2.4-2.4,2.4H85.6
	C84,56.1,83.2,55.3,83.2,53.6z"/>
<path class="st3" d="M111,53.6V11.9c0-1.6,0.8-2.4,2.4-2.4h15.9c1.6,0,2.4,0.8,2.4,2.4v41.7c0,1.6-0.8,2.4-2.4,2.4h-15.9
	C111.8,56.1,111,55.3,111,53.6z"/>
<path class="st2" d="M138.9,53.6v-21c0-1.6,0.8-2.4,2.4-2.4h15.9c1.6,0,2.4,0.8,2.4,2.4v21c0,1.6-0.8,2.4-2.4,2.4h-15.9
	C139.7,56.1,138.9,55.3,138.9,53.6z"/>
<path class="st2" d="M166.7,53.6v-34c0-1.6,0.8-2.4,2.4-2.4h15.9c1.6,0,2.4,0.8,2.4,2.4v34c0,1.6-0.8,2.4-2.4,2.4h-15.9
	C167.5,56.1,166.7,55.3,166.7,53.6z"/>
</svg>
