<?xml version="1.0" encoding="utf-8"?>
<!-- Generator: Adobe Illustrator 25.4.1, SVG Export Plug-In . SVG Version: 6.00 Build 0)  -->
<svg version="1.1" id="Layer_1" xmlns="http://www.w3.org/2000/svg" xmlns:xlink="http://www.w3.org/1999/xlink" x="0px" y="0px"
	 viewBox="0 0 188.6 72.9" style="enable-background:new 0 0 188.6 72.9;" xml:space="preserve">
<style type="text/css">
	.st0{display:none;}
	.st1{display:inline;fill:#8592A3;}
	.st2{display:inline;fill:#1BC5BD;}
	.st3{display:inline;fill:#C9F7F5;}
	.st4{display:inline;fill:url(#SVGID_1_);fill-opacity:0.9;}
	.st5{display:inline;fill:#8950FC;fill-opacity:0.1;}
	.st6{display:inline;fill:#8950FC;fill-opacity:0.7;}
	.st7{display:inline;}
	.st8{display:inline;clip-path:url(#SVGID_00000117640635950105156670000014540045323353127059_);}
	.st9{fill:url(#SVGID_00000116916227998056913430000005022306863492452021_);}
	.st10{fill:none;stroke:#3EBD95;stroke-width:2;}
	.st11{fill:#FFFFFF;stroke:#3EBD95;stroke-width:4;stroke-opacity:0.9;}
	.st12{display:inline;clip-path:url(#SVGID_00000182521708029043660580000000362164536647149754_);}
	.st13{fill:none;stroke:#F2F2F2;stroke-width:9.5028;stroke-linecap:round;stroke-opacity:0.85;}
	.st14{fill:none;stroke:#F64E60;stroke-width:9.7968;stroke-linecap:round;}
	.st15{fill:#566A7F;}
	.st16{clip-path:url(#SVGID_00000011032343391435716320000011949085885332550061_);}
	.st17{fill:url(#SVGID_00000134938466185872239410000013203037130101386382_);}
	.st18{fill:none;stroke:#FFA800;stroke-width:2;}
	.st19{fill:#FFFFFF;stroke:#FFA800;stroke-width:4;stroke-opacity:0.9;}
</style>
<g class="st0">
	<path class="st1" d="M19.1,69.5c0,0.5-0.1,0.9-0.2,1.1c-0.3,0.5-0.8,0.7-1.5,0.7c-0.4,0-0.8-0.1-1.1-0.3c-0.3-0.2-0.5-0.6-0.5-1.2
		v-0.4h0.7v0.4c0,0.3,0.1,0.5,0.2,0.7c0.1,0.2,0.4,0.2,0.7,0.2c0.4,0,0.7-0.1,0.8-0.4c0.1-0.2,0.1-0.5,0.1-1v-3.8h0.8V69.5z
		 M20.8,70.1c0,0.2,0.1,0.4,0.2,0.5c0.1,0.1,0.3,0.2,0.5,0.2c0.2,0,0.5-0.1,0.7-0.2c0.4-0.2,0.6-0.5,0.6-0.9v-0.6
		c-0.1,0.1-0.2,0.1-0.3,0.1c-0.1,0-0.3,0.1-0.4,0.1l-0.4,0.1c-0.3,0-0.4,0.1-0.6,0.2C20.9,69.6,20.8,69.8,20.8,70.1z M22.5,68.7
		c0.2,0,0.3-0.1,0.3-0.2c0-0.1,0-0.2,0-0.3c0-0.2-0.1-0.4-0.3-0.5c-0.2-0.1-0.4-0.2-0.7-0.2c-0.4,0-0.6,0.1-0.8,0.3
		c-0.1,0.1-0.1,0.3-0.2,0.5h-0.7c0-0.5,0.2-0.9,0.5-1.1c0.3-0.2,0.7-0.3,1.1-0.3c0.5,0,0.9,0.1,1.2,0.3c0.3,0.2,0.5,0.5,0.5,0.9v2.4
		c0,0.1,0,0.1,0,0.2c0,0,0.1,0.1,0.2,0.1c0,0,0.1,0,0.1,0c0,0,0.1,0,0.1,0v0.5c-0.1,0-0.2,0.1-0.2,0.1c-0.1,0-0.1,0-0.2,0
		c-0.2,0-0.4-0.1-0.5-0.3c-0.1-0.1-0.1-0.2-0.1-0.4c-0.1,0.2-0.3,0.4-0.6,0.5c-0.3,0.1-0.6,0.2-0.9,0.2c-0.4,0-0.7-0.1-1-0.4
		c-0.2-0.2-0.4-0.5-0.4-0.9c0-0.4,0.1-0.7,0.4-0.9c0.2-0.2,0.6-0.3,1-0.4L22.5,68.7z M24.7,67h0.7v0.6c0.2-0.2,0.4-0.4,0.6-0.5
		c0.2-0.1,0.5-0.2,0.7-0.2c0.6,0,1,0.2,1.2,0.6c0.1,0.2,0.2,0.6,0.2,1v2.7h-0.7v-2.6c0-0.3,0-0.5-0.1-0.6c-0.1-0.3-0.4-0.4-0.7-0.4
		c-0.2,0-0.3,0-0.4,0.1c-0.2,0.1-0.4,0.2-0.5,0.3c-0.1,0.1-0.2,0.3-0.2,0.4c0,0.1-0.1,0.4-0.1,0.6v2.2h-0.7V67z"/>
	<path class="st1" d="M67.9,68.8l-0.9-2.5l-0.9,2.5H67.9z M66.7,65.5h0.9l2.1,5.7h-0.9l-0.6-1.7h-2.3l-0.6,1.7h-0.8L66.7,65.5z
		 M72,70.7c0.3,0,0.6-0.1,0.8-0.4c0.2-0.3,0.3-0.7,0.3-1.2c0-0.3,0-0.6-0.1-0.9c-0.2-0.5-0.5-0.7-1-0.7c-0.5,0-0.8,0.2-1,0.7
		c-0.1,0.3-0.1,0.6-0.1,1c0,0.3,0,0.6,0.1,0.8C71.2,70.5,71.5,70.7,72,70.7z M70.2,67h0.7v0.6c0.1-0.2,0.3-0.3,0.5-0.4
		c0.2-0.2,0.5-0.2,0.8-0.2c0.5,0,0.9,0.2,1.2,0.5c0.3,0.4,0.5,0.9,0.5,1.6c0,0.9-0.2,1.6-0.7,2c-0.3,0.2-0.7,0.4-1.1,0.4
		c-0.3,0-0.6-0.1-0.8-0.2c-0.1-0.1-0.3-0.2-0.4-0.4v2.1h-0.7V67z M74.7,67h0.7v0.7c0.1-0.1,0.2-0.3,0.4-0.5c0.2-0.2,0.5-0.3,0.7-0.3
		c0,0,0,0,0.1,0c0,0,0.1,0,0.2,0v0.7c0,0-0.1,0-0.1,0c0,0-0.1,0-0.1,0c-0.4,0-0.6,0.1-0.8,0.3c-0.2,0.2-0.3,0.5-0.3,0.8v2.4h-0.7V67
		z"/>
	<path class="st1" d="M117.4,69.5c0,0.5-0.1,0.9-0.2,1.1c-0.3,0.5-0.8,0.7-1.5,0.7c-0.4,0-0.8-0.1-1.1-0.3c-0.3-0.2-0.5-0.6-0.5-1.2
		v-0.4h0.7v0.4c0,0.3,0.1,0.5,0.2,0.7c0.1,0.2,0.4,0.2,0.7,0.2c0.4,0,0.7-0.1,0.8-0.4c0.1-0.2,0.1-0.5,0.1-1v-3.8h0.8V69.5z
		 M119.2,67v2.8c0,0.2,0,0.4,0.1,0.5c0.1,0.2,0.4,0.4,0.7,0.4c0.5,0,0.8-0.2,1-0.7c0.1-0.2,0.1-0.6,0.1-1V67h0.7v4.2h-0.7l0-0.6
		c-0.1,0.2-0.2,0.3-0.3,0.4c-0.3,0.2-0.6,0.3-1,0.3c-0.6,0-1-0.2-1.2-0.6c-0.1-0.2-0.2-0.5-0.2-0.9V67H119.2z M122.9,65.5h0.7v5.7
		h-0.7V65.5z"/>
	<path class="st1" d="M164.4,65.3c1,0,1.8,0.3,2.2,1c0.4,0.5,0.6,1.2,0.6,1.9c0,0.9-0.2,1.6-0.7,2.1c-0.5,0.7-1.2,1-2.2,1
		c-0.9,0-1.6-0.3-2.1-0.9c-0.5-0.6-0.7-1.3-0.7-2.1c0-0.8,0.2-1.4,0.6-2C162.7,65.7,163.4,65.3,164.4,65.3z M164.4,70.7
		c0.7,0,1.2-0.2,1.5-0.7c0.3-0.5,0.5-1.1,0.5-1.7c0-0.7-0.2-1.2-0.5-1.6c-0.4-0.4-0.8-0.6-1.4-0.6c-0.6,0-1.1,0.2-1.5,0.6
		c-0.4,0.4-0.6,1-0.6,1.8c0,0.6,0.2,1.2,0.5,1.6C163.2,70.5,163.7,70.7,164.4,70.7z M169.6,66.9c0.5,0,0.9,0.1,1.1,0.3
		c0.3,0.2,0.5,0.6,0.5,1.2h-0.7c0-0.3-0.1-0.5-0.3-0.6c-0.1-0.2-0.4-0.3-0.7-0.3c-0.4,0-0.8,0.2-1,0.7c-0.1,0.3-0.2,0.6-0.2,1.1
		c0,0.4,0.1,0.8,0.3,1.1c0.2,0.3,0.5,0.4,0.8,0.4c0.3,0,0.5-0.1,0.7-0.3c0.2-0.2,0.3-0.4,0.4-0.7h0.7c-0.1,0.6-0.3,1-0.6,1.2
		c-0.3,0.3-0.7,0.4-1.2,0.4c-0.5,0-1-0.2-1.3-0.6c-0.3-0.4-0.5-0.9-0.5-1.5c0-0.7,0.2-1.3,0.5-1.7C168.6,67.1,169.1,66.9,169.6,66.9
		z M172.2,65.8h0.7V67h0.7v0.6h-0.7v2.7c0,0.1,0.1,0.2,0.1,0.3c0.1,0,0.1,0,0.3,0c0,0,0.1,0,0.1,0c0,0,0.1,0,0.1,0v0.6
		c-0.1,0-0.2,0-0.3,0.1c-0.1,0-0.2,0-0.3,0c-0.3,0-0.5-0.1-0.7-0.2c-0.1-0.2-0.2-0.4-0.2-0.7v-2.8h-0.6V67h0.6V65.8z"/>
	<path class="st2" d="M9.4,52.7V17.9c0-1.8,1.2-2.6,3.6-2.6h2.4c2.4,0,3.6,0.9,3.6,2.6v34.9c0,1.8-1.2,2.6-3.6,2.6h-2.4
		C10.7,55.4,9.4,54.5,9.4,52.7z"/>
	<path class="st3" d="M25.2,52.7V23.4c0-1.8,1.2-2.6,3.6-2.6h2.4c2.4,0,3.6,0.9,3.6,2.6v29.3c0,1.8-1.2,2.6-3.6,2.6h-2.4
		C26.4,55.4,25.2,54.5,25.2,52.7z"/>
	<path class="st2" d="M57.9,52.7V38.7c0-1.8,1.2-2.6,3.6-2.6h2.4c2.4,0,3.6,0.9,3.6,2.6v14.1c0,1.8-1.2,2.6-3.6,2.6h-2.4
		C59.1,55.4,57.9,54.5,57.9,52.7z"/>
	<path class="st3" d="M73.6,52.7v-9.9c0-1.8,1.2-2.6,3.6-2.6h2.4c2.4,0,3.6,0.9,3.6,2.6v9.9c0,1.8-1.2,2.6-3.6,2.6h-2.4
		C74.9,55.4,73.6,54.5,73.6,52.7z"/>
	<path class="st2" d="M106.3,52.7V23.4c0-1.8,1.2-2.6,3.6-2.6h2.4c2.4,0,3.6,0.9,3.6,2.6v29.3c0,1.8-1.2,2.6-3.6,2.6H110
		C107.6,55.4,106.3,54.5,106.3,52.7z"/>
	<path class="st3" d="M122.1,52.7V13c0-1.8,1.2-2.6,3.6-2.6h2.4c2.4,0,3.6,0.9,3.6,2.6v39.7c0,1.8-1.2,2.6-3.6,2.6h-2.4
		C123.3,55.4,122.1,54.5,122.1,52.7z"/>
	<path class="st2" d="M154.8,52.7V2.6c0-1.8,1.2-2.6,3.6-2.6h2.4c2.4,0,3.6,0.9,3.6,2.6v50.1c0,1.8-1.2,2.6-3.6,2.6h-2.4
		C156,55.4,154.8,54.5,154.8,52.7z"/>
	<path class="st3" d="M170.5,52.7V8.2c0-1.8,1.2-2.6,3.6-2.6h2.4c2.4,0,3.6,0.9,3.6,2.6v44.6c0,1.8-1.2,2.6-3.6,2.6h-2.4
		C171.7,55.4,170.5,54.5,170.5,52.7z"/>
</g>
<g class="st0">
	
		<linearGradient id="SVGID_1_" gradientUnits="userSpaceOnUse" x1="121.5732" y1="72.7008" x2="121.5732" y2="26.1228" gradientTransform="matrix(1 0 0 -1 0 82.1856)">
		<stop  offset="0" style="stop-color:#D8E3F0;stop-opacity:0.16"/>
		<stop  offset="1" style="stop-color:#BED1E6;stop-opacity:0.25"/>
	</linearGradient>
	<path class="st4" d="M132,9.5h-20.8v46.6H132V9.5z"/>
	<path class="st1" d="M8.4,67.1h1.1l1.6,4.9l1.6-4.9h1.1v5.7h-0.7v-3.4c0-0.1,0-0.3,0-0.6c0-0.3,0-0.6,0-0.9l-1.6,4.8h-0.8L9.1,68
		v0.2c0,0.1,0,0.4,0,0.6c0,0.3,0,0.5,0,0.6v3.4H8.4V67.1z"/>
	<path class="st1" d="M41.3,66.1v0.7h-1.9v5.1h-0.8v-5.1h-1.9v-0.7H41.3z"/>
	<path class="st1" d="M63.4,66.1l1.1,4.7l1.3-4.7h0.8l1.3,4.7l1.1-4.7h0.9l-1.5,5.7h-0.8l-1.3-4.8l-1.3,4.8h-0.8l-1.5-5.7H63.4z"/>
	<path class="st1" d="M97,66.1v0.7h-1.9v5.1h-0.8v-5.1h-1.9v-0.7H97z"/>
	<path class="st1" d="M119.6,66.1h4v0.7h-3.2v1.7h2.8v0.7h-2.8v2.6h-0.8V66.1z"/>
	<path class="st1" d="M148.2,70c0,0.3,0.1,0.6,0.2,0.8c0.3,0.4,0.7,0.6,1.4,0.6c0.3,0,0.6,0,0.8-0.1c0.5-0.2,0.7-0.5,0.7-0.9
		c0-0.3-0.1-0.5-0.3-0.7c-0.2-0.1-0.5-0.2-0.9-0.3l-0.8-0.2c-0.5-0.1-0.9-0.2-1.1-0.4c-0.4-0.2-0.5-0.6-0.5-1.1
		c0-0.5,0.2-0.9,0.5-1.3c0.4-0.3,0.9-0.5,1.5-0.5c0.6,0,1.1,0.1,1.5,0.4c0.4,0.3,0.6,0.8,0.6,1.4h-0.7c0-0.3-0.1-0.5-0.2-0.7
		c-0.2-0.3-0.6-0.4-1.2-0.4c-0.5,0-0.8,0.1-1,0.3c-0.2,0.2-0.3,0.4-0.3,0.7c0,0.3,0.1,0.5,0.4,0.6c0.2,0.1,0.5,0.2,1,0.3l0.8,0.2
		c0.4,0.1,0.7,0.2,0.9,0.4c0.4,0.3,0.5,0.7,0.5,1.2c0,0.6-0.2,1.1-0.7,1.4c-0.5,0.3-1,0.4-1.6,0.4c-0.7,0-1.3-0.2-1.7-0.5
		c-0.4-0.4-0.6-0.9-0.6-1.5H148.2z"/>
	<path class="st1" d="M176.1,70c0,0.3,0.1,0.6,0.2,0.8c0.3,0.4,0.7,0.6,1.4,0.6c0.3,0,0.6,0,0.8-0.1c0.5-0.2,0.7-0.5,0.7-0.9
		c0-0.3-0.1-0.5-0.3-0.7c-0.2-0.1-0.5-0.2-0.9-0.3l-0.8-0.2c-0.5-0.1-0.9-0.2-1.1-0.4c-0.4-0.2-0.5-0.6-0.5-1.1
		c0-0.5,0.2-0.9,0.5-1.3c0.4-0.3,0.9-0.5,1.5-0.5c0.6,0,1.1,0.1,1.5,0.4c0.4,0.3,0.6,0.8,0.6,1.4H179c0-0.3-0.1-0.5-0.2-0.7
		c-0.2-0.3-0.6-0.4-1.2-0.4c-0.5,0-0.8,0.1-1,0.3c-0.2,0.2-0.3,0.4-0.3,0.7c0,0.3,0.1,0.5,0.4,0.6c0.2,0.1,0.5,0.2,1,0.3l0.8,0.2
		c0.4,0.1,0.7,0.2,0.9,0.4c0.4,0.3,0.5,0.7,0.5,1.2c0,0.6-0.2,1.1-0.7,1.4c-0.5,0.3-1,0.4-1.6,0.4c-0.7,0-1.3-0.2-1.7-0.5
		c-0.4-0.4-0.6-0.9-0.6-1.5H176.1z"/>
	<path class="st5" d="M0.8,53.6V37.8c0-1.6,0.8-2.4,2.4-2.4h15.9c1.6,0,2.4,0.8,2.4,2.4v15.9c0,1.6-0.8,2.4-2.4,2.4H3.2
		C1.6,56.1,0.8,55.3,0.8,53.6z"/>
	<path class="st5" d="M28.7,53.6V9.3c0-1.6,0.8-2.4,2.4-2.4H47c1.6,0,2.4,0.8,2.4,2.4v44.3c0,1.6-0.8,2.4-2.4,2.4H31.1
		C29.5,56.1,28.7,55.3,28.7,53.6z"/>
	<path class="st5" d="M56.5,53.6V27.4c0-1.6,0.8-2.4,2.4-2.4h15.9c1.6,0,2.4,0.8,2.4,2.4v26.2c0,1.6-0.8,2.4-2.4,2.4H58.9
		C57.3,56.1,56.5,55.3,56.5,53.6z"/>
	<path class="st5" d="M83.2,53.6V35.2c0-1.6,0.8-2.4,2.4-2.4h15.9c1.6,0,2.4,0.8,2.4,2.4v18.4c0,1.6-0.8,2.4-2.4,2.4H85.6
		C84,56.1,83.2,55.3,83.2,53.6z"/>
	<path class="st6" d="M111,53.6V11.9c0-1.6,0.8-2.4,2.4-2.4h15.9c1.6,0,2.4,0.8,2.4,2.4v41.7c0,1.6-0.8,2.4-2.4,2.4h-15.9
		C111.8,56.1,111,55.3,111,53.6z"/>
	<path class="st5" d="M138.9,53.6v-21c0-1.6,0.8-2.4,2.4-2.4h15.9c1.6,0,2.4,0.8,2.4,2.4v21c0,1.6-0.8,2.4-2.4,2.4h-15.9
		C139.7,56.1,138.9,55.3,138.9,53.6z"/>
	<path class="st5" d="M166.7,53.6v-34c0-1.6,0.8-2.4,2.4-2.4h15.9c1.6,0,2.4,0.8,2.4,2.4v34c0,1.6-0.8,2.4-2.4,2.4h-15.9
		C167.5,56.1,166.7,55.3,166.7,53.6z"/>
</g>
<g class="st0">
	<defs>
		<rect id="SVGID_00000035518170442250182500000011472826537719920273_" width="188.6" height="72.9"/>
	</defs>
	<clipPath id="SVGID_00000132795096298387620210000002776663245994333077_" class="st7">
		<use xlink:href="#SVGID_00000035518170442250182500000011472826537719920273_"  style="overflow:visible;"/>
	</clipPath>
	<g style="display:inline;clip-path:url(#SVGID_00000132795096298387620210000002776663245994333077_);">
		
			<linearGradient id="SVGID_00000075129145820366745490000000476982832598063258_" gradientUnits="userSpaceOnUse" x1="97.5" y1="79.5664" x2="97.5" y2="9.318" gradientTransform="matrix(1 0 0 -1 0 82.1856)">
			<stop  offset="0" style="stop-color:#3EBD95;stop-opacity:0.29"/>
			<stop  offset="0.85" style="stop-color:#3EBD95;stop-opacity:6.250000e-02"/>
			<stop  offset="1" style="stop-color:#E2FFF6;stop-opacity:6.250000e-02"/>
		</linearGradient>
		<path style="fill:url(#SVGID_00000075129145820366745490000000476982832598063258_);" d="M0,72.9V48.8c11.4,0,21.1,2,32.5,2
			S53.6,10.6,65,10.6s21.1,54.2,32.5,54.2s21.1-26.1,32.5-26.1s21.1,6,32.5,6S183.6,2.6,195,2.6c0,0,0,0,0,70.2H0z"/>
		<path class="st10" d="M0,48.4c11.4,0,21.1,2,32.5,2S53.6,10.6,65,10.6s21.1,53.8,32.5,53.8s21.1-25.9,32.5-25.9s21.1,6,32.5,6
			S183.6,2.6,195,2.6"/>
		<path class="st11" d="M67.8,18.2c3.3,0,6-2.7,6-6s-2.7-6-6-6c-3.3,0-6,2.7-6,6S64.5,18.2,67.8,18.2z"/>
	</g>
</g>
<g class="st0">
	<defs>
		<rect id="SVGID_00000126315507346101145670000016725971383650334358_" y="0.2" width="188.6" height="72.5"/>
	</defs>
	<clipPath id="SVGID_00000083071415069303511650000009194388562343654318_" class="st7">
		<use xlink:href="#SVGID_00000126315507346101145670000016725971383650334358_"  style="overflow:visible;"/>
	</clipPath>
	<g style="display:inline;clip-path:url(#SVGID_00000083071415069303511650000009194388562343654318_);">
		<path class="st13" d="M24.5,71.9c0-17.6,7-34.5,19.4-46.9C56.3,12.5,73.2,5.5,90.8,5.5c17.6,0,34.4,7,46.8,19.4
			C150,37.4,157,54.3,157,71.9"/>
		<path class="st14" d="M24.5,71.9c0-13.6,4.2-26.9,12-38.1c7.8-11.2,18.8-19.6,31.6-24.3c12.8-4.7,26.7-5.3,39.8-1.7
			c13.1,3.5,24.9,11,33.6,21.4"/>
		<path class="st15" d="M83.6,57.7v1.2c-0.4,0.3-0.8,0.9-1.4,1.8c-0.6,0.9-1.1,1.8-1.6,2.8c-0.4,1-0.8,1.8-1,2.6
			c-0.1,0.5-0.3,1.3-0.6,2.5h-1.5c0.4-2.1,1.1-4.2,2.3-6.3c0.7-1.2,1.5-2.3,2.2-3.2h-6.1v-1.4H83.6z M88.5,62.2
			c0.6,0,1.1-0.2,1.4-0.5c0.3-0.3,0.5-0.8,0.5-1.2c0-0.4-0.2-0.8-0.5-1.1c-0.3-0.3-0.8-0.5-1.5-0.5c-0.7,0-1.2,0.2-1.5,0.5
			c-0.3,0.3-0.4,0.8-0.4,1.2c0,0.5,0.2,0.9,0.6,1.2C87.5,62,88,62.2,88.5,62.2z M88.6,67.7c0.6,0,1.2-0.2,1.6-0.5
			c0.4-0.4,0.6-0.9,0.6-1.6c0-0.7-0.2-1.3-0.7-1.6c-0.4-0.4-1-0.6-1.7-0.6c-0.7,0-1.2,0.2-1.6,0.6c-0.4,0.4-0.6,0.9-0.6,1.6
			c0,0.6,0.2,1.1,0.6,1.5C87.2,67.5,87.8,67.7,88.6,67.7z M86.6,62.7c-0.4-0.2-0.7-0.4-0.9-0.6c-0.4-0.4-0.6-1-0.6-1.6
			c0-0.8,0.3-1.5,0.9-2.1c0.6-0.6,1.4-0.9,2.5-0.9c1.1,0,1.9,0.3,2.5,0.8c0.6,0.6,0.9,1.2,0.9,2c0,0.7-0.2,1.3-0.5,1.7
			c-0.2,0.2-0.5,0.5-0.9,0.7c0.5,0.2,0.8,0.5,1.1,0.7c0.5,0.5,0.7,1.2,0.7,2c0,1-0.3,1.8-1,2.5c-0.7,0.7-1.6,1-2.8,1
			c-1.1,0-2-0.3-2.7-0.9c-0.7-0.6-1.1-1.4-1.1-2.6c0-0.7,0.2-1.2,0.5-1.7C85.5,63.3,86,63,86.6,62.7z M103.8,63.2
			c0.7,0,1.4,0.3,1.9,0.8c0.5,0.5,0.8,1.2,0.8,1.9c0,0.7-0.3,1.4-0.8,1.9c-0.5,0.5-1.2,0.8-1.9,0.8c-0.7,0-1.4-0.3-1.9-0.8
			c-0.5-0.5-0.8-1.2-0.8-1.9c0-0.7,0.3-1.4,0.8-1.9C102.4,63.5,103.1,63.2,103.8,63.2z M102.7,57.6h0.9l-6.2,11.3h-0.9L102.7,57.6z
			 M96.2,62.2c0.4,0,0.8-0.2,1.1-0.5c0.3-0.3,0.5-0.7,0.5-1.1c0-0.4-0.2-0.8-0.5-1.1C97,59.1,96.7,59,96.2,59
			c-0.4,0-0.8,0.2-1.1,0.5c-0.3,0.3-0.5,0.7-0.5,1.1c0,0.4,0.2,0.8,0.5,1.1C95.4,62,95.8,62.2,96.2,62.2z M96.2,57.9
			c0.7,0,1.4,0.3,1.9,0.8c0.5,0.5,0.8,1.2,0.8,1.9c0,0.7-0.3,1.4-0.8,1.9c-0.5,0.5-1.2,0.8-1.9,0.8c-0.7,0-1.4-0.3-1.9-0.8
			c-0.5-0.5-0.8-1.2-0.8-1.9c0-0.7,0.3-1.4,0.8-1.9C94.8,58.1,95.5,57.9,96.2,57.9z M103.8,67.5c0.4,0,0.8-0.2,1.1-0.5
			c0.3-0.3,0.5-0.7,0.5-1.1c0-0.4-0.2-0.8-0.5-1.1c-0.3-0.3-0.7-0.5-1.1-0.5c-0.4,0-0.8,0.2-1.1,0.5c-0.3,0.3-0.5,0.7-0.5,1.1
			c0,0.4,0.2,0.8,0.5,1.1C103,67.4,103.4,67.5,103.8,67.5z"/>
	</g>
</g>
<g>
	<defs>
		<rect id="SVGID_00000151533088129687639760000016795314744356618932_" width="188.6" height="72.7"/>
	</defs>
	<clipPath id="SVGID_00000179612522011771894540000006915711933239907729_">
		<use xlink:href="#SVGID_00000151533088129687639760000016795314744356618932_"  style="overflow:visible;"/>
	</clipPath>
	<g style="clip-path:url(#SVGID_00000179612522011771894540000006915711933239907729_);">
		
			<linearGradient id="SVGID_00000047777559253468687170000004192420281258709665_" gradientUnits="userSpaceOnUse" x1="94.3083" y1="77.7306" x2="94.3083" y2="9.4247" gradientTransform="matrix(1 0 0 -1 0 82.1856)">
			<stop  offset="0" style="stop-color:#FFA800;stop-opacity:0.64"/>
			<stop  offset="0.95" style="stop-color:#FFEECC;stop-opacity:6.250000e-02"/>
			<stop  offset="1" style="stop-color:#FFEECC;stop-opacity:6.250000e-02"/>
		</linearGradient>
		<path style="fill:url(#SVGID_00000047777559253468687170000004192420281258709665_);" d="M0,72.8V20.2h23.6l23.6,21h23.6l23.6,21
			h23.6l23.6-31.5H165l23.6-26.3v68.3H0z"/>
		<path class="st18" d="M0,20.2h23.6l23.6,21h23.6l23.6,21h23.6l23.6-31.4H165l23.6-26.2"/>
		<path class="st19" d="M183.7,13.3c2.7,0,4.9-2.2,4.9-4.9s-2.2-4.9-4.9-4.9s-4.9,2.2-4.9,4.9S181,13.3,183.7,13.3z"/>
	</g>
</g>
</svg>
