<svg width="200" height="120" viewBox="0 0 200 120" fill="none" xmlns="http://www.w3.org/2000/svg">
<path d="M30.5723 106.558H31.9639L34.0244 112.622L36.0703 106.558H37.4473V113.73H36.5244V109.497C36.5244 109.351 36.5277 109.108 36.5342 108.77C36.5407 108.431 36.5439 108.068 36.5439 107.681L34.498 113.73H33.5361L31.4756 107.681V107.9C31.4756 108.076 31.4788 108.345 31.4854 108.706C31.4951 109.064 31.5 109.328 31.5 109.497V113.73H30.5723V106.558Z" fill="#8592A3"/>
<path d="M61.4248 106.558V107.412H59.0078V113.73H58.0215V107.412H55.6045V106.558H61.4248Z" fill="#8592A3"/>
<path d="M78.0137 106.558L79.3662 112.393L80.9873 106.558H82.042L83.6631 112.393L85.0156 106.558H86.0801L84.1953 113.73H83.1748L81.5195 107.783L79.8545 113.73H78.834L76.959 106.558H78.0137Z" fill="#8592A3"/>
<path d="M109.425 106.558V107.412H107.008V113.73H106.021V107.412H103.604V106.558H109.425Z" fill="#8592A3"/>
<path d="M128.298 106.558H133.273V107.437H129.27V109.614H132.79V110.469H129.27V113.73H128.298V106.558Z" fill="#8592A3"/>
<path d="M152.062 111.416C152.084 111.823 152.18 112.153 152.35 112.407C152.672 112.882 153.24 113.12 154.054 113.12C154.418 113.12 154.75 113.068 155.05 112.964C155.629 112.762 155.919 112.401 155.919 111.88C155.919 111.489 155.797 111.211 155.553 111.045C155.305 110.882 154.918 110.741 154.391 110.62L153.419 110.4C152.784 110.257 152.335 110.099 152.071 109.927C151.616 109.627 151.388 109.18 151.388 108.584C151.388 107.939 151.611 107.41 152.057 106.997C152.503 106.584 153.134 106.377 153.951 106.377C154.703 106.377 155.341 106.559 155.865 106.924C156.393 107.285 156.656 107.865 156.656 108.662H155.743C155.694 108.278 155.59 107.983 155.431 107.778C155.134 107.404 154.632 107.217 153.922 107.217C153.349 107.217 152.937 107.337 152.687 107.578C152.436 107.819 152.311 108.099 152.311 108.418C152.311 108.77 152.457 109.027 152.75 109.189C152.942 109.294 153.377 109.424 154.054 109.58L155.06 109.81C155.545 109.92 155.919 110.072 156.183 110.264C156.638 110.599 156.866 111.086 156.866 111.724C156.866 112.518 156.576 113.086 155.997 113.428C155.421 113.77 154.75 113.94 153.985 113.94C153.093 113.94 152.395 113.713 151.891 113.257C151.386 112.804 151.139 112.191 151.148 111.416H152.062Z" fill="#8592A3"/>
<path d="M176.062 111.416C176.084 111.823 176.18 112.153 176.35 112.407C176.672 112.882 177.24 113.12 178.054 113.12C178.418 113.12 178.75 113.068 179.05 112.964C179.629 112.762 179.919 112.401 179.919 111.88C179.919 111.489 179.797 111.211 179.553 111.045C179.305 110.882 178.918 110.741 178.391 110.62L177.419 110.4C176.784 110.257 176.335 110.099 176.071 109.927C175.616 109.627 175.388 109.18 175.388 108.584C175.388 107.939 175.611 107.41 176.057 106.997C176.503 106.584 177.134 106.377 177.951 106.377C178.703 106.377 179.341 106.559 179.865 106.924C180.393 107.285 180.656 107.865 180.656 108.662H179.743C179.694 108.278 179.59 107.983 179.431 107.778C179.134 107.404 178.632 107.217 177.922 107.217C177.349 107.217 176.937 107.337 176.687 107.578C176.436 107.819 176.311 108.099 176.311 108.418C176.311 108.77 176.457 109.027 176.75 109.189C176.942 109.294 177.377 109.424 178.054 109.58L179.06 109.81C179.545 109.92 179.919 110.072 180.183 110.264C180.638 110.599 180.866 111.086 180.866 111.724C180.866 112.518 180.576 113.086 179.997 113.428C179.421 113.77 178.75 113.94 177.985 113.94C177.093 113.94 176.395 113.713 175.891 113.257C175.386 112.804 175.139 112.191 175.148 111.416H176.062Z" fill="#8592A3"/>
<path d="M29.2002 87.7307V62.6387C29.2002 59.3053 30.8669 57.6387 34.2002 57.6387H33.8002C37.1335 57.6387 38.8002 59.3053 38.8002 62.6387V87.7307C38.8002 91.064 37.1335 92.7307 33.8002 92.7307H34.2002C30.8669 92.7307 29.2002 91.064 29.2002 87.7307Z" fill="#3699FF" fill-opacity="0.2"/>
<path d="M53.2002 87.7302V14.3867C53.2002 11.0534 54.8669 9.38672 58.2002 9.38672H57.8002C61.1335 9.38672 62.8002 11.0534 62.8002 14.3867V87.7302C62.8002 91.0636 61.1335 92.7302 57.8002 92.7302H58.2002C54.8669 92.7302 53.2002 91.0636 53.2002 87.7302Z" fill="#3699FF" fill-opacity="0.2"/>
<path d="M77.2002 87.7298V45.0918C77.2002 41.7585 78.8669 40.0918 82.2002 40.0918H81.8002C85.1335 40.0918 86.8002 41.7585 86.8002 45.0918V87.7298C86.8002 91.0631 85.1335 92.7298 81.8002 92.7298H82.2002C78.8669 92.7298 77.2002 91.0631 77.2002 87.7298Z" fill="#3699FF" fill-opacity="0.2"/>
<path d="M101.2 87.7305V58.252C101.2 54.9186 102.867 53.252 106.2 53.252H105.8C109.134 53.252 110.8 54.9186 110.8 58.252V87.7305C110.8 91.0638 109.134 92.7305 105.8 92.7305H106.2C102.867 92.7305 101.2 91.0638 101.2 87.7305Z" fill="#3699FF" fill-opacity="0.2"/>
<path d="M125.2 87.7304V18.7734C125.2 15.4401 126.867 13.7734 130.2 13.7734H129.8C133.134 13.7734 134.8 15.4401 134.8 18.7734V87.7304C134.8 91.0638 133.134 92.7304 129.8 92.7304H130.2C126.867 92.7304 125.2 91.0638 125.2 87.7304Z" fill="#3699FF" fill-opacity="0.2"/>
<path d="M149.2 87.7302V53.8652C149.2 50.5319 150.867 48.8652 154.2 48.8652H153.8C157.134 48.8652 158.8 50.5319 158.8 53.8652V87.7302C158.8 91.0636 157.134 92.7302 153.8 92.7302H154.2C150.867 92.7302 149.2 91.0636 149.2 87.7302Z" fill="#3699FF"/>
<path d="M173.2 87.7301V31.9326C173.2 28.5993 174.867 26.9326 178.2 26.9326H177.8C181.134 26.9326 182.8 28.5993 182.8 31.9326V87.7301C182.8 91.0635 181.134 92.7301 177.8 92.7301H178.2C174.867 92.7301 173.2 91.0635 173.2 87.7301Z" fill="#3699FF" fill-opacity="0.2"/>
</svg>
