<svg width="56" height="55" viewBox="0 0 56 55" fill="none" xmlns="http://www.w3.org/2000/svg">
<ellipse cx="28" cy="27.5" rx="28" ry="27.5" fill="#E1F0FE" fill-opacity="0.5"/>
<ellipse cx="28" cy="27.5" rx="23" ry="22.5" fill="#E1F0FE"/>
<path d="M21 32.0688C21.2493 34.8074 23.5484 36.7509 27.0484 37.0023V39H28.8051V37.0023C32.6285 36.7082 35 34.6399 35 31.5809C35 28.9687 33.405 27.4573 30.0212 26.6063L28.8051 26.2991V20.0529C30.6949 20.2336 31.9699 21.2259 32.2916 22.7078H34.7676C34.488 20.0792 32.1737 18.1932 28.8051 17.9846V16H27.0484V18.0256C23.7825 18.4035 21.5407 20.4439 21.5407 23.2105C21.5407 25.5992 23.1677 27.2897 26.0226 28.0027L27.05 28.2689V34.8912C25.1148 34.6119 23.7825 33.5769 23.4608 32.0688H21ZM26.7115 25.7668C24.9548 25.3347 24.0166 24.4114 24.0166 23.1119C24.0166 21.5611 25.2024 20.416 27.0484 20.1088V25.8506L26.7115 25.7684V25.7668ZM29.3912 28.8422C31.559 29.3729 32.5106 30.2534 32.5106 31.7484C32.5106 33.5506 31.1193 34.7516 28.8051 34.9339V28.6993L29.3912 28.8406V28.8422Z" fill="#3599FC"/>
</svg>
