<svg width="56" height="56" viewBox="0 0 56 56" fill="none" xmlns="http://www.w3.org/2000/svg">
<circle cx="28" cy="28" r="28" fill="#FFE2E5"/>
<path d="M28 17C28.6566 17 29.3068 17.1293 29.9134 17.3806C30.52 17.6319 31.0712 18.0002 31.5355 18.4645C31.9998 18.9288 32.3681 19.48 32.6194 20.0866C32.8707 20.6932 33 21.3434 33 22V24H36C36.2652 24 36.5196 24.1054 36.7071 24.2929C36.8946 24.4804 37 24.7348 37 25V37C37 37.2652 36.8946 37.5196 36.7071 37.7071C36.5196 37.8946 36.2652 38 36 38H20C19.7348 38 19.4804 37.8946 19.2929 37.7071C19.1054 37.5196 19 37.2652 19 37V25C19 24.7348 19.1054 24.4804 19.2929 24.2929C19.4804 24.1054 19.7348 24 20 24H23V22C23 20.6739 23.5268 19.4021 24.4645 18.4645C25.4021 17.5268 26.6739 17 28 17ZM33 27H31V28C31.0003 28.2549 31.0979 28.5 31.2728 28.6854C31.4478 28.8707 31.687 28.9822 31.9414 28.9972C32.1958 29.0121 32.4464 28.9293 32.6418 28.7657C32.8373 28.6021 32.9629 28.3701 32.993 28.117L33 28V27ZM25 27H23V28C23.0003 28.2549 23.0979 28.5 23.2728 28.6854C23.4478 28.8707 23.687 28.9822 23.9414 28.9972C24.1958 29.0121 24.4464 28.9293 24.6418 28.7657C24.8373 28.6021 24.9629 28.3701 24.993 28.117L25 28V27ZM28 19C27.2348 19 26.4985 19.2923 25.9417 19.8173C25.385 20.3422 25.0499 21.0601 25.005 21.824L25 22V24H31V22C31 21.2348 30.7077 20.4985 30.1827 19.9417C29.6578 19.385 28.9399 19.0499 28.176 19.005L28 19Z" fill="#F64E60"/>
</svg>
