<svg width="56" height="56" viewBox="0 0 56 56" fill="none" xmlns="http://www.w3.org/2000/svg">
<circle cx="28" cy="28" r="28" fill="#FFF4DE" fill-opacity="0.5"/>
<circle cx="28" cy="28" r="23" fill="#FFF4DE"/>
<path d="M19.85 26.2222H19V20.8916C19 20.3991 19.3867 20 19.8432 20H35.1567C35.2683 19.9998 35.3788 20.0227 35.4819 20.0676C35.5849 20.1124 35.6783 20.1782 35.7568 20.2612C35.8353 20.3442 35.8972 20.4426 35.9389 20.5508C35.9807 20.6591 36.0014 20.7749 35.9999 20.8916V26.2222H35.1499V35.112C35.1503 35.2283 35.1287 35.3435 35.0865 35.451C35.0442 35.5586 34.9821 35.6563 34.9038 35.7388C34.8254 35.8213 34.7323 35.8868 34.6297 35.9316C34.5271 35.9764 34.4171 35.9997 34.3059 36H20.694C20.5829 35.9997 20.4728 35.9764 20.3703 35.9316C20.2677 35.8868 20.1745 35.8213 20.0962 35.7388C20.0178 35.6563 19.9557 35.5586 19.9135 35.451C19.8712 35.3435 19.8497 35.2283 19.85 35.112V26.2222ZM33.4499 26.2222H21.55V34.2222H33.4499V26.2222ZM20.7 21.7778V24.4444H34.2999V21.7778H20.7ZM24.95 28H30.05V29.7778H24.95V28Z" fill="#FFA81E"/>
</svg>
