<svg width="56" height="56" viewBox="0 0 56 56" fill="none" xmlns="http://www.w3.org/2000/svg">
<circle cx="28" cy="28" r="28" fill="#FFF4DE"/>
<path d="M34.9618 21.9142C35.1206 20.4967 34.8387 19.4895 34.0327 18.571C33.0665 17.4712 31.3248 17 29.0933 17H22.6188C22.3983 17.0001 22.1852 17.0788 22.0176 17.2219C21.8499 17.365 21.7388 17.5632 21.7042 17.7809L19.0069 34.8792C18.9943 34.9586 18.999 35.0398 19.0208 35.1172C19.0426 35.1946 19.0809 35.2664 19.1331 35.3275C19.1854 35.3887 19.2502 35.4378 19.3233 35.4714C19.3963 35.5051 19.4758 35.5225 19.5562 35.5225H23.2037L22.9364 37.2165C22.9177 37.3351 22.9248 37.4564 22.9575 37.572C22.9901 37.6876 23.0473 37.7947 23.1253 37.886C23.2033 37.9773 23.3002 38.0507 23.4092 38.101C23.5182 38.1513 23.6369 38.1773 23.757 38.1774H27.1266C27.6944 38.1774 28.1761 37.7671 28.2675 37.2099L28.3006 37.0379L28.9358 33.0104L28.9755 32.7934L28.9769 32.7841C28.994 32.6744 29.0498 32.5743 29.1343 32.5022C29.2188 32.4301 29.3264 32.3907 29.4375 32.391H29.9404C31.6159 32.391 33.1499 32.0522 34.3675 31.1866C34.8691 30.8293 35.3098 30.3886 35.6817 29.8565C36.2994 28.9967 36.699 27.9998 36.8464 26.9514C37.1667 25.3023 37.0185 23.8333 36.092 22.7771C35.8065 22.4584 35.4657 22.1939 35.0862 21.9962L34.9618 21.9155V21.9142ZM25.013 28.6733C25.1441 28.6048 25.2899 28.5689 25.4378 28.5688H27.3384C31.0707 28.5688 33.9916 27.0547 34.8453 22.6712L34.8493 22.65C35.1365 22.8142 35.3787 23.0074 35.5745 23.2297C36.2972 24.0543 36.4732 25.2613 36.1701 26.8164C35.8101 28.6654 35.024 29.8698 33.9691 30.6202C32.9077 31.3746 31.5312 31.6988 29.9417 31.6988H29.4388C29.164 31.6985 28.898 31.7961 28.6887 31.9741C28.4794 32.1522 28.3403 32.399 28.2966 32.6703L28.2569 32.8874L27.6216 36.9148L27.5898 37.0868L27.5885 37.0921C27.5709 37.2015 27.5148 37.3011 27.4304 37.3729C27.346 37.4447 27.2388 37.484 27.1279 37.4839H23.7583C23.7379 37.484 23.7178 37.4796 23.6993 37.4711C23.6808 37.4626 23.6643 37.4502 23.6511 37.4347C23.6379 37.4192 23.6282 37.401 23.6227 37.3814C23.6172 37.3618 23.6161 37.3412 23.6193 37.3211L23.8946 35.5741L25.013 28.6733Z" fill="#FFA800"/>
</svg>
