<svg width="56" height="56" viewBox="0 0 56 56" fill="none" xmlns="http://www.w3.org/2000/svg">
<circle cx="28" cy="28" r="28" fill="#E1F0FF"/>
<path d="M38 24.2222V27.5556C38 30.3167 33.5222 32.5556 28 32.5556C22.4778 32.5556 18 30.3167 18 27.5556V24.2222C18 26.9833 22.4778 29.2222 28 29.2222C33.5222 29.2222 38 26.9833 38 24.2222ZM18 29.7778C18 32.5389 22.4778 34.7778 28 34.7778C33.5222 34.7778 38 32.5389 38 29.7778V33.1111C38 35.8722 33.5222 38.1111 28 38.1111C22.4778 38.1111 18 35.8722 18 33.1111V29.7778ZM28 27C22.4778 27 18 24.7611 18 22C18 19.2389 22.4778 17 28 17C33.5222 17 38 19.2389 38 22C38 24.7611 33.5222 27 28 27Z" fill="#3699FF"/>
</svg>
