<svg width="65" height="65" viewBox="0 0 65 65" fill="none" xmlns="http://www.w3.org/2000/svg">
<rect width="65" height="65" rx="6" fill="#E1F0FE"/>
<path d="M31.9756 49.2744C23.0007 49.2744 15.7256 41.9993 15.7256 33.0244C15.7256 24.0495 23.0007 16.7744 31.9756 16.7744C40.9505 16.7744 48.2256 24.0495 48.2256 33.0244C48.2256 41.9993 40.9505 49.2744 31.9756 49.2744ZM31.9756 46.0244C35.4234 46.0244 38.73 44.6548 41.168 42.2168C43.6059 39.7788 44.9756 36.4722 44.9756 33.0244C44.9756 29.5766 43.6059 26.27 41.168 23.832C38.73 21.3941 35.4234 20.0244 31.9756 20.0244C28.5278 20.0244 25.2212 21.3941 22.7832 23.832C20.3452 26.27 18.9756 29.5766 18.9756 33.0244C18.9756 36.4722 20.3452 39.7788 22.7832 42.2168C25.2212 44.6548 28.5278 46.0244 31.9756 46.0244ZM33.6006 33.0244H40.1006V36.2744H30.3506V24.8994H33.6006V33.0244Z" fill="#3599FC"/>
</svg>
