<svg width="56" height="56" viewBox="0 0 56 56" fill="none" xmlns="http://www.w3.org/2000/svg">
<circle cx="28" cy="28" r="28" fill="#EEE5FE"/>
<path d="M39 26.3889V36.9444C39 37.2244 38.8841 37.4929 38.6778 37.6908C38.4715 37.8888 38.1917 38 37.9 38H18.1C17.8083 38 17.5285 37.8888 17.3222 37.6908C17.1159 37.4929 17 37.2244 17 36.9444V26.3889H39ZM39 24.2778H17V20.0556C17 19.7756 17.1159 19.5071 17.3222 19.3092C17.5285 19.1112 17.8083 19 18.1 19H37.9C38.1917 19 38.4715 19.1112 38.6778 19.3092C38.8841 19.5071 39 19.7756 39 20.0556V24.2778ZM31.3 32.7222V34.8333H35.7V32.7222H31.3Z" fill="#8950FC"/>
</svg>
