<svg width="56" height="56" viewBox="0 0 56 56" fill="none" xmlns="http://www.w3.org/2000/svg">
<rect width="56" height="56" rx="6" fill="#EEE5FE"/>
<path d="M37.8002 41.1254H35.3502V38.6754C35.3502 37.7007 34.963 36.766 34.2738 36.0768C33.5846 35.3876 32.6499 35.0004 31.6752 35.0004H24.3252C23.3505 35.0004 22.4158 35.3876 21.7266 36.0768C21.0374 36.766 20.6502 37.7007 20.6502 38.6754V41.1254H18.2002V38.6754C18.2002 37.0509 18.8455 35.493 19.9942 34.3444C21.1428 33.1957 22.7007 32.5504 24.3252 32.5504H31.6752C33.2996 32.5504 34.8576 33.1957 36.0062 34.3444C37.1549 35.493 37.8002 37.0509 37.8002 38.6754V41.1254ZM28.0002 30.1004C27.035 30.1004 26.0792 29.9103 25.1875 29.5409C24.2957 29.1715 23.4855 28.6301 22.803 27.9476C22.1204 27.2651 21.5791 26.4549 21.2097 25.5631C20.8403 24.6714 20.6502 23.7156 20.6502 22.7504C20.6502 21.7852 20.8403 20.8294 21.2097 19.9377C21.5791 19.0459 22.1204 18.2357 22.803 17.5532C23.4855 16.8706 24.2957 16.3292 25.1875 15.9599C26.0792 15.5905 27.035 15.4004 28.0002 15.4004C29.9495 15.4004 31.819 16.1748 33.1974 17.5532C34.5758 18.9315 35.3502 20.801 35.3502 22.7504C35.3502 24.6997 34.5758 26.5692 33.1974 27.9476C31.819 29.326 29.9495 30.1004 28.0002 30.1004ZM28.0002 27.6504C29.2998 27.6504 30.5461 27.1341 31.465 26.2152C32.3839 25.2963 32.9002 24.05 32.9002 22.7504C32.9002 21.4508 32.3839 20.2045 31.465 19.2856C30.5461 18.3666 29.2998 17.8504 28.0002 17.8504C26.7006 17.8504 25.4543 18.3666 24.5354 19.2856C23.6164 20.2045 23.1002 21.4508 23.1002 22.7504C23.1002 24.05 23.6164 25.2963 24.5354 26.2152C25.4543 27.1341 26.7006 27.6504 28.0002 27.6504Z" fill="#8950FC"/>
</svg>
