<?xml version="1.0" encoding="utf-8"?>
<!-- Generator: Adobe Illustrator 26.0.2, SVG Export Plug-In . SVG Version: 6.00 Build 0)  -->
<svg version="1.1" id="SvgjsSvg2332" transform="translate(0, 0)" xmlns:data="ApexChartsNS" xmlns:svgjs="http://svgjs.dev"
	 xmlns="http://www.w3.org/2000/svg" xmlns:xlink="http://www.w3.org/1999/xlink" x="0px" y="0px" viewBox="0 0 220 120"
	 style="enable-background:new 0 0 220 120;" xml:space="preserve">
<style type="text/css">
	.st0{fill:#A1ACB8;}
	.st1{font-family:'Helvetica';}
	.st2{font-size:10px;}
	.st3{display:none;}
	.st4{display:inline;fill:none;stroke:#E0E0E0;stroke-dasharray:0;}
	.st5{fill:none;}
	
		.st6{clip-path:url(#SVGID_00000011009291907742118860000008287954269492911009_);fill:url(#SvgjsPath2349_00000144299463995099269490000008887623517134030724_);}
	
		.st7{clip-path:url(#SVGID_00000093878085448977221390000001496467215774030748_);fill:none;stroke:#1BC5BD;stroke-width:2;stroke-dasharray:0;}
	.st8{fill:#71DD37;stroke:#FFFFFF;stroke-width:2;stroke-opacity:0.9;}
	.st9{fill:#FEFEFE;}
</style>
<g id="SvgjsG2334" transform="translate(22, 10)">
	<g id="SvgjsG2351" transform="translate(0, 0)">
		<g id="SvgjsG2352" transform="translate(0, -4)">
			<text transform="matrix(1 0 0 1 -7.9504 97.73)" class="st0 st1 st2">A1</text>
			<text transform="matrix(1 0 0 1 15.5496 97.73)" class="st0 st1 st2">A2</text>
			<text transform="matrix(1 0 0 1 39.0496 97.73)" class="st0 st1 st2">A3</text>
			<text transform="matrix(1 0 0 1 62.5496 97.73)" class="st0 st1 st2">A4</text>
			<text transform="matrix(1 0 0 1 86.0496 97.73)" class="st0 st1 st2">A5</text>
			<text transform="matrix(1 0 0 1 109.5496 97.73)" class="st0 st1 st2">A6</text>
			<text transform="matrix(1 0 0 1 133.0496 97.73)" class="st0 st1 st2">A7</text>
			<text transform="matrix(1 0 0 1 156.5496 97.73)" class="st0 st1 st2">A8</text>
			<text transform="matrix(1 0 0 1 180.0496 97.73)" class="st0 st1 st2">A9</text>
		</g>
	</g>
	<g id="SvgjsG2382">
		<g id="SvgjsG2383" class="st3">
			<line id="SvgjsLine2385" class="st4" x1="0" y1="0" x2="188" y2="0"/>
			<line id="SvgjsLine2386" class="st4" x1="0" y1="15.7" x2="188" y2="15.7"/>
			<line id="SvgjsLine2387" class="st4" x1="0" y1="31.5" x2="188" y2="31.5"/>
			<line id="SvgjsLine2388" class="st4" x1="0" y1="47.2" x2="188" y2="47.2"/>
			<line id="SvgjsLine2389" class="st4" x1="0" y1="63" x2="188" y2="63"/>
			<line id="SvgjsLine2390" class="st4" x1="0" y1="78.7" x2="188" y2="78.7"/>
		</g>
		<g id="SvgjsG2384" class="st3">
		</g>
		<line id="SvgjsLine2392" class="st5" x1="0" y1="78.7" x2="188" y2="78.7"/>
		<line id="SvgjsLine2391" class="st5" x1="0" y1="1" x2="0" y2="78.7"/>
	</g>
	<g id="SvgjsG2341">
		<g id="SvgjsG2342" data:longestSeries="true" data:realIndex="0">
			<g>
				<defs>
					<rect id="SVGID_1_" x="-3" y="-1" width="194" height="80.7"/>
				</defs>
				<clipPath id="SVGID_00000159447958616504413230000003567381422353850517_">
					<use xlink:href="#SVGID_1_"  style="overflow:visible;"/>
				</clipPath>
				
					<linearGradient id="SvgjsPath2349_00000106851969001971421760000014392470830928563355_" gradientUnits="userSpaceOnUse" x1="-299.016" y1="224.19" x2="-299.016" y2="223.19" gradientTransform="matrix(188 0 0 -62.984 56309 14136.1299)">
					<stop  offset="0" style="stop-color:#1BC5BD;stop-opacity:0.8"/>
					<stop  offset="0.85" style="stop-color:#FFFFFF;stop-opacity:0.25"/>
					<stop  offset="1" style="stop-color:#FFFFFF;stop-opacity:0.25"/>
				</linearGradient>
				
					<path id="SvgjsPath2349" style="clip-path:url(#SVGID_00000159447958616504413230000003567381422353850517_);fill:url(#SvgjsPath2349_00000106851969001971421760000014392470830928563355_);" d="
					M0,78.7V65c8.2,0,15.3-9.8,23.5-9.8S38.8,66.9,47,66.9s15.3-15.7,23.5-15.7S85.8,61,94,61s15.3-45.3,23.5-45.3
					s15.3,55.1,23.5,55.1s15.3-45.3,23.5-45.3s15.3,19.7,23.5,19.7c0,0,0,0,0,33.5H0z"/>
			</g>
			<g>
				<defs>
					<rect id="SVGID_00000150084887593173606830000016515966000579796642_" x="-3" y="-1" width="194" height="80.7"/>
				</defs>
				<clipPath id="SVGID_00000133520635884669989390000007661336853065476736_">
					<use xlink:href="#SVGID_00000150084887593173606830000016515966000579796642_"  style="overflow:visible;"/>
				</clipPath>
				
					<path id="SvgjsPath2350" style="clip-path:url(#SVGID_00000133520635884669989390000007661336853065476736_);fill:none;stroke:#1BC5BD;stroke-width:2;stroke-dasharray:0;" d="
					M0,65c8.2,0,15.3-9.8,23.5-9.8S38.8,66.9,47,66.9s15.3-15.7,23.5-15.7S85.8,61,94,61s15.3-45.3,23.5-45.3s15.3,55.1,23.5,55.1
					s15.3-45.3,23.5-45.3s15.3,19.7,23.5,19.7"/>
			</g>
			<g id="SvgjsG2343" data:realIndex="0">
				<g>
					<rect id="SvgjsCircle2398" x="164.5" y="25.6" class="st8" width="0" height="0"/>
				</g>
			</g>
		</g>
		<g id="SvgjsG2344" data:realIndex="0">
		</g>
	</g>
	<line id="SvgjsLine2394" class="st5" x1="0" y1="0" x2="188" y2="0"/>
	<g id="SvgjsG2395">
	</g>
	<g id="SvgjsG2396">
	</g>
	<g id="SvgjsG2397">
	</g>
	<polygon id="SvgjsRect2399" class="st9" points="0,0 0,0 0,0 	"/>
	<polygon id="SvgjsRect2400" class="st9" points="0,0 0,0 0,0 	"/>
</g>
<polygon id="SvgjsRect2337" class="st9" points="0,0 0,0 0,0 "/>
<g id="SvgjsG2380" transform="translate(-8, 0)">
	<g id="SvgjsG2381">
	</g>
</g>
<g id="SvgjsG2335">
</g>
</svg>
