<svg width="35" height="35" viewBox="0 0 35 35" fill="none" xmlns="http://www.w3.org/2000/svg">
<g clip-path="url(#clip0_1105_4933)">
<path opacity="0.22" d="M17.4998 3.1875C18.9502 3.1875 20.3412 3.76367 21.3668 4.78926C22.3924 5.81485 22.9685 7.20585 22.9685 8.65625H12.031C12.031 7.20585 12.6072 5.81485 13.6328 4.78926C14.6584 3.76367 16.0494 3.1875 17.4998 3.1875ZM25.156 8.65625C25.156 6.62569 24.3494 4.67829 22.9136 3.24246C21.4778 1.80664 19.5304 1 17.4998 1C15.4692 1 13.5218 1.80664 12.086 3.24246C10.6502 4.67829 9.84354 6.62569 9.84354 8.65625C1.24296 34.458 39.8005 52.5896 25.156 8.65625Z" fill="#6C757D"/>
<path d="M2.1875 8.75V30.625C2.1875 31.7853 2.64844 32.8981 3.46891 33.7186C4.28938 34.5391 5.40218 35 6.5625 35H28.4375C29.5978 35 30.7106 34.5391 31.5311 33.7186C32.3516 32.8981 32.8125 31.7853 32.8125 30.625V8.75C18.9821 8.75 20 8.75148 2.1875 8.75Z" fill="#A3A6AA"/>
</g>
<defs>
<clipPath id="clip0_1105_4933">
<rect width="35" height="35" fill="white"/>
</clipPath>
</defs>
</svg>
