<svg width="35" height="35" viewBox="0 0 35 35" fill="none" xmlns="http://www.w3.org/2000/svg">
<g clip-path="url(#clip0_1105_4927)">
<path opacity="0.22" d="M14.2188 2.1875C13.3485 2.1875 12.5139 2.5332 11.8986 3.14856C11.2832 3.76391 10.9375 4.59851 10.9375 5.46875V6.5625H3.28125C2.41101 6.5625 1.57641 6.9082 0.961056 7.52356C0.345702 8.13891 0 8.97351 0 9.84375L0 12.8712L16.6556 17.3119C17.2089 17.4592 17.7911 17.4592 18.3444 17.3119L35 12.8712V9.84375C35 8.97351 34.6543 8.13891 34.0389 7.52356C33.4236 6.9082 32.589 6.5625 31.7188 6.5625H24.0625V5.46875C24.0625 4.59851 23.7168 3.76391 23.1014 3.14856C22.4861 2.5332 21.6515 2.1875 20.7812 2.1875H14.2188ZM14.2188 4.375H20.7812C21.0713 4.375 21.3495 4.49023 21.5546 4.69535C21.7598 4.90047 21.875 5.17867 21.875 5.46875V6.5625H13.125V5.46875C13.125 5.17867 13.2402 4.90047 13.4454 4.69535C13.6505 4.49023 13.9287 4.375 14.2188 4.375Z" fill="#6C757D"/>
<path d="M0 27.3438C0 28.214 0.345702 29.0486 0.961056 29.6639C1.57641 30.2793 2.41101 30.625 3.28125 30.625H31.7188C32.589 30.625 33.4236 30.2793 34.0389 29.6639C34.6543 29.0486 35 28.214 35 27.3438V14.9844L17.7822 19.5716C17.5973 19.6209 17.4027 19.6209 17.2178 19.5716L0 14.9844V27.3438Z" fill="#A3A6AA"/>
</g>
<defs>
<clipPath id="clip0_1105_4927">
<rect width="35" height="35" fill="white"/>
</clipPath>
</defs>
</svg>
