<svg width="64" height="64" viewBox="0 0 64 64" fill="none" xmlns="http://www.w3.org/2000/svg">
<rect width="64" height="64" rx="7" fill="#FFF4DE"/>
<path d="M49 39.7H35.7777V53H16.8851C15.8443 53 15 52.1355 15 51.1152V16.8848C15 15.8436 15.8406 15 16.8757 15H47.1243C47.3723 15.0017 47.6176 15.0526 47.8461 15.1497C48.0746 15.2468 48.2819 15.3882 48.4561 15.5659C48.6302 15.7436 48.7679 15.954 48.8612 16.1852C48.9546 16.4164 49.0017 16.6638 49 16.9133V39.7ZM49 43.5L39.5555 52.9943V43.5H49Z" fill="#FFA800"/>
<path d="M39.5 43.5V53L49 43.5H39.5Z" fill="#FED17B"/>
</svg>
