<svg width="46" height="46" viewBox="0 0 46 46" fill="none" xmlns="http://www.w3.org/2000/svg">
<circle cx="23" cy="23" r="23" fill="#D5FEEA"/>
<path d="M29.75 26.315V28.967C29.7501 29.1569 29.6781 29.3397 29.5487 29.4786C29.4192 29.6176 29.2419 29.7022 29.0525 29.7155C28.7247 29.738 28.457 29.75 28.25 29.75C21.6222 29.75 16.25 24.3778 16.25 17.75C16.25 17.543 16.2613 17.2753 16.2845 16.9475C16.2978 16.7581 16.3824 16.5808 16.5214 16.4513C16.6603 16.3219 16.8431 16.2499 17.033 16.25H19.685C19.778 16.2499 19.8678 16.2844 19.9368 16.3468C20.0058 16.4091 20.0492 16.4949 20.0585 16.5875C20.0757 16.76 20.0915 16.8973 20.1065 17.0015C20.2556 18.0417 20.561 19.0534 21.0125 20.0023C21.0837 20.1523 21.0372 20.3315 20.9022 20.4275L19.2837 21.584C20.2733 23.8898 22.1109 25.7274 24.4167 26.717L25.5717 25.1015C25.619 25.0355 25.6878 24.9882 25.7664 24.9677C25.8449 24.9473 25.9281 24.9551 26.0015 24.9897C26.9503 25.4404 27.9617 25.7451 29.0015 25.8935C29.1057 25.9085 29.243 25.925 29.414 25.9415C29.5064 25.951 29.592 25.9944 29.6543 26.0634C29.7165 26.1324 29.7509 26.2221 29.7507 26.315H29.75Z" fill="#3EBD95"/>
</svg>
