<svg width="46" height="46" viewBox="0 0 46 46" fill="none" xmlns="http://www.w3.org/2000/svg">
<circle cx="23" cy="23" r="23" fill="#FFF3D5"/>
<path d="M16.25 17.0254H29.75C29.9489 17.0254 30.1397 17.0965 30.2803 17.2231C30.421 17.3497 30.5 17.5214 30.5 17.7004V28.5004C30.5 28.6794 30.421 28.8511 30.2803 28.9777C30.1397 29.1043 29.9489 29.1754 29.75 29.1754H16.25C16.0511 29.1754 15.8603 29.1043 15.7197 28.9777C15.579 28.8511 15.5 28.6794 15.5 28.5004V17.7004C15.5 17.5214 15.579 17.3497 15.7197 17.2231C15.8603 17.0965 16.0511 17.0254 16.25 17.0254ZM23.045 22.8864L18.236 19.211L17.2648 20.2397L23.0548 24.6644L28.7405 20.2364L27.7595 19.2151L23.0458 22.8864H23.045Z" fill="#F8C01D"/>
</svg>
