<svg width="38" height="38" viewBox="0 0 38 38" fill="none" xmlns="http://www.w3.org/2000/svg">
<rect width="38" height="38" rx="5" fill="#EBFBFE"/>
<path fill-rule="evenodd" clip-rule="evenodd" d="M27.1506 21.3186C27.8995 20.143 28.3333 18.7471 28.3333 17.25C28.3333 13.0618 24.9382 9.66667 20.75 9.66667C19.2529 9.66667 17.8571 10.1005 16.6814 10.8494C15.8838 10.8945 15.1113 11.0338 14.375 11.2565C15.9709 9.55963 18.2367 8.5 20.75 8.5C25.5825 8.5 29.5 12.4175 29.5 17.25C29.5 19.7633 28.4404 22.0291 26.7435 23.625C26.9662 22.8887 27.1056 22.1163 27.1506 21.3186Z" fill="#9AE7F7"/>
<path fill-rule="evenodd" clip-rule="evenodd" d="M28.2944 21.685C27.8709 22.4039 27.3476 23.0569 26.7435 23.625C26.9662 22.8887 27.1056 22.1163 27.1506 21.3186C27.1506 21.3187 27.1507 21.3185 27.1506 21.3186C27.8993 20.1432 28.3332 18.7477 28.3333 17.2509C28.3333 17.2506 28.3333 17.2503 28.3333 17.25C28.3333 13.0618 24.9382 9.66667 20.75 9.66667C19.2529 9.66667 17.8571 10.1005 16.6814 10.8494C16.6816 10.8494 16.6813 10.8494 16.6814 10.8494C15.8838 10.8945 15.1113 11.0338 14.375 11.2565C14.9432 10.6524 15.5961 10.1291 16.315 9.70561C17.6101 8.94267 19.1188 8.50367 20.7298 8.50002C20.7365 8.50001 20.7433 8.5 20.75 8.5C25.5825 8.5 29.5 12.4175 29.5 17.25C29.5 17.3381 29.4987 17.4258 29.4962 17.5133C29.4513 19.0329 29.0189 20.4552 28.2944 21.685Z" fill="#9AE7F7"/>
<path fill-rule="evenodd" clip-rule="evenodd" d="M26 20.75C26 25.5825 22.0825 29.5 17.25 29.5C12.4175 29.5 8.5 25.5825 8.5 20.75C8.5 15.9175 12.4175 12 17.25 12C22.0825 12 26 15.9175 26 20.75ZM16.6667 17.8333C16.0223 17.8333 15.5 18.3556 15.5 19C15.5 19.6443 16.0223 20.1667 16.6667 20.1667V17.8333ZM17.8333 16.6667V16.0833H16.6667V16.6667C15.378 16.6667 14.3333 17.7114 14.3333 19C14.3333 20.2886 15.378 21.3333 16.6667 21.3333V23.6667C16.1596 23.6667 15.7267 23.3429 15.5662 22.889C15.4589 22.5852 15.1256 22.426 14.8219 22.5334C14.5181 22.6407 14.3589 22.974 14.4663 23.2777C14.7863 24.1832 15.6498 24.8333 16.6667 24.8333V25.4167H17.8333V24.8333C19.122 24.8333 20.1667 23.7886 20.1667 22.5C20.1667 21.2114 19.122 20.1667 17.8333 20.1667V17.8333C18.3404 17.8333 18.7733 18.1571 18.9338 18.611C19.0411 18.9148 19.3744 19.074 19.6781 18.9666C19.9819 18.8593 20.1411 18.526 20.0337 18.2223C19.7137 17.3168 18.8502 16.6667 17.8333 16.6667ZM17.8333 21.3333V23.6667C18.4777 23.6667 19 23.1443 19 22.5C19 21.8556 18.4777 21.3333 17.8333 21.3333Z" fill="#03C3EC"/>
</svg>
