<svg width="35" height="35" viewBox="0 0 35 35" fill="none" xmlns="http://www.w3.org/2000/svg">
<path d="M19.6875 30.625C19.6875 30.625 21.875 30.625 21.875 28.4375C21.875 26.25 19.6875 19.6875 10.9375 19.6875C2.1875 19.6875 0 26.25 0 28.4375C0 30.625 2.1875 30.625 2.1875 30.625H19.6875ZM10.9375 17.5C9.19702 17.5 7.52782 16.8086 6.29711 15.5779C5.0664 14.3472 4.375 12.678 4.375 10.9375C4.375 9.19702 5.0664 7.52782 6.29711 6.29711C7.52782 5.0664 9.19702 4.375 10.9375 4.375C12.678 4.375 14.3472 5.0664 15.5779 6.29711C16.8086 7.52782 17.5 9.19702 17.5 10.9375C17.5 12.678 16.8086 14.3472 15.5779 15.5779C14.3472 16.8086 12.678 17.5 10.9375 17.5Z" fill="#A3A6AA"/>
<path opacity="0.22" fill-rule="evenodd" clip-rule="evenodd" d="M23.59 30.6259C23.9143 29.943 24.076 29.1943 24.0625 28.4384C24.0625 25.4744 22.575 22.4228 19.8275 20.3009C21.1989 19.8784 22.6276 19.6718 24.0625 19.6884C32.8125 19.6884 35 26.2509 35 28.4384C35 30.6259 32.8125 30.6259 32.8125 30.6259H23.59Z" fill="#6C757D"/>
<path opacity="0.22" d="M25.1562 17.5C23.7058 17.5 22.3148 16.9238 21.2893 15.8982C20.2637 14.8727 19.6875 13.4817 19.6875 12.0312C19.6875 10.5808 20.2637 9.18985 21.2893 8.16426C22.3148 7.13867 23.7058 6.5625 25.1562 6.5625C26.6067 6.5625 27.9977 7.13867 29.0232 8.16426C30.0488 9.18985 30.625 10.5808 30.625 12.0312C30.625 13.4817 30.0488 14.8727 29.0232 15.8982C27.9977 16.9238 26.6067 17.5 25.1562 17.5Z" fill="#6C757D"/>
</svg>
