<svg width="18" height="18" viewBox="0 0 18 18" fill="none" xmlns="http://www.w3.org/2000/svg">
<rect y="13" width="18" height="2" rx="1" fill="#636E75"/>
<path d="M13.5 8.5V14H4.5V8.5C4.5 7.03168 4.51085 6.51921 4.62918 6.12915C4.92003 5.17034 5.67034 4.42003 6.62915 4.12918C7.01921 4.01085 7.53168 4 9 4C10.4683 4 10.9808 4.01085 11.3709 4.12918C12.3297 4.42003 13.08 5.17034 13.3708 6.12915C13.4891 6.51921 13.5 7.03168 13.5 8.5Z" stroke="#636E75" stroke-width="2"/>
<circle cx="9" cy="1" r="1" fill="#636E75"/>
<path d="M7.5 16H10.5V16.5C10.5 17.3284 9.82843 18 9 18V18C8.17157 18 7.5 17.3284 7.5 16.5V16Z" fill="#636E75"/>
</svg>
