<svg width="64" height="64" viewBox="0 0 64 64" fill="none" xmlns="http://www.w3.org/2000/svg">
<rect width="64" height="64" rx="7" fill="#E1F0FF"/>
<path d="M17 50C17 46.0596 18.5804 42.2807 21.3934 39.4944C24.2064 36.7082 28.0218 35.1429 32 35.1429C35.9782 35.1429 39.7936 36.7082 42.6066 39.4944C45.4196 42.2807 47 46.0596 47 50H17ZM32 33.2857C25.7844 33.2857 20.75 28.2993 20.75 22.1429C20.75 15.9864 25.7844 11 32 11C38.2156 11 43.25 15.9864 43.25 22.1429C43.25 28.2993 38.2156 33.2857 32 33.2857Z" fill="#3699FF"/>
<circle cx="32" cy="22" r="12" fill="#A3CFFC"/>
</svg>
