<svg xmlns="http://www.w3.org/2000/svg" xmlns:xlink="http://www.w3.org/1999/xlink" width="16" height="16" viewBox="0 0 16 16"><defs><linearGradient id="a"><stop offset="0" stop-color="#fc6a28"/><stop offset="1" stop-color="#f94045"/></linearGradient><linearGradient id="d" x1="-114.553" x2="-108" y1="1033.522" y2="1033.522" gradientUnits="userSpaceOnUse" xlink:href="#a"/><linearGradient id="e" x1="-655" x2="-654" y1="-77" y2="-65" gradientTransform="translate(540 1107.362)" gradientUnits="userSpaceOnUse" xlink:href="#b"/><linearGradient id="b"><stop offset="0" stop-color="#a4b6be"/><stop offset="1" stop-color="#7c8b9d"/></linearGradient><linearGradient id="f" x1="-657" x2="-652" y1="-63.5" y2="-63.5" gradientTransform="translate(540 1107.362)" gradientUnits="userSpaceOnUse" xlink:href="#c"/><linearGradient id="c"><stop offset="0" stop-color="#4b5d64"/><stop offset="1" stop-color="#3d4155"/></linearGradient></defs><g transform="translate(121 -1028.362)"><path fill="url(#d)" fill-rule="evenodd" d="m -114.55315,1031.3622 6.32216,0 c 0.16976,0 0.28121,0.1774 0.20749,0.3303 l -0.82864,1.721 c -0.0331,0.069 -0.0331,0.1489 0,0.2177 l 0.82946,1.7227 c 0.0732,0.1521 -0.0376,0.3285 -0.20643,0.3285 l -6.32404,0 z"/><path fill="url(#e)" fill-rule="evenodd" d="m -114.5,1029.3622 c -0.27614,0 -0.5,0.2239 -0.5,0.5 l 0,13.7032 1,0 0,-13.7032 c 0,-0.2761 -0.22386,-0.5 -0.5,-0.5 z"/><path fill="url(#f)" fill-rule="evenodd" d="m -116.5,1043.3622 a 0.5,0.5 0 0 0 -0.5,0.5 0.5,0.5 0 0 0 0.5,0.5 l 4,0 a 0.5,0.5 0 0 0 0.5,-0.5 0.5,0.5 0 0 0 -0.5,-0.5 l -4,0 z"/></g></svg>