<svg width="108" height="188" viewBox="0 0 108 188" fill="none" xmlns="http://www.w3.org/2000/svg">
<path d="M16.17 4.34961C25.7 9.28961 33.0001 17.7796 38.2501 27.1396C43.5001 36.4996 46.8901 46.7496 50.2501 56.9496L53.1901 109.5C42.1001 90.6396 33.19 68.4996 30.8 46.7396L38.1801 46.0796C33.2301 45.3296 29.0801 41.7396 26.4401 37.4896C23.8001 33.2396 22.44 28.3496 21.11 23.4896L30.11 24.8296C23.0076 20.0446 18.0166 12.7121 16.17 4.34961Z" fill="#3BCCC5"/>
<g opacity="0.3">
<path opacity="0.3" d="M16.17 4.34961C25.7 9.28961 33.0001 17.7796 38.2501 27.1396C43.5001 36.4996 46.8901 46.7496 50.2501 56.9496L53.1901 109.5C42.1001 90.6396 33.19 68.4996 30.8 46.7396L38.1801 46.0796C33.2301 45.3296 29.0801 41.7396 26.4401 37.4896C23.8001 33.2396 22.44 28.3496 21.11 23.4896L30.11 24.8296C23.0076 20.0446 18.0166 12.7121 16.17 4.34961Z" fill="black"/>
</g>
<path d="M54.82 121.82C54.82 121.82 78.88 93.02 78.6 65.53H68.88C68.88 65.53 79.44 58.59 78.6 54.7C77.76 50.81 77.49 36.1 77.49 36.1L68.6 38.32C68.6 38.32 75.27 34.99 76.1 29.71C76.93 24.43 74.16 0 74.16 0C74.16 0 63.33 11.39 60 23.05C56.67 34.71 47.92 48.32 50.49 83.86C53.06 119.4 54.82 121.82 54.82 121.82Z" fill="#3BCCC5"/>
<path d="M42.62 124.53C42.62 124.53 16.56 107.17 10.77 85.0096L18.58 82.8796C18.58 82.8796 8.57999 79.6096 8.39999 76.2996C8.21999 72.9896 5.22 61.0996 5.22 61.0996L12.85 60.9396C12.85 60.9396 6.76 59.7196 4.94 55.6596C3.12 51.5996 0 31.3496 0 31.3496C0 31.3496 11.2 38.1396 16.43 46.7796C21.66 55.4196 31.67 64.4596 37.38 93.5896C43.09 122.72 42.62 124.53 42.62 124.53Z" fill="#3BCCC5"/>
<path d="M67.58 25.1104C67.5932 25.2133 67.5932 25.3174 67.58 25.4203C67.58 25.6503 67.48 25.9403 67.41 26.3103C67.25 27.1303 67.03 28.3103 66.74 29.7503C66.45 31.1903 66.07 33.0603 65.68 35.1803C65.29 37.3003 64.8 39.7204 64.34 42.3904C63.34 47.7404 62.34 54.1203 61.2 61.2203C60.06 68.3203 59.08 76.1504 58.11 84.3904C57.14 92.6303 56.43 100.49 55.84 107.65C55.25 114.81 54.84 121.27 54.59 126.7C54.43 129.41 54.35 131.87 54.25 134.03C54.15 136.19 54.09 138.03 54.05 139.56C54.01 141.09 53.95 142.22 53.92 143.06V143.97C53.9324 144.073 53.9324 144.177 53.92 144.28C53.9052 144.178 53.9052 144.073 53.92 143.97C53.92 143.73 53.92 143.43 53.92 143.06C53.92 142.22 53.92 141.06 53.92 139.56C53.92 138.06 53.92 136.18 54.04 134.02C54.16 131.86 54.17 129.4 54.3 126.68C54.51 121.25 54.91 114.79 55.44 107.62C55.97 100.45 56.73 92.5704 57.68 84.3304C58.63 76.0904 59.68 68.2603 60.81 61.1503C61.94 54.0403 63.02 47.6604 64.05 42.3304C64.54 39.6504 65.05 37.2403 65.47 35.1303C65.89 33.0203 66.29 31.1903 66.62 29.7103C66.95 28.2303 67.21 27.1103 67.39 26.2903L67.6 25.4103L67.58 25.1104Z" fill="#009189"/>
<path d="M58.16 139.45C58.16 139.45 80.16 114.45 87.01 99.3698L81.85 97.1598C85.59 97.7798 89.42 96.1598 92.32 93.7298C95.22 91.2998 97.32 88.0798 99.44 84.9098L92.64 83.7697C98.8857 81.98 104.205 77.8596 107.5 72.2598C99.5 73.5798 92.22 77.9897 86.23 83.4897C81.4827 88.056 77.1707 93.0542 73.35 98.4198C71.4261 100.998 69.7519 103.754 68.35 106.65C64.65 114.29 58.14 130.27 58.16 139.45Z" fill="#3BCCC5"/>
<path d="M10.42 45.9404C10.4778 46.0117 10.5281 46.0888 10.57 46.1704L10.95 46.8804L12.3701 49.6104C13.6001 51.9804 15.3201 55.4504 17.3701 59.7604C21.5001 68.3904 26.8901 80.4604 32.1601 94.0704C37.4301 107.68 41.56 120.25 44.3 129.42C45.67 134 46.73 137.72 47.42 140.3L48.2001 143.3L48.3901 144.08C48.4191 144.168 48.4359 144.259 48.4401 144.35C48.3982 144.267 48.3646 144.18 48.34 144.09L48.1 143.33L47.22 140.38C46.48 137.81 45.3601 134.11 43.9501 129.54C41.1201 120.42 36.9501 107.89 31.6801 94.2804C26.4101 80.6704 21.0801 68.6004 17.0301 59.9404C15.0301 55.6104 13.35 52.1204 12.17 49.7204C11.6 48.5404 11.17 47.6204 10.83 46.9504C10.7 46.6504 10.5901 46.4104 10.5001 46.2204C10.4617 46.1308 10.4348 46.0368 10.42 45.9404Z" fill="#009189"/>
<path d="M56.29 150.15C56.2612 149.995 56.2612 149.836 56.29 149.68C56.29 149.32 56.36 148.87 56.41 148.34C56.52 147.18 56.76 145.5 57.12 143.45C59.0446 132.694 62.9364 122.385 68.6 113.04C69.69 111.26 70.6 109.84 71.31 108.9L72.1 107.81C72.1812 107.676 72.2823 107.554 72.4 107.45C72.4 107.45 72.34 107.6 72.18 107.87L71.47 109.01C70.84 110.01 69.96 111.43 68.92 113.23C66.1916 117.922 63.8505 122.828 61.92 127.9C60.021 132.977 58.5296 138.197 57.46 143.51C57.06 145.56 56.76 147.22 56.59 148.37C56.5 148.89 56.43 149.37 56.37 149.69C56.3645 149.846 56.3376 150.001 56.29 150.15Z" fill="#009189"/>
<path d="M75.43 144.28H27.24V154.11H75.43V144.28Z" fill="#FFA81E"/>
<path d="M70.83 154.1L65.62 187.17H36.5L31.64 154.1H70.83Z" fill="#FFA81E"/>
<path d="M30.24 154.11C30.24 153.96 39.36 153.85 50.6 153.85C61.84 153.85 70.96 153.96 70.96 154.11C70.96 154.26 61.85 154.37 50.6 154.37C39.35 154.37 30.24 154.25 30.24 154.11Z" fill="#263238"/>
</svg>
