<svg width="279" height="213" viewBox="0 0 279 213" fill="none" xmlns="http://www.w3.org/2000/svg">
<mask id="mask0_1032_9297" style="mask-type:alpha" maskUnits="userSpaceOnUse" x="0" y="0" width="279" height="213">
<rect width="279" height="213" fill="#C4C4C4"/>
</mask>
<g mask="url(#mask0_1032_9297)">
<path d="M138.058 284.637C133.735 289.348 127.254 294.199 137.557 304.969C150.77 318.769 171.209 378.232 171.209 378.232C170.523 380.503 171.229 383.656 169.613 384.582C166.999 386.082 160.326 381.495 160.326 381.495C160.326 381.495 99.6378 318.659 94.7143 304.506C91.0774 294.069 109.663 243.506 120.79 217.015C124.729 207.628 127.731 201.266 128.479 200.772C128.592 200.694 128.709 200.621 128.822 200.553C135.362 196.408 141.517 196.937 147.006 200.117C148.211 200.82 149.358 201.616 150.438 202.498C164.014 213.512 172.739 239.642 171.833 245.077C171.205 248.851 164.584 256.863 157.313 264.747C155.804 266.384 154.27 268.017 152.753 269.602C146.142 276.529 139.911 282.633 138.058 284.637Z" fill="#F99746"/>
<path d="M157.31 264.747C155.8 266.384 154.267 268.017 152.75 269.602L120.783 217.015C124.722 207.627 127.724 201.266 128.472 200.772C128.585 200.693 128.702 200.621 128.815 200.553L147 200.117L150.287 200.038L150.427 202.498L157.31 264.747Z" fill="#ED7D2B"/>
<path d="M139.218 81.8194C139.218 81.8194 146.018 98.4392 144.255 108.331C142.491 118.223 119.085 167.492 110.548 175.922C102.012 184.352 45.4446 148.474 45.4446 148.474L51.0131 143.156C51.0131 143.156 95.7605 154.547 98.1313 150.975C100.502 147.403 111.89 77.2047 139.218 81.8194Z" fill="#FFB27D"/>
<path d="M137.876 212.081C137.876 212.081 149.484 270.124 178.774 310.96C207.08 350.416 221.806 410.902 221.806 410.902C221.806 410.902 223.683 412.367 227.381 410.796C231.08 409.224 233.557 411.139 234.305 409.337C234.305 409.337 228.956 313.869 214.268 292.967C205.968 281.158 201.546 237.807 201.827 226.008C202.109 214.208 196.948 199.75 196.948 199.75L137.876 212.081Z" fill="#F99746"/>
<path d="M198.722 163.233C198.746 130.69 192.79 83.7264 184.655 80.117C177.741 77.0531 162.655 72.6716 147.106 72.9118C134.833 73.0971 108.678 78.8338 106.013 99.1145C104.328 111.95 103.649 122.528 103.649 122.528C103.649 122.528 106.462 130.718 114.216 132.917C115.184 136.544 115.626 140.139 116.779 143.179C129.663 177.105 123.336 211.055 123.336 211.055C135.193 220.916 194.203 215.141 200.149 211.264C209.832 204.958 198.698 195.79 198.722 163.233Z" fill="#2A4E96"/>
<path d="M167.733 84.4267C167.733 84.4267 185.688 84.2311 194.231 89.5149C202.774 94.7987 239.949 134.722 244.643 145.763C249.337 156.804 206.195 188.28 206.195 188.28L200.112 178.595C200.112 178.595 219.325 151.627 216.882 148.11C214.44 144.593 153.367 108.128 167.733 84.4267Z" fill="#FFB27D"/>
<path d="M202.38 177.116L209.544 182.637C209.544 182.637 203.241 196.241 199.8 197.521L199.456 197.593C195.758 198.33 186.573 192.329 185.046 186.13C184.916 185.535 184.945 184.917 185.132 184.339C186.552 180.585 195.161 178.458 199.659 177.586C201.285 177.267 202.38 177.116 202.38 177.116Z" fill="#FFB27D"/>
<path d="M55.9506 144.363L52.3617 152.663C52.3617 152.663 37.6083 149.897 35.5497 146.878L35.3953 146.535C33.769 143.135 37.3304 132.756 42.9642 129.743C43.5099 129.478 44.1154 129.36 44.7208 129.4C48.7043 129.857 52.8867 137.676 54.8355 141.824C55.5354 143.334 55.9506 144.363 55.9506 144.363Z" fill="#FFB27D"/>
<path d="M160.94 73.8223C160.94 73.8223 177.59 74.5702 189.544 81.9915C195.034 85.4225 216.196 105.446 216.196 105.446C216.196 105.446 213.853 126.375 188.666 132.057C163.029 137.835 158.909 95.0019 158.909 95.0019L160.94 73.8223Z" fill="#2A4E96"/>
<path d="M156.376 74.1228C156.767 74.6981 156.982 75.375 156.993 76.0705C157.005 76.7659 156.813 77.4496 156.442 78.0376C154.208 81.5818 147.95 87.7096 131.646 86.5877C126.06 86.2034 124.784 81.9798 128.314 77.6362C129.175 76.5794 128.884 70.4996 128.791 68.0567C128.591 65.1264 128.553 62.1873 128.678 59.2528L140.23 51.3443L151.189 43.7686C149.384 61.4829 154.067 70.7432 156.376 74.1228Z" fill="#FFB27D"/>
<path d="M150.791 52.6681C150.791 52.6681 142.728 65.3011 128.791 68.0562C128.591 65.1259 128.553 62.1868 128.678 59.2522L140.23 51.3438L150.791 52.6681Z" fill="#ED985F"/>
<path d="M123.696 58.5434C123.696 58.5434 150.551 64.781 154.205 48.2504C157.859 31.7197 163.788 21.4095 146.797 16.7261C129.807 12.0428 125.068 17.6251 122.485 22.8437C119.901 28.0622 116.807 56.4917 123.696 58.5434Z" fill="#FFB27D"/>
<path d="M166.254 16.0189C166.519 15.7547 167.102 15.5626 168.371 15.5798C167.676 15.1217 166.88 14.8392 166.052 14.7563C165.904 12.979 165.174 9.80192 162.199 8.84467C162.672 9.16658 163.067 9.59097 163.354 10.0863C163.641 10.5817 163.812 11.1353 163.856 11.7061C160.586 7.87024 153.247 4.75145 132.332 5.01564C104.771 5.35874 112.641 23.5157 116.055 25.8454C119.469 28.175 128.781 23.0285 135.361 23.9926C141.942 24.9567 142.567 34.5945 144.721 36.0561C146.876 37.5177 146.149 35.14 149.274 33.9666C152.4 32.7932 152.362 37.8471 151.264 41.0585C150.166 44.2699 154.054 48.8607 154.054 48.8607L158.572 44.6028C163.088 40.3414 168.334 21.3782 166.69 17.1546L166.254 16.0189Z" fill="#2C3A64"/>
<path d="M121.387 48.0944C121.643 48.8338 122.103 49.4857 122.714 49.975C123.325 50.4643 124.061 50.771 124.839 50.8598C125.662 50.9375 126.493 50.8326 127.272 50.5527C128.05 50.2728 128.758 49.8248 129.344 49.2404C129.344 49.2404 124.88 47.1612 121.387 48.0944Z" fill="white"/>
</g>
</svg>
