<svg width="229" height="190" viewBox="0 0 229 190" fill="none" xmlns="http://www.w3.org/2000/svg">
<mask id="mask0_1029_8805" style="mask-type:alpha" maskUnits="userSpaceOnUse" x="0" y="0" width="229" height="190">
<rect width="229" height="190" fill="#C4C4C4"/>
</mask>
<g mask="url(#mask0_1029_8805)">
<path d="M157.279 16.5395C159.205 12.3221 164.856 10.9163 169.327 12.1674C171.338 12.7667 173.202 13.7806 174.797 15.1437C176.393 16.5069 177.685 18.1891 178.591 20.0821C180.489 24.1308 180.475 28.77 180.573 33.2405C180.911 48.142 183.034 62.9592 183.849 77.8467C184.664 92.7342 184.116 107.959 179.322 122.073L152.612 120.077L142.659 115.55L157.279 16.5395Z" fill="#263238"/>
<path d="M103.198 22.7652C104.828 20.2329 107.053 18.1382 109.679 16.664C113.896 14.4428 117.593 11.336 121.853 9.18512C127.174 6.64585 133.084 5.59393 138.954 6.1409C144.825 6.68787 150.438 8.81335 155.199 12.292C159.872 15.8817 163.595 20.5599 166.046 25.9187C168.496 31.2776 169.598 37.1544 169.257 43.037C168.819 48.9124 167.101 54.621 164.223 59.7621C161.345 64.9033 157.377 69.3525 152.598 72.7979L106.586 61.5514C103.774 53.7633 102.453 46.2844 101.539 36.8373C101.216 33.5337 101.722 24.9161 103.198 22.7652Z" fill="#263238"/>
<path d="M158.164 38.8907C157.99 35.2398 156.647 31.7416 154.334 28.9119C152.02 26.0821 148.859 24.0706 145.315 23.1738L122.302 17.2975C112.349 16.215 105.7 28.4596 105.053 38.4549C104.322 49.5467 103.886 61.2571 105.18 69.5373C107.78 86.1961 120.545 88.3329 120.545 88.3329V101.126L120.32 122.213L153.09 98.6516L158.221 39.0313C158.235 38.7501 158.193 39.2703 158.164 38.8907Z" fill="#FFBF9D"/>
<path d="M108.764 51.4018C108.76 51.959 108.974 52.4957 109.36 52.8975C109.746 53.2992 110.274 53.5344 110.831 53.5527C111.101 53.5757 111.374 53.544 111.632 53.4596C111.89 53.3753 112.128 53.2399 112.333 53.0615C112.537 52.8831 112.704 52.6654 112.823 52.4214C112.941 52.1773 113.01 51.9118 113.024 51.6408C113.032 51.0835 112.821 50.5453 112.438 50.1409C112.055 49.7364 111.528 49.4978 110.971 49.4758C110.7 49.4548 110.426 49.4882 110.167 49.574C109.908 49.6599 109.669 49.7964 109.464 49.9757C109.258 50.155 109.091 50.3735 108.971 50.6184C108.85 50.8632 108.78 51.1295 108.764 51.4018Z" fill="#263238"/>
<path d="M107.893 45.3017C108.16 45.5829 109.777 44.3879 112.11 44.402C114.444 44.4161 116.089 45.5688 116.328 45.2877C116.567 45.0065 116.173 44.655 115.442 44.1208C114.448 43.4287 113.265 43.0604 112.054 43.0665C110.863 43.0622 109.701 43.4364 108.736 44.1349C108.005 44.6691 107.766 45.1752 107.893 45.3017Z" fill="#263238"/>
<path d="M129.163 51.8383C129.155 52.3956 129.365 52.9338 129.749 53.3382C130.132 53.7427 130.658 53.9813 131.215 54.0032C131.487 54.0223 131.759 53.9876 132.017 53.9011C132.275 53.8145 132.514 53.6778 132.719 53.4989C132.924 53.3199 133.092 53.1022 133.212 52.8583C133.333 52.6143 133.404 52.3489 133.422 52.0773C133.427 51.5211 133.215 50.9848 132.832 50.5812C132.45 50.1775 131.925 49.9378 131.37 49.9124C131.098 49.8913 130.825 49.9247 130.566 50.0105C130.307 50.0964 130.068 50.2329 129.862 50.4122C129.657 50.5916 129.489 50.81 129.369 51.0549C129.249 51.2997 129.179 51.5661 129.163 51.8383Z" fill="#263238"/>
<path d="M129.261 45.7796C129.528 46.0467 131.159 44.8658 133.479 44.8658C135.798 44.8658 137.457 46.0327 137.696 45.7515C137.935 45.4703 137.556 45.133 136.81 44.5847C135.822 43.8935 134.642 43.5297 133.437 43.5444C132.239 43.5291 131.07 43.9042 130.105 44.6128C129.388 45.1048 129.135 45.6109 129.261 45.7796Z" fill="#263238"/>
<path d="M122.19 63.0149C120.981 62.6369 119.729 62.4102 118.465 62.3401C117.874 62.2698 117.312 62.1574 117.213 61.7497C117.171 61.1454 117.313 60.5424 117.621 60.0206C118.169 58.6148 118.746 57.1105 119.364 55.5501C121.782 49.1958 123.582 43.9662 123.286 43.8819C122.991 43.7976 120.854 48.8585 118.422 55.2127L116.806 59.6972C116.431 60.4042 116.317 61.2201 116.482 62.0027C116.569 62.2094 116.701 62.3939 116.869 62.5424C117.037 62.6909 117.237 62.7995 117.452 62.8603C117.778 62.9496 118.113 62.9968 118.451 63.0009C119.691 63.1653 120.948 63.17 122.19 63.0149Z" fill="#263238"/>
<path d="M142.63 82.416C142.63 82.416 137.204 93.8452 120.545 92.2567V88.3345C128.313 88.4484 135.96 86.3992 142.63 82.416Z" fill="#FF9A6C"/>
<path d="M130.091 36.6698C130.316 37.2884 132.607 37.0072 135.306 37.3306C138.005 37.6539 140.184 38.399 140.536 37.8507C140.704 37.5836 140.325 36.9932 139.439 36.4449C138.286 35.6644 136.958 35.1815 135.573 35.0391C134.191 34.8789 132.79 35.0426 131.482 35.5171C130.498 35.9388 129.992 36.3746 130.091 36.6698Z" fill="#263238"/>
<path d="M110.311 36.9945C110.719 37.5147 112.307 36.9945 114.205 36.9945C116.103 36.9945 117.719 37.36 118.085 36.8118C118.254 36.5447 118.001 36.0245 117.298 35.5325C116.358 34.9242 115.253 34.6199 114.135 34.6609C113.015 34.6815 111.929 35.05 111.028 35.7152C110.353 36.2073 110.142 36.7415 110.311 36.9945Z" fill="#263238"/>
<path d="M155.887 50.9523C156.056 50.4743 164.744 47.3393 164.856 56.5755C164.968 65.5445 155.929 63.7732 155.901 63.5202C155.873 63.2671 155.887 50.9523 155.887 50.9523Z" fill="#FFBF9D"/>
<path d="M158.642 60.1049C158.642 60.1049 158.797 60.2033 159.064 60.3299C159.44 60.4738 159.855 60.4738 160.231 60.3299C160.806 59.9559 161.271 59.4362 161.58 58.8238C161.889 58.2113 162.03 57.528 161.988 56.8435C162 56.0733 161.842 55.3099 161.524 54.6082C161.441 54.3274 161.289 54.0716 161.083 53.8632C160.877 53.6548 160.623 53.5003 160.343 53.4133C160.164 53.3669 159.974 53.3851 159.807 53.4648C159.64 53.5445 159.506 53.6806 159.43 53.8491C159.303 54.1021 159.43 54.2849 159.317 54.2989C159.205 54.313 159.12 54.1584 159.191 53.7788C159.243 53.558 159.367 53.3606 159.542 53.2165C159.786 53.028 160.094 52.9422 160.4 52.9775C160.772 53.0483 161.12 53.2152 161.409 53.4618C161.697 53.7084 161.916 54.026 162.044 54.3833C162.441 55.1564 162.634 56.0174 162.607 56.8856C162.66 57.6828 162.476 58.478 162.078 59.1709C161.681 59.8639 161.087 60.4236 160.371 60.7797C160.135 60.8442 159.887 60.8574 159.644 60.8186C159.402 60.7799 159.171 60.6899 158.966 60.5548C158.656 60.3158 158.614 60.119 158.642 60.1049Z" fill="#FF9A6C"/>
<path d="M159.655 61.6806C160.107 61.5829 160.579 61.6615 160.975 61.9002C161.37 62.139 161.66 62.5199 161.785 62.9651C161.909 63.4103 161.859 63.8862 161.644 64.2956C161.429 64.705 161.066 65.0169 160.629 65.1676C160.192 65.3183 159.714 65.2964 159.293 65.1064C158.871 64.9164 158.538 64.5727 158.362 64.1454C158.185 63.7181 158.179 63.2396 158.343 62.8076C158.508 62.3756 158.831 62.0228 159.247 61.8212" fill="white"/>
<path d="M159.247 61.821C158.855 62.1279 158.569 62.5511 158.432 63.03C158.371 63.2752 158.371 63.5315 158.433 63.7766C158.494 64.0217 158.614 64.248 158.783 64.4358C158.994 64.6574 159.26 64.8186 159.555 64.9026C159.849 64.9867 160.16 64.9905 160.456 64.9137C160.753 64.8089 161.013 64.6204 161.205 64.371C161.397 64.1215 161.513 63.8218 161.539 63.5079C161.578 63.2487 161.551 62.9837 161.46 62.7378C161.369 62.4919 161.217 62.2731 161.018 62.1021C160.614 61.79 160.123 61.6085 159.613 61.582C159.741 61.5097 159.887 61.4755 160.034 61.4836C160.442 61.4906 160.836 61.6287 161.159 61.8772C161.409 62.0612 161.606 62.307 161.732 62.5905C161.857 62.874 161.907 63.1854 161.876 63.4939C161.852 63.8807 161.712 64.2513 161.474 64.5572C161.236 64.8631 160.911 65.0901 160.542 65.2086C160.173 65.327 159.777 65.3314 159.406 65.2211C159.034 65.1108 158.704 64.891 158.46 64.5904C158.259 64.3532 158.121 64.0689 158.06 63.764C157.998 63.4592 158.015 63.1438 158.108 62.8472C158.232 62.4601 158.472 62.1211 158.797 61.8772C159.078 61.821 159.233 61.7929 159.247 61.821Z" fill="#263238"/>
<path d="M117.973 16.0333C118.328 15.5817 118.783 15.2194 119.303 14.9753C119.823 14.7312 120.393 14.6121 120.967 14.6275C128.961 13.8559 137.019 15.1192 144.393 18.2998C151.767 21.4805 158.217 26.475 163.141 32.8186L160.583 48.2825C161.665 50.2225 156.576 54.0885 154.369 53.9057C153.274 53.7216 152.252 53.2361 151.418 52.5035C150.584 51.771 149.97 50.8205 149.646 49.7586C148.113 45.7099 148.985 40.5365 145.822 37.5702C144.05 35.9114 141.478 35.4896 139.088 34.9695C134.512 34.0521 130.169 32.2156 126.323 29.5712C122.468 26.9059 119.552 23.0937 117.987 18.6762C117.808 18.2591 117.714 17.8102 117.711 17.3562C117.709 16.9021 117.798 16.4523 117.973 16.0333Z" fill="#263238"/>
<path d="M165.475 55.8441C165.835 55.3456 166.128 54.8021 166.347 54.2274C167.045 52.6983 167.614 51.1136 168.048 49.4898C169.522 44.1023 169.676 38.4388 168.496 32.9791C167.317 27.5195 164.839 22.4247 161.272 18.1262C160.203 16.8304 159.033 15.6222 157.771 14.5133C157.344 14.0894 156.873 13.7123 156.366 13.3887C156.267 13.5011 158.334 15.1319 160.92 18.4496C164.315 22.7558 166.682 27.7806 167.839 33.1406C168.996 38.5006 168.914 44.054 167.598 49.3773C166.558 53.4401 165.349 55.7878 165.475 55.8441Z" fill="#455A64"/>
<path d="M123.301 9.704C123.301 9.61965 122.668 9.70401 121.811 10.2382C120.693 10.9294 119.773 11.8979 119.14 13.0498C118.484 14.173 118.131 15.4468 118.114 16.7471C118.114 17.7312 118.339 18.3216 118.423 18.3075C118.575 16.602 119.052 14.9414 119.829 13.4153C120.751 11.9775 121.928 10.7199 123.301 9.704Z" fill="#455A64"/>
<path d="M124.018 67.3009L124.144 67.0057L128.727 65.4593C129.135 65.2875 129.581 65.2245 130.021 65.2765C130.476 65.409 130.863 65.7108 131.103 66.12C131.515 66.7934 131.691 67.5851 131.602 68.3695C131.512 69.154 131.164 69.8862 130.611 70.4499C130.012 71.0082 129.258 71.3737 128.449 71.499C127.639 71.6244 126.811 71.5037 126.07 71.1528C125.368 70.8065 124.792 70.2484 124.424 69.5573C124.056 68.8662 123.914 68.077 124.018 67.3009Z" fill="#FF9A6C"/>
<path d="M95.0863 123.211C95.007 123.562 94.96 123.92 94.9457 124.279C94.9457 125.067 94.8192 126.093 94.7207 127.358C94.5099 130.043 94.3693 133.923 94.2849 138.731C94.1022 148.347 94.5521 161.618 95.508 176.238C96.464 190.858 97.2934 204.087 97.4761 213.675C97.5886 218.468 97.6308 222.348 97.5886 225.034V228.126C97.5557 228.486 97.5557 228.849 97.5886 229.209C97.6649 228.858 97.7026 228.5 97.7011 228.14C97.7011 227.339 97.7995 226.313 97.8557 225.048C97.9963 222.363 98.0525 218.468 98.0104 213.675C98.0104 204.059 97.2512 190.802 96.2953 176.182C95.3393 161.561 94.7911 148.333 94.8895 138.731C94.8895 133.937 94.8895 130.057 95.0581 127.372C95.0581 126.107 95.0581 125.081 95.0581 124.293C95.1078 123.935 95.1172 123.572 95.0863 123.211Z" fill="#263238"/>
<path d="M9.33213 125.096L24.9366 130.817L41.989 153.901L37.3358 161.97L32.7248 157.64C32.7248 157.64 15.1803 154.379 13.915 151.876C13.5539 151.15 13.3814 150.344 13.4133 149.533C13.4452 148.723 13.6806 147.933 14.0978 147.237C13.6804 145.648 13.6323 143.984 13.9572 142.373C14.0672 141.805 14.3312 141.277 14.7204 140.848C15.1096 140.419 15.6091 140.106 16.1643 139.941C15.8774 139.802 15.6208 139.607 15.4095 139.368C15.1982 139.129 15.0362 138.85 14.933 138.549C14.8298 138.247 14.7873 137.927 14.808 137.609C14.8287 137.291 14.9122 136.98 15.0537 136.694C15.2118 136.04 15.5239 135.433 15.9641 134.925C16.4043 134.416 16.9598 134.02 17.5842 133.77C17.5842 133.77 7.12502 128.793 6.19718 127.387C6.05341 127.176 5.98492 126.922 6.00277 126.667C6.02062 126.412 6.12376 126.171 6.29558 125.981C6.63397 125.521 7.11483 125.184 7.66374 125.024C8.21265 124.864 8.79902 124.889 9.33213 125.096Z" fill="#FFBF9D"/>
<path d="M44.6741 149.079L41.511 144.664L34.7069 132.321L19.5382 128.23C19.5382 128.23 16.9797 129.425 20.5082 133.952C21.4743 135.24 22.7625 136.25 24.2432 136.882C25.7239 137.514 27.3449 137.745 28.9431 137.551C28.9431 137.551 27.8606 147.392 30.5457 151.792C33.2308 156.192 40.4567 156.572 40.4567 156.572L44.6741 149.079Z" fill="#FFBF9D"/>
<path d="M30.4053 152.496C30.1381 152.207 29.9155 151.88 29.7446 151.526C29.2239 150.57 28.8046 149.561 28.4934 148.518C27.4663 144.982 27.6143 141.208 28.9151 137.763L29.1541 138.199L28.6199 138.115C26.6292 137.875 24.6914 137.31 22.8842 136.442C21.3657 135.664 20.149 134.402 19.4259 132.857C18.9219 131.799 18.755 130.611 18.948 129.455C18.9971 129.032 19.1572 128.629 19.4119 128.288C19.4119 128.288 19.2713 128.724 19.1869 129.497C19.0952 130.585 19.3146 131.678 19.8195 132.646C20.5399 134.066 21.7051 135.212 23.1373 135.908C24.9189 136.718 26.8162 137.244 28.7605 137.468L29.2947 137.566H29.6883L29.5337 137.946C28.2777 141.267 28.0764 144.895 28.9573 148.335C29.3473 149.752 29.831 151.143 30.4053 152.496Z" fill="#FF9A6C"/>
<path d="M16.5721 140.434C17.1037 140.588 17.6249 140.775 18.1325 140.996C19.1166 141.361 20.5786 141.839 22.35 142.528C23.3349 142.895 24.2775 143.366 25.1616 143.934C25.7174 144.262 26.1591 144.753 26.4268 145.34C26.5373 145.687 26.5681 146.054 26.517 146.414C26.4659 146.774 26.3342 147.118 26.1316 147.42C25.7432 148.033 25.1869 148.521 24.529 148.826C23.8524 149.091 23.1094 149.136 22.4062 148.953L21.394 148.77C21.0365 148.72 20.6837 148.64 20.3397 148.531C19.6508 148.334 18.9338 148.081 18.2872 147.814L16.4877 147.097L16.6846 146.493C17.914 147.004 19.0755 147.665 20.1429 148.461L21.6611 149.501C22.1805 149.806 22.6827 150.139 23.1653 150.499C23.4233 150.703 23.6337 150.961 23.7818 151.255C23.9299 151.549 24.0122 151.871 24.0229 152.2C24.0252 152.542 23.9111 152.874 23.6995 153.142C23.5072 153.372 23.2609 153.551 22.9826 153.662C22.0854 153.997 21.1257 154.132 20.171 154.056C18.8168 153.91 17.4936 153.554 16.2488 153.002C15.7526 152.852 15.2795 152.634 14.843 152.355C15.3234 152.452 15.794 152.593 16.2488 152.777C17.4984 153.228 18.8038 153.507 20.1288 153.606C21.0255 153.662 21.9233 153.518 22.7577 153.184C22.9642 153.114 23.1441 152.982 23.2725 152.806C23.4009 152.63 23.4715 152.418 23.4746 152.2C23.4546 151.955 23.3829 151.716 23.2642 151.501C23.1455 151.285 22.9824 151.097 22.7858 150.949C22.3335 150.616 21.8643 150.306 21.3799 150.021L19.8336 148.981C18.8025 148.225 17.6838 147.598 16.5018 147.111L16.6986 146.493L18.5262 147.21C19.1869 147.463 19.932 147.716 20.5224 147.912C20.8394 148.012 21.1637 148.088 21.4924 148.137L22.5186 148.32C23.1023 148.517 23.7345 148.517 24.3181 148.32C24.8905 148.098 25.3811 147.705 25.7239 147.196C25.8847 146.979 25.9915 146.726 26.0355 146.46C26.0795 146.193 26.0594 145.92 25.9769 145.663C25.7642 145.174 25.4059 144.761 24.9507 144.482C24.0968 143.922 23.1876 143.451 22.2375 143.077C20.4943 142.345 19.0604 141.797 18.0904 141.361C17.5382 141.135 17.0257 140.821 16.5721 140.434Z" fill="#FF9A6C"/>
<path d="M17.7528 133.896C18.8797 134.094 19.967 134.474 20.9721 135.02C22.0988 135.558 23.1842 136.178 24.2196 136.876C24.81 137.284 25.4004 137.719 26.0049 138.211C26.3696 138.453 26.682 138.765 26.9235 139.13C27.165 139.495 27.3307 139.904 27.4107 140.334C27.4295 140.594 27.39 140.856 27.2952 141.099C27.2003 141.342 27.0525 141.561 26.8625 141.74C26.5288 142.036 26.1204 142.235 25.6816 142.316C24.9356 142.423 24.1783 142.423 23.4323 142.316C22.2075 142.133 20.996 141.87 19.8053 141.529C18.6835 141.293 17.6125 140.86 16.6423 140.25C16.6423 140.179 17.8794 140.629 19.9178 141.079C21.1007 141.353 22.2973 141.564 23.5026 141.712C24.1879 141.81 24.8838 141.81 25.5691 141.712C25.8865 141.672 26.1807 141.524 26.4031 141.294C26.6255 141.064 26.7627 140.765 26.7922 140.447C26.6036 139.758 26.1683 139.162 25.5691 138.774C24.9928 138.296 24.4164 137.846 23.8541 137.452C22.8529 136.745 21.8107 136.097 20.7332 135.512C18.9478 134.444 17.7247 133.994 17.7528 133.896Z" fill="#FF9A6C"/>
<path d="M73.5351 161.898L89.1958 111.697C89.8652 109.47 91.064 107.439 92.6896 105.776C94.3152 104.114 96.3192 102.87 98.5304 102.151L108.09 99.9863L97.5182 181.453L95.1424 187.568C89.5191 200.038 77.3167 197.929 66.5201 192.418C66.1265 192.221 65.7469 192.025 65.3814 191.814L33.8632 166.369L44.3084 147.545L73.5351 161.898Z" fill="#455A64"/>
<path d="M77.0214 176.223C76.8386 176.223 76.7683 172.877 75.6999 168.955C74.6315 165.033 73.057 162.123 73.2257 162.024C74.7155 164.037 75.7645 166.341 76.3044 168.786C77.0475 171.191 77.2914 173.721 77.0214 176.223Z" fill="#263238"/>
<path d="M171.759 126.008L161.173 224.724L102.579 229.039L97.9119 225.047L99.5426 150.539L120.63 97.4559C123.132 102.208 127.926 103.81 133.704 103.374C137.648 103.02 141.417 101.585 144.599 99.2273L154.285 92.1982L171.759 126.008Z" fill="white"/>
<path d="M154.116 87.1406L163.493 97.4171L194.912 108.017L175.231 202.895L190.231 239.614C191.796 243.482 193.097 247.451 194.125 251.493L203.361 287.581C203.361 287.581 171.66 296.212 163.493 291.503C155.325 286.793 145.372 240.992 142.406 230.111C139.439 219.23 134.856 186.911 136.965 169.661C139.074 152.412 142.715 127.066 144.514 118.307C146.314 109.549 154.116 87.1406 154.116 87.1406Z" fill="#455A64"/>
<path d="M194.912 108.016C194.912 108.016 203.15 118.784 205.484 129.103C209.434 146.591 224.687 194.318 223.76 205.494C222.832 216.67 163.802 236.97 163.802 236.97L161.384 205.86L188.867 191.38L181.318 162.055" fill="#455A64"/>
<path d="M181.318 162.069C181.339 162.24 181.372 162.409 181.417 162.575C181.501 162.94 181.614 163.433 181.768 164.079C182.106 165.415 182.57 167.355 183.174 169.843L188.615 191.45L188.727 191.169L161.229 205.579L161.047 205.677V205.902C161.764 215.349 162.565 225.864 163.422 237.012V237.49L163.872 237.336C175.456 233.259 187.912 228.507 200.423 222.687C204.542 220.733 208.591 218.737 212.443 216.488C216.295 214.238 220.091 211.905 222.832 208.376C223.166 207.939 223.454 207.468 223.689 206.97C223.805 206.705 223.885 206.427 223.928 206.141C224.016 205.869 224.059 205.584 224.055 205.297C224.084 204.218 224.041 203.138 223.928 202.064C223.76 199.941 223.366 197.847 223.029 195.836C222.227 191.774 221.356 187.809 220.4 183.985C216.59 168.648 212.555 155.012 209.378 143.498C207.776 137.748 206.426 132.533 205.287 127.922C204.152 123.997 202.552 120.221 200.522 116.675C199.277 114.429 197.912 112.251 196.431 110.152C195.925 109.435 195.531 108.887 195.25 108.536C195.12 108.35 194.974 108.176 194.814 108.016L195.194 108.578L196.304 110.237C197.26 111.713 198.68 113.878 200.255 116.816C202.225 120.348 203.772 124.099 204.866 127.992C205.962 132.589 207.284 137.833 208.858 143.611C211.965 155.138 215.887 168.789 219.711 184.112C220.653 187.936 221.524 191.886 222.312 195.935C222.635 197.959 223.015 200.012 223.183 202.092C223.291 203.124 223.329 204.162 223.296 205.199C223.235 206.204 222.856 207.164 222.213 207.94C219.655 211.244 215.803 213.564 212.049 215.827C208.296 218.09 204.205 220.044 200.086 221.984C187.574 227.79 175.119 232.556 163.535 236.633L164.027 236.956C163.141 225.808 162.312 215.293 161.567 205.846L161.398 206.155L188.98 191.605L189.149 191.506V191.324C186.745 182.158 184.833 174.834 183.526 169.787C182.865 167.299 182.345 165.387 181.979 164.037L181.571 162.561C181.507 162.387 181.422 162.222 181.318 162.069Z" fill="#263238"/>
<path d="M120.545 90.585L115.92 97.7265L96.6747 102.605C96.6747 102.605 91.6138 127.909 91.6138 134.938C91.6138 141.967 94.4254 218.907 94.4254 222.534C94.4254 226.161 80.522 275.392 81.7731 278.415C83.0243 281.437 97.49 283.56 97.49 283.56C97.49 283.56 102.916 240.964 102.916 226.456C102.916 211.948 103.521 176.311 106.543 158.781C109.566 141.25 120.461 97.7968 120.461 97.7968L120.545 90.585Z" fill="#455A64"/>
<path d="M102.608 234.525C102.629 234.404 102.629 234.281 102.608 234.16V233.105C102.608 232.107 102.608 230.758 102.608 229.043C102.608 225.444 102.411 220.341 102.27 214.085C101.975 201.433 101.469 184.001 101.16 164.741C101.16 162.323 101.16 159.947 101.16 157.599C101.16 155.252 101.399 152.988 101.581 150.711C101.947 146.184 102.298 141.812 102.72 137.665C103.142 133.518 103.62 129.582 104.252 125.927C104.848 122.558 105.79 119.261 107.064 116.086C108.908 111.463 111.02 106.952 113.39 102.576C114.205 101.072 114.796 99.8771 115.33 99.0055L115.85 98.0776C115.913 97.9726 115.961 97.859 115.991 97.7402C115.915 97.8342 115.844 97.9328 115.78 98.0354L115.204 98.9211C114.712 99.7084 113.995 100.889 113.123 102.422C110.644 106.763 108.451 111.262 106.558 115.889C105.234 119.09 104.249 122.422 103.62 125.828C102.959 129.511 102.467 133.448 102.017 137.609C101.567 141.77 101.202 146.142 100.822 150.669C100.639 152.932 100.386 155.238 100.386 157.614C100.386 159.989 100.386 162.351 100.386 164.755C100.696 184.043 101.286 201.489 101.722 214.113C101.975 220.369 102.172 225.458 102.312 229.057C102.397 230.772 102.467 232.135 102.509 233.119C102.509 233.555 102.509 233.893 102.594 234.188C102.583 234.3 102.587 234.414 102.608 234.525Z" fill="#263238"/>
<path d="M138.413 205.523C138.515 205.156 138.577 204.778 138.596 204.398C138.596 203.653 138.765 202.542 138.849 201.122C139.032 198.311 139.2 194.164 139.116 189.075C139.116 186.516 139.004 183.737 138.779 180.738C138.767 177.587 139.15 174.446 139.917 171.39C141.752 164.349 144.073 157.444 146.862 150.724C149.772 143.541 152.781 136.793 155.578 130.677C156.984 127.808 158.223 124.861 159.289 121.849C160.094 119.183 160.751 116.475 161.258 113.737C162.228 108.733 162.762 104.642 163.099 101.816C163.268 100.41 163.38 99.2998 163.451 98.5547C163.488 98.1761 163.488 97.7947 163.451 97.416C163.356 97.7852 163.29 98.1612 163.254 98.5407C163.127 99.356 162.959 100.424 162.762 101.774C162.326 104.586 161.722 108.662 160.681 113.625C160.147 116.336 159.467 119.015 158.643 121.652C157.555 124.63 156.301 127.544 154.889 130.382C152.078 136.483 149.027 143.231 146.103 150.443C143.302 157.2 140.986 164.148 139.172 171.235C138.414 174.364 138.055 177.576 138.104 180.794C138.315 183.761 138.455 186.544 138.526 189.075C138.68 194.164 138.526 198.269 138.526 201.108C138.526 202.514 138.441 203.554 138.399 204.384C138.382 204.763 138.387 205.144 138.413 205.523Z" fill="#263238"/>
<path d="M51.7592 203.147L68.2634 225.443C68.5978 225.897 69.0536 226.248 69.5784 226.454C70.1031 226.661 70.6755 226.715 71.2297 226.61L142.574 213.072C142.996 212.993 143.395 212.826 143.746 212.58C144.097 212.334 144.392 212.016 144.61 211.648C144.828 211.279 144.965 210.868 145.012 210.442C145.058 210.016 145.013 209.585 144.88 209.178L137.19 185.49C136.964 184.795 136.492 184.207 135.864 183.834C135.235 183.462 134.492 183.331 133.774 183.466L53.643 198.339C53.1321 198.429 52.6528 198.648 52.2512 198.976C51.8496 199.305 51.5393 199.731 51.3501 200.214C51.1609 200.697 51.0991 201.22 51.1708 201.734C51.2424 202.248 51.4451 202.734 51.7592 203.147Z" fill="#263238"/>
<path d="M205.484 193.392C204.847 192.57 204.029 191.906 203.094 191.452C200.911 190.186 198.439 189.504 195.915 189.469C193.392 189.435 190.902 190.05 188.685 191.255C187.736 191.687 186.899 192.331 186.239 193.139C186.239 193.237 187.251 192.52 188.938 191.733C191.118 190.709 193.503 190.195 195.912 190.229C198.321 190.263 200.69 190.845 202.841 191.93C204.5 192.703 205.372 193.392 205.484 193.392Z" fill="#263238"/>
<path d="M92.106 124.324C92.0279 124.651 91.9855 124.986 91.9795 125.322C91.9795 126.053 91.853 126.995 91.7687 128.134C91.5719 130.608 91.4453 134.193 91.361 138.635C91.1923 147.506 91.614 159.722 92.4997 173.288C93.3853 186.855 94.1445 199.015 94.3132 207.928C94.4116 212.356 94.4538 215.941 94.4116 218.415V221.227C94.3779 221.558 94.3779 221.893 94.4116 222.225C94.4862 221.902 94.5193 221.571 94.51 221.241C94.51 220.51 94.5943 219.554 94.6646 218.429C94.7771 215.941 94.8333 212.356 94.8052 207.914C94.8052 199.029 94.0882 186.826 93.2166 173.274C92.345 159.722 91.8108 147.548 91.8108 138.678C91.8108 134.249 91.8108 130.664 91.9655 128.19C91.9655 127.009 91.9655 126.067 91.9655 125.379C92.0463 125.032 92.0934 124.679 92.106 124.324Z" fill="#263238"/>
<path d="M179.168 158.978C179.281 158.324 179.323 157.66 179.294 156.996C179.294 155.717 179.393 153.861 179.547 151.598C179.967 145.672 180.941 139.798 182.457 134.053C184.016 128.348 186.101 122.799 188.685 117.479C189.683 115.427 190.541 113.782 191.159 112.671C191.514 112.108 191.811 111.509 192.045 110.886C191.61 111.388 191.228 111.935 190.906 112.516C190.203 113.599 189.261 115.202 188.207 117.226C185.444 122.541 183.266 128.141 181.712 133.927C180.172 139.716 179.263 145.655 178.999 151.64C178.915 153.932 178.915 155.787 178.999 157.067C178.99 157.708 179.046 158.349 179.168 158.978Z" fill="#263238"/>
<path d="M125.114 70.9422C125.03 70.9422 125.915 71.7998 127.63 71.7295C128.659 71.7264 129.654 71.3633 130.442 70.7032C130.892 70.2646 131.241 69.7328 131.465 69.1452C131.688 68.5575 131.781 67.9282 131.735 67.3012C131.729 66.971 131.696 66.6419 131.637 66.3171C131.547 65.9939 131.41 65.6859 131.229 65.4033C131.169 65.3197 131.103 65.2398 131.033 65.1643C130.934 65.0833 130.819 65.0257 130.695 64.9956C130.507 64.939 130.307 64.939 130.119 64.9956C129.781 65.08 129.556 65.1643 129.303 65.2487L126.632 66.2046C125.795 66.4494 124.992 66.7989 124.242 67.2449C125.117 67.188 125.979 67.0033 126.801 66.6967L129.514 65.8954L130.259 65.6704C130.343 65.656 130.429 65.656 130.512 65.6704C130.512 65.6704 130.639 65.4736 130.512 65.572V65.6564L130.597 65.7548C130.731 65.9742 130.835 66.2106 130.906 66.4577C130.923 66.7292 130.923 67.0015 130.906 67.273C130.947 67.8007 130.877 68.3311 130.7 68.8299C130.523 69.3288 130.244 69.785 129.88 70.169C129.221 70.7479 128.392 71.0981 127.518 71.1671C126.71 71.2434 125.894 71.1671 125.114 70.9422Z" fill="#263238"/>
</g>
</svg>
