<svg width="276" height="184" viewBox="0 0 276 184" fill="none" xmlns="http://www.w3.org/2000/svg">
<mask id="mask0_1029_8757" style="mask-type:alpha" maskUnits="userSpaceOnUse" x="0" y="0" width="276" height="184">
<rect width="276" height="184" fill="#C4C4C4"/>
</mask>
<g mask="url(#mask0_1029_8757)">
<path d="M260 162.183C253.025 123.757 238.055 107.182 224.993 99.2743C203.686 86.37 188.887 97.4074 160.433 80.632C140.433 68.8435 138.02 57.6609 118.611 51.1868C102.399 45.7778 86.8987 47.8476 76.0285 50.6042C57.9579 101.509 71.6204 152.957 104.95 175.121C121.437 186.087 151.364 195.624 176.767 185.736C197.147 177.804 204.551 161.287 228.363 158.036C241.533 156.243 252.848 159.436 260 162.183Z" fill="url(#paint0_linear_1029_8757)"/>
<g style="mix-blend-mode:multiply" opacity="0.3">
<path style="mix-blend-mode:multiply" opacity="0.3" d="M128.231 112.61C143.921 129.947 152.932 151.247 172.954 152.995C195.589 154.97 206.355 129.692 226.235 132.022C234.581 133.003 245.515 138.967 257.016 161.103C249.885 158.691 239.828 156.474 228.37 158.038C204.558 161.29 197.154 177.806 176.774 185.738C151.377 195.626 121.449 186.087 104.957 175.123C77.4234 156.814 63.3133 118.518 69.4252 77.0537C98.8451 86.2241 116.74 99.9125 128.231 112.61Z" fill="url(#paint1_linear_1029_8757)"/>
</g>
<path d="M52.6504 150.53C54.7335 201.812 50.6498 253.158 40.487 303.469L48.4866 305.167C54.8222 298.602 62.712 288.381 66.0329 274.352C68.0921 265.645 67.0185 261.285 68.0523 250.656C69.6997 233.733 74.3838 224.661 78.9856 210.84C83.122 198.419 87.8267 180.263 89.5839 156.237L52.6504 150.53Z" fill="url(#paint2_linear_1029_8757)"/>
<path style="mix-blend-mode:multiply" opacity="0.3" d="M56.3296 258.077C59.2648 246.468 64.9209 243.398 65.1158 232.444C65.2531 224.692 62.469 224.059 62.6543 216.639C62.9289 205.385 69.5377 199.485 72.8545 192.407C76.358 184.931 77.6992 172.922 68.2582 152.948L89.5729 156.238C87.8157 180.265 83.111 198.42 78.9746 210.841C74.3715 224.664 69.6887 233.733 68.0413 250.657C67.0076 261.286 68.0825 265.647 66.0219 274.354C62.701 288.382 54.8113 298.604 48.4756 305.168L46.4411 304.737C53.2902 296.572 55.7077 289.281 56.3255 283.365C57.3304 273.744 53.3698 269.784 56.3296 258.077Z" fill="url(#paint3_linear_1029_8757)"/>
<path d="M79.2972 149.092C82.4703 178.254 85.3748 207.971 88.0107 238.242C89.9811 260.954 91.7398 283.385 93.2865 305.536L101.395 306.099C104.717 299.062 107.151 291.64 108.639 284.004C110.892 272.372 109.864 265.59 110.484 253.626C111.181 240.208 113.075 237.192 115.805 220.166C121.346 185.614 124.116 168.337 115.329 158.15C112.477 154.843 103.65 146.636 79.2972 149.092Z" fill="url(#paint4_linear_1029_8757)"/>
<path d="M70.4356 50.2959C63.2831 52.4548 54.1331 60.8507 49.3474 65.4661C38.3098 76.0922 17.5895 111.944 29.6609 124.747C37.8746 133.457 52.3128 129.797 58.6731 121.015C63.3545 114.556 60.5196 108.678 59.5339 97.047C58.474 84.5333 62.966 62.6601 70.4356 50.2959Z" fill="#F4F7FA"/>
<path d="M64.4103 53.7373C59.479 59.585 57.7479 59.097 53.9053 67.1474C48.116 79.2745 52.3801 93.137 52.9882 108.076C53.6541 124.462 52.9978 154.955 44.7512 170.719C44.6139 170.993 44.537 171.051 44.5439 171.462C44.7965 188.173 123.872 176.465 123.746 170.366C123.124 140.059 103.354 73.6901 108.25 51.7388C106.028 51.699 101.629 49.381 99.8405 48.8807C92.1608 46.7369 85.2266 46.375 77.9643 47.3619C75.3078 47.7224 73.9707 48.3324 72.0323 49.0767C68.8816 50.2926 66.8498 52.0924 64.4103 53.7373Z" fill="#F4F7FA"/>
<path d="M92.552 30.6465C92.4477 35.7347 94.1198 43.0656 94.7788 47.6274C95.4377 52.1893 86.0997 52.3826 83.0465 50.2661C80.2445 48.3238 82.3601 43.056 85.0577 40.2911C87.7553 37.5263 89.7912 33.4771 92.552 30.6465Z" fill="url(#paint5_linear_1029_8757)"/>
<path d="M79.9823 25.8994C76.2275 21.5609 77.2585 8.11788 81.9372 6.09327C84.2051 5.11043 86.9659 12.1835 89.1721 13.7695C92.1333 15.9065 100.543 18.9784 101.802 22.6274C102.747 25.3812 99.419 30.3708 98.1148 32.1404C96.639 34.1417 96.6046 33.3837 94.9723 34.7243C92.7154 36.5844 89.7555 38.7201 87.4327 40.8338C87.246 38.9627 87.3599 38.9791 86.9151 36.5323C86.7449 35.5906 84.9066 31.4605 83.9621 29.8403C83.3553 28.8136 80.4422 26.4298 79.9823 25.8994Z" fill="url(#paint6_linear_1029_8757)"/>
<path d="M92.2486 38.126C88.5557 40.7112 86.4511 44.1793 80.6509 42.2684C75.4575 40.5577 76.3704 27.1531 81.7492 23.892C83.5435 22.8037 85.902 23.1381 87.8295 24.0072C88.9676 24.5198 90.1001 25.478 91.2231 26.0907C92.2596 26.6582 93.2522 26.2744 94.1061 27.5177C95.1728 29.0735 93.8398 32.4908 92.8884 34.0973C93.5034 33.6861 94.2159 33.0953 94.9682 32.9678C95.4981 32.8801 96.4962 32.1563 96.8765 32.9514C97.497 34.2495 95.4899 36.2919 94.3656 37.0911C93.8507 37.4612 92.8527 37.8614 92.2486 38.126Z" fill="url(#paint7_linear_1029_8757)"/>
<path d="M94.6031 26.7193C93.8164 27.0414 94.9325 28.5629 94.5564 29.872C93.8274 32.4052 92.3598 36.9588 88.5269 36.8985C86.2576 36.8629 84.1887 34.5545 81.8796 33.998C80.3988 33.6334 78.8647 33.535 77.3493 33.7074C76.0382 36.3639 75.4053 40.738 77.5868 42.79C79.9371 44.9997 81.7753 44.265 84.6473 43.8442C86.5692 43.5618 88.8275 42.2445 90.2361 40.59C91.705 38.8669 92.8637 37.0054 94.3354 35.1823C95.1481 34.1762 96.1379 32.911 97.081 31.8665C97.4065 31.5209 97.6937 31.1413 97.9377 30.7342C97.3831 30.042 95.7425 26.2532 94.6031 26.7193Z" fill="url(#paint8_linear_1029_8757)"/>
<path d="M80.0276 36.0055C81.0435 36.7677 82.334 36.9376 83.527 37.1172C83.5846 37.1254 83.8565 37.0583 83.7288 37.2625C83.2442 38.0288 81.5871 38.085 80.7977 37.7436C80.2376 37.4955 79.348 36.647 79.5402 36.0288C79.6212 35.767 79.9095 36.0535 80.0276 36.0055Z" fill="url(#paint9_linear_1029_8757)"/>
<path style="mix-blend-mode:multiply" opacity="0.3" d="M71.3499 150.375C69.2275 147.982 65.8585 144.176 65.6526 138.861C65.1378 125.2 86.3001 119.88 85.4668 108.763C84.8202 100.127 71.8647 101.096 64.4926 85.7574C63.2268 83.1242 58.5894 73.1163 61.9542 61.7815C63.0424 58.1597 64.8038 54.7748 67.1463 51.8037C66.2361 52.4439 65.3533 53.1046 64.4088 53.7447C59.479 59.5924 57.7478 59.1044 53.9052 67.1548C48.116 79.2819 52.38 93.1444 52.9868 108.083C53.654 124.469 52.9978 154.963 44.7498 170.727C44.6125 171.001 44.5095 171.179 44.5425 171.47C46.3862 188.08 123.871 176.473 123.744 170.373C123.67 166.718 123.315 162.538 122.76 157.976C120.013 158.737 86.5472 167.509 71.3499 150.375Z" fill="url(#paint10_linear_1029_8757)"/>
<path d="M49.1373 97.8972C44.8115 97.6806 47.7988 95.068 46.4891 95.449C45.6654 95.6862 25.5973 115.391 31.9219 125.785C37.9542 135.7 63.0126 128.976 71.8427 125.833C76.7506 124.086 91.3233 118.674 100.175 104.599C100.97 103.334 101.566 102.244 101.96 101.484C82.6168 98.9499 73.3528 98.3427 68.4999 98.3167C65.389 98.2988 62.2479 98.5524 49.1373 97.8972Z" fill="#F4F7FA"/>
<path d="M56.4477 95.8956C56.9968 100.246 59.2442 113.678 70.6044 124.682C72.8628 126.875 88.185 141.216 109.666 137.6C126.452 134.774 141.399 121.936 144.854 105.901C151.599 74.5954 111.538 46.9773 102.339 51.7147C96.1612 54.8935 94.3999 77.5398 103.643 88.9842C105.653 91.4708 109.387 94.9223 108.809 99.2567C108.26 103.418 104.033 106.046 101.644 107.489C90.3706 114.299 65.6759 96.7222 59.1399 95.2788C58.669 95.2705 58.3134 94.8223 56.4477 95.8956Z" fill="#F4F7FA"/>
<path style="mix-blend-mode:multiply" opacity="0.3" d="M116.38 88.8412C112.488 84.9044 107.979 82.8318 102.907 81.2746C101.64 80.932 100.375 80.6153 99.1211 80.2891C100.158 83.5062 101.642 86.5109 103.643 88.9893C105.645 91.4676 109.387 94.9274 108.809 99.2617C108.26 103.423 104.033 106.051 101.644 107.494C90.3706 114.304 65.676 96.7272 59.1399 95.2838C58.669 95.2701 58.3162 94.8232 56.4477 95.8965C56.585 96.9931 56.8294 98.649 57.2976 100.694C66.567 97.7306 76.623 107.016 84.639 111.555C94.9353 117.374 107.759 121.135 117.804 113.45C125.333 107.828 122.602 95.303 116.38 88.8412Z" fill="url(#paint11_linear_1029_8757)"/>
<path style="mix-blend-mode:multiply" opacity="0.3" d="M121.305 58.3086C119.548 64.2029 119.336 70.1835 122.857 75.8831C127.937 83.9157 133.605 90.6242 135.669 99.615C137.518 107.246 136.399 114.756 134.201 122.223C133.578 124.13 132.617 125.911 131.365 127.48C138.092 121.816 143.046 114.299 144.854 105.905C149.102 86.1898 134.786 67.9382 121.305 58.3086Z" fill="url(#paint12_linear_1029_8757)"/>
<path d="M100.175 104.598C100.711 105.877 103.359 107.191 104.644 107.041C106.799 106.793 108.32 105.326 109.671 104.688C110.878 104.117 113.572 103.343 113.734 102.386C114.04 100.574 111.096 100.056 109.369 99.8886C106.949 99.6432 104.367 100.348 101.956 101.484C101.364 102.535 100.693 103.561 100.175 104.598Z" fill="url(#paint13_linear_1029_8757)"/>
<path d="M52.5737 98.0587C61.0289 99.2444 62.9825 98.6618 63.2172 97.9216C63.5165 96.9717 61.2376 95.0512 58.805 94.7209C56.3366 94.3809 53.8312 95.701 52.5737 98.0587Z" fill="url(#paint14_linear_1029_8757)"/>
<path d="M98.4786 47.8135L110.73 50.2959L94.7856 57.3416C92.9021 58.1737 91.2163 55.8475 92.5891 54.326L98.4786 47.8135Z" fill="url(#paint15_linear_1029_8757)"/>
<path d="M76.7808 47.6777C73.6579 48.266 70.6803 49.4581 68.0153 51.1869L74.8905 56.8371C75.1588 57.0582 75.4875 57.1938 75.8339 57.2263C76.1803 57.2588 76.5286 57.1868 76.8335 57.0195C77.1384 56.8522 77.3861 56.5973 77.5443 56.2879C77.7026 55.9785 77.7642 55.6288 77.7212 55.2841L76.7808 47.6777Z" fill="url(#paint16_linear_1029_8757)"/>
</g>
<defs>
<linearGradient id="paint0_linear_1029_8757" x1="216.67" y1="-396.411" x2="127.068" y2="494.974" gradientUnits="userSpaceOnUse">
<stop stop-color="#EAE0FF"/>
<stop offset="1" stop-color="#6034B8"/>
</linearGradient>
<linearGradient id="paint1_linear_1029_8757" x1="215.14" y1="-396.564" x2="125.539" y2="494.821" gradientUnits="userSpaceOnUse">
<stop stop-color="#8950FC"/>
<stop offset="1" stop-color="#360A8E"/>
</linearGradient>
<linearGradient id="paint2_linear_1029_8757" x1="33.648" y1="280.579" x2="73.5443" y2="175.736" gradientUnits="userSpaceOnUse">
<stop stop-color="#26264F"/>
<stop offset="1" stop-color="#444B8C"/>
</linearGradient>
<linearGradient id="paint3_linear_1029_8757" x1="-111793" y1="433189" x2="-49981.9" y2="393707" gradientUnits="userSpaceOnUse">
<stop stop-color="#26264F"/>
<stop offset="1" stop-color="#444B8C"/>
</linearGradient>
<linearGradient id="paint4_linear_1029_8757" x1="-117172" y1="471165" x2="-52727.4" y2="438555" gradientUnits="userSpaceOnUse">
<stop stop-color="#26264F"/>
<stop offset="1" stop-color="#444B8C"/>
</linearGradient>
<linearGradient id="paint5_linear_1029_8757" x1="-24560.1" y1="23168.6" x2="-21399.5" y2="30528.8" gradientUnits="userSpaceOnUse">
<stop stop-color="#FFC444"/>
<stop offset="1" stop-color="#F36F56"/>
</linearGradient>
<linearGradient id="paint6_linear_1029_8757" x1="-45947.6" y1="28220.7" x2="-47708" y2="18290.7" gradientUnits="userSpaceOnUse">
<stop stop-color="#26264F"/>
<stop offset="1" stop-color="#444B8C"/>
</linearGradient>
<linearGradient id="paint7_linear_1029_8757" x1="-36407.2" y1="15034.2" x2="-42488.9" y2="12230.2" gradientUnits="userSpaceOnUse">
<stop stop-color="#FFC444"/>
<stop offset="1" stop-color="#F36F56"/>
</linearGradient>
<linearGradient id="paint8_linear_1029_8757" x1="-40121.9" y1="12206.9" x2="-40363.2" y2="6943.37" gradientUnits="userSpaceOnUse">
<stop stop-color="#26264F"/>
<stop offset="1" stop-color="#444B8C"/>
</linearGradient>
<linearGradient id="paint9_linear_1029_8757" x1="-7802.62" y1="961.435" x2="-7805.07" y2="1797.77" gradientUnits="userSpaceOnUse">
<stop stop-color="#FFC444"/>
<stop offset="1" stop-color="#F36F56"/>
</linearGradient>
<linearGradient id="paint10_linear_1029_8757" x1="94.2944" y1="199.341" x2="54.8725" y2="60.2778" gradientUnits="userSpaceOnUse">
<stop stop-color="#E38DDD"/>
<stop offset="1" stop-color="#9571F6"/>
</linearGradient>
<linearGradient id="paint11_linear_1029_8757" x1="-299335" y1="67431.2" x2="-299676" y2="48930.9" gradientUnits="userSpaceOnUse">
<stop stop-color="#E38DDD"/>
<stop offset="1" stop-color="#9571F6"/>
</linearGradient>
<linearGradient id="paint12_linear_1029_8757" x1="-123548" y1="140358" x2="-129013" y2="77953.2" gradientUnits="userSpaceOnUse">
<stop stop-color="#E38DDD"/>
<stop offset="1" stop-color="#9571F6"/>
</linearGradient>
<linearGradient id="paint13_linear_1029_8757" x1="-23064.5" y1="11080.1" x2="-23139.2" y2="12475.5" gradientUnits="userSpaceOnUse">
<stop stop-color="#FFC444"/>
<stop offset="1" stop-color="#F36F56"/>
</linearGradient>
<linearGradient id="paint14_linear_1029_8757" x1="-21965.3" y1="6141.46" x2="-21995.6" y2="6929.68" gradientUnits="userSpaceOnUse">
<stop stop-color="#FFC444"/>
<stop offset="1" stop-color="#F36F56"/>
</linearGradient>
<linearGradient id="paint15_linear_1029_8757" x1="-31988.6" y1="8801.44" x2="-32311.7" y2="14968.1" gradientUnits="userSpaceOnUse">
<stop stop-color="#A489DB"/>
<stop offset="1" stop-color="#8A6BCD"/>
</linearGradient>
<linearGradient id="paint16_linear_1029_8757" x1="-18685.6" y1="8778.12" x2="-19252.3" y2="14503.6" gradientUnits="userSpaceOnUse">
<stop stop-color="#A489DB"/>
<stop offset="1" stop-color="#A489DB"/>
</linearGradient>
</defs>
</svg>
