<svg width="30" height="30" viewBox="0 0 30 30" fill="none" xmlns="http://www.w3.org/2000/svg">
<path d="M6.525 28.7501C10.1287 28.7501 13.05 25.8533 13.05 22.2801C13.05 18.7068 10.1287 15.8101 6.525 15.8101C2.92134 15.8101 0 18.7068 0 22.2801C0 25.8533 2.92134 28.7501 6.525 28.7501Z" fill="#EF5350"/>
<path d="M15.0001 14.19C18.6038 14.19 21.5251 11.2933 21.5251 7.72C21.5251 4.14672 18.6038 1.25 15.0001 1.25C11.3964 1.25 8.4751 4.14672 8.4751 7.72C8.4751 11.2933 11.3964 14.19 15.0001 14.19Z" fill="#EF5350"/>
<path d="M23.475 28.7501C27.0786 28.7501 30 25.8533 30 22.2801C30 18.7068 27.0786 15.8101 23.475 15.8101C19.8713 15.8101 16.95 18.7068 16.95 22.2801C16.95 25.8533 19.8713 28.7501 23.475 28.7501Z" fill="#EF5350"/>
</svg>
