<svg width="38" height="38" viewBox="0 0 38 38" fill="none" xmlns="http://www.w3.org/2000/svg">
<rect width="38" height="38" rx="19" fill="#D8F5FF"/>
<path d="M18.341 15.04C18.643 15.455 18.794 15.95 18.794 16.529C18.794 17.124 18.643 17.604 18.337 17.966C18.165 18.167 17.914 18.353 17.582 18.52C18.086 18.702 18.466 18.989 18.725 19.381C18.981 19.773 19.11 20.25 19.11 20.81C19.11 21.388 18.963 21.907 18.669 22.365C18.483 22.668 18.249 22.925 17.969 23.132C17.6381 23.377 17.2563 23.5444 16.852 23.622C16.422 23.71 15.957 23.753 15.455 23.753H11V14H15.778C16.984 14.018 17.837 14.364 18.341 15.04ZM12.971 15.694V17.846H15.375C15.803 17.846 16.152 17.765 16.421 17.604C16.688 17.443 16.823 17.157 16.823 16.748C16.823 16.292 16.646 15.993 16.292 15.846C15.986 15.745 15.596 15.694 15.123 15.694H12.971ZM12.971 19.46V22.061H15.372C15.801 22.061 16.136 22.004 16.374 21.889C16.808 21.675 17.024 21.271 17.024 20.671C17.024 20.162 16.815 19.814 16.395 19.624C16.159 19.519 15.829 19.463 15.405 19.46H12.971ZM25.087 16.688C25.598 16.913 26.018 17.269 26.349 17.755C26.651 18.184 26.845 18.681 26.933 19.246C26.985 19.576 27.005 20.055 26.997 20.678H21.67C21.702 21.401 21.954 21.909 22.436 22.199C22.728 22.38 23.078 22.471 23.491 22.471C23.925 22.471 24.279 22.361 24.551 22.141C24.701 22.021 24.832 21.856 24.945 21.645H26.897C26.845 22.072 26.608 22.507 26.189 22.949C25.534 23.649 24.617 24 23.438 24C22.464 24 21.606 23.705 20.863 23.113C20.117 22.522 19.746 21.559 19.746 20.226C19.746 18.976 20.082 18.017 20.753 17.35C21.426 16.685 22.296 16.35 23.367 16.35C24.005 16.349 24.578 16.462 25.087 16.688ZM22.228 18.317C21.958 18.592 21.788 18.964 21.718 19.433H25.013C24.978 18.932 24.807 18.553 24.504 18.292C24.197 18.033 23.82 17.904 23.369 17.904C22.88 17.905 22.498 18.043 22.228 18.317ZM21.224 15.669H25.461V14.455H21.224V15.669Z" fill="#1976D2"/>
</svg>
