<svg width="38" height="38" viewBox="0 0 38 38" fill="none" xmlns="http://www.w3.org/2000/svg">
<rect width="38" height="38" rx="5" fill="#F4FDEF"/>
<path d="M12.3333 11.75H25.6667C26.8333 11.75 27.75 12.6667 27.75 13.8333V22.1667C27.75 23.3333 26.8333 24.25 25.6667 24.25H12.3333C11.1667 24.25 10.25 23.3333 10.25 22.1667V13.8333C10.25 12.6667 11.1667 11.75 12.3333 11.75Z" fill="#C6F1AF"/>
<path d="M27.75 14.25H10.25V16.75H27.75V14.25Z" fill="#71DD37"/>
<path d="M13.5834 20.9166H11.9167V21.75H13.5834V20.9166Z" fill="#71DD37"/>
<path d="M16.0834 20.9166H14.4167V21.75H16.0834V20.9166Z" fill="#71DD37"/>
<path d="M18.5834 20.9166H16.9167V21.75H18.5834V20.9166Z" fill="#71DD37"/>
<path d="M21.0834 20.9166H19.4167V21.75H21.0834V20.9166Z" fill="#71DD37"/>
<path d="M23.5834 18.4166H11.9167V19.25H23.5834V18.4166Z" fill="#71DD37"/>
</svg>
