<svg width="38" height="38" viewBox="0 0 38 38" fill="none" xmlns="http://www.w3.org/2000/svg">
<rect width="38" height="38" rx="19" fill="#FFCDF1" fill-opacity="0.54"/>
<path d="M9.5 19C10.0232 31.6716 27.9814 31.6618 28.5 19C27.9802 6.33523 10.0218 6.33143 9.5 19Z" fill="#D43C89"/>
<path d="M21.4942 18.7406C24.3466 18.3832 27.1766 18.9552 27.4574 19.0176C27.444 16.989 26.7176 15.1256 25.5276 13.6646C25.3448 13.9104 23.9098 15.7558 20.7454 17.0516C21.0176 17.601 21.2654 18.1714 21.4942 18.7406ZM24.676 12.7248C23.1652 11.3754 21.1774 10.5576 18.998 10.5576C18.3072 10.562 17.6342 10.647 16.9924 10.799C17.2286 11.1162 18.784 13.2432 20.188 15.8258C23.2364 14.682 24.5244 12.9438 24.676 12.7248ZM18.665 16.3454C17.2478 13.8164 15.7146 11.6894 15.4874 11.3766C13.094 12.5116 11.298 14.7278 10.7454 17.391C11.1286 17.3954 14.6584 17.4088 18.665 16.3454ZM19.6644 19.0676C19.775 19.032 19.8856 18.9966 20.0006 18.9656C19.7882 18.4822 19.5538 17.9942 19.3104 17.5196C15.0676 18.7926 10.9442 18.7394 10.5726 18.735C10.497 20.991 11.341 23.1316 12.7538 24.6922C12.9484 24.3594 15.28 20.487 19.6644 19.0676ZM20.472 20.3876C15.793 22.0234 14.1096 25.2778 13.9628 25.5808C16.1598 27.3814 19.652 27.876 22.2936 26.6758C22.1684 25.9444 21.6892 23.404 20.5238 20.3704C20.5066 20.379 20.485 20.3834 20.472 20.3876ZM22.1672 19.969C23.2554 22.9724 23.6976 25.415 23.7886 25.9236C25.6528 24.6544 26.9836 22.6508 27.3564 20.3254C27.0702 20.234 24.777 19.5516 22.1672 19.969Z" fill="#B2005F"/>
</svg>
