<svg width="24" height="26" viewBox="0 0 24 26" fill="none" xmlns="http://www.w3.org/2000/svg">
<g clip-path="url(#clip0_840_3086)">
<path d="M23.9873 12.9436C23.9873 11.9025 23.9057 11.1427 23.729 10.3549H12.239V15.0539H18.9833C18.8474 16.2217 18.1132 17.9803 16.4814 19.1621L16.4585 19.3194L20.0915 22.2314L20.3431 22.2573C22.6547 20.0485 23.9873 16.7985 23.9873 12.9436Z" fill="#4285F4"/>
<path d="M12.2391 25.3244C15.5433 25.3244 18.3171 24.1988 20.3432 22.2574L16.4815 19.1621C15.4481 19.9077 14.0611 20.4283 12.2391 20.4283C9.00291 20.4283 6.25622 18.2195 5.27711 15.1665L5.13359 15.1791L1.35604 18.204L1.30664 18.3461C3.31906 22.4824 7.45272 25.3244 12.2391 25.3244Z" fill="#34A853"/>
<path d="M5.27702 15.1665C5.01867 14.3787 4.86916 13.5344 4.86916 12.6622C4.86916 11.7899 5.01867 10.9457 5.26343 10.1579L5.25659 9.99009L1.4317 6.91663L1.30656 6.97822C0.47714 8.69467 0.0012207 10.6222 0.0012207 12.6622C0.0012207 14.7022 0.47714 16.6296 1.30656 18.3461L5.27702 15.1665Z" fill="#FBBC05"/>
<path d="M12.2391 4.89603C14.5371 4.89603 16.0872 5.92307 16.971 6.78135L20.4248 3.29218C18.3036 1.25216 15.5433 0 12.2391 0C7.45273 0 3.31906 2.84195 1.30664 6.97824L5.26351 10.1579C6.25623 7.10491 9.00291 4.89603 12.2391 4.89603Z" fill="#EB4335"/>
</g>
<defs>
<clipPath id="clip0_840_3086">
<rect width="24" height="25.4118" fill="white"/>
</clipPath>
</defs>
</svg>
