<svg width="38" height="38" viewBox="0 0 38 38" fill="none" xmlns="http://www.w3.org/2000/svg">
<rect width="38" height="38" rx="19" fill="#FFF0ED"/>
<g clip-path="url(#clip0_838_2944)">
<path d="M15.0573 11.0566C14.4384 11.0635 13.8253 11.177 13.245 11.3922C12.8212 11.5488 12.4378 11.7982 12.1228 12.122C11.7981 12.4364 11.5483 12.8199 11.3922 13.2441C11.1772 13.8244 11.0639 14.4374 11.0571 15.0562C11.0096 16.0849 11 16.3934 11 19C11 21.6066 11.0105 21.914 11.0566 22.9435C11.0642 23.5621 11.1777 24.1748 11.3922 24.755C11.5491 25.1788 11.7985 25.5624 12.1222 25.8778C12.4368 26.2023 12.8204 26.4518 13.2445 26.6078C13.8249 26.823 14.4379 26.9365 15.0568 26.9434C16.0858 26.9904 16.3948 27 19 27C21.6052 27 21.914 26.9895 22.9435 26.9434C23.5622 26.9358 24.1751 26.8223 24.7555 26.6078C25.1794 26.4516 25.5629 26.2021 25.8776 25.878C26.2019 25.5631 26.4514 25.1795 26.6078 24.7555C26.823 24.1751 26.9366 23.5621 26.9435 22.9432C26.9906 21.9137 27.0002 21.6055 27.0002 18.9997C27.0002 16.3939 26.9906 16.0856 26.9435 15.0562C26.9361 14.4374 26.8225 13.8245 26.6078 13.2441C26.4455 12.8232 26.1967 12.441 25.8777 12.122C25.5587 11.8031 25.1764 11.5544 24.7555 11.3922C24.1751 11.177 23.5621 11.0634 22.9432 11.0565C21.9147 11.0094 21.6055 10.9998 18.9997 10.9998C16.3939 10.9998 16.0856 11.0089 15.0571 11.0565" fill="url(#paint0_radial_838_2944)"/>
<path d="M15.0573 11.0566C14.4384 11.0635 13.8253 11.177 13.245 11.3922C12.8212 11.5488 12.4378 11.7982 12.1228 12.122C11.7981 12.4364 11.5483 12.8199 11.3922 13.2441C11.1772 13.8244 11.0639 14.4374 11.0571 15.0562C11.0096 16.0849 11 16.3934 11 19C11 21.6066 11.0105 21.914 11.0566 22.9435C11.0642 23.5621 11.1777 24.1748 11.3922 24.755C11.5491 25.1788 11.7985 25.5624 12.1222 25.8778C12.4368 26.2023 12.8204 26.4518 13.2445 26.6078C13.8249 26.823 14.4379 26.9365 15.0568 26.9434C16.0858 26.9904 16.3948 27 19 27C21.6052 27 21.914 26.9895 22.9435 26.9434C23.5622 26.9358 24.1751 26.8223 24.7555 26.6078C25.1794 26.4516 25.5629 26.2021 25.8776 25.878C26.2019 25.5631 26.4514 25.1795 26.6078 24.7555C26.823 24.1751 26.9366 23.5621 26.9435 22.9432C26.9906 21.9137 27.0002 21.6055 27.0002 18.9997C27.0002 16.3939 26.9906 16.0856 26.9435 15.0562C26.9361 14.4374 26.8225 13.8245 26.6078 13.2441C26.4455 12.8232 26.1967 12.441 25.8777 12.122C25.5587 11.8031 25.1764 11.5544 24.7555 11.3922C24.1751 11.177 23.5621 11.0634 22.9432 11.0565C21.9147 11.0094 21.6055 10.9998 18.9997 10.9998C16.3939 10.9998 16.0856 11.0089 15.0571 11.0565" fill="url(#paint1_radial_838_2944)"/>
<path d="M17.0355 18.966C17.0355 19.3579 17.1518 19.7409 17.3695 20.0667C17.5872 20.3926 17.8967 20.6465 18.2588 20.7964C18.6208 20.9463 19.0192 20.9855 19.4036 20.909C19.7879 20.8326 20.1409 20.6438 20.418 20.3667C20.6951 20.0895 20.8837 19.7365 20.9601 19.3521C21.0365 18.9678 20.9972 18.5694 20.8472 18.2073C20.6972 17.8453 20.4432 17.5359 20.1173 17.3182C19.7915 17.1006 19.4084 16.9844 19.0165 16.9845C18.4911 16.9846 17.9872 17.1934 17.6156 17.565C17.2441 17.9366 17.0355 18.4405 17.0355 18.966ZM15.9643 18.966C15.9643 18.3623 16.1433 17.7722 16.4787 17.2702C16.8141 16.7683 17.2907 16.3771 17.8485 16.1461C18.4062 15.9151 19.0199 15.8546 19.612 15.9724C20.204 16.0902 20.7479 16.3809 21.1748 16.8077C21.6016 17.2346 21.8923 17.7784 22.0101 18.3705C22.1279 18.9626 22.0674 19.5763 21.8364 20.134C21.6054 20.6917 21.2142 21.1684 20.7122 21.5038C20.2103 21.8392 19.6202 22.0182 19.0165 22.0182C18.6157 22.0182 18.2188 21.9393 17.8484 21.7859C17.4781 21.6325 17.1416 21.4077 16.8582 21.1243C16.5748 20.8409 16.35 20.5044 16.1966 20.134C16.0432 19.7637 15.9643 19.3668 15.9643 18.966ZM21.4763 22.1392C21.4762 21.9981 21.518 21.8602 21.5963 21.7428C21.6746 21.6255 21.786 21.534 21.9163 21.48C22.0466 21.426 22.19 21.4118 22.3284 21.4392C22.4667 21.4667 22.5939 21.5346 22.6937 21.6343C22.7935 21.734 22.8614 21.861 22.889 21.9994C22.9166 22.1377 22.9025 22.2812 22.8486 22.4115C22.7947 22.5419 22.7033 22.6533 22.5861 22.7317C22.4688 22.8101 22.3309 22.852 22.1898 22.8521C22.0008 22.852 21.8194 22.7769 21.6857 22.6432C21.552 22.5095 21.4768 22.3282 21.4766 22.1392H21.4763ZM16.6154 14.1276C16.2385 14.1317 15.8651 14.2007 15.5116 14.3315C15.2552 14.4303 15.0223 14.5817 14.828 14.7759C14.6337 14.9702 14.4822 15.203 14.3833 15.4593C14.2524 15.8128 14.1834 16.1862 14.1793 16.5632C14.1505 17.1897 14.1448 17.3779 14.1448 18.9652C14.1448 20.5525 14.1511 20.7403 14.1793 21.3674C14.1839 21.7443 14.2529 22.1176 14.3833 22.4712C14.4821 22.7277 14.6335 22.9606 14.8279 23.1549C15.0222 23.3493 15.2551 23.5007 15.5116 23.5996C15.8651 23.7304 16.2385 23.7994 16.6154 23.8035C17.2419 23.8323 17.4302 23.838 19.0168 23.838C20.6035 23.838 20.7919 23.8319 21.419 23.8033C21.7959 23.7987 22.1692 23.7298 22.5229 23.5994C22.7793 23.5006 23.0122 23.3491 23.2066 23.1548C23.4009 22.9604 23.5524 22.7275 23.6512 22.4711C23.782 22.1176 23.851 21.7442 23.8551 21.3672C23.884 20.7398 23.8896 20.5525 23.8896 18.965C23.8896 17.3776 23.8838 17.19 23.8551 16.5628C23.8507 16.1859 23.7817 15.8126 23.6512 15.459C23.5523 15.2027 23.4007 14.9699 23.2064 14.7756C23.0121 14.5814 22.7792 14.43 22.5229 14.3312C22.1694 14.2003 21.7959 14.1313 21.419 14.1272C20.7925 14.0984 20.6043 14.0927 19.0168 14.0927C17.4294 14.0927 17.2418 14.0985 16.6154 14.1272V14.1276ZM16.5662 24.8737C16.073 24.864 15.585 24.7707 15.123 24.5977C14.7281 24.445 14.3695 24.2115 14.0701 23.9121C13.7707 23.6127 13.5372 23.2541 13.3845 22.8592C13.2115 22.3972 13.1182 21.9092 13.1084 21.416C13.0791 20.7823 13.0725 20.5796 13.0725 18.9654C13.0725 17.3511 13.0793 17.1486 13.1084 16.5147C13.1182 16.0215 13.2115 15.5335 13.3845 15.0716C13.5372 14.6767 13.7707 14.318 14.0701 14.0186C14.3695 13.7193 14.7281 13.4857 15.123 13.333C15.585 13.1601 16.073 13.0667 16.5662 13.057C17.2002 13.0281 17.4025 13.021 19.0168 13.021C20.6311 13.021 20.8336 13.0278 21.4675 13.057C21.9607 13.0667 22.4487 13.1601 22.9106 13.333C23.3055 13.4857 23.6642 13.7193 23.9635 14.0186C24.2629 14.318 24.4964 14.6767 24.6491 15.0716C24.8224 15.5335 24.9157 16.0215 24.9252 16.5147C24.9541 17.1489 24.9607 17.3511 24.9607 18.9654C24.9607 20.5796 24.9539 20.7821 24.9252 21.416C24.9155 21.9092 24.8222 22.3972 24.6491 22.8592C24.4965 23.254 24.263 23.6126 23.9637 23.9119C23.6644 24.2113 23.3059 24.4449 22.9111 24.5977C22.4492 24.7708 21.9612 24.8642 21.468 24.8737C20.8341 24.9028 20.6316 24.9097 19.0176 24.9097C17.4036 24.9097 17.2007 24.9029 16.5665 24.8737" fill="white"/>
</g>
<defs>
<radialGradient id="paint0_radial_838_2944" cx="0" cy="0" r="1" gradientUnits="userSpaceOnUse" gradientTransform="translate(12.0355 11.3504) scale(20.314)">
<stop offset="0.09" stop-color="#FA8F21"/>
<stop offset="0.78" stop-color="#D82D7E"/>
</radialGradient>
<radialGradient id="paint1_radial_838_2944" cx="0" cy="0" r="1" gradientUnits="userSpaceOnUse" gradientTransform="translate(22.0827 11.8643) scale(17.8765)">
<stop offset="0.64" stop-color="#8C3AAA" stop-opacity="0"/>
<stop offset="1" stop-color="#8C3AAA"/>
</radialGradient>
<clipPath id="clip0_838_2944">
<rect width="16" height="16" fill="white" transform="matrix(1 0 0 -1 11 27)"/>
</clipPath>
</defs>
</svg>
