<svg width="27" height="27" viewBox="0 0 27 27" fill="none" xmlns="http://www.w3.org/2000/svg">
<g clip-path="url(#clip0_840_3127)">
<path d="M4.4956 16.9469C4.56872 16.957 4.6756 16.9041 4.74197 16.7219L4.7611 16.6634C4.79035 16.5678 4.8466 16.39 4.9366 16.2471C5.07722 16.0345 5.31347 15.8961 5.58235 15.8961C5.73872 15.8961 5.88385 15.9434 6.00535 16.0233C6.30235 16.2201 6.41597 16.5846 6.28997 16.9345C6.2236 17.1156 6.11785 17.461 6.14035 17.7445C6.18872 18.3205 6.54085 18.5511 6.85585 18.577C7.16297 18.5883 7.37785 18.4139 7.43185 18.2868C7.4656 18.2136 7.43747 18.1675 7.4206 18.1473L7.42172 18.1461C7.37447 18.0865 7.29572 18.1045 7.22035 18.1225C7.16635 18.1371 7.10447 18.1461 7.04035 18.1473C7.0381 18.1473 7.03472 18.1473 7.03135 18.1473C6.89972 18.1473 6.78385 18.082 6.71297 17.9819L6.71185 17.9808C6.6241 17.8458 6.62972 17.6444 6.72535 17.4138L6.77035 17.3103C6.9256 16.9638 7.18322 16.3821 6.8941 15.8286C6.67697 15.4124 6.32147 15.1514 5.89397 15.0974C5.84447 15.0906 5.78822 15.0873 5.73197 15.0873C5.36185 15.0873 5.02772 15.2448 4.79372 15.4968L4.7926 15.4979C4.36735 15.9681 4.30097 16.6094 4.38422 16.8366C4.4146 16.9188 4.46185 16.9424 4.4956 16.9469ZM19.9677 13.8464C19.9632 14.1108 20.1151 14.3279 20.3063 14.3313C20.4976 14.3346 20.6585 14.1231 20.663 13.8588C20.6663 13.5944 20.5145 13.3773 20.3232 13.3728C20.1308 13.3694 19.9711 13.5809 19.9677 13.8464ZM19.8867 12.7585C20.0712 12.7349 20.258 12.7349 20.4425 12.7585C20.5426 12.5279 20.5595 12.1308 20.4695 11.6988C20.3345 11.0564 20.1556 10.6671 19.7821 10.7279C19.4086 10.7886 19.394 11.2544 19.529 11.8968C19.6043 12.2579 19.7382 12.5673 19.8867 12.7585Z" fill="black"/>
<path d="M6.31229 20.9868C7.88616 24.6318 11.4817 26.8683 15.6982 26.9943C20.2218 27.1293 24.0187 24.9963 25.6105 21.1645C25.7152 20.8945 26.1562 19.6829 26.1562 18.6141C26.1562 17.5386 25.552 17.0931 25.1673 17.0931H25.1684C25.1572 17.0515 25.0807 16.7714 24.976 16.4339L24.7634 15.8601C25.1842 15.2268 25.1909 14.6609 25.1358 14.3414C25.075 13.9443 24.9119 13.6056 24.58 13.2569C24.2493 12.9059 23.5709 12.5481 22.618 12.2804L22.1185 12.1409C22.1163 12.1206 22.0927 10.9563 22.0702 10.4568C22.0555 10.0968 22.024 9.53202 21.8508 8.97739C21.6438 8.22477 21.2827 7.56777 20.8304 7.14702C22.0747 5.85102 22.852 4.42227 22.8498 3.19714C22.8464 0.840268 19.9664 0.125893 16.417 1.60414L15.6655 1.92477C15.3145 1.57827 14.8645 1.13502 14.4157 0.692893L14.2863 0.566893C10.2374 -2.98136 -2.41321 11.1509 1.63116 14.5844L2.51654 15.3359C2.34216 15.7893 2.24204 16.3135 2.24204 16.8625C2.24204 17.0313 2.25216 17.1966 2.27016 17.3609C2.36691 18.3036 2.85066 19.2048 3.63479 19.9023C4.37954 20.566 5.36054 20.9879 6.31229 20.9868ZM19.5839 8.29902C19.6199 8.29339 19.7088 8.26077 19.8865 8.26977C20.0778 8.27764 20.251 8.33727 20.3995 8.43514C20.9958 8.83452 21.0802 9.80089 21.1117 10.5096C21.1297 10.9146 21.178 11.8911 21.1949 12.1724C21.2332 12.8136 21.4008 12.9036 21.7405 13.0161C21.9307 13.0803 22.1095 13.1275 22.3705 13.2006C23.1614 13.4245 23.6294 13.6506 23.9253 13.942C24.1019 14.1231 24.1829 14.3166 24.2088 14.5011C24.3033 15.1851 23.6823 16.03 22.0353 16.7973C20.2353 17.6365 18.0539 17.8491 16.5464 17.6804L16.0188 17.6208C14.8128 17.4576 14.1254 19.0236 14.8477 20.0969C15.3145 20.7888 16.5858 21.2388 17.8559 21.2388C20.7719 21.2388 23.0118 19.9889 23.8454 18.9078L23.9129 18.8121C23.9534 18.7503 23.9197 18.7165 23.8679 18.7514C23.1873 19.2194 20.1633 21.079 16.9267 20.5188C16.9267 20.5188 16.534 20.4546 16.1752 20.314C15.8905 20.2026 15.2943 19.927 15.2223 19.3116C17.8323 20.1228 19.4759 19.3555 19.4759 19.3555L19.477 19.3566C19.5052 19.3431 19.5243 19.315 19.5243 19.2824C19.5243 19.2801 19.5243 19.2779 19.5243 19.2756C19.5209 19.2374 19.4883 19.2081 19.4489 19.2081C19.4455 19.2081 19.4433 19.2081 19.4399 19.2081C19.4399 19.2081 17.3002 19.5265 15.2785 18.7818C15.4979 18.0629 16.084 18.3228 16.9694 18.3948C17.1877 18.4083 17.443 18.4161 17.7007 18.4161C18.8707 18.4161 20.0002 18.2485 21.0723 17.9436C21.9847 17.677 23.1749 17.1595 24.1042 16.4249C24.418 17.1201 24.5305 17.8851 24.5305 17.8851C24.5305 17.8851 24.7735 17.8413 24.9783 17.9673C25.1695 18.0865 25.3113 18.334 25.2145 18.9741C25.0188 20.17 24.5125 21.1409 23.662 22.0341C23.14 22.6 22.5224 23.0691 21.8339 23.4168L21.7968 23.4336C21.4559 23.6193 21.0532 23.7936 20.6358 23.9354L20.5795 23.9511C17.3744 25.003 14.0939 23.8465 13.0364 21.3636C12.9599 21.2016 12.8868 21.0059 12.8305 20.8045L12.8238 20.7764C12.3738 19.1395 12.7563 17.1764 13.9533 15.94C14.0264 15.8613 14.1018 15.7679 14.1018 15.652C14.1018 15.5541 14.0399 15.4518 13.987 15.3786C13.5685 14.7689 12.1184 13.7294 12.4109 11.7179C12.619 10.2723 13.8779 9.25527 15.049 9.31602L15.346 9.33289C15.8545 9.36327 16.2967 9.42852 16.7163 9.44652C17.416 9.47689 18.0449 9.37452 18.7908 8.75014C19.0417 8.53977 19.243 8.35639 19.5839 8.29902ZM16.4418 4.66414C16.4868 4.66077 16.5093 4.71927 16.4722 4.74739C16.2989 4.88127 16.1437 5.03764 16.0109 5.21202C16.0053 5.21989 16.0019 5.22889 16.0019 5.23902C16.0019 5.26377 16.021 5.28289 16.0458 5.28402C16.7827 5.28964 17.8222 5.54839 18.4994 5.93089C18.5444 5.95677 18.5129 6.04564 18.4612 6.03439C17.4363 5.79814 15.7589 5.61814 14.0163 6.04564C12.4604 6.42702 11.2735 7.01539 10.4073 7.64877C10.3634 7.68139 10.3128 7.62402 10.3465 7.58239C11.35 6.41689 12.5853 5.40439 13.69 4.83627C13.7283 4.81714 13.7688 4.85877 13.7485 4.89589C13.6597 5.05564 13.4909 5.39877 13.438 5.65752C13.4369 5.66089 13.4369 5.66427 13.4369 5.66764C13.4369 5.69239 13.4572 5.71264 13.4819 5.71264C13.4909 5.71264 13.4999 5.71039 13.5067 5.70477C14.1952 5.23339 15.391 4.72827 16.4418 4.66414ZM2.00579 13.6259C1.22391 12.1353 2.85741 9.23614 3.99929 7.59927C6.82191 3.55377 11.2375 0.491518 13.2839 1.04727C13.6158 1.14177 14.7172 2.42427 14.7172 2.42427C14.7172 2.42427 12.673 3.56389 10.7763 5.15352C8.22141 7.13014 6.29204 10.0034 5.13554 13.1219H5.13666C4.22879 13.2985 3.42779 13.816 2.93841 14.5304C2.64704 14.2851 2.10254 13.8104 2.00579 13.6259ZM5.37404 14.0916C5.52029 14.0613 5.68904 14.0433 5.86116 14.0433C5.90616 14.0433 5.95004 14.0444 5.99391 14.0466H5.98716C6.80504 14.0916 8.00879 14.7216 8.28329 16.5115C8.52629 18.0955 8.13929 19.7099 6.66216 19.963V19.9619C6.55191 19.9821 6.42591 19.9934 6.29654 19.9934C6.27741 19.9934 6.25829 19.9934 6.24029 19.9923H6.24254C4.87679 19.9551 3.40079 18.7199 3.25454 17.2529C3.09254 15.6329 3.91604 14.3864 5.37404 14.0916Z" fill="black"/>
<path d="M15.7275 12.4639C15.3112 12.4639 14.9276 12.6011 14.6149 12.8295C14.436 12.9611 14.2684 13.1434 14.2909 13.2536C14.2999 13.2896 14.3257 13.3166 14.3887 13.3256C14.5372 13.3425 15.0514 13.0815 15.6442 13.0444C16.0639 13.0185 16.4115 13.1501 16.6781 13.2682V13.2671C16.9459 13.3852 17.1101 13.4629 17.1742 13.3954C17.2159 13.3526 17.2035 13.2716 17.1405 13.167C17.0077 12.9499 16.7366 12.7305 16.4486 12.6079C16.236 12.5167 15.9874 12.4639 15.7275 12.4639ZM18.8032 14.7071C19.0384 14.8241 19.2994 14.778 19.3837 14.6059C19.4692 14.4315 19.3455 14.1964 19.1092 14.0805C18.8741 13.9635 18.6131 14.0096 18.5287 14.1817C18.4432 14.3561 18.567 14.5912 18.8032 14.7071ZM16.1426 13.5776L16.1404 13.5754C15.7927 13.6316 15.6004 13.7464 15.4777 13.8532C15.372 13.9455 15.3067 14.0479 15.3067 14.1199L15.3337 14.184L15.3911 14.2065C15.4699 14.2065 15.6465 14.1345 15.6465 14.1345C15.8782 14.0434 16.1482 13.9916 16.4295 13.9916C16.5499 13.9916 16.6669 14.0006 16.7816 14.0197L16.7692 14.0186C16.9436 14.0389 17.0269 14.0501 17.064 13.9894C17.0752 13.9725 17.0899 13.9342 17.055 13.8769C16.974 13.7441 16.6219 13.5202 16.1426 13.5776Z" fill="black"/>
<path d="M14.6104 12.8314L14.6144 12.8294L14.6154 12.8284L14.6104 12.8314Z" fill="black"/>
<path d="M2.27007 17.371L2.26907 17.359L2.26807 17.353L2.27007 17.371Z" fill="black"/>
<path d="M21.1376 17.9292C21.1163 17.9359 21.0926 17.9371 21.0713 17.9438C21.0645 17.9461 21.0567 17.9494 21.051 17.9506L21.1376 17.9292Z" fill="black"/>
</g>
<defs>
<clipPath id="clip0_840_3127">
<rect width="27" height="27" fill="white"/>
</clipPath>
</defs>
</svg>
