<svg width="38" height="38" viewBox="0 0 38 38" fill="none" xmlns="http://www.w3.org/2000/svg">
<rect width="38" height="38" rx="5" fill="#FFF9EB"/>
<path d="M13.3333 13.75H26.6667C27.8333 13.75 28.75 14.6667 28.75 15.8333V24.1667C28.75 25.3333 27.8333 26.25 26.6667 26.25H13.3333C12.1667 26.25 11.25 25.3333 11.25 24.1667V15.8333C11.25 14.6667 12.1667 13.75 13.3333 13.75Z" fill="#FFDD99"/>
<path d="M28.75 16.25H11.25V18.75H28.75V16.25Z" fill="#FFAC02"/>
<path d="M14.5834 22.9166H12.9167V23.75H14.5834V22.9166Z" fill="#FFAC02"/>
<path d="M17.0834 22.9166H15.4167V23.75H17.0834V22.9166Z" fill="#FFAC02"/>
<path d="M19.5834 22.9166H17.9167V23.75H19.5834V22.9166Z" fill="#FFAC02"/>
<path d="M22.0834 22.9166H20.4167V23.75H22.0834V22.9166Z" fill="#FFAC02"/>
<path d="M24.5834 20.4166H12.9167V21.25H24.5834V20.4166Z" fill="#FFAC02"/>
</svg>
