<svg width="27" height="27" viewBox="0 0 27 27" fill="none" xmlns="http://www.w3.org/2000/svg">
<path d="M2.70214 14.2594C2.24047 14.2709 1.78734 14.1336 1.40976 13.8676C1.03217 13.6017 0.750164 13.2214 0.605423 12.7829C0.592767 12.747 0.584329 12.7132 0.573783 12.6795C0.416726 12.1213 0.480765 11.524 0.752596 11.0118C1.02443 10.4995 1.48315 10.1117 2.03347 9.92887L20.461 3.75473C20.6797 3.6911 20.9061 3.65774 21.1339 3.65559C21.6068 3.64283 22.0714 3.78229 22.4591 4.05343C22.8468 4.32457 23.1372 4.71306 23.2875 5.16168L23.315 5.25028C23.6588 6.45473 22.8024 7.53051 21.7772 7.87434L3.45097 14.1329C3.20973 14.2148 2.95691 14.2575 2.70214 14.2594Z" fill="#80CADE"/>
<path d="M5.77343 23.3191C5.31242 23.3353 4.85845 23.2027 4.47859 22.941C4.09874 22.6793 3.81316 22.3023 3.66405 21.8657C3.65351 21.832 3.64296 21.7982 3.63241 21.7624C3.47131 21.1999 3.53365 20.597 3.80641 20.0793C4.07917 19.5617 4.54128 19.1694 5.09632 18.9843L23.5196 12.7532C23.7556 12.6743 24.0027 12.633 24.2515 12.6309C24.7223 12.6219 25.1839 12.7624 25.5697 13.0323C25.9556 13.3021 26.2459 13.6875 26.3989 14.1328L26.4263 14.2256C26.5136 14.5381 26.5346 14.8653 26.4881 15.1864C26.4416 15.5075 26.3286 15.8154 26.1563 16.0903C25.8926 16.5016 25.0615 16.8623 25.0615 16.8623L6.56655 23.1904C6.3143 23.2756 6.0502 23.3205 5.78397 23.3233L5.77343 23.3191Z" fill="#DB015C"/>
<path d="M21.1107 23.3592C20.633 23.364 20.1661 23.2173 19.777 22.9403C19.3878 22.6633 19.0963 22.2701 18.9444 21.8173L12.7956 3.55217L12.7639 3.44881C12.6209 2.8861 12.6994 2.28995 12.9831 1.78342C13.2669 1.27689 13.7344 0.89865 14.2889 0.726779C14.8435 0.554909 15.4429 0.602527 15.9634 0.859804C16.4839 1.11708 16.8858 1.56438 17.086 2.10936L23.2349 20.3723L23.2517 20.4314C23.3556 20.7685 23.3793 21.1253 23.3208 21.4732C23.2624 21.8211 23.1234 22.1505 22.915 22.4351C22.7066 22.7198 22.4345 22.9517 22.1205 23.1126C21.8065 23.2734 21.4593 23.3586 21.1065 23.3613L21.1107 23.3592Z" fill="#E8A900"/>
<path d="M11.9708 26.4368C11.4927 26.441 11.0255 26.2936 10.6363 26.0158C10.2472 25.7381 9.95595 25.3442 9.80446 24.8907L3.65563 6.62981L3.62399 6.52856C3.46341 5.9686 3.52513 5.36827 3.79628 4.85269C4.06743 4.33712 4.52709 3.94607 5.07946 3.76106C5.3067 3.68519 5.54442 3.64533 5.78399 3.64293C6.26166 3.63818 6.72857 3.78483 7.11775 4.06184C7.50693 4.33885 7.79839 4.73199 7.95032 5.18489L14.097 23.45C14.1076 23.4816 14.1181 23.5175 14.1287 23.5512C14.2246 23.8866 14.2417 24.2396 14.1786 24.5827C14.1156 24.9258 13.9741 25.2497 13.7652 25.529C13.5562 25.8084 13.2856 26.0357 12.9743 26.1932C12.6631 26.3506 12.3196 26.434 11.9708 26.4368Z" fill="#41B088"/>
<path d="M18.0795 19.246L22.3594 17.78L20.9651 13.6182L16.6641 15.0694L18.0795 19.246Z" fill="#CA161A"/>
<path d="M8.95437 22.3594L13.2406 20.8934L11.8294 16.7063L7.53687 18.1575L8.95437 22.3594Z" fill="#3B1D37"/>
<path d="M15.0272 10.1798L19.3156 8.71594L17.9297 4.60266L13.635 6.04125L15.0272 10.1798Z" fill="#69852C"/>
<path d="M5.90636 13.2891L10.1884 11.8315L8.78565 7.66553L4.49097 9.10412L5.90636 13.2891Z" fill="#118F79"/>
</svg>
