<svg width="38" height="38" viewBox="0 0 38 38" fill="none" xmlns="http://www.w3.org/2000/svg">
<rect width="38" height="38" rx="5" fill="#EBFBFE"/>
<path d="M23.9647 24.5228L18.3125 18.8706V10.875C18.3125 10.7921 18.2796 10.7126 18.221 10.654C18.1624 10.5954 18.0829 10.5625 18 10.5625C16.6122 10.562 15.2458 10.9038 14.0217 11.5577C12.7976 12.2116 11.7537 13.1573 10.9824 14.311C10.2112 15.4648 9.73647 16.791 9.60029 18.172C9.46411 19.5531 9.6707 20.9465 10.2017 22.2286C10.7328 23.5108 11.5719 24.6422 12.6447 25.5225C13.7175 26.4029 14.9909 27.005 16.3521 27.2756C17.7132 27.5462 19.1201 27.4768 20.448 27.0737C21.776 26.6705 22.984 25.9461 23.965 24.9645C24.0235 24.9059 24.0563 24.8264 24.0563 24.7436C24.0562 24.6607 24.0233 24.5813 23.9647 24.5228Z" fill="#9AE7F7"/>
<path d="M19.2976 10.6631C19.2531 10.6562 19.2075 10.659 19.1642 10.6714C19.1209 10.6837 19.0807 10.7053 19.0465 10.7346C19.0123 10.764 18.9848 10.8004 18.966 10.8413C18.9472 10.8823 18.9375 10.9269 18.9375 10.9719V18.375C18.9375 18.4579 18.9705 18.5374 19.0291 18.596L24.3822 23.9491C24.4112 23.9782 24.4456 24.0012 24.4835 24.0169C24.5214 24.0326 24.5621 24.0407 24.6031 24.0407C24.6114 24.0407 24.6199 24.0404 24.6281 24.0396C24.6733 24.036 24.7171 24.0226 24.7566 24.0004C24.7961 23.9781 24.8302 23.9476 24.8567 23.9108C25.889 22.4819 26.4424 20.7628 26.4375 19C26.4271 16.9901 25.7037 15.049 24.3963 13.5223C23.0888 11.9957 21.2821 10.9825 19.2976 10.6631Z" fill="#03C3EC"/>
</svg>
