<svg width="38" height="38" viewBox="0 0 38 38" fill="none" xmlns="http://www.w3.org/2000/svg">
<rect width="38" height="38" rx="19" fill="#D8F5FF"/>
<path d="M27 14.539C26.3981 14.8015 25.7616 14.9759 25.11 15.057C25.7967 14.6496 26.3101 14.0046 26.553 13.244C25.91 13.6253 25.2065 13.8939 24.473 14.038C24.0232 13.5578 23.4395 13.2239 22.7975 13.0798C22.1555 12.9357 21.485 12.9879 20.8732 13.2298C20.2613 13.4717 19.7363 13.892 19.3664 14.4361C18.9965 14.9803 18.7988 15.623 18.799 16.281C18.799 16.541 18.821 16.791 18.875 17.029C17.5701 16.965 16.2934 16.6263 15.1283 16.0351C13.9632 15.4439 12.9361 14.6134 12.114 13.598C11.6928 14.3198 11.5626 15.1751 11.7499 15.9896C11.9372 16.8041 12.4278 17.5166 13.122 17.982C12.6028 17.9681 12.0945 17.8295 11.64 17.578V17.614C11.6409 18.3714 11.9027 19.1054 12.3813 19.6924C12.86 20.2795 13.5262 20.6837 14.268 20.837C13.9874 20.9109 13.6982 20.9473 13.408 20.945C13.1996 20.9487 12.9914 20.9299 12.787 20.889C12.9989 21.54 13.4075 22.1093 13.9564 22.5185C14.5053 22.9278 15.1676 23.1568 15.852 23.174C14.6909 24.082 13.259 24.5746 11.785 24.573C11.516 24.573 11.258 24.561 11 24.528C12.4999 25.4945 14.2477 26.0058 16.032 26C22.068 26 25.368 21 25.368 16.666C25.368 16.521 25.363 16.381 25.356 16.242C26.003 15.779 26.5601 15.2019 27 14.539Z" fill="#03A9F4"/>
</svg>
