<svg width="38" height="38" viewBox="0 0 38 38" fill="none" xmlns="http://www.w3.org/2000/svg">
<rect width="38" height="38" rx="5" fill="#F3F4FF"/>
<path d="M25 15H12.5V14.5L23.5 13.62V14.5H25V13C25 11.9 24.109 11.128 23.021 11.283L12.98 12.717C11.891 12.873 11 13.9 11 15V25C11 25.5304 11.2107 26.0391 11.5858 26.4142C11.9609 26.7893 12.4696 27 13 27H25C25.5304 27 26.0391 26.7893 26.4142 26.4142C26.7893 26.0391 27 25.5304 27 25V17C27 16.4696 26.7893 15.9608 26.4142 15.5858C26.0391 15.2107 25.5304 15 25 15ZM23.5 22.006C23.303 22.0059 23.1078 21.967 22.9258 21.8916C22.7438 21.8161 22.5784 21.7055 22.4391 21.5661C22.2998 21.4268 22.1894 21.2613 22.114 21.0792C22.0387 20.8972 21.9999 20.702 22 20.505C22.0001 20.3079 22.0389 20.1128 22.1144 19.9308C22.1899 19.7488 22.3005 19.5834 22.4398 19.4441C22.5792 19.3048 22.7447 19.1944 22.9267 19.119C23.1088 19.0437 23.304 19.0049 23.501 19.005C23.899 19.0051 24.2806 19.1633 24.5619 19.4448C24.8432 19.7263 25.0011 20.108 25.001 20.506C25.0009 20.9039 24.8427 21.2855 24.5612 21.5669C24.2797 21.8482 23.898 22.0061 23.5 22.006Z" fill="#696CFF"/>
</svg>
