<?xml version="1.0" encoding="utf-8"?>
<!-- Generator: Adobe Illustrator 26.0.2, SVG Export Plug-In . SVG Version: 6.00 Build 0)  -->
<svg version="1.1" id="Layer_1" xmlns="http://www.w3.org/2000/svg" xmlns:xlink="http://www.w3.org/1999/xlink" x="0px" y="0px"
	 viewBox="0 0 127 151.6" style="enable-background:new 0 0 127 151.6;" xml:space="preserve">
<style type="text/css">
	.st0{fill:#4C49A2;}
	.st1{fill:#FFFFFF;}
	.st2{fill:#E67750;}
	.st3{fill:#EFEFEF;}
	.st4{fill:#FD9E71;}
	.st5{fill:#201251;}
	.st6{fill:#30C5CC;}
	.st7{fill:#0B9B9B;}
</style>
<path class="st0" d="M47.9,150.3h4.7H62c5.8,0,3.7-1.1,4.2,1.1c0.2-1.8,0-1-0.7-1.5c-0.7-0.6-14.4-13.4-20.3-14.8
	c-8-1.8-27-4.2-27-4.2c-2.1,2.5-3.7,5.5-4.6,8.7c-0.9,3.2-1.5,6.6,0.1,10.8C22.1,150.3,47.9,150.3,47.9,150.3z"/>
<path class="st1" d="M38.8,59c0,0-19.4,1.7-20.3,7c-0.9,5.3,9.3,38.9,9.3,38.9L18,131.4c0,0,28,6.9,41.6,1.8
	c1.3,0.6,3.5-27.7,3.5-27.7l4.9-14l6.2,21l14.1,19.9l9.3-7.6l-10.3-18.1c0,0-15.9-36.4-20.1-40.6C59.1,58.1,38.8,59,38.8,59z"/>
<path class="st2" d="M54.2,60.4l-1.5-19.9H38.2v18.7c-1.8,0.2,2,15.1,13.7,15.1C51.8,74.2,57.3,72.2,54.2,60.4z"/>
<path class="st3" d="M24.7,94.3c1.7,6,3.1,10.6,3.1,10.6L18,131.4c0,0,21.3,5.2,35.8,3.2c-1.3-1-18.5-12.6-19.3-17.6
	C32.7,106.2,24.7,94.3,24.7,94.3z"/>
<path class="st4" d="M67.2,20.2c-1.2-5.1-9.2-6.6-21.9-5.1c-8.6,1-10.5,8.9-10.7,14.8h-0.4c-1.5,0.5-2.7,1.4-3.6,2.6
	c-0.9,1.3-1.3,2.8-1.3,4.3c0.1,1.6,0.7,3.1,1.7,4.2c0.6,0.9,1.3,1.7,2.2,2.3c0.9,0.6,1.9,0.9,3,1.1c0.6,0.1,1.2,0.1,1.8,0
	c3.6,7.4,10.1,16.7,19.3,15.6C70.8,50.6,67.2,20.2,67.2,20.2z"/>
<path class="st5" d="M38.3,33.7c-0.8-2-0.8-4.2-0.2-6.3c0.6-2.1,1.9-3.9,3.7-5.1c6.3-4.7,6.7,2.3,13.3,3.1
	c6.6,0.9,13.2,0.3,12.5,4.7c4-10-1.8-15.6-8.3-18.7C52.9,8.3,42.7,7,35.7,12.9c-7,5.9-6.1,20-6.1,20C34.2,30.6,35.5,32.5,38.3,33.7z
	"/>
<path class="st5" d="M35.7,12.9c0,0-5.8-15.8-16.9-11.9c-11.1,3.9-6.1,26.3-7.3,36c-1.2,9.7-8.2,10.2-10.7,5.8
	c-4.6,8.8,13.5,17.8,19.4,9.3c5.9-8.5,2.5-29.9,6.3-32.2c1.2-0.6,2.5-0.8,3.9-0.7c1.3,0.1,2.6,0.6,3.7,1.4L35.7,12.9z"/>
<path class="st1" d="M19,64.3C14.3,67,5.7,99.2,5.7,104.5c0,5.3,41.3,31.7,41.3,31.7s2-6.5,6.3-7.9c-0.9-0.4-30.9-29.2-30.9-29.2
	l8-22.5C30.5,76.7,30.4,57.6,19,64.3z"/>
<path class="st6" d="M43.9,140.2l42.1-1.3l27.3,10.2l-46.3,2.5L43.9,140.2z"/>
<path class="st7" d="M67.1,151.6l-23.2-9v-2.3l25,9L67.1,151.6z"/>
<path class="st7" d="M67.1,151.6L81,113.5l46,2.5l-13.7,34L67.1,151.6z"/>
<path class="st6" d="M95.3,130.4c-1.4,2.7-1,5.7,0.9,6.7c1.9,0.9,4.5-0.5,6-3.2c1.5-2.7,1-5.7-0.9-6.7
	C99.4,126.1,96.7,127.6,95.3,130.4z"/>
<path class="st4" d="M53.4,128.3c0,0,16.7,13.3,15,14.2c-4.4,1-9.1,0.5-13.2-1.3c-4-2.2-8.1-5-8.1-5S48.5,128.8,53.4,128.3z"/>
</svg>
