<svg width="103" height="158" viewBox="0 0 103 158" fill="none" xmlns="http://www.w3.org/2000/svg">
<g clip-path="url(#clip0_999_3638)">
<path d="M21.8701 64.0371C21.8701 64.0371 2.64475 89.5649 0.07266 111.793C-1.74379 127.509 21.8701 150.996 21.8701 150.996L29.9787 146.973L21.8846 128.797C18.9783 119.941 15.4616 116.453 18.0773 107.51L23.89 94.9194L21.8701 64.0371Z" fill="#0077EB"/>
<path d="M82.4378 63.6611C82.4378 63.6611 101.402 90.8676 102.971 113.212C104.322 132.473 81.1735 151.011 81.1735 151.011L74.4599 147.697L83.7456 129.333C86.6519 120.476 88.0034 115.136 84.0653 105.498L79.081 94.9341L82.4378 63.6611Z" fill="#0077EB"/>
<path d="M25.7645 122.212L19.4869 154.281C19.4869 154.281 64.6656 158.811 81.5368 154.281L76.4653 121.083L82.4378 63.6604C74.196 60.1568 65.4338 58.0206 56.4989 57.3364C43.4204 56.3957 35.2246 58.5375 21.8991 64.0367L25.7645 122.212Z" fill="#008EFF"/>
<path d="M82.7284 150.432H18.0773L12.1048 115.701C11.9823 114.991 12.0165 114.264 12.2052 113.569C12.3938 112.875 12.7324 112.229 13.1972 111.678C13.6621 111.127 14.242 110.683 14.8966 110.378C15.5512 110.073 16.2647 109.914 16.9875 109.912H83.8328C84.5563 109.912 85.2711 110.069 85.927 110.373C86.5828 110.678 87.1638 111.121 87.6292 111.673C88.0945 112.225 88.4329 112.871 88.6206 113.567C88.8082 114.263 88.8406 114.991 88.7155 115.701L82.7284 150.432Z" fill="white"/>
<path d="M77.5407 158.001H23.3378C21.9426 158.001 20.6046 157.449 19.6181 156.467C18.6316 155.484 18.0773 154.152 18.0773 152.763V150.433H82.8011V152.763C82.8011 154.152 82.2469 155.484 81.2603 156.467C80.2738 157.449 78.9358 158.001 77.5407 158.001Z" fill="#DCEDF9"/>
<path d="M56.1647 131.591C56.1675 132.7 55.8398 133.785 55.223 134.708C54.6061 135.631 53.728 136.351 52.6998 136.777C51.6716 137.202 50.5396 137.315 49.4474 137.099C48.3551 136.883 47.3517 136.35 46.5644 135.566C45.777 134.781 45.2411 133.782 45.0246 132.694C44.8081 131.607 44.9207 130.479 45.3481 129.455C45.7755 128.432 46.4986 127.557 47.4256 126.943C48.3527 126.328 49.442 126.002 50.5555 126.005C52.0431 126.005 53.4698 126.593 54.5218 127.641C55.5737 128.689 56.1647 130.109 56.1647 131.591Z" fill="#DCEDF9"/>
<path d="M68.4148 6.44043C68.4148 6.44043 76.2473 18.5386 75.3899 31.1288C74.5326 43.7191 76.5525 58.2774 65.2178 57.6262C53.8832 56.975 33.6988 62.1558 27.2903 52.3441C20.8819 42.5324 68.4148 6.44043 68.4148 6.44043Z" fill="#2E3052"/>
<path d="M71.3211 28.741C71.3211 28.741 73.3555 46.9896 64.6511 52.0257C55.9467 57.0618 49.6545 51.4324 49.6545 51.4324C49.6545 51.4324 67.9934 25.9915 71.3211 28.741Z" fill="#000B29"/>
<path d="M35.181 28.6548C35.181 28.6548 32.0567 24.5014 29.7317 27.9312C27.4066 31.3609 30.6907 41.491 36.3726 39.0164L35.181 28.6548Z" fill="#FC8664"/>
<path d="M35.1374 35.8901C35.0324 35.8908 34.93 35.8573 34.846 35.7945C34.762 35.7318 34.701 35.6433 34.6724 35.5427C34.3264 34.5571 33.7764 33.6549 33.058 32.8946C32.3395 32.1342 31.4687 31.5327 30.5018 31.1289C30.4429 31.108 30.3888 31.0756 30.3428 31.0334C30.2968 30.9912 30.2598 30.9402 30.234 30.8835C30.2082 30.8267 30.1942 30.7654 30.1928 30.7031C30.1914 30.6409 30.2026 30.579 30.2257 30.5211C30.2715 30.4013 30.3624 30.304 30.4791 30.25C30.5958 30.1959 30.7291 30.1894 30.8506 30.2317C31.9617 30.6822 32.9617 31.3668 33.782 32.2387C34.6022 33.1105 35.2233 34.1488 35.6024 35.2822C35.6341 35.405 35.6171 35.5352 35.5549 35.6457C35.4926 35.7562 35.3899 35.8386 35.2682 35.8756L35.1374 35.8901Z" fill="#FD664D"/>
<path d="M31.8533 34.3134C31.7674 34.3348 31.6776 34.3348 31.5917 34.3134C31.5378 34.2795 31.4913 34.2354 31.4547 34.1834C31.4182 34.1315 31.3924 34.0728 31.3789 34.0109C31.3654 33.9489 31.3644 33.8849 31.376 33.8225C31.3875 33.7602 31.4115 33.7007 31.4464 33.6477C31.9087 33.0158 32.5303 32.5166 33.2483 32.2005C33.3661 32.1512 33.4986 32.1493 33.6178 32.1952C33.737 32.2411 33.8338 32.3311 33.8877 32.4466C33.9366 32.5618 33.9381 32.6916 33.8919 32.808C33.8457 32.9244 33.7555 33.018 33.6407 33.0688C33.0665 33.2999 32.5648 33.6796 32.1875 34.1687C32.0996 34.2588 31.9795 34.3108 31.8533 34.3134Z" fill="#FD664D"/>
<path d="M67.3685 28.6548C67.3685 28.6548 70.4928 24.5014 72.8179 27.9312C75.1429 31.3609 71.8588 41.491 66.1624 39.0164L67.3685 28.6548Z" fill="#FC8664"/>
<path d="M67.4121 35.8904C67.5165 35.8888 67.6178 35.8544 67.7013 35.792C67.7849 35.7296 67.8464 35.6424 67.8771 35.543C68.219 34.5553 68.7675 33.651 69.4865 32.8901C70.2054 32.1292 71.0784 31.529 72.0477 31.1292C72.1643 31.0838 72.2584 30.9949 72.31 30.8813C72.3616 30.7677 72.3665 30.6386 72.3238 30.5214C72.2751 30.4039 72.1838 30.3089 72.0681 30.2552C71.9523 30.2016 71.8206 30.1933 71.6989 30.232C70.5878 30.6825 69.5878 31.3671 68.7675 32.239C67.9473 33.1108 67.3263 34.1491 66.9471 35.2825C66.9294 35.3434 66.9241 35.4071 66.9314 35.47C66.9387 35.5328 66.9584 35.5937 66.9895 35.6489C67.0206 35.7041 67.0625 35.7526 67.1126 35.7916C67.1627 35.8305 67.22 35.8592 67.2813 35.8759L67.4121 35.8904Z" fill="#FD664D"/>
<path d="M70.6962 34.313C70.7824 34.3323 70.8717 34.3323 70.9578 34.313C71.0636 34.2422 71.1378 34.1334 71.1649 34.0093C71.1919 33.8852 71.1698 33.7556 71.1031 33.6474C70.6364 33.0196 70.0161 32.5214 69.3012 32.2002C69.2431 32.1738 69.1803 32.1593 69.1165 32.1574C69.0527 32.1556 68.9891 32.1664 68.9296 32.1893C68.87 32.2122 68.8157 32.2468 68.7697 32.2909C68.7237 32.335 68.687 32.3878 68.6618 32.4462C68.6356 32.503 68.6212 32.5645 68.6195 32.627C68.6178 32.6896 68.6288 32.7518 68.6519 32.8099C68.675 32.8681 68.7096 32.9209 68.7538 32.9654C68.798 33.0098 68.8507 33.0449 68.9089 33.0685C69.4566 33.3104 69.9322 33.6893 70.2894 34.1683C70.3404 34.2234 70.404 34.2654 70.4749 34.2906C70.5458 34.3158 70.6217 34.3235 70.6962 34.313Z" fill="#FD664D"/>
<path d="M58.9693 47.6123V57.7424C58.9693 57.7424 55.9467 62.8798 51.9214 63.1692C47.8962 63.4586 44.2197 58.7554 44.2197 58.7554V48.3214L58.9693 47.6123Z" fill="#F9AF8B"/>
<path d="M58.9692 47.6123V52.084C56.2228 55.1085 51.3692 56.1794 44.1615 55.123V48.3214L58.9692 47.6123Z" fill="#FC8664"/>
<path d="M69.6354 21.7369C69.4755 26.0062 69.0338 30.2604 68.3131 34.4719C68.1241 35.4415 67.9207 36.3676 67.6882 37.1781C65.5521 44.6019 60.2335 57.3369 45.3241 52.0403C38.7412 49.6959 35.6751 42.3878 34.3236 34.9639C33.5467 30.4094 33.2109 25.791 33.321 21.1725C33.3598 19.3469 33.8745 17.5626 34.8145 15.9947C35.7546 14.4269 37.0877 13.1292 38.6831 12.2292C47.4893 7.26542 56.775 9.11779 62.8928 11.4477C64.9588 12.2411 66.7217 13.6618 67.9318 15.5085C69.142 17.3551 69.738 19.5342 69.6354 21.7369Z" fill="#F9AF8B"/>
<path d="M44.6556 30.2028C44.6556 31.2882 44.1034 32.1565 43.4204 32.1565C42.7374 32.1565 42.1707 31.2882 42.1707 30.2028C42.1707 29.1175 42.7374 28.2637 43.4204 28.2637C44.1034 28.2637 44.6556 29.132 44.6556 30.2028Z" fill="#2E3052"/>
<path d="M60.0591 30.2028C60.0591 31.2882 59.5069 32.1565 58.8094 32.1565C58.1119 32.1565 57.5742 31.2882 57.5742 30.2028C57.5742 29.1175 58.1264 28.2637 58.8094 28.2637C59.4924 28.2637 60.0591 29.132 60.0591 30.2028Z" fill="#2E3052"/>
<path d="M40.9936 23.72C42.725 23.2311 44.5128 22.9684 46.3122 22.9385C46.4476 22.9369 46.5817 22.9647 46.7052 23.02C46.8286 23.0753 46.9385 23.1568 47.0271 23.2588C47.1156 23.3608 47.1808 23.4808 47.2179 23.6105C47.2551 23.7401 47.2634 23.8763 47.2422 24.0094C47.2004 24.229 47.0803 24.4261 46.9041 24.5644C46.7278 24.7027 46.5073 24.7729 46.2831 24.762C43.8288 24.6756 41.3762 24.9784 39.0173 25.6592C39.0227 25.2846 39.1738 24.9266 39.4388 24.6607C39.8588 24.2088 40.3974 23.8829 40.9936 23.72Z" fill="#2E3052"/>
<path d="M61.0908 23.8068C59.3591 23.3178 57.5719 23.0503 55.7723 23.0109C55.6359 23.0084 55.5006 23.0363 55.3764 23.0926C55.2522 23.1488 55.1423 23.232 55.0545 23.336C54.9667 23.4401 54.9034 23.5623 54.8692 23.6939C54.835 23.8254 54.8308 23.9629 54.8568 24.0963C54.8954 24.3146 55.0126 24.5115 55.1865 24.65C55.3604 24.7885 55.5789 24.8592 55.8013 24.8488C58.2547 24.7635 60.7063 25.0614 63.0671 25.7315C63.0682 25.5475 63.0313 25.3653 62.9588 25.196C62.8864 25.0268 62.7798 24.8741 62.6457 24.7475C62.2257 24.2956 61.6871 23.9698 61.0908 23.8068Z" fill="#2E3052"/>
<path d="M51.4419 38.1328C51.0755 38.145 50.7131 38.0548 50.3956 37.8723C50.1936 37.7503 50.0245 37.5811 49.9029 37.3794C49.7814 37.1777 49.7111 36.9495 49.6981 36.7146C49.6531 34.2075 49.7502 31.7 49.9887 29.2038C49.9923 29.1417 50.0085 29.0809 50.0363 29.0251C50.064 28.9693 50.1028 28.9196 50.1503 28.8791C50.1978 28.8386 50.253 28.808 50.3126 28.7892C50.3722 28.7704 50.4351 28.7637 50.4973 28.7697C50.5603 28.7734 50.622 28.7894 50.6788 28.8169C50.7355 28.8444 50.7863 28.8827 50.8282 28.9298C50.87 28.9769 50.9021 29.0317 50.9226 29.0911C50.9432 29.1506 50.9517 29.2135 50.9478 29.2762C50.7211 31.7151 50.6241 34.1642 50.6572 36.6133C50.6559 36.7013 50.6764 36.7883 50.717 36.8666C50.7575 36.9448 50.8169 37.0119 50.8897 37.0619C51.5365 37.2217 52.2189 37.1553 52.8224 36.8737C52.9399 36.8259 53.0717 36.8265 53.1889 36.8753C53.306 36.9241 53.3989 37.0173 53.4472 37.1342C53.4914 37.2516 53.489 37.3814 53.4404 37.4971C53.3918 37.6127 53.3007 37.7055 53.1857 37.7565C52.6323 37.9869 52.0413 38.1144 51.4419 38.1328Z" fill="#FC8664"/>
<path d="M45.3386 41.1719C45.7019 42.9953 46.908 46.3527 50.9769 46.3527C55.0457 46.3527 56.1937 43.2847 56.5861 41.1719H45.3386Z" fill="white"/>
<path d="M50.9187 49.1166C50.1235 49.0878 49.3486 48.8588 48.6664 48.4509C48.6045 48.4231 48.5492 48.3825 48.5043 48.3318C48.4594 48.2812 48.4257 48.2216 48.4056 48.157C48.3856 48.0924 48.3795 48.0243 48.3878 47.9572C48.3961 47.8902 48.4186 47.8256 48.4538 47.7678C48.489 47.71 48.5362 47.6603 48.5921 47.622C48.6481 47.5838 48.7115 47.5577 48.7783 47.5457C48.8451 47.5337 48.9137 47.5359 48.9796 47.5522C49.0455 47.5686 49.1071 47.5987 49.1604 47.6405C49.6976 47.9486 50.2998 48.127 50.9187 48.1615C51.5664 48.134 52.1985 47.9556 52.7643 47.6405C52.8173 47.6067 52.8766 47.584 52.9387 47.5737C53.0008 47.5634 53.0643 47.5657 53.1255 47.5806C53.1866 47.5955 53.2441 47.6226 53.2944 47.6602C53.3447 47.6979 53.3868 47.7453 53.4182 47.7997C53.4521 47.8525 53.475 47.9116 53.4853 47.9734C53.4956 48.0352 53.4932 48.0985 53.4783 48.1594C53.4633 48.2202 53.4362 48.2775 53.3983 48.3276C53.3605 48.3777 53.3129 48.4196 53.2583 48.4509C52.5461 48.863 51.742 49.0918 50.9187 49.1166Z" fill="#FC8664"/>
<path d="M71.5681 20.9118C71.4598 21.1411 71.2976 21.3411 71.0952 21.4948C70.8929 21.6484 70.6563 21.7513 70.4056 21.7946C70.4162 22.9788 70.358 24.1626 70.2312 25.3401C69.6354 32.2575 67.8917 33.4731 67.4848 31.7655C67.2575 28.5095 67.2187 25.2431 67.3685 21.9827C66.5153 21.926 65.6662 21.8197 64.8255 21.6643L63.2125 14.9496L62.6457 21.592C60.2335 22.4169 54.5952 21.0855 54.5952 21.0855L52.7061 14.4575L51.5291 20.825C48.9398 21.8626 46.09 22.0701 43.3768 21.4183L42.3306 14.5444L39.9328 21.4183C39.9328 21.4183 32.202 24.1824 32.1148 21.4183C32.519 18.1456 33.2343 14.9184 34.251 11.7803C34.7623 9.90596 35.6472 8.15328 36.853 6.62674C38.0589 5.10019 39.5609 3.831 41.2697 2.89478C44.8446 1.01811 48.8143 0.00970091 52.8549 -0.0481437C56.8956 -0.105988 60.8928 0.788376 64.5203 2.56194C71.8733 6.99023 71.5681 20.9118 71.5681 20.9118Z" fill="#2E3052"/>
<path d="M36.3726 7.00488C36.3726 7.00488 30.0078 14.5445 27.9152 28.0175C25.8227 41.4905 22.9163 51.4325 31.0686 55.8897C39.8893 60.6942 39.1191 50.8246 39.0028 48.1474C38.8866 45.4702 31.3737 38.1331 36.3726 17.4678C37.9856 10.7819 36.3726 7.00488 36.3726 7.00488Z" fill="#2E3052"/>
<path d="M34.8904 34.833C34.8904 34.9198 34.8904 35.4698 34.8904 36.2802C34.8904 36.8011 34.8904 37.4379 34.9921 38.1615C35.2973 42.691 36.1837 50.5346 38.7849 53.2553C40.3107 54.4345 42.1865 55.0759 44.1179 55.0787V51.5187C41.6962 50.3047 39.6778 48.4203 38.3053 46.0918C36.7071 42.963 35.6135 39.6031 35.0648 36.1355L34.8904 34.833Z" fill="#000B29"/>
<path d="M69.7371 39.2472C69.7391 39.3948 69.7116 39.5412 69.6562 39.6781C69.6008 39.815 69.5187 39.9395 69.4146 40.0445C69.3105 40.1495 69.1865 40.2329 69.0498 40.2898C68.9131 40.3467 68.7664 40.376 68.6182 40.376C68.3176 40.376 68.0293 40.2571 67.8168 40.0454C67.6042 39.8337 67.4848 39.5466 67.4848 39.2472C67.4848 39.0997 67.5142 38.9536 67.5713 38.8174C67.6285 38.6813 67.7122 38.5578 67.8176 38.4541C67.9231 38.3505 68.0481 38.2687 68.1856 38.2136C68.323 38.1584 68.4701 38.131 68.6182 38.1329C68.7657 38.131 68.9121 38.1585 69.0487 38.2138C69.1854 38.2691 69.3095 38.3511 69.4138 38.4549C69.5181 38.5588 69.6004 38.6824 69.656 38.8185C69.7115 38.9546 69.7391 39.1003 69.7371 39.2472Z" fill="white"/>
</g>
<defs>
<clipPath id="clip0_999_3638">
<rect width="103" height="158" fill="white"/>
</clipPath>
</defs>
</svg>
