<?xml version="1.0" encoding="utf-8"?>
<!-- Generator: Adobe Illustrator 26.0.2, SVG Export Plug-In . SVG Version: 6.00 Build 0)  -->
<svg version="1.1" id="a" xmlns="http://www.w3.org/2000/svg" xmlns:xlink="http://www.w3.org/1999/xlink" x="0px" y="0px"
	 viewBox="0 0 124.8 148" style="enable-background:new 0 0 124.8 148;" xml:space="preserve">
<style type="text/css">
	.st0{opacity:0.3;fill:#DEE5F8;enable-background:new    ;}
	.st1{opacity:0.8;fill:#DEE5F8;enable-background:new    ;}
	.st2{fill:#DEE5F8;}
	.st3{opacity:0.4;fill:#FFFFFF;enable-background:new    ;}
	.st4{fill:#1F3C88;}
	.st5{opacity:0.1;fill:#DEE5F8;enable-background:new    ;}
	.st6{fill:#102048;}
	.st7{fill:#F9B384;}
	.st8{fill:#FFFFFF;}
	.st9{opacity:0.3;}
	.st10{fill:#E28B6D;}
	.st11{fill:#ACBFEE;}
	.st12{fill:#6F3428;}
	.st13{fill:#BB9132;}
	.st14{fill:#FBC343;}
	.st15{opacity:0.6;fill:#FFFFFF;enable-background:new    ;}
	.st16{opacity:0.15;fill:#102048;enable-background:new    ;}
	.st17{fill:#708CD5;}
</style>
<g>
	<path class="st0" d="M120.8,113.3c-0.2-1,0.1-2,0.7-2.8c1.5-2,2.3-4.4,1.9-6.9c-0.8-5.7-7.3-9.4-14.4-8.4
		c-4.8,0.7-8.7,3.4-10.4,6.8c-0.7,1.3-2.1,2.2-3.6,2c-0.6-0.1-1.1,0-1.7,0.1c-1.4,0.2-2.7,0.8-3.7,1.7c-0.9,0.8-2.2,1.1-3.4,0.8
		c-1.6-0.4-3.6-0.5-5.6-0.2c-2.3,0.3-4.3,1.1-5.8,2.1c-1.1,0.7-2.4,0.9-3.6,0.4c-0.9-0.4-1.9-0.5-2.9-0.4c-1.3,0.2-2.5,0.9-3.3,1.9
		c-0.6,0.8-1.5,1.3-2.5,1.4c0,0-0.1,0-0.1,0c-0.1-0.1-0.2-0.2-0.3-0.3c-0.9-0.9-2-1.5-3.3-1.7c-0.9-0.1-1.8,0-2.6,0.3
		c-1.5,0.6-3.1,0.4-4.4-0.4c-1.5-0.9-3.5-1.5-5.6-1.7c-1.9-0.2-3.7-0.1-5.2,0.2c-1.5,0.3-3.1,0-4.3-0.9c-1-0.7-2.2-1.2-3.5-1.4
		c-0.4-0.1-0.8-0.1-1.2-0.1c-1.9,0.1-3.6-0.9-4.6-2.5c-2-3.2-5.9-5.6-10.5-6.1c-7.3-0.9-13.8,3.2-14.5,9c-0.3,2.4,0.5,4.7,1.9,6.6
		c0.8,1.1,1.2,2.4,1,3.8l-0.9,8c-0.3,2.9,1.7,5.5,4.6,5.8l53.6,6.4c1.9,0.2,3.7-0.6,4.8-2.1l52-7.6c2.1-0.3,3.5-2.2,3.2-4.3
		L120.8,113.3L120.8,113.3z"/>
	<g>
		<path class="st1" d="M120.7,123.4c-0.2-4-4.5-7-9.6-6.7c-4.3,0.3-7.7,2.8-8.6,6c-0.8-0.6-1.9-0.8-3-0.8c-1.6,0.1-2.9,0.9-3.7,2
			c-1.3-0.8-3.2-1.3-5.3-1.1c-2.4,0.1-4.4,1-5.6,2.1c-0.8-0.9-1.9-1.5-3.2-1.4c-1.3,0.1-2.5,0.9-3.1,2c-1.1-0.1-2.2,0-3.5,0.3
			c-3.4,0.9-5.6,3.4-5,5.5c0.4,1.4,2,2.4,4,2.5l0.5,8.3l44.1-2.6l-0.6-10.6C119.8,127.4,120.8,125.5,120.7,123.4L120.7,123.4z"/>
		<path class="st1" d="M2,127.4c0-4,4.2-7.2,9.2-7.2c4.3,0,7.9,2.4,8.8,5.6c0.8-0.6,1.9-0.9,3-0.9c1.6,0,3,0.7,3.8,1.8
			c1.2-0.9,3.1-1.4,5.3-1.4c2.4,0,4.5,0.8,5.7,1.8c0.7-0.9,1.8-1.6,3.1-1.5c1.3,0,2.5,0.7,3.2,1.8c1-0.2,2.2-0.2,3.5,0.1
			c3.4,0.8,5.8,3.1,5.3,5.3c-0.3,1.5-1.9,2.4-3.9,2.7l-0.1,8.3l-44.2-0.4l0.1-10.7C3.1,131.4,2,129.5,2,127.4L2,127.4z"/>
	</g>
</g>
<g>
	<g>
		<path class="st2" d="M124.7,31.6c0,0.2-0.1,0.5-0.1,0.7h-7.8v0c0,0,0,0,0,0c0,0-0.2,0-0.6,0c-3.8,0-25.4,0.1-25.4,0
			c0-2.2,1.7-4,3.8-4c0.5,0,0.9,0.1,1.4,0.3c0.4-0.3,0.9-0.5,1.4-0.5c0.8,0,1.5,0.4,1.9,1.1l0,0c0.4-0.9,1.2-1.6,2.2-2
			c0.8-0.4,1.8-0.6,2.8-0.6c0.3,0,0.6,0,0.9,0c1.1-2.1,3.2-3.6,5.7-3.6c3.1,0,5.7,2.4,6.3,5.5c0.3-0.2,0.8-0.4,1.2-0.4
			c0.9,0,1.7,0.5,2.1,1.3c0.4-0.1,0.8-0.2,1.3-0.2c1.2,0,2.2,0.6,2.8,1.4C124.6,30.9,124.7,31.3,124.7,31.6L124.7,31.6z"/>
		<path class="st3" d="M124.4,30.6c-1-0.3-2.1-0.3-3.1-0.2c-2.3,0-4.6,0-6.9,0.1c-2.8,0-5.2-1.6-8.1-1.3c-1.4,0.1-2.7,0.7-4.1,0.8
			c-1,0.1-2.3-0.1-2.9-0.8c0.4-0.9,1.2-1.6,2.2-2c0.8-0.4,1.8-0.6,2.8-0.6c0.3,0,0.6,0,0.9,0c1.1-2.1,3.2-3.6,5.7-3.6
			c3.1,0,5.7,2.4,6.3,5.5c0.3-0.2,0.8-0.4,1.2-0.4c0.9,0,1.7,0.5,2.1,1.3c0.4-0.1,0.8-0.2,1.3-0.2C122.8,29.2,123.9,29.8,124.4,30.6
			L124.4,30.6z"/>
	</g>
	<g>
		<path class="st2" d="M23.9,46.5c0,0.2,0,0.3-0.1,0.5h-5.1c0,0,0,0,0,0l0,0c0,0-17,0.1-17,0c0-1.4,1.1-2.6,2.5-2.6
			c0.3,0,0.6,0.1,0.9,0.2c0.3-0.2,0.6-0.3,0.9-0.3c0.5,0,1,0.3,1.2,0.7c0.4-0.8,1.3-1.4,2.4-1.7c0.3-0.1,0.6-0.1,0.9-0.1
			c0.2,0,0.4,0,0.6,0c0.7-1.4,2.1-2.3,3.7-2.3c2.1,0,3.8,1.6,4.2,3.6c0.2-0.2,0.5-0.2,0.8-0.2c0.6,0,1.1,0.3,1.3,0.9
			c0.2-0.1,0.5-0.1,0.8-0.1C23,44.9,23.9,45.6,23.9,46.5L23.9,46.5z"/>
		<path class="st3" d="M23.9,46.5c0,0.2,0,0.3-0.1,0.5h-3c-0.2-0.3-0.3-0.6-0.5-0.9c-1-1.2-3.1-0.2-4.3-1.2
			c-0.2-0.2-0.4-0.4-0.6-0.5c-0.7-0.5-1.6-0.2-2.5,0c-0.8,0.2-1.8,0.4-2.5-0.1c-0.4-0.2-0.7-0.7-0.8-1.2c0.3-0.1,0.6-0.1,0.9-0.1
			c0.2,0,0.4,0,0.6,0c0.7-1.4,2.1-2.3,3.7-2.3c2.1,0,3.8,1.6,4.1,3.6c0.2-0.2,0.5-0.2,0.8-0.2c0.6,0,1.1,0.3,1.3,0.9
			c0.2-0.1,0.5-0.1,0.8-0.1C23,44.9,23.9,45.6,23.9,46.5z"/>
	</g>
	<g>
		<path class="st2" d="M40,9.1c0,0.2-25.2,0-25.2,0s0,0,0,0H7.2C7.1,8.9,7.1,8.7,7.1,8.4c0-1.3,1.3-2.4,3-2.4c0.4,0,0.9,0.1,1.2,0.2
			c0.4-0.8,1.1-1.3,2-1.3c0.4,0,0.8,0.1,1.2,0.3C15,2.3,17.6,0,20.6,0c0,0,0,0,0.1,0C23,0,25,1.4,26.1,3.5c0.3,0,0.6,0,0.9,0
			c2.2,0,4.2,1.1,4.9,2.6c0.4-0.6,1.1-1,1.8-1c0.5,0,1,0.2,1.4,0.5c0.4-0.2,0.9-0.3,1.3-0.3c1.5,0,2.7,0.9,3.3,2.2
			C39.9,8,40,8.5,40,9.1L40,9.1z"/>
		<path class="st3" d="M39.6,7.4c-1.1,0.4-2.4,0.4-3.6,0.5C33.2,8,30.2,8,27.8,6.5c-0.8-0.5-1.6-1.2-2.5-1.6
			c-1.5-0.7-3.4-0.5-4.5-1.7c-0.7-0.8-0.9-2-0.3-3c0.1-0.1,0.1-0.2,0.2-0.3C23,0,25,1.4,26.1,3.5c0.3,0,0.6,0,0.9,0
			c2.2,0,4.2,1.1,4.9,2.6c0.4-0.6,1.1-1,1.8-1c0.5,0,1,0.2,1.4,0.5c0.4-0.2,0.9-0.3,1.3-0.3C37.8,5.3,39.1,6.2,39.6,7.4L39.6,7.4z"
			/>
	</g>
</g>
<g>
	<g>
		<polygon class="st4" points="124.8,148.1 23.2,148.7 0,148.8 10.3,128.2 21,118.8 35.5,114.3 42.2,105.2 72.7,105.2 84.6,115.1 
			102.5,120.9 113,130.7 113.2,131.1 124.4,147.7 		"/>
		<polygon class="st5" points="124.4,147.7 116.7,146.9 98.4,134.8 75.6,131.4 68.5,121.6 67.5,114.4 58.2,112.1 54.6,105.2 
			72.7,105.2 84.6,115.1 102.5,120.9 113,130.7 113.2,131.1 		"/>
		<polygon class="st6" points="42.6,120.4 27.6,129.2 23.2,148.7 0,148.8 10.3,128.2 21,118.8 35.5,114.3 42.2,105.2 		"/>
	</g>
	<g>
		<g>
			<path class="st7" d="M67.1,102.1l0-2.8l-4,0.3l-0.1,2.3C64.2,102.1,65.7,102.2,67.1,102.1L67.1,102.1z"/>
			<path class="st6" d="M71.4,105.8c-1.1-1.8-2.6-2.4-4.4-2.6v-1.2c-1.4,0.1-2.8,0.1-4.1-0.2l-0.2,4H71.4z"/>
		</g>
		<g>
			<path class="st6" d="M47,102.3l-0.4,0.8c-1.8,0.2-3.4,1.2-4.8,2.7h8.5l0.9-3.5C49.7,102.6,48.4,102.6,47,102.3z"/>
			<path class="st7" d="M51.2,102.3l0.7-2.8l-3.6-0.2l-1.3,3C48.4,102.6,49.7,102.6,51.2,102.3z"/>
		</g>
		<path class="st6" d="M68.9,58.8c2.1,13.8,1.5,27.6-1.4,41.5h-5.1c0.6-9,1.1-19.7-0.3-26.8l-9.7,27h-5.5L56,62l3.1-6.2l7.4-0.9
			L68.9,58.8L68.9,58.8z"/>
		<path class="st7" d="M75.7,29.3l1.4-4.1l3.7,0.9c0.3,1.4-1.4,3.5-2.6,5L75.7,29.3z"/>
		<polygon class="st7" points="63.2,43.9 59,43.9 58.6,38.4 58.5,37.7 62.8,37.7 63,39.8 		"/>
		<path class="st6" d="M62.9,39.4c-1.4,1-3.2,0.4-4.3-1l0-0.7l4.3,0L62.9,39.4L62.9,39.4z"/>
		<path class="st7" d="M61.9,38.9c-2.2,0.5-4.6-0.9-5.5-2.7l-0.1-3.3l1.2-1.7l5.1,0.4c0,0,0,0.1,0,0.2c0.1,0.3,0.3,1,0.4,1.8
			C63.5,35.6,63.9,38.5,61.9,38.9z"/>
		<path class="st8" d="M58.3,41.8c0,0,3.2,2.5,5.9-1.1l5.2,17.4c-3.2,2.3-7.3,3-12.1,2.4C57.4,60.5,58.3,41.8,58.3,41.8z"/>
		<g class="st9">
			<path class="st4" d="M59,43.9c0.4,0.2,0.9,0.2,1.3,0.3s0.9,0,1.3,0c0.4-0.1,0.9-0.2,1.3-0.4c0.2-0.1,0.4-0.2,0.6-0.3
				c0.2-0.1,0.4-0.3,0.6-0.4c-0.2,0.2-0.3,0.4-0.5,0.5c-0.2,0.2-0.3,0.3-0.6,0.4c-0.4,0.3-0.9,0.4-1.3,0.5
				C60.8,44.7,59.8,44.5,59,43.9L59,43.9z"/>
		</g>
		<path class="st4" d="M75.6,28.5c-2.9,4.9-5.7,9.1-8.2,11.1C67,40,66.5,40.1,66,40.1c-0.9,0-1.9,0.1-3,0.3c0.2,8.7,1.1,16.8,4,21.7
			c1.8-0.5,3.9-1.3,5.1-2.3c-1-3.3-2.1-8-3-12.2l9.5-16.9L75.6,28.5L75.6,28.5z"/>
		<path class="st10" d="M63.1,33.6c-3.3,1.9-6-1.5-6-1.5l5.5-0.3C62.7,32.1,62.9,32.8,63.1,33.6z"/>
		<path class="st6" d="M57.1,35.5c0.4-0.5,0.6-1.4,0.2-3.1c1.2,1.3,3,1.7,5.5,0.5c0,0,1.7-0.7,1.3-2.4c-0.3-1.5-1.7-2.4-2.7-1.1
			c-2.3-0.7-4.6-0.8-5.6,1.3c0,0-3.2,1.7-0.5,4.4L57.1,35.5L57.1,35.5z"/>
		<polygon class="st4" points="52.4,71.5 51.9,71.3 52.4,68.7 48.6,67.8 48.1,70.2 47.5,70.1 48.2,67.1 53.1,68.3 		"/>
		<path class="st7" d="M50.2,63.3c-0.1,0.1-0.4,2.8-0.4,2.8s-1.5,1.5-0.5,2.3c1,0.9,2.3,0.9,2.9,0.2c0.2-0.7,0.2-1.4,0-2.3l0.6-3
			C52.7,63.3,50.2,63.3,50.2,63.3z"/>
		<polygon class="st11" points="55.3,71.3 53.7,77.8 53.1,80.3 43.2,76.6 44.5,71.1 45.1,68.5 		"/>
		<g>
			<polygon class="st12" points="83.2,28.1 77.9,31.3 77.7,29.4 81.7,27 			"/>
			<polygon class="st13" points="80.3,27.8 79,28.6 75.8,24 77.8,22.8 			"/>
			<path class="st14" d="M78,22.7l-2.6,1.5c-0.6,0.4-1.3,0.2-1.7-0.3l-4.3-5.2l6.5-3.9l2.6,6.2C78.8,21.6,78.6,22.3,78,22.7L78,22.7
				z"/>
			<path class="st14" d="M77.7,19.4l-0.3-0.1c1-2.4,0.8-4.3,0.1-4.7c-0.4-0.2-0.9,0-1.4,0.7L75.7,15c0.9-1.2,1.7-1,1.9-0.8
				C78.5,14.8,78.8,16.8,77.7,19.4L77.7,19.4z"/>
			<path class="st14" d="M72.7,22.5c-2.8-0.2-4.5-1.4-4.6-2.5c0-0.3,0.1-1,1.6-1.3l0.1,0.4c-0.8,0.2-1.3,0.5-1.3,0.9
				c0,0.8,1.7,1.9,4.2,2.1L72.7,22.5L72.7,22.5z"/>
			<path class="st15" d="M75,18.2c-0.2-0.4-0.2-0.8,0-1c0.2-0.1,0.6,0.1,0.8,0.5c0.2,0.4,0.2,0.8,0,1C75.6,18.8,75.2,18.6,75,18.2z"
				/>
		</g>
		<path class="st7" d="M80.8,25.9c0.1,0.7-0.3,1.2-1.2,1.2c-0.6,0-1.3-0.8-1.5-1.6c-0.1-0.7,0.2-1.2,0.7-1.4
			C79.3,23.9,80.6,24.7,80.8,25.9z"/>
		<g>
			
				<rect x="65.9" y="12.5" transform="matrix(0.3005 -0.9538 0.9538 0.3005 32.0033 73.5674)" class="st14" width="0.6" height="4.9"/>
			<rect x="71.3" y="10" transform="matrix(0.1738 -0.9848 0.9848 0.1738 50.7349 81.106)" class="st14" width="4.9" height="0.6"/>
			
				<rect x="68.8" y="8.9" transform="matrix(0.8423 -0.5391 0.5391 0.8423 4.7772 39.0222)" class="st14" width="0.6" height="4.9"/>
		</g>
		<path class="st4" d="M55.7,52.6l-0.8,11.5c4.2-0.2,7.1-1.6,7.1-1.6c0.4-6.9-0.5-14.5-3.2-21.4c-6.9,2.6-8.8,11-9.9,23.7l4,0.5
			L55.7,52.6L55.7,52.6z"/>
		<path class="st7" d="M57.2,36.7c-1.3,0.5-2.1,0.4-2.2-0.9c0-0.7,0.7-1.3,1.3-1c0.3,0.1,0.5,0.4,0.8,0.7
			C57.1,35.5,57.2,36.7,57.2,36.7z"/>
		<path class="st16" d="M53.7,77.8l-0.6,2.5l-10-3.7l1.3-5.5C45.7,73.6,48.3,76.8,53.7,77.8z"/>
		<path class="st6" d="M68.3,43.6c0.2,0.5,0.3,1.1,0.5,1.7c0.2,0.5,0.3,1.1,0.4,1.7c0.1,0.6,0.2,1.1,0.4,1.7
			c0.1,0.6,0.2,1.1,0.3,1.7l-0.2,0c-0.2-0.5-0.3-1.1-0.5-1.7c-0.2-0.5-0.3-1.1-0.4-1.7c-0.1-0.6-0.2-1.1-0.3-1.7
			c-0.1-0.6-0.2-1.1-0.3-1.7L68.3,43.6z"/>
		<path class="st6" d="M55.8,48.8c0,0.5,0,1.1,0,1.7c0,0.5,0,1.1,0,1.7c0,0.5-0.1,1.1-0.1,1.7c0,0.5-0.1,1.1-0.2,1.7h-0.2
			c0-0.6,0-1.1,0-1.7c0-0.5,0-1.1,0.1-1.7c0-0.5,0.1-1.1,0.1-1.7c0-0.5,0.1-1.1,0.2-1.7L55.8,48.8L55.8,48.8z"/>
		<path class="st17" d="M61.2,75.8c0.2-0.6,0.4-1.2,0.6-1.9c0.2-0.6,0.4-1.2,0.6-1.8c0.2-0.6,0.4-1.2,0.7-1.8
			c0.2-0.6,0.5-1.2,0.7-1.8l0.1,0.1c-0.2,0.6-0.4,1.2-0.6,1.9s-0.4,1.2-0.6,1.8c-0.2,0.6-0.4,1.2-0.7,1.8c-0.2,0.6-0.5,1.2-0.7,1.8
			L61.2,75.8z"/>
		<path class="st6" d="M56.4,36c-0.1-0.1-0.1-0.2-0.2-0.3c-0.1-0.1-0.1-0.2-0.2-0.2c-0.1-0.1-0.1-0.1-0.2-0.1
			c-0.1,0-0.2,0.1-0.2,0.2l-0.1,0c0-0.1,0.1-0.2,0.2-0.3c0.2-0.1,0.3,0,0.4,0.1C56.4,35.5,56.5,35.7,56.4,36L56.4,36L56.4,36z"/>
		<path class="st7" d="M78,26.1c0.1-0.5,0.1-1-0.2-1.1s-0.6,0.2-0.7,0.7c-0.1,0.5-0.3,1.3,0.1,1.5C77.8,27.5,77.9,26.7,78,26.1z"/>
	</g>
</g>
</svg>
