<?xml version="1.0" encoding="utf-8"?>
<!-- Generator: Adobe Illustrator 26.0.2, SVG Export Plug-In . SVG Version: 6.00 Build 0)  -->
<svg version="1.1" id="Layer_1" xmlns="http://www.w3.org/2000/svg" xmlns:xlink="http://www.w3.org/1999/xlink" x="0px" y="0px"
	 viewBox="0 0 135 107" style="enable-background:new 0 0 135 107;" xml:space="preserve">
<style type="text/css">
	.st0{fill:#F9AF8B;}
	.st1{fill:#FC8664;}
	.st2{fill:#008EFF;}
	.st3{fill:#2E3052;}
	.st4{fill:#FD664D;}
	.st5{fill:#FFFFFF;}
</style>
<path class="st0" d="M60,69.3c-2.8,5.2-6,10.2-9.5,14.9c-1.4,1.8-3,3.6-4.7,5.1c-2.5,2.2-5,3.4-7,2.4c-7.5-3.7-24.1-33.1-24.1-33.1
	l4.1-4.8c0,0,7.4,8.4,12.8,13.4c5,4.6,8.8,8.1,8.8,8.1c0.7-1,1.4-2.2,2.2-3.4c0.8-1.2,1.7-2.6,2.5-4c6.2-10,13.8-21,13.8-21L60,69.3
	z"/>
<path class="st0" d="M19.8,56.8c0,0,1.7-2.8,1-5.3s-1.3-8.1-4-8c-1,0.1,0.5,2.4-0.2,4.6c-1.7-0.8-3.3-1.8-4.9-2.8
	C10.1,44,6.5,42,4.9,41C4.8,41,4.7,41,4.5,41c-0.1,0-0.2,0.1-0.3,0.1c-0.1,0.1-0.1,0.2-0.2,0.3c0,0.1,0,0.2,0.1,0.3
	C4.6,42.4,5.6,43.5,8,45c0,0-5.9-3.3-6.9-2.6c-1,0.7,6.5,4.8,6.5,4.8S1.5,44.7,1,45.6c-0.3,0.5,5.6,4,5.6,4s-5.9-1.8-4.8-0.4
	c0.3,0.4,11.5,5.5,13.9,11.4C15.8,60.6,19,58.8,19.8,56.8z"/>
<path class="st1" d="M50.5,84.3c-1.4,1.8-3,3.6-4.7,5.1l-3.2-17.3c0.8-1.3,1.7-2.6,2.5-4L50.5,84.3z"/>
<path class="st2" d="M59.1,46.3L43.3,69l5,20.3l12.4-19.8C60.7,69.6,63.1,56.3,59.1,46.3z"/>
<path class="st2" d="M115,107.5c-19,0-38,0-59,0c-0.1-4.6,0.3-25.7,0.9-40.7c0-0.3,0-0.6,0-0.9s0-0.3,0-0.4c0-0.2,0-0.4,0-0.5
	c0.4-9.9,1.1-17.9,2.4-19c2.9-2.5,17.7-6.5,21.8-8.3c1.3,1.3,3.1,2.2,5,2.4c2,0,3.9-0.7,5.4-2v-0.4c4.1,1.8,17.5,5.5,20.4,8
	C115.2,48.4,115.1,99.7,115,107.5z"/>
<path class="st0" d="M123.5,107l-5-17l-2.3-7.9l-1.4-8.4l10-7.2c0.8,2.7,1.6,5.4,2.4,8.2l1,3.7c2.8,9.9,4.9,22.4,6.3,28.7"/>
<path class="st1" d="M125.1,75.4c-2.1,2.3-5.3,5.2-9.4,6.3l-1-5l-0.2-5.3l9.1-3.5c0.4,1.7,0.7,3.4,1.1,5.2L125.1,75.4z"/>
<path class="st2" d="M127.6,70.4c-0.9,1-1.9,1.9-3,2.6c-2.9,2.2-6.4,3.5-10,3.6c-0.5-14.6-1.2-26.9-2.3-30.5
	C114.3,48.5,123.5,60,127.6,70.4z"/>
<path class="st3" d="M100.2,14.3c0,7.9-5,13.3-13,13.3s-13.7-5.8-13.7-13.7S78.3,0,86.3,0C96,0,100.2,6.4,100.2,14.3z"/>
<path class="st1" d="M98.4,17.7c0,0,2.2-2.9,3.9-0.5s-0.7,9.5-4.8,7.8L98.4,17.7z"/>
<path class="st4" d="M98.4,22.8c0.1,0,0.1,0,0.2-0.1c0.1,0,0.1-0.1,0.1-0.2c0.3-0.7,0.7-1.3,1.2-1.9c0.5-0.5,1.1-1,1.8-1.2
	c0,0,0.1,0,0.1-0.1c0,0,0.1-0.1,0.1-0.1c0,0,0-0.1,0-0.1c0,0,0-0.1,0-0.1c0-0.1-0.1-0.2-0.2-0.2c-0.1,0-0.2,0-0.3,0
	c-0.8,0.3-1.5,0.8-2.1,1.4s-1,1.3-1.3,2.2c0,0,0,0.1,0,0.1c0,0,0,0.1,0,0.1c0,0,0.1,0.1,0.1,0.1C98.2,22.7,98.3,22.7,98.4,22.8
	L98.4,22.8z"/>
<path class="st4" d="M100.7,21.7c0.1,0,0.1,0,0.2,0c0.1,0,0.1-0.1,0.1-0.1c0-0.1,0-0.1,0-0.2c0-0.1,0-0.1-0.1-0.2
	c-0.3-0.4-0.8-0.8-1.3-1c-0.1,0-0.2,0-0.3,0c-0.1,0-0.2,0.1-0.2,0.2c0,0,0,0.1,0,0.1c0,0,0,0.1,0,0.1c0,0,0,0.1,0.1,0.1
	c0,0,0.1,0.1,0.1,0.1c0.4,0.2,0.7,0.4,1,0.8c0,0,0.1,0.1,0.1,0.1C100.6,21.6,100.7,21.7,100.7,21.7L100.7,21.7z"/>
<path class="st1" d="M75.3,17.7c0,0-2.2-2.9-3.9-0.5c-1.7,2.4,0.7,9.5,4.8,7.8L75.3,17.7z"/>
<path class="st4" d="M75.3,22.8c-0.1,0-0.1,0-0.2-0.1c-0.1,0-0.1-0.1-0.1-0.2c-0.3-0.7-0.7-1.3-1.2-1.9c-0.5-0.5-1.1-1-1.8-1.2
	c0,0-0.1,0-0.1-0.1c0,0-0.1-0.1-0.1-0.1c0,0,0-0.1,0-0.1c0,0,0-0.1,0-0.1c0-0.1,0.1-0.2,0.2-0.2c0.1,0,0.2,0,0.3,0
	c0.8,0.3,1.5,0.8,2.1,1.4s1,1.3,1.3,2.2c0,0,0,0.1,0,0.1c0,0,0,0.1,0,0.1c0,0-0.1,0.1-0.1,0.1C75.4,22.7,75.4,22.7,75.3,22.8
	L75.3,22.8z"/>
<path class="st4" d="M72.9,21.7c-0.1,0-0.1,0-0.2,0c-0.1,0-0.1-0.1-0.1-0.1c0-0.1,0-0.1,0-0.2c0-0.1,0-0.1,0.1-0.2
	c0.3-0.4,0.8-0.8,1.3-1c0.1,0,0.2,0,0.3,0c0.1,0,0.2,0.1,0.2,0.2c0,0,0,0.1,0,0.1c0,0,0,0.1,0,0.1c0,0,0,0.1-0.1,0.1
	c0,0-0.1,0.1-0.1,0.1c-0.4,0.2-0.7,0.4-1,0.8c0,0-0.1,0.1-0.1,0.1C73,21.6,73,21.7,72.9,21.7z"/>
<path class="st0" d="M81.3,31v7.1c0,0,2.2,3.6,5.1,3.9s5.5-3.1,5.5-3.1v-7.3L81.3,31z"/>
<path class="st1" d="M81.3,31v3.1c2,2.1,5.4,2.7,10.6,1.9v-4.6L81.3,31z"/>
<path class="st0" d="M99.6,17.4c-0.1,1.6-0.3,3.1-0.6,4.7c-1,5.2-3.2,10.4-7.9,12c-10.7,3.7-14.5-5.2-16-10.5
	c-0.2-0.6-0.3-1.2-0.4-1.9c-0.2-1.2-0.4-2.6-0.6-4c-0.2-1.7-0.3-3.4-0.4-4.9c-0.1-1.6,0.4-3.1,1.2-4.4c0.9-1.3,2.1-2.3,3.6-2.8
	c4.4-1.7,11-3,17.3,0.5c1.1,0.6,2.1,1.5,2.8,2.6c0.7,1.1,1,2.4,1.1,3.7C99.7,13.8,99.7,15.6,99.6,17.4z"/>
<path class="st3" d="M98.2,17.7c-0.3,0.6-2.3,6.7-2.9,7.5c-1.3-2.7-7.3-0.7-7.3-0.7c-0.4,0.1-0.8,0.2-1.2,0.2
	c-0.4,0-0.8-0.1-1.2-0.2l0,0c0,0-6.2-1.9-7.4,1c-0.6-0.9-2.3-6.8-2.6-7.8h-1.5c0.1,1.4,0.3,2.8,0.6,4c0.1,0.7,0.3,1.3,0.5,1.9
	c1.5,5.2,5.3,14.2,16,10.5c4.7-1.7,6.9-6.8,7.9-12c0.3-1.5,0.5-3.1,0.6-4.7L98.2,17.7z M92.5,28.8c-0.4,0.4-0.9,0.8-1.4,1.1
	c-2.7,1.4-3,1.2-4.1,1.3c-1.4,0-2.9-0.4-4.1-1.1c-0.7-0.4-1.4-0.9-2-1.5c0,0-1.1-3.7,5.9-2.8C93.8,24.6,92.6,28.1,92.5,28.8z"/>
<path class="st3" d="M91.4,18.6c0,0.8,0.4,1.4,0.9,1.4s0.9-0.6,0.9-1.4s-0.4-1.4-0.9-1.4S91.4,17.8,91.4,18.6z"/>
<path class="st3" d="M80.9,18.6c0,0.8,0.4,1.4,0.9,1.4c0.5,0,0.9-0.6,0.9-1.4s-0.4-1.4-0.9-1.4C81.3,17.2,80.9,17.8,80.9,18.6z"/>
<path class="st3" d="M95.8,14.7c0,0-3.4-1.3-6-0.2l0.3,1.4c0,0,3.9-0.3,5.8,0.5C96.1,15.8,96,15.3,95.8,14.7L95.8,14.7z"/>
<path class="st3" d="M78.9,14.7c0,0,3.4-1.3,6-0.2l-0.3,1.4c0,0-3.9-0.3-5.8,0.5C78.6,15.8,78.6,15.3,78.9,14.7L78.9,14.7z"/>
<path class="st1" d="M86.7,23.9c-0.4,0-0.9-0.1-1.2-0.3c0,0-0.1,0-0.1-0.1s-0.1-0.1-0.1-0.1c0,0,0-0.1,0-0.1c0,0,0-0.1,0-0.1
	c0-0.1,0.1-0.1,0.2-0.2c0.1,0,0.2,0,0.3,0c0.4,0.2,0.9,0.2,1.4,0.1c0.1,0,0.1-0.1,0.1-0.1c0-0.1,0-0.1,0-0.2
	c0.1-1.2-0.2-5.1-0.2-5.2c0-0.1,0-0.2,0.1-0.2c0.1-0.1,0.1-0.1,0.2-0.1c0.1,0,0.2,0,0.2,0.1c0.1,0,0.1,0.1,0.1,0.2
	c0.2,1.8,0.2,3.5,0.2,5.3c0,0.2-0.1,0.3-0.1,0.5c-0.1,0.1-0.2,0.3-0.4,0.4C87.2,23.9,87,23.9,86.7,23.9L86.7,23.9z"/>
<path class="st5" d="M91.4,26.4c-0.3,1.4-1.2,3.9-4.3,3.9c-3.1,0-4.1-2.3-4.4-3.9L91.4,26.4z"/>
<path class="st3" d="M74.1,17.7h1.5c-0.2-1.5-0.4-4.2,0.9-4.6c4.1-1.2-1.2-4,0.6-5.4s6.4-0.8,9.6-0.9c3.2-0.1,6.4-0.1,9.6,0.2
	c1.2,0.3,0.6,2.3,0.1,3.9c-0.5,1.6,1.5,3.3,1.9,4.9c0.1,0.6,0.1,1.3,0,1.9h1.3c0.2-2,0.2-3.8,0.2-5.3c0-1.3-0.4-2.6-1.1-3.7
	c-0.7-1.1-1.6-2-2.8-2.6c-6.3-3.5-12.9-2.2-17.3-0.6c-1.5,0.5-2.7,1.5-3.6,2.8c-0.9,1.3-1.3,2.8-1.2,4.4
	C73.8,14.3,73.9,16,74.1,17.7z"/>
</svg>
