<svg width="40" height="40" viewBox="0 0 40 40" fill="none" xmlns="http://www.w3.org/2000/svg">
<g clip-path="url(#clip0_52_1029)">
<path d="M39.3998 24.8382C36.7285 35.5526 25.876 42.0727 15.1604 39.4014C4.44975 36.7302 -2.07088 25.8776 0.600994 15.1638C3.27099 4.44815 14.1229 -2.07313 24.8354 0.598134C35.5504 3.26939 42.0704 14.1232 39.3991 24.8382H39.3998Z" fill="#F7931A"/>
<path d="M28.8184 17.1506C29.2159 14.4894 27.1896 13.0588 24.419 12.1044L25.3178 8.49938L23.1228 7.9525L22.2478 11.4625C21.6715 11.3188 21.079 11.1831 20.4903 11.0487L21.3715 7.51562L19.1784 6.96875L18.279 10.5725C17.8015 10.4638 17.3328 10.3563 16.8778 10.2431L16.8803 10.2319L13.854 9.47625L13.2703 11.82C13.2703 11.82 14.8984 12.1931 14.864 12.2162C15.7528 12.4381 15.914 13.0262 15.8865 13.4925L14.8628 17.5994C14.924 17.615 15.0034 17.6375 15.0909 17.6725L14.8596 17.615L13.424 23.3681C13.3153 23.6381 13.0396 24.0431 12.4184 23.8894C12.4403 23.9212 10.8234 23.4912 10.8234 23.4912L9.73401 26.0037L12.5903 26.7156C13.1215 26.8487 13.6421 26.9881 14.154 27.1194L13.2459 30.7663L15.4378 31.3131L16.3378 27.7056C16.9359 27.8681 17.5171 28.0181 18.0859 28.1594L17.1896 31.75L19.384 32.2969L20.2921 28.6575C24.034 29.3656 26.8484 29.08 28.0315 25.6962C28.9859 22.9712 27.9846 21.3994 26.0159 20.3737C27.4496 20.0419 28.5296 19.0988 28.8178 17.1506H28.8184ZM23.804 24.1812C23.1253 26.9062 18.5378 25.4338 17.0496 25.0638L18.2546 20.2331C19.7421 20.6044 24.5115 21.3394 23.8046 24.1812H23.804ZM24.4821 17.1112C23.8634 19.59 20.0446 18.3306 18.8053 18.0219L19.8978 13.6406C21.1371 13.9494 25.1271 14.5256 24.4821 17.1112Z" fill="white"/>
</g>
<defs>
<clipPath id="clip0_52_1029">
<rect width="40" height="40" fill="white"/>
</clipPath>
</defs>
</svg>
