<svg width="40" height="40" viewBox="0 0 40 40" fill="none" xmlns="http://www.w3.org/2000/svg">
<path d="M20 40C31.0457 40 40 31.0457 40 20C40 8.9543 31.0457 0 20 0C8.9543 0 0 8.9543 0 20C0 31.0457 8.9543 40 20 40Z" fill="#988430"/>
<path d="M20 39.3593C30.6918 39.3593 39.3593 30.6918 39.3593 20C39.3593 9.3081 30.6918 0.640625 20 0.640625C9.3081 0.640625 0.640625 9.3081 0.640625 20C0.640625 30.6918 9.3081 39.3593 20 39.3593Z" fill="#7A6A2A"/>
<path d="M20 38.9514C30.4666 38.9514 38.9515 30.4666 38.9515 20C38.9515 9.53338 30.4666 1.04852 20 1.04852C9.53344 1.04852 1.04858 9.53338 1.04858 20C1.04858 30.4666 9.53344 38.9514 20 38.9514Z" fill="#BA9F33"/>
<path fill-rule="evenodd" clip-rule="evenodd" d="M8.74427 17.8641C8.63099 17.7606 8.51131 17.6569 8.40123 17.5535C8.29115 17.45 8.17808 17.3463 8.0648 17.2429L7.72816 16.9229C7.67312 16.8678 7.61488 16.8194 7.55984 16.7641C7.5048 16.7157 7.44016 16.6607 7.38512 16.612C6.9384 16.1881 6.48912 15.7643 6.04859 15.3401C6.50491 15.7576 6.95163 16.1721 7.40795 16.5958L7.56645 16.7545C7.62149 16.8094 7.67973 16.858 7.73477 16.9131L8.0712 17.2237C8.18448 17.3271 8.29456 17.4308 8.40784 17.5437C8.52112 17.6565 8.6312 17.7604 8.74448 17.8637L8.74427 17.8641ZM2.81552 17.8001C2.81552 17.8001 4.44005 17.9682 5.23301 18.0815C5.96752 18.1852 8.26533 18.5378 8.26533 18.5378L2.81552 17.8001ZM2.81552 17.8001C3.27184 17.8389 3.72816 17.8873 4.18448 17.936C4.41744 17.9586 4.6408 17.9844 4.86416 18.007L5.20699 18.0461C5.32027 18.0621 5.43035 18.0783 5.54363 18.0945L6.90299 18.3112L7.58245 18.4245C7.80581 18.4633 8.02917 18.5056 8.26214 18.5444C8.03877 18.5218 7.80581 18.4894 7.58245 18.4569L6.90299 18.3599L5.54363 18.1593C5.43035 18.1431 5.32027 18.1203 5.20699 18.1043L4.86395 18.0648C4.64059 18.0422 4.40763 18.0098 4.18427 17.9838C3.72795 17.9289 3.27163 17.8705 2.81531 17.7995L2.81552 17.8001ZM8.10363 18.9611C8.10363 18.9611 6.36901 19.4014 5.7832 19.5697C5.2072 19.7282 3.46277 20.259 3.46277 20.259L8.10342 18.9613L8.10363 18.9611Z" fill="#CFB66C"/>
<path fill-rule="evenodd" clip-rule="evenodd" d="M8.10346 18.9611C7.71839 19.0743 7.33546 19.1844 6.94484 19.2881L5.78623 19.5987C5.40116 19.712 5.01823 19.8221 4.63423 19.9354L4.05823 20.0939C3.8673 20.1489 3.67316 20.1974 3.47583 20.2526C3.66655 20.1886 3.8609 20.1231 4.05183 20.0681L4.62783 19.8838C5.0129 19.7639 5.39583 19.6506 5.77983 19.5309C6.1713 19.4338 6.55658 19.3301 6.94804 19.2363C7.3201 19.1424 7.71178 19.0487 8.10346 18.9613V18.9611ZM3.70559 21.327C3.89631 21.2557 6.09706 20.23 6.60842 19.9904C6.86442 19.8705 7.60852 19.6064 7.60852 19.6064L3.70559 21.327Z" fill="#CFB66C"/>
<path fill-rule="evenodd" clip-rule="evenodd" d="M3.70566 21.3269C3.87376 21.2629 4.03248 21.1846 4.19419 21.1102L4.67312 20.8868L5.6344 20.4241C5.9544 20.272 6.26544 20.1041 6.59547 19.9612C6.76379 19.8901 6.93211 19.8319 7.10022 19.7769L7.35622 19.696C7.44347 19.6734 7.52454 19.6474 7.61222 19.6248C7.29222 19.7769 6.95536 19.9064 6.63494 20.055C6.31494 20.2138 5.98768 20.3433 5.65744 20.4856L4.68016 20.9158C4.35206 21.0488 4.03206 21.191 3.70544 21.3269H3.70566ZM3.91899 22.2229C3.91899 22.2229 5.91238 21.0547 6.59846 20.6793C6.95771 20.4787 8.11952 19.9025 8.11952 19.9025L3.91899 22.2229Z" fill="#CFB66C"/>
<path fill-rule="evenodd" clip-rule="evenodd" d="M3.91919 22.2234C4.25562 22.0162 4.59866 21.8059 4.9417 21.5923L5.4537 21.2815C5.62842 21.178 5.79674 21.081 5.97487 20.9775C6.14959 20.8738 6.31791 20.7704 6.49583 20.6733C6.58053 20.621 6.66927 20.5756 6.76122 20.5374L7.033 20.4015C7.39226 20.2268 7.75151 20.0487 8.13018 19.8965C7.78714 20.1135 7.43428 20.298 7.08164 20.4888C6.90692 20.5858 6.72879 20.6733 6.55407 20.7704C6.37935 20.8674 6.21103 20.9711 6.0329 21.065C5.85818 21.1684 5.68986 21.2655 5.51194 21.3594L4.98436 21.6474L3.91962 22.2234H3.91919ZM8.10351 20.1585C8.10351 20.1585 6.86404 21.11 6.46276 21.4142C6.06148 21.7184 4.88026 22.5728 4.88026 22.5728L8.10351 20.1585Z" fill="#CFB66C"/>
<path fill-rule="evenodd" clip-rule="evenodd" d="M15.2169 27.8317L14.5826 26.631L14.9515 25.1294L17.5825 24.1133L16.4627 21.8157L17.0161 19.4952L18.0551 17.4174L21.2655 16.9126L23.6246 14.6635L28.7185 15.0485L29.7184 20.4951L27.7929 27.3527L26.6959 30.903L22.2492 31.0713L20.1846 29.6409L17.7671 28.631L15.2169 27.8317Z" fill="#E2CC85"/>
<path fill-rule="evenodd" clip-rule="evenodd" d="M23.0163 27.7928C23.0163 27.7928 22.4012 28.0744 21.3523 28.0096C21.0487 27.6019 18.9226 27.411 18.9226 27.411C18.9226 27.411 18.6572 27.3301 18.1879 27.5243C17.7156 27.7163 17.2688 27.6926 16.8514 27.796C16.4339 27.8995 16.0194 27.3559 15.6994 27.2427C15.3794 27.123 14.955 26.835 14.955 26.835L14.059 26.7475L12.2598 25.987L9.40133 23.1392L8.62458 24.3552L8.38501 25.86L9.24922 27.6433L11.5761 29.763L16.1132 30.915L18.8025 30.1227L22.1715 28.6987L23.0163 27.7926V27.7928Z" fill="#F1D789"/>
<path fill-rule="evenodd" clip-rule="evenodd" d="M6.89645 17.7282L7.47245 15.984L8.15874 14.8576L10.3689 14.6731L9.70541 16.6084L7.85773 19.8965L8.62466 22.8318L7.26552 23.5113L6.84781 22.8706L6.51138 21.4014L6.48877 19.7508L6.89645 17.7282Z" fill="#F4ECB4"/>
<path fill-rule="evenodd" clip-rule="evenodd" d="M9.3754 27.6732L8.9515 27.081C8.9515 27.081 8.83822 26.7994 8.90307 26.5534C8.96707 26.3042 8.9579 26.288 8.92569 26.1941C8.89347 26.1003 8.62147 25.7767 8.63769 25.4983C8.65369 25.2167 8.61507 25.1228 8.82201 24.8996C9.03876 24.6829 8.97412 24.3074 8.97412 24.3074L9.25572 24.4821L9.31972 24.3851C9.31972 24.3851 9.42319 24.4659 9.42319 24.5922C9.4458 24.4175 9.35193 23.6083 9.56548 23.424C9.77903 23.2397 10.1577 24.288 10.1577 24.288L9.92474 22.7669L9.3259 21.2073L8.26115 19.7833L8.19715 18.2136V18.0777C8.19715 18.0777 7.7084 18.8286 7.5725 19.4217C7.47544 19.8293 7.7084 20.3245 7.65997 20.9103C7.62093 21.4929 7.5725 21.4475 7.7148 21.6783C7.85709 21.9091 8.20355 22.3838 8.06765 22.7268C7.94797 23.0215 7.54008 22.8143 7.54008 22.8143C7.54008 22.8143 7.45922 23.0537 7.34914 23.1411C7.31031 22.9988 7.26829 22.9082 7.19063 22.8211C7.18402 22.8762 7.16802 22.9506 7.16802 22.9506C7.16802 22.9506 7.09677 22.7273 7.02551 22.4457C6.92866 22.0704 6.82498 21.5753 6.73111 21.3099C6.69228 21.462 6.59521 21.9247 6.59521 21.9247L6.65026 22.6368L6.91564 23.6141L7.17165 24.2541L7.42082 25.0372L7.63736 25.5633L7.81208 25.9646L7.96419 26.8676L8.6987 27.6442L9.09038 27.8191L9.37497 27.6734L9.3754 27.6732Z" fill="#F3E19D"/>
<path fill-rule="evenodd" clip-rule="evenodd" d="M7.28144 16.3042C7.28144 16.3042 6.75386 17.2002 6.60197 18.1035C6.45008 19.0067 6.31397 19.9612 6.40997 21.1908C6.50704 22.4305 6.69157 23.1908 6.84048 23.7346C7.09648 24.6377 7.75952 25.8933 7.75952 25.8933L7.78214 25.8447C7.67069 25.6335 7.58174 25.4111 7.51675 25.1812C7.42928 24.8382 7.39685 24.4305 7.316 24.246C7.24475 24.0617 7.12507 23.9029 7.06682 23.6764C7.01178 23.4596 7.00282 23.1166 6.83386 22.861C6.76261 22.7573 6.67514 22.4856 6.64933 22.2138C6.6169 21.8059 6.66554 21.3496 6.62672 20.9743C6.55546 20.3497 6.50704 19.9258 6.57168 19.5987C6.63632 19.2717 6.97317 18.3433 7.18032 17.6053C7.31621 17.1328 7.23515 16.7347 7.48432 16.3236C7.73349 15.916 7.88582 15.5567 7.94064 15.3075C8.00464 15.081 7.28059 16.3042 7.28059 16.3042H7.28144Z" fill="#F2E8B0"/>
<path fill-rule="evenodd" clip-rule="evenodd" d="M9.78325 15.9449C9.78325 15.9449 9.51146 16.026 9.38196 16.1683C9.25247 16.3042 9.19743 16.4175 9.02271 16.6472C8.84799 16.877 8.83817 17.0647 8.69566 17.3527C8.55337 17.6343 8.23934 18.0582 8.20051 18.2103C8.16169 18.3624 8.09705 19.0743 8.01619 19.4109C7.94494 19.7476 8.09705 20.1619 8.09705 20.1619L8.28137 20.1228C8.28137 20.1228 8.28137 20.3624 8.4659 20.5243C8.65022 20.6828 8.68265 19.9869 8.68265 19.9869L9.37194 17.6601L10.4107 16.9546L10.5239 16.385L9.78282 15.9449H9.78325Z" fill="#F5EEC0"/>
<path fill-rule="evenodd" clip-rule="evenodd" d="M10.288 17.0001C10.288 17.0001 9.79921 17.0323 9.55985 17.2073C9.46279 17.2783 9.42396 17.3365 9.32049 17.424C9.12956 17.5825 8.93521 17.7282 8.84156 17.936C8.73788 18.1429 8.6246 18.457 8.54695 19.0492C8.51452 19.2984 8.51452 19.5281 8.49191 19.7289C8.45948 20.0006 8.41105 20.2174 8.43687 20.3689C8.46929 20.6795 8.78972 20.8414 8.82087 21.194L9.48433 20.8576L10.109 18.3947L11.4359 17.5627L10.685 16.7213L10.2871 16.9986L10.288 17.0001Z" fill="#E6DB9D"/>
<path fill-rule="evenodd" clip-rule="evenodd" d="M6.78781 33.5849C6.79058 33.5605 6.79336 33.5362 6.79613 33.5113C6.89298 32.6793 6.90941 32.0486 6.98045 31.6538C7.08392 31.094 7.15517 30.8858 7.13896 30.6763C7.11634 30.3398 7.09053 30.0939 7.12296 29.8349C7.17138 29.4918 7.50802 29.0842 7.49842 28.8026C7.49181 28.5792 7.37853 28.4337 7.28146 28.2978C7.1844 28.1619 7.10674 28.0486 7.10674 28.0486C7.10674 28.0486 7.77021 27.5923 7.76381 25.754C7.77736 25.7578 7.7904 25.7633 7.80264 25.7702L8.12946 26.6989L8.35282 26.9707L9.21042 28.5694L10.314 29.6408L11.9449 30.7377L12.9677 31.8507L13.0711 34.8183L11.7346 36.553L11.5157 36.9493C9.77676 36.0764 8.18215 34.9416 6.7876 33.5846L6.78781 33.5849Z" fill="#E5CB7A"/>
<path fill-rule="evenodd" clip-rule="evenodd" d="M10.8706 36.4239C10.8706 36.4239 10.8932 36.055 11.1974 35.8155C11.2461 35.8963 11.2783 35.9742 11.2687 36.0322C11.3237 35.9354 11.7088 35.3139 12.5794 35.152C13.45 34.9935 13.6604 34.3593 13.6604 34.3593L15.508 32.6797L17.6213 30.7347L20.1909 29.8317L21.3917 29.5371C21.3917 29.5371 21.4143 29.6245 21.3691 29.8187C21.5923 29.8027 22.0874 29.6894 22.602 29.5081C22.8091 29.4272 23.0035 29.3948 23.1069 29.5017C23.259 29.644 23.2816 29.9806 23.2912 30.1811C23.5404 30.1261 23.8284 29.8867 24.0592 29.9093C24.4283 29.9482 24.7551 30.3819 25.1306 30.3819C25.6257 30.3819 25.8489 30.0777 26.1953 29.8381C26.4025 29.6958 26.7001 29.5181 26.8684 29.398C27.2697 29.1034 31.5156 27.8057 31.5156 27.8057L33.0043 27.9027L33.2438 29.5015L33.1158 33.6807C33.1001 33.6958 33.0843 33.7116 33.0683 33.7267L26.2997 37.2619L16.9173 38.7002C14.8156 38.3568 12.7875 37.6592 10.9192 36.637L10.8712 36.4237L10.8706 36.4239Z" fill="#D8C173"/>
<path fill-rule="evenodd" clip-rule="evenodd" d="M7.35681 34.1165C7.49014 33.8376 7.61004 33.6045 7.63116 33.5211C7.6478 33.6892 7.6783 34.058 7.73974 34.4501C7.61075 34.3405 7.4831 34.2292 7.35681 34.1163V34.1165Z" fill="#F1D789"/>
<path fill-rule="evenodd" clip-rule="evenodd" d="M14.2106 38.0495L15.424 37.712L15.5275 37.7445C15.5275 37.7445 15.5825 37.7769 15.5825 37.8867C15.7347 37.7995 15.8641 37.8155 15.958 37.7575C16.0064 37.8609 16.0549 38.204 16.2686 38.246C16.4918 38.2946 16.7313 38.1489 16.9741 37.9646C17.2135 37.7737 17.4861 37.5341 17.6924 37.437C17.7681 37.5762 17.8351 37.7199 17.8932 37.8673C18.1649 37.6506 18.6375 36.7704 19.3105 36.7864C19.5051 36.3266 19.8301 35.934 20.2454 35.657C20.87 35.2331 21.2615 35.2007 21.7502 35.2395C21.9443 34.9873 22.1836 34.7734 22.4557 34.6084C22.5366 34.6409 22.7599 34.7768 23.0383 34.6473C23.3199 34.518 23.6369 34.0162 24.0544 33.9516C24.2794 33.9206 24.5082 33.9687 24.7017 34.0875C24.7017 34.0875 25.9177 32.8802 26.7567 32.4789C26.7243 32.3819 26.6597 32.0162 27.6433 31.207C27.6984 31.2557 27.6596 31.3916 27.6984 31.399C27.7144 31.399 27.9544 31.2956 28.2582 31.0624C28.6336 30.781 29.0833 30.4864 29.3551 30.4056C29.8671 30.2534 30.4103 30.5641 30.4103 30.5641C30.4565 30.5317 30.5079 30.5076 30.5624 30.4928C30.6917 30.4702 30.7855 30.454 30.8568 30.4288C30.8504 30.5971 30.9443 30.8851 30.8568 31.1343C30.9581 31.1913 31.0654 31.2369 31.1768 31.2702C31.122 31.3899 31.0021 31.6941 30.8015 31.8398C30.9696 31.9206 30.9923 32.0145 31.2318 32.0958C31.1348 32.2317 30.9758 32.4649 30.905 32.6078C30.8337 32.7599 30.578 33.3909 30.4647 33.6303C30.345 33.8699 30.1833 34.31 30.1054 34.3983C30.0276 34.4866 29.7462 34.861 29.5294 35.0454C29.7214 34.9741 30.5069 34.7347 30.8401 34.6441C30.7409 34.7896 30.2381 35.5356 29.7547 36.253C27.4401 37.6403 24.8565 38.5184 22.1759 38.8287C19.4953 39.139 16.7794 38.8745 14.2091 38.0527L14.2106 38.0495Z" fill="#E0CD81"/>
<path fill-rule="evenodd" clip-rule="evenodd" d="M10.368 16.9126C10.368 16.9126 10.0866 16.9126 10.0316 16.9515C9.97651 16.9903 10.3132 17.0713 10.4166 17.1102C10.5201 17.149 10.7434 17.3269 10.8017 17.4694C10.8567 17.6053 12.8243 18.3981 12.8243 18.3981L14.2159 18.3268L14.6957 17.664L13.783 16.8646L14.423 14.9779L13.5752 15.1138L11.5364 16.3298L10.5137 16.7215L10.368 16.9126Z" fill="#DFC57C"/>
<path fill-rule="evenodd" clip-rule="evenodd" d="M13.4239 17.5373C13.4441 17.5699 13.4724 17.5966 13.5061 17.6147C13.5398 17.6329 13.5777 17.6419 13.6159 17.6408C13.9039 17.6408 14.1691 17.712 14.2792 17.8575C14.4637 18.0907 14.9751 18.835 14.9751 18.835L16.1983 19.2751L16.2773 17.8347L14.9407 16.906L13.4197 17.4658V17.5371H13.4231L13.4239 17.5373Z" fill="#E5CC7C"/>
<path fill-rule="evenodd" clip-rule="evenodd" d="M13.1841 18.0713C13.1841 18.0713 13.4072 18.0875 13.6888 17.9838C13.9704 17.8801 14.4331 17.657 14.6339 17.7444C14.9153 17.8641 14.857 18.2396 15.1614 18.5764C15.3458 18.7836 15.6824 18.7772 15.8733 19.0005C16.0643 19.2239 16.7211 19.1202 16.7211 19.1202L16.9703 20.4642L15.9704 21.7459L15.6434 23.338H14.2913L13.0561 22.848L12.4476 21.376L12.7518 19.8874L13.1841 18.0713Z" fill="#D2C281"/>
<path fill-rule="evenodd" clip-rule="evenodd" d="M15.7995 18.1358C15.833 18.1462 15.8678 18.1516 15.9029 18.1521C15.8641 18.1845 15.783 18.2555 15.8155 18.4401C15.8479 18.6246 15.9513 18.8575 15.8641 18.9998C15.9337 19.076 15.9857 19.1666 16.0162 19.2652C16.0712 19.4239 16.0875 19.5694 16.4465 19.5923C16.3947 19.6242 16.3469 19.6622 16.3042 19.7055C16.3042 19.7055 16.5534 19.9223 16.6797 20.1228C16.8089 20.1173 17.152 20.0106 17.152 20.0106L17.2232 20.0592L17.3753 19.9952C17.3753 19.9952 17.2331 19.9402 17.3365 19.594C17.4336 19.2898 17.5211 19.306 17.5285 19.2834C17.536 19.2607 17.5998 18.9403 17.5998 18.8108C17.6482 18.6427 17.687 18.1314 17.687 18.1314L17.5836 17.002L17.0012 16.6492L16.5276 16.192L16.0808 17.0334L15.7867 17.3267L15.764 18.0548L15.7995 18.1358Z" fill="#E2C270"/>
<path fill-rule="evenodd" clip-rule="evenodd" d="M17.2007 17.1911C17.2007 17.1911 17.3042 17.4855 17.3432 17.712C17.3569 17.668 17.3646 17.6222 17.3658 17.5761C17.3658 17.5761 17.4467 18.0228 17.4627 18.2074C17.4951 18.2008 17.5267 18.1912 17.5339 18.2234C17.5412 18.2556 17.615 18.615 17.5979 18.8156C17.7327 18.5933 17.9192 18.4068 18.1415 18.272C18.271 18.1909 18.4231 18.1037 18.5818 18.0971C18.831 18.0907 19.0121 18.2558 19.3099 18.2558C20.0282 18.2558 20.6789 17.7282 21.1578 17.5665C21.5104 17.4466 21.8147 17.3594 22.0282 17.165C22.1319 17.0778 22.3164 16.8836 22.4845 16.5954C22.7079 16.2114 22.9408 15.8771 23.174 15.8351C23.0685 15.8545 22.9612 15.8621 22.854 15.8577C22.854 15.8577 22.9253 15.7865 23.046 15.6894C23.1668 15.5923 23.3114 15.4727 23.5183 15.4727C23.8874 15.4727 24.0717 15.5275 24.2789 15.5275C24.486 15.5211 24.6057 15.4727 24.6057 15.4727C24.6057 15.4727 24.8227 15.6248 25.3112 15.6248C25.7999 15.6312 26.1268 15.6732 26.3826 15.696C26.6383 15.7188 27.4957 15.6248 27.7417 15.632C27.9021 15.6382 28.0595 15.6767 28.2046 15.7453L27.4117 13.4413L24.5632 10.9517L22.8675 12.1523L20.2588 14.7608L17.7347 15.696L17.2071 16.2882V17.1911H17.2007Z" fill="#CCB360"/>
<path fill-rule="evenodd" clip-rule="evenodd" d="M22.8642 15.8705C22.8642 15.8705 22.9354 15.7995 23.0549 15.7024C23.1744 15.6053 23.3205 15.4854 23.5274 15.4854C23.8963 15.4854 24.0808 15.5405 24.288 15.5405C24.4951 15.5341 24.6148 15.4854 24.6148 15.4854C24.6148 15.4854 24.832 15.6373 25.3203 15.6373C25.8091 15.6437 26.1359 15.6858 26.3917 15.7084C26.6475 15.731 27.5049 15.6373 27.7508 15.6444C27.9112 15.6504 28.0686 15.6889 28.2136 15.7577L27.8543 14.7187L27.437 13.926L26.246 12.6216C26.246 12.6216 24.8166 11.7803 24.8058 11.7739C24.7994 11.7675 24.3106 11.638 24.3106 11.638L23.0161 12.4211L21.8415 15.4601L21.8188 16.1001L22.5792 16.4593C22.7701 16.1393 22.9807 15.8833 23.178 15.8509C22.9999 15.8703 22.864 15.8703 22.864 15.8703L22.8642 15.8705Z" fill="#D5B457"/>
<path fill-rule="evenodd" clip-rule="evenodd" d="M22.848 16.0875C22.7347 16.0939 22.6411 16.0712 22.615 15.9904C22.518 15.7186 22.4403 15.6798 22.359 15.6798C22.2778 15.6798 22.1681 15.8545 22.1031 15.8705C22.038 15.8865 21.9608 15.67 21.9608 15.67L21.8895 15.6375C21.8895 15.6375 21.472 15.9093 21.1776 16.2298C20.8832 16.5502 20.4009 17.094 20.1841 17.1908C19.9674 17.2877 19.2228 17.3203 18.9681 17.3754C18.7134 17.4304 18.431 17.6149 18.3921 17.657C18.3533 17.699 18.5056 17.7442 18.5282 17.7862C18.5508 17.8251 18.2789 17.8088 18.2562 17.8502C18.2402 17.8827 18.3202 18.067 18.3599 18.1608C18.4293 18.1263 18.5055 18.1075 18.5831 18.1058C18.8322 18.0994 19.0136 18.2645 19.3112 18.2645C20.0297 18.2645 20.6801 17.737 21.1591 17.575C21.5119 17.4554 21.8161 17.3679 22.0297 17.1738C22.1331 17.0865 22.3177 16.8922 22.486 16.6042C22.6089 16.4068 22.7288 16.2223 22.8486 16.0864L22.848 16.0875Z" fill="#D2B257"/>
<path fill-rule="evenodd" clip-rule="evenodd" d="M12.544 32.1037C12.544 32.1037 12.48 31.8641 11.8869 31.2461C11.7186 31.0714 11.6152 30.9261 11.5019 30.8222C11.2203 30.5566 11.0552 30.4856 10.8546 30.3335C10.4145 30.0066 9.93558 30.0066 9.56673 29.6054C9.19787 29.2041 8.76801 28.4373 8.46934 27.6538C8.17494 26.8706 8.09387 26.6214 8.09387 26.5988C8.09387 26.5762 8.17494 26.4241 8.27841 26.4467C8.38187 26.4693 8.38187 26.6699 8.4079 26.7185C8.45945 26.7979 8.51792 26.8726 8.58262 26.9417C8.73473 27.1166 8.95147 27.3257 9.06155 27.6376C9.03894 27.3722 8.94827 27.0778 8.94827 27.0778C8.94827 27.0778 9.51787 27.437 10.0032 27.8123C10.492 28.1877 10.6925 28.3172 10.8352 28.5566C10.9779 28.796 11.3141 29.4272 11.4752 29.6118C11.6363 29.7963 13.8432 30.492 13.8432 30.492L14.893 31.2747L15.4142 32.4171L15.0063 33.0571L14.2232 33.2254L12.9513 32.6558L12.544 32.1035V32.1037Z" fill="#D2B159"/>
<path fill-rule="evenodd" clip-rule="evenodd" d="M9.71838 28.1683C9.71838 28.1683 9.98377 28.5922 10.631 28.9935C11.2136 29.3463 12.1359 29.6668 12.9581 29.8577C13.4304 29.971 13.9029 30.0582 14.3268 30.0648C15.4692 30.0808 16.2556 29.7542 17.2299 29.6474C17.7574 29.5923 18.4047 29.5503 19.0777 29.3914C19.9417 29.1842 20.4531 28.951 21.149 28.6234C21.6537 28.3904 22.1167 28.2157 22.4919 27.9923C23.0195 27.6817 23.4046 27.3355 23.8513 27.232C23.7963 27.3841 23.738 27.6559 23.2979 27.9375C23.5309 27.9309 23.8513 27.9149 23.8513 27.9149C23.8513 27.9149 23.5407 28.0992 22.9937 28.5135C22.657 28.7695 22.2105 29.2028 21.7542 29.4908C21.4596 29.6753 21.1392 29.8108 20.9288 29.9213C20.4168 30.2029 20.2103 30.3452 19.8739 30.6893C19.9936 30.6829 20.0034 30.6893 20.0034 30.6893C20.0034 30.6893 19.5793 30.7443 19.2753 30.906C19.2113 30.906 19.1004 30.8834 18.9062 30.9384C18.7541 30.9869 18.5534 31.0972 18.3464 31.1552C18.0518 31.2427 17.955 31.2038 17.955 31.2038L18.0034 31.3009C18.0034 31.3009 17.6194 31.2943 17.4914 31.3073C17.514 31.3137 17.5076 31.3235 17.5076 31.3235C17.4851 31.3273 17.4635 31.3349 17.4436 31.3461C17.382 31.386 17.3143 31.4155 17.2431 31.4334C17.2043 31.4398 17.1718 31.4398 17.1232 31.4496C17.1394 31.4884 17.2657 31.7056 17.3239 31.8336C17.2755 31.866 16.5472 32.4162 16.5472 32.4162C16.5698 32.4518 16.5882 32.4898 16.6022 32.5295C16.6248 32.6005 16.6347 32.7042 16.6573 32.7526C16.7121 32.8497 16.7445 32.8659 16.7445 32.8659C16.7445 32.8659 16.6573 32.8821 16.5049 32.921C16.3757 32.9534 16.2169 33.0082 15.9929 33.0406C15.9242 33.0496 15.8551 33.055 15.7858 33.0569C15.8182 33.1281 15.9605 33.3999 15.6983 33.7137C15.4361 34.0275 15.3553 34.0732 15.2744 34.2737C15.2337 34.2429 15.1904 34.2158 15.1449 34.1926C15.0577 34.1538 14.9378 34.0958 14.8958 34.0179C14.8713 34.1217 14.8388 34.2234 14.7987 34.3221C14.7179 34.5389 14.5982 34.7526 14.5756 34.9143C14.4881 34.8173 14.3264 34.6263 14.103 34.6652C13.8797 34.704 13.7017 35.0082 13.6629 35.0957C13.6629 35.0406 13.6241 34.9986 13.6145 35.0632C13.6079 35.1345 13.485 35.8786 12.7989 36.4806C12.7925 36.3285 12.7925 35.9919 12.7763 35.882C12.7123 35.946 12.634 36.0405 12.1679 36.2413C11.7116 36.4418 11.7839 36.6426 11.7839 36.6426C11.7839 36.6426 11.7451 36.3226 11.991 35.9855C12.2402 35.6491 12.3923 35.4903 12.3923 35.4645C12.3883 35.4382 12.3771 35.4136 12.3599 35.3933C12.3275 35.3609 12.2628 35.322 12.2628 35.2962C12.3016 35.2802 12.6867 35.0957 12.6641 34.7136C12.6415 34.3708 12.496 34.1926 12.3923 34.0666C12.3763 34.0503 12.5446 33.9307 12.5218 33.8918C12.5056 33.8692 12.2987 33.7169 12.2726 33.6358C12.2787 33.5875 12.2896 33.5398 12.3051 33.4935C12.3277 33.4223 12.3439 33.3736 12.3375 33.3252C12.3213 33.2444 12.2338 33.021 12.208 32.9984C12.2306 33.0048 12.3923 32.9984 12.3923 32.9984C12.3923 32.9984 12.263 32.7913 12.2402 32.6942C12.2174 32.5971 12.1689 32.3413 12.1431 32.2929C12.1982 32.2993 12.3341 32.3089 12.3341 32.2929C12.3407 32.2443 12.2144 32.1634 12.2701 32.1009C12.3089 32.1073 12.3833 32.1397 12.4544 32.2304C12.4156 32.1267 12.3509 31.9262 12.2148 31.8453C12.2788 31.8227 12.4964 31.7643 12.6873 31.8775C12.8783 31.9908 12.9433 32.1493 12.9433 32.1493C12.9433 32.1493 13.0566 32.2368 13.2316 32.3663C13.4321 32.5248 13.6877 32.7503 14.0956 32.9099C14.183 32.9585 14.4062 32.9585 14.5681 32.9261C14.6386 32.9093 14.7062 32.882 14.7686 32.8452C14.7912 32.8319 14.8151 32.8211 14.8399 32.8128C14.8051 32.743 14.7651 32.6759 14.7202 32.612C14.7752 32.612 14.8399 32.6187 14.8399 32.6187C14.8399 32.6187 14.8787 32.5312 14.704 32.3627C14.7428 32.3238 14.7915 32.2987 14.7915 32.2332C14.7364 32.2268 14.6393 32.1459 14.6167 32.1135C14.6489 32.0909 14.6976 32.0164 14.7526 31.9938C14.704 31.955 14.5843 31.7931 14.5293 31.7771C14.5818 31.7575 14.6327 31.7337 14.6814 31.7058C14.6814 31.7058 14.4096 31.6346 14.3221 31.5763C14.2347 31.5123 14.1054 31.4016 14.0277 31.3692C13.9467 31.3367 13.8044 31.3207 13.7461 31.2559C13.8009 31.2721 13.8884 31.2559 13.9533 31.2559C14.0017 31.2559 14.0245 31.2623 14.0405 31.2623C14.0341 31.2397 14.0341 31.191 14.1604 31.175C14.2212 31.1659 14.2801 31.1473 14.3351 31.12C14.3351 31.12 14.2152 31.1136 14.0791 30.9841C13.943 30.8546 13.83 30.7511 13.7523 30.7349C13.6715 30.7187 13.5193 30.79 13.4255 30.7834C13.296 30.7674 13.2409 30.7025 13.2409 30.7025C13.2409 30.7025 12.8107 30.7413 11.856 30.1589C11.0306 29.654 10.6713 29.2075 10.6713 29.2075C10.5941 29.1794 10.5194 29.1447 10.4482 29.1038C10.1376 28.9421 9.70708 28.6054 9.72009 28.1651L9.71838 28.1683Z" fill="#C2A44D"/>
<path fill-rule="evenodd" clip-rule="evenodd" d="M21.6245 8.74431C21.6994 8.76863 21.7659 8.8135 21.8165 8.8738C21.9686 9.04852 22.0657 9.37855 21.7194 9.7314C21.8553 9.77983 21.9114 9.7954 22.03 9.77983C21.9104 9.92233 21.6386 10.2265 21.6224 10.4919C21.6061 10.7087 21.742 10.7735 21.742 10.7735C21.742 10.7735 21.5349 11.0129 21.5253 11.4135C21.6231 11.3032 21.7302 11.2014 21.8453 11.1093C22.0849 10.9184 22.4149 10.7016 22.6383 10.5657C22.6352 10.6227 22.6429 10.6797 22.6609 10.7339C22.6609 10.7339 23.0781 10.3908 23.4289 10.5431C23.5874 10.6144 23.5161 10.8375 23.5161 10.8375C23.5161 10.8375 23.7331 10.7567 23.8852 10.9088C24.0373 11.0609 24.2523 11.4532 24.3626 11.6053C24.4111 11.6766 24.5374 11.8125 24.6666 12.0228C24.8433 12.3173 24.9907 12.6283 25.107 12.9515C25.1134 12.7831 25.1554 12.5212 25.6345 12.6861C26.1135 12.8544 26.6571 13.2072 27.1134 13.9021C27.5697 14.5969 27.6828 15.3813 27.9125 15.68C28.1455 15.968 28.3851 16.4469 28.4013 16.6477C28.4175 16.8484 28.33 17.4955 28.809 19.2463C28.9449 18.7027 29.152 17.4955 29.152 17.4955L29.2653 16.4307L29.3948 13.1362L25.9545 10.2782L23.2652 8.3266L21.5144 8.49492L21.6243 8.74409L21.6245 8.74431Z" fill="#CAA13E"/>
<path fill-rule="evenodd" clip-rule="evenodd" d="M28.0162 13.6472C28.0162 13.6472 27.9675 13.3272 27.1586 12.7832C26.3494 12.246 25.7183 12.246 25.1359 11.7897C24.6892 11.4304 24.2233 10.605 23.9199 10.3332C23.6253 10.0647 23.5769 9.2879 23.5769 9.2879L24.5704 8.4559L26.0479 6.32022L27.297 4.94485L27.8956 5.77686L28.7276 6.75414L29.1903 8.71532L29.3587 11.5859L28.0147 13.6474L28.0162 13.6472Z" fill="#B59544"/>
<path fill-rule="evenodd" clip-rule="evenodd" d="M29.0163 17.088C29.0408 16.6527 28.987 16.2165 28.8576 15.8001C28.6442 15.1366 28.1781 13.9586 27.9615 13.5174C27.8741 13.0287 27.9389 12.9899 28.0328 12.9348C28.1267 12.8798 28.4795 12.6788 28.6728 11.9738C28.8661 11.2687 29.4658 11.2457 29.4658 11.2457L29.8346 10.9739L30.3946 12.3751L30.8832 13.6405L31.0353 14.6082L31.1486 15.4334L30.8832 17.1778L29.5726 18.3622L29.0161 17.088H29.0163Z" fill="#C89D3A"/>
<path fill-rule="evenodd" clip-rule="evenodd" d="M10.7284 36.531V36.4951C10.7556 36.4781 10.7797 36.4565 10.7994 36.4311C10.822 36.3987 10.8385 36.3599 10.8545 36.3503C10.8869 36.3341 11.039 36.2863 11.1199 36.3016C11.2007 36.317 11.4145 36.4051 11.5278 36.3987C11.7607 36.3923 12.0325 36.2142 12.463 36.2952C13.1103 36.4149 13.2624 36.855 13.6378 37.1042C13.8938 37.2792 14.1588 37.2013 14.1976 37.2013H14.2849C14.3011 37.2013 14.4208 37.0654 14.4856 37.072C14.6151 37.0784 14.6279 37.1853 14.7088 37.1917C14.8997 37.2143 15.2688 37.0946 15.4533 37.1433C15.508 37.1604 15.5578 37.1905 15.5983 37.231C15.6389 37.2716 15.6691 37.3213 15.6863 37.376C15.7251 37.4957 15.6927 37.6478 15.5988 37.7353C15.3983 37.9196 15.2073 38.0945 15.1685 38.2473C15.2179 38.2849 15.2653 38.3251 15.3106 38.3676C13.7093 37.9596 12.1687 37.3428 10.7284 36.5329V36.531Z" fill="#CEB052"/>
<path fill-rule="evenodd" clip-rule="evenodd" d="M27.9612 30.0649C27.9612 30.0649 28.4659 29.3918 28.6409 29.0583C28.8156 28.7147 28.0875 24.3627 28.0875 24.3627L29.5503 19.5699L29.5113 18.01C29.5113 18.01 29.5825 16.5698 29.7509 15.9452C29.9516 16.3044 30.5763 16.7381 30.7122 16.9679C30.7762 16.5276 30.9935 15.5989 30.9613 14.6086C31.081 14.793 31.369 16.6475 31.369 16.6475L31.657 17.8965L32.0325 19.2235L32.45 20.6249L32.6992 21.5925L32.8415 21.8255L32.9614 22.2332L33.0746 22.6735L33.4015 23.7058L33.5935 24.5536L33.7456 26.0909C33.7787 26.2086 33.8025 26.3287 33.8168 26.4501C33.8232 26.6185 33.7942 26.7155 33.7942 26.7447C33.7942 26.774 33.8493 27.1136 33.8267 27.3694C33.7942 27.6254 33.7942 27.8257 33.5935 28.0094C33.3927 28.1931 33.2666 29.2909 33.2666 29.2909L32.9074 29.0515C32.9074 29.0515 32.9786 28.7245 32.8103 28.4269C32.642 28.1293 32.3152 28.0676 32.1306 28.1163C31.9463 28.1551 31.5774 28.2131 31.4576 28.3168C31.3443 28.4203 31.0661 28.7407 30.8103 28.8864C30.4903 29.0784 29.9689 29.0935 29.6907 29.1582C29.4091 29.2222 29.0985 29.4142 28.7714 29.6371C28.515 29.8031 28.2443 29.9459 27.9625 30.0638L27.9612 30.0649Z" fill="#CCA847"/>
<path fill-rule="evenodd" clip-rule="evenodd" d="M27.9612 37.136C27.9612 37.136 27.9825 37.1499 28.0237 37.1725C30.3229 36.0953 32.383 34.5683 34.0823 32.6818C34.0638 32.0269 34.0397 31.3555 34.0132 31.1068C33.9584 30.5792 33.9972 30.042 33.981 29.7314C33.9648 29.4208 33.7901 28.1553 33.7092 27.8285C33.6218 27.5016 33.4532 27.3397 33.4276 27.3397C33.405 27.3463 33.2689 27.9548 33.2689 28.1077C33.2689 28.2607 33.2365 28.6289 33.2365 28.7228C33.2139 28.7161 33.2043 28.6588 33.2043 28.6353C33.1718 28.7161 33.133 28.8587 33.1168 28.8749C33.1006 28.8911 33.1394 28.739 33.1168 28.7065C33.0942 28.6741 33.0528 28.6903 33.0618 28.6095C33.0656 28.5615 33.0732 28.514 33.0844 28.4672C33.0844 28.4672 32.9873 28.6095 32.9163 28.9719C32.845 29.3312 32.845 29.341 32.8192 29.3732C32.7966 29.4123 32.6671 29.5415 32.6605 29.5902C32.6541 29.6774 32.7804 29.7649 32.79 29.8133C32.7964 29.8944 32.6767 30.2696 32.6379 30.4533C32.599 30.637 32.6153 30.9969 32.5739 31.1814C32.5414 31.3497 32.5099 31.4468 32.3992 31.5179C32.48 31.5341 32.5577 31.5567 32.5577 31.5567C32.5577 31.5567 32.6709 32.0356 32.3829 32.4435C32.2795 32.5858 32.2537 32.6507 32.1436 32.7801C31.9266 33.0195 31.7583 33.2921 31.7421 33.4694C31.7309 33.4171 31.7233 33.3641 31.7195 33.3107C31.7195 33.3107 31.383 33.7024 31.2405 33.9257C31.0562 34.2137 30.8004 34.1975 30.7285 34.2688C30.6566 34.34 30.6411 34.4693 30.6645 34.573C30.6005 34.589 30.4802 34.6118 30.3992 34.861C30.3603 34.9903 30.2633 35.117 30.1112 35.204C29.959 35.2911 29.7745 35.3173 29.6806 35.3399C29.7615 35.3625 29.7939 35.3625 29.8328 35.3884C29.7843 35.4692 29.561 35.5955 29.3118 35.7574C29.0626 35.9095 28.9427 36.1327 28.8813 36.2784C28.8173 36.4143 28.7228 36.5017 28.5707 36.518C28.6347 36.5568 28.7294 36.6472 28.7778 36.6765C28.7066 36.6927 28.5858 36.6927 28.3701 36.8772C28.1436 37.0649 28.0659 37.12 27.9622 37.1362L27.9612 37.136Z" fill="#C39D3C"/>
<path fill-rule="evenodd" clip-rule="evenodd" d="M23.4581 38.6357C23.582 38.5489 23.7162 38.4777 23.8577 38.4239C24.3624 38.2234 24.8964 38.1845 25.1067 38.1199C25.3075 38.0559 25.466 37.9676 25.7152 37.9192C25.7086 37.9759 25.703 38.0292 25.697 38.0796C24.9624 38.3105 24.2144 38.4963 23.457 38.6357H23.4581Z" fill="#D2BA6B"/>
<path fill-rule="evenodd" clip-rule="evenodd" d="M32.7681 25.3593C32.7681 25.3593 32.6646 25.9191 32.4801 26.272C32.2955 26.6248 32.0961 27.1134 32.0961 27.1134C32.0973 27.0033 32.1103 26.8936 32.1349 26.7863C31.9019 26.9222 31.3355 27.2493 31.1749 27.3948C31.0228 27.5307 30.767 27.7702 30.7023 27.8835C30.8545 27.437 31.013 27.0357 31.039 26.8512C30.806 27.0195 29.7185 27.9159 29.1523 28.5081L27.3884 29.9353C27.1849 30.0451 26.9753 30.1433 26.7606 30.2293C26.4566 30.3586 26.0973 30.4687 25.8319 30.5724C25.9032 30.3814 26.0163 30.2129 26.175 30.0512C26.3433 29.8927 26.8481 29.3457 26.9257 29.0912C26.997 28.8258 27.0132 28.6673 26.9193 28.4439C26.8318 28.4665 26.6313 28.4764 26.4954 28.5152C26.3595 28.554 26.2138 28.6995 26.2138 28.6995C26.2138 28.6995 26.3173 28.1073 26.5406 27.5475C26.3723 27.5539 26.0843 27.6023 26.0843 27.6023C26.0843 27.6023 26.4856 26.9293 27.1723 26.4601C26.962 26.5049 26.7562 26.5687 26.5575 26.6509C26.1562 26.8192 25.7161 27.0684 25.3893 27.2043C25.5736 26.9483 26.8681 25.1008 27.6385 23.379C28.4065 21.6606 28.6934 21.2205 28.8617 20.2982C28.949 19.8419 28.9257 19.1676 28.949 18.5636C28.9716 17.9648 29.046 17.4276 28.9976 17.0684C29.1981 17.3175 29.9491 18.0198 29.9749 19.5895C29.9975 21.159 29.2566 23.2789 28.47 24.4211C28.662 24.4761 29.1595 24.541 29.6707 23.6531C30.1818 22.7652 30.1756 22.5173 30.3602 22.1483C30.3828 22.3328 30.3762 22.3974 30.3762 22.3974C30.3762 22.3974 31.1207 21.4946 31.4733 20.3586C31.5446 20.8473 31.7549 21.2779 31.4247 22.1743C31.1303 22.9832 30.7452 23.1808 30.7452 23.1808C30.7452 23.1808 30.9362 23.1484 31.2175 22.98C31.2662 23.0997 31.2566 23.236 31.3374 23.2843C31.4183 23.3325 31.5284 23.4137 31.5446 23.4914C31.6318 23.3619 31.7677 23.1968 31.81 23.0739C31.7775 23.3299 31.7549 24.4493 31.874 25.0189C32.1234 24.9963 32.3789 24.98 32.5537 24.5301C32.434 24.9704 32.434 25.2356 32.5148 25.6111C32.6475 25.5206 32.7672 25.3587 32.7672 25.3587L32.7681 25.3593Z" fill="#C0993A"/>
<path fill-rule="evenodd" clip-rule="evenodd" d="M24.3592 7.52106C24.3592 7.52106 24.1101 7.62453 23.6862 7.62453C23.3173 7.62453 23.4208 7.48224 22.8448 7.48224C21.9582 7.48224 18.861 7.99424 18.3172 7.98699C17.9643 7.98059 19.508 8.13909 19.508 8.13909L23.4532 8.19413L24.2459 8.13013L24.5406 7.53067L24.3592 7.52106Z" fill="#A88F33"/>
<path fill-rule="evenodd" clip-rule="evenodd" d="M14.1295 15.2331C14.1295 15.2331 13.6246 15.6181 13.411 15.9128C13.1975 16.2074 13.0842 16.4013 12.8414 16.6409C12.8984 16.643 12.9554 16.6354 13.0098 16.6182C13.0098 16.6182 13.0098 16.6822 12.9709 16.6991C13.0045 16.6953 13.0384 16.6991 13.0703 16.7102C13.1022 16.7213 13.1312 16.7394 13.1552 16.7631C13.084 16.8019 12.8899 16.9963 13.042 17.226C13.1552 17.4008 13.3948 17.4168 13.3948 17.4168C13.3948 17.4168 13.3398 17.5755 13.5695 17.5593C14.0647 17.5366 14.6181 17.3197 14.8736 17.3747C15.1296 17.4387 15.2751 17.4622 15.4563 17.7762C15.6483 18.0868 15.8155 18.1355 15.8155 18.1355C15.8155 18.1355 15.9288 17.8473 15.903 17.417C15.9959 17.185 16.0473 16.9386 16.0551 16.6889L15.8868 15.4494L15.1523 14.5205L14.2008 15.0481L14.1295 15.2324V15.2331Z" fill="#E3C571"/>
<path fill-rule="evenodd" clip-rule="evenodd" d="M15.0323 15.0485C15.0323 15.0485 15.1036 15.2169 15.4014 15.2329C15.369 15.3041 15.369 15.3139 15.3788 15.3688C15.3852 15.4238 15.3948 15.5046 15.3948 15.5046C15.4276 15.4888 15.4572 15.4671 15.4823 15.4406C15.4985 15.5119 15.4661 15.625 15.4823 15.706C15.4923 15.7553 15.5085 15.8032 15.5307 15.8483C15.5354 15.8373 15.5408 15.8265 15.5469 15.8161C15.5533 15.7999 15.6109 15.9908 15.7703 16.1361C15.7701 16.1138 15.7756 16.0918 15.7863 16.0721C15.7887 16.1127 15.8021 16.1518 15.8251 16.1854C15.8132 16.1797 15.8023 16.1721 15.7929 16.1628C15.7929 16.1628 15.8089 16.6748 15.8963 16.9395C15.911 16.9224 15.924 16.904 15.9352 16.8845C15.9352 16.8685 15.9288 17.027 15.9126 17.1405C15.8899 17.2538 15.9062 17.4123 15.9062 17.4123C15.9645 17.3663 16.0286 17.3283 16.0969 17.299C16.1939 17.26 16.3529 17.1403 16.4497 16.8749C16.5059 16.7246 16.5492 16.5698 16.5792 16.4122C16.6105 16.4724 16.6321 16.5372 16.6432 16.6042C16.6498 16.685 16.8019 16.643 16.8019 16.643L16.8344 16.2901L17.0264 15.4908L17.2011 14.9956L18.0425 13.6851L19.5627 12.5144L20.8896 12.8186L22.0092 11.2975L20.0805 10.1389L18.2552 10.3298L16.5986 12.6242L15.2719 14.7053L15.0323 15.0483V15.0485Z" fill="#D8B65B"/>
<path fill-rule="evenodd" clip-rule="evenodd" d="M24.5922 11.7282C24.5922 11.7282 24.479 11.7508 24.1521 11.9202C23.8253 12.0896 23.5987 12.1434 23.4724 12.3925C23.3462 12.6417 23.3366 12.8393 23.3366 12.8393C23.3366 12.8393 23.5599 12.7422 23.6894 12.7098C23.8253 12.6776 23.9774 12.6872 23.9612 12.7422C23.9456 12.7799 23.924 12.8149 23.8972 12.8457C23.8972 12.8457 24.1532 12.8393 24.1464 12.9656C24.1395 13.0918 24.0979 13.2309 24.0495 13.2924C24.0009 13.3564 23.8003 13.4511 23.7777 13.5256C23.7227 13.6777 23.8003 13.6841 23.7711 13.8069C23.7485 13.9268 23.6418 14.1598 23.2922 14.5675C22.9329 14.9754 22.7802 15.2634 22.7802 15.2634C22.7802 15.2634 22.6055 14.9365 22.5148 14.6549C22.4508 14.6872 22.1071 14.8781 22.1071 14.8781L21.311 12.1047L21.327 11.9202C21.327 11.9202 21.3982 11.833 21.4144 11.671C21.2948 11.6322 21.2785 11.5998 21.1198 11.4479C20.9611 11.296 20.8318 11.1113 20.5666 10.985C20.5278 10.9137 20.4792 10.8169 20.285 10.7778C20.0909 10.7388 19.9744 10.7068 19.9744 10.7068C19.9744 10.7068 20.0779 10.6677 20.1265 10.5869C20.0066 10.6031 19.9098 10.6419 19.6476 10.6355C19.3822 10.6289 19.353 10.6193 19.2075 10.6419C19.062 10.6645 18.8875 10.7294 18.8224 10.506C18.7512 10.451 18.5991 10.4996 18.4696 10.6904C18.3401 10.8811 18.2949 11.0334 18.0457 11.1078C18.0282 11.2177 17.9897 11.3231 17.9324 11.4185C17.8612 11.5384 17.7479 11.658 17.5958 11.836C17.3562 12.1176 17.395 12.5803 17.0132 12.9331C16.6281 13.2858 17.0772 11.9556 17.0772 11.9556L17.692 10.4836L19.4428 8.77163L22.1613 8.58731L22.4267 9.99531L23.7536 10.4516L24.5918 11.7299L24.5922 11.7282Z" fill="#D3AE4D"/>
<path fill-rule="evenodd" clip-rule="evenodd" d="M25.0228 12.0388L23.8804 10.3917L23.081 9.77665C23.081 9.77665 22.5114 8.72833 22.4726 8.6959C22.4402 8.67329 21.903 8.61505 21.56 8.59244L21.624 8.75094C21.6988 8.77527 21.7654 8.82013 21.816 8.88044C21.9681 9.05516 22.0651 9.38518 21.7189 9.73804C21.8548 9.78646 21.9109 9.80204 22.0295 9.78646C21.9098 9.92897 21.6381 10.2332 21.6218 10.4986C21.6056 10.7153 21.7415 10.78 21.7415 10.78C21.7415 10.78 21.5344 11.0195 21.5248 11.42C21.6226 11.3096 21.7297 11.2079 21.8448 11.1157C22.0843 10.9237 22.4144 10.7079 22.6377 10.572C22.6347 10.629 22.6423 10.6861 22.6603 10.7403C22.6603 10.7403 23.0776 10.3972 23.4283 10.5493C23.5868 10.6206 23.5156 10.844 23.5156 10.844C23.5156 10.844 23.7325 10.7631 23.8846 10.9152C24.0367 11.0673 24.2535 11.4588 24.3636 11.6111C24.412 11.6824 24.5383 11.8183 24.6676 12.0284C24.8442 12.3229 24.9917 12.634 25.1079 12.9572C25.1143 12.8277 25.1403 12.6466 25.3639 12.6466L25.024 12.0382L25.0228 12.0388Z" fill="#CAA13E"/>
<path fill-rule="evenodd" clip-rule="evenodd" d="M7.89653 16.7185C7.89653 16.7185 7.81568 16.5178 7.89653 16.1263C7.97738 15.7348 8.10368 15.5503 8.14571 14.9743C8.18773 14.3983 8.5632 13.6798 8.5632 13.6798L9.60193 13.2075L10.3367 13.408L10.5534 14.3919L9.62455 14.9039C9.62455 14.9039 9.57612 15.1206 9.31393 15.2954C9.05174 15.4701 8.68928 15.606 8.60203 15.7841C8.54987 15.8932 8.5118 16.0084 8.48875 16.1271C8.48875 16.1271 8.22336 16.0721 8.06485 16.2468C7.89653 16.425 7.90293 16.5835 7.89653 16.7194V16.7185Z" fill="#F4EFC8"/>
<path fill-rule="evenodd" clip-rule="evenodd" d="M9.99357 16.4563C9.99357 16.4563 9.9061 16.5114 9.84146 16.6483C9.77746 16.5448 9.6245 15.9298 9.6181 15.3764C9.6117 14.823 9.57864 14.6859 9.70664 14.4951C9.83464 14.3044 10.3366 14.1035 10.2654 13.76C10.1941 13.4332 9.89629 13.2973 9.53064 13.3912C9.27464 13.4552 9.08413 13.9996 8.81874 14.2714C8.618 14.4785 8.37864 14.4461 8.314 14.5594C8.22653 14.7115 8.30738 14.8636 8.28157 14.9606C8.27496 14.9931 8.1941 15.1678 8.0484 15.3781C7.754 15.802 7.25565 16.4008 7.1908 16.938C7.21341 16.6338 7.19741 16.6274 7.27826 16.2908L7.22962 16.2099L7.54962 15.1614L7.75677 14.2974L8.2197 12.8506L9.03506 11.3717L9.82802 10.4849L10.6532 10.54L10.7503 11.7794L11.2228 14.1065L12.2163 15.3297L10.624 16.4013L9.99293 16.4563H9.99357Z" fill="#EBCC73"/>
<path fill-rule="evenodd" clip-rule="evenodd" d="M10.4888 16.896C10.4888 16.896 10.3529 16.9285 10.3043 16.9026C10.2556 16.8768 10.2074 16.8476 10.2234 16.8152C10.2394 16.7828 10.3269 16.7279 10.3269 16.7019C10.3287 16.6784 10.3212 16.6551 10.3061 16.637C10.2911 16.6188 10.2695 16.6073 10.246 16.6048C10.1716 16.5952 10.149 16.6437 10.149 16.6437C10.149 16.6437 10.0777 16.5888 10.0197 16.5797C10.054 16.5754 10.0886 16.5732 10.1232 16.573C10.0337 16.5325 9.93885 16.5053 9.84155 16.4922C9.92241 16.4438 10.0811 16.3012 10.1846 16.3012C10.2881 16.3012 10.3529 16.2852 10.3367 16.2302C10.3205 16.1752 10.2396 16.0943 10.1524 16.0619C10.1846 16.0231 10.2074 15.9648 10.1298 15.8059C10.0487 15.6474 10.0811 15.5405 10.1072 15.5019C10.1298 15.4532 10.2106 15.366 10.2494 15.3109C10.2883 15.2559 10.3207 15.1814 10.3853 15.1426C10.4178 15.12 10.5212 15.0786 10.6249 15.0391C10.7382 15.0003 10.8321 14.9517 10.8967 15.0003C10.968 15.0487 10.9355 15.1136 10.9355 15.1136C10.9355 15.1136 11.1589 15.0325 11.3594 15.1362C11.5602 15.2331 12.0489 15.2947 12.0489 15.2947L12.2241 15.6476L11.0654 16.6411L10.5865 16.8807L10.4894 16.8967L10.4888 16.896Z" fill="#E5C66B"/>
<path fill-rule="evenodd" clip-rule="evenodd" d="M12.097 15.2719C12.097 15.2719 11.7378 15.5115 11.6569 15.5987C11.7053 15.6053 11.7862 15.6377 11.7538 15.6862C11.7149 15.7346 11.482 15.9029 11.3525 16.0616C11.2166 16.2201 11.0871 16.4209 11.0419 16.518C10.9934 16.6052 10.6244 16.861 10.4983 16.8932C10.7637 16.8932 11.2977 16.5664 11.4982 16.5664C11.4918 16.6635 11.5532 16.7735 11.6665 16.7831C11.7798 16.7927 12.1066 16.8544 12.5467 16.5826C12.9868 16.3172 12.8413 16.1197 13.0257 15.9904C13.3785 15.7572 13.5208 15.5501 13.7149 15.4208C13.9091 15.2915 14.0095 15.2621 14.0095 15.2621C14.0095 15.2621 14.0159 15.165 14.0735 15.1748C14.0893 15.1766 14.1043 15.1827 14.1168 15.1924C14.1294 15.2021 14.1391 15.2151 14.1448 15.2299C14.1448 15.2299 14.4814 14.9903 14.9128 14.9256C14.9027 14.9211 14.8947 14.9131 14.8902 14.903C14.8902 14.903 14.9224 14.8868 14.929 14.8706C14.929 14.8706 14.9516 14.8382 14.9678 14.8544C14.9841 14.8706 15.0067 14.9903 15.0391 15.0389C15.1103 15.0065 15.2462 14.7023 15.2462 14.7023L15.5733 13.767V12.9126L15.3173 12.9613L13.3973 13.7766L12.2321 14.9839L12.0962 15.2719H12.097Z" fill="#E6BD62"/>
<path fill-rule="evenodd" clip-rule="evenodd" d="M17.6246 11.081C17.7284 11.0558 17.828 11.0154 17.9201 10.9611C17.8812 11.0648 17.8812 11.1781 17.7129 11.424C17.5446 11.67 17.5382 11.7056 17.4023 11.9612C17.2664 12.2266 17.2502 12.6084 17.1207 12.7765C17.1787 12.7483 17.241 12.7298 17.305 12.7217C17.305 12.7217 17.1757 12.835 17.1207 12.9547C17.0657 13.0744 16.9686 13.3235 16.7292 13.4758C16.4899 13.6282 16.1854 13.725 15.8586 14.0843C15.5316 14.4369 15.1951 14.8836 15.0266 15.0443C15.1141 14.8922 15.2338 14.5879 15.2662 14.3874C15.2986 14.1869 15.2596 13.9471 15.3146 13.6819C15.3697 13.4168 15.3697 13.2256 15.6346 12.7627C15.8996 12.2997 16.3531 10.6914 16.3531 10.6914L17.3304 10.3808L17.625 11.0799L17.6246 11.081Z" fill="#B6933F"/>
<path fill-rule="evenodd" clip-rule="evenodd" d="M16.9191 10.4887C16.9191 10.4887 16.6247 10.9126 16.5438 11.2881C16.463 11.6636 16.5372 11.6311 16.4888 11.8157C16.4598 11.9282 16.4598 12.0462 16.4888 12.1587C16.5907 11.9945 16.7303 11.8568 16.896 11.7572C17.1744 11.5891 17.401 11.4692 17.536 11.3269C17.6719 11.1748 17.7852 10.9256 18.0796 10.7347C17.9599 10.7185 17.7916 10.6635 17.7596 10.6707C17.8795 10.5348 18.2385 10.3277 18.601 10.0785C18.9602 9.8225 18.9376 9.71924 19.5202 9.46367C19.3293 9.4961 19.2386 9.44746 19.0799 9.46367C19.1439 9.32778 19.3679 9.26292 19.5919 9.03978C19.8159 8.81663 19.4496 8.48639 19.4496 8.48639L17.7429 9.51871L16.9178 10.4896L16.9191 10.4887Z" fill="#C49937"/>
<path fill-rule="evenodd" clip-rule="evenodd" d="M12.288 9.71838L12.3268 9.40777L12.8155 8.62462L13.3269 7.24927V5.36895L13.2881 4.28159L13.3689 3.56949L13.4304 3.34314L13.4952 3.25568L13.9125 3.47242L14.4887 4.25557L14.5437 5.76703L13.9837 8.15209L12.385 9.89651L12.288 9.71838Z" fill="#DFC068"/>
<path fill-rule="evenodd" clip-rule="evenodd" d="M13.5599 3.16821C13.5599 3.16821 13.3039 3.17482 13.2493 4.23957C13.1947 5.30432 13.1683 5.86411 13.1294 6.39168C13.0906 6.91926 13.0002 7.23947 12.9547 7.5503C12.9093 7.86113 12.8835 8.28481 12.738 8.5438C12.674 8.66348 12.5372 9.03895 12.2168 9.32055C11.8575 9.63116 11.3208 9.84812 11.2395 9.86434C11.097 9.89655 10.3753 9.9678 10.0809 10.1297C9.97744 10.1848 9.7993 10.2494 9.60197 10.4339C9.21029 10.7866 8.68933 11.4176 8.31387 12.1782C7.73787 13.3142 7.16187 16.5212 7.16187 16.5212L7.29136 16.3045C7.29136 16.3045 7.30757 16.0165 7.59557 15.5115C7.87717 15.0068 7.79632 14.4404 8.18778 13.4727C8.33989 13.1038 8.53082 12.6249 8.76378 12.217C9.13285 11.5535 9.57936 10.9839 10.0293 10.6733C10.7638 10.1686 11.573 10.0585 11.573 10.0585L12.4436 9.48247C12.4436 9.48247 12.5957 9.18807 12.7964 8.85143C13.0778 8.37911 13.4364 7.85153 13.5147 7.08459C13.6346 5.94859 13.3464 5.20427 13.3626 4.5312C13.3788 3.85813 13.3852 3.36298 13.5213 3.24309C13.6574 3.12319 13.5602 3.16863 13.5602 3.16863L13.5599 3.16821Z" fill="#A88F33"/>
<path fill-rule="evenodd" clip-rule="evenodd" d="M13.5599 8.24916C13.5599 8.24916 13.9439 7.3041 14.1197 6.46591C14.1521 6.29759 14.2167 6.12948 14.2329 5.99359C14.3138 5.20063 14.3364 4.8738 14.2329 4.4401C14.1521 4.1201 13.8415 3.83167 13.6796 3.6081C13.521 3.37492 13.4466 3.2881 13.479 3.23903C13.5114 3.18996 13.6375 3.10975 13.7604 3.11935C13.891 3.12315 14.0195 3.15348 14.138 3.20849C14.2566 3.2635 14.3627 3.34205 14.4499 3.43935C14.6991 3.72735 14.8964 4.70484 14.8964 4.70484L15.104 5.99466L15.6316 7.61919L13.5603 8.25044L13.5599 8.24916Z" fill="#C99E3D"/>
<path fill-rule="evenodd" clip-rule="evenodd" d="M17.1682 7.2655C17.1682 7.2655 17.0969 7.29772 16.9676 7.2655C16.9731 7.31833 16.964 7.37166 16.9411 7.41962C16.9183 7.46757 16.8826 7.50829 16.8381 7.53729C16.7022 7.48225 15.4301 7.59233 15.4301 7.59233C15.4301 7.59233 14.8379 7.48865 14.6534 6.7055C14.5241 6.18433 14.7505 5.46604 14.676 4.9935C14.5627 4.29761 14.4042 4.1615 14.388 3.94497C14.3718 3.72844 14.3556 3.67318 14.3556 3.53729C14.2843 3.52108 14.2423 3.49846 14.1713 3.49846C14.155 3.43446 14.1873 3.37857 14.1162 3.26529C14.155 3.2815 14.4204 3.31393 14.731 3.60833C14.987 3.8479 14.987 3.93516 15.0257 3.9838C15.0741 4.03222 15.4658 4.3678 15.6341 4.7023C15.8024 5.03681 16.1292 6.10348 16.2037 6.2782C16.2263 6.34945 16.2749 6.4207 16.3957 6.58241C16.5834 6.81558 16.8584 7.20108 17.169 7.26508L17.1682 7.2655Z" fill="#B58634"/>
<path fill-rule="evenodd" clip-rule="evenodd" d="M15.0714 4C15.2675 4.3167 15.4436 4.6453 15.5988 4.98389C15.7897 5.41419 15.903 5.76704 16.1426 6.05504C16.0131 5.67979 15.7833 4.94187 15.6474 4.67968C15.4953 4.40235 15.1847 4.10368 15.0714 4.00021V4Z" fill="#A88F33"/>
<path fill-rule="evenodd" clip-rule="evenodd" d="M12.8706 9.32053C12.8706 9.32053 12.5438 9.40138 11.9354 9.72181C11.7346 9.82527 11.5439 9.91253 11.3594 9.99359C10.88 10.2103 10.3659 10.4107 9.958 10.5212C9.99043 10.56 10.0064 10.576 10.0064 10.576C10.0064 10.576 10.0064 10.7347 10.0939 10.8252C10.0455 10.8738 9.398 11.3139 9.58915 12.7863C9.71843 12.7379 9.87054 12.6731 9.89315 12.6731C9.93219 12.6797 9.94179 12.7863 9.99022 12.7863C10.0386 12.7863 10.1974 12.7223 10.3657 12.5047C10.3593 12.5922 10.2622 13.4724 10.7832 14.0646C10.8802 13.9514 11.1262 13.5759 11.1262 13.5759L11.1326 13.4562C11.1326 13.4562 11.1552 13.0387 11.2913 12.6568C11.4274 12.275 11.6926 11.9934 11.6926 11.9934L13.0773 10.016L12.8702 9.32031L12.8706 9.32053Z" fill="#E6C367"/>
<path fill-rule="evenodd" clip-rule="evenodd" d="M11.5761 12.224C11.5127 12.2688 11.4428 12.3037 11.3689 12.3275C11.3463 12.2466 11.3139 11.9682 11.5048 11.6964C11.7282 11.3694 12.2167 10.9455 12.3526 10.6084C12.4401 10.3915 12.4012 9.84788 13.178 9.15199C13.9547 8.45609 14.2587 8.21673 14.2587 8.21673L15.5144 7.58569L17.0581 8.19412L16.2912 11.2L15.6958 12.608L13.3278 12.1615L11.5759 12.224H11.5761Z" fill="#DCBA5A"/>
<path fill-rule="evenodd" clip-rule="evenodd" d="M12.48 11.4078L12.7746 11.0389V10.7767C12.7746 10.7767 13.1014 10.6893 13.4541 10.33C13.8067 9.97078 14.2955 9.2815 14.726 9.32352C15.1565 9.37216 15.1985 10.2588 15.2147 10.5082C15.2309 10.7576 15.286 11.3235 15.3732 11.6279C15.4703 11.9322 14.3247 13.0842 14.3247 13.0842L13.5467 13.6764L12.48 11.4078Z" fill="#E9CE77"/>
<path fill-rule="evenodd" clip-rule="evenodd" d="M13.3916 14.4789C13.3916 14.4789 13.6312 14.1035 13.4556 14.0226C13.5591 13.7896 13.75 13.5437 13.75 13.5437C13.75 13.5437 13.8859 13.2072 14.326 12.7929C14.7661 12.3787 15.0381 12.1035 15.1093 11.8253C15.1533 11.644 15.1772 11.4584 15.1806 11.2719C15.2282 11.3108 15.2791 11.3454 15.3327 11.3753C15.4039 11.4078 15.7404 11.686 15.6919 12.246C15.6435 12.806 15.4359 13.0389 15.4359 13.0389C15.4359 13.0389 15.2354 13.2395 15.0931 13.3431C14.9408 13.4466 14.886 13.5663 14.6302 13.5761C14.6565 13.5552 14.686 13.5388 14.7177 13.5275C14.7177 13.5275 14.4523 13.4952 14.3098 13.6245C14.1673 13.7538 13.8643 14.1521 13.7122 14.272C13.5601 14.3691 13.3922 14.4791 13.3922 14.4791L13.3916 14.4789Z" fill="#CDAE50"/>
<path fill-rule="evenodd" clip-rule="evenodd" d="M24.1522 8.18431C23.7698 8.04496 23.368 7.96635 22.9613 7.95135C22.2816 7.92873 21.2882 7.96756 20.3141 7.97396C19.2655 7.98036 18.3141 7.61471 16.9938 7.55007C16.777 7.42057 16.2258 6.85417 14.505 8.05481C14.6085 8.04841 15.7543 7.78943 16.1522 8.28799C16.5534 8.78313 16.4402 9.62452 16.3853 9.82505C16.2816 10.2718 15.945 10.9222 15.8093 11.3785C15.6736 11.8349 15.7056 12.0747 15.6086 12.3947C15.5115 12.7147 15.298 12.8736 15.424 13.2424C15.5924 13.139 15.68 13.139 15.9612 12.5079C16.2424 11.8769 16.1846 11.427 16.6507 10.893C17.107 10.3558 17.8667 9.62111 18.1556 9.43657C18.4444 9.25204 20.738 8.06121 23.1395 9.19721C23.7187 9.13577 24.1524 8.18409 24.1524 8.18409L24.1522 8.18431Z" fill="#D2A83E"/>
<path fill-rule="evenodd" clip-rule="evenodd" d="M15.4725 7.74401C15.4701 7.71969 15.4648 7.69576 15.4565 7.67275C15.434 7.62543 15.4046 7.58177 15.369 7.54326C15.369 7.54326 14.7994 7.43979 14.5114 7.47201C14.0065 7.52705 13.5501 8.15169 13.3366 8.47212C13.123 8.79255 12.8576 9.28749 12.5696 9.54327C12.5728 9.51835 12.567 9.49312 12.5534 9.47202C12.5534 9.47202 12.5696 9.49463 12.5374 9.52706C12.5052 9.55949 12.505 9.57549 12.5212 9.59106L12.5698 9.63949C12.5858 9.63949 13.0326 9.43874 13.641 8.87148C14.2883 8.27927 14.7834 7.97548 15.0424 7.87137C15.1805 7.81267 15.3249 7.76994 15.4727 7.74401H15.4725Z" fill="#C29637"/>
<path fill-rule="evenodd" clip-rule="evenodd" d="M26.5212 5.31073C26.5212 5.31073 26.4175 5.44001 26.288 5.58252C26 5.88673 25.6245 6.22956 25.3041 6.58241C25.0001 6.91905 24.6571 7.18124 24.2718 7.62134C23.8865 8.06145 23.4398 8.54998 23.3267 8.69249C23.2232 8.835 23.1424 9.06796 23.1424 9.18764C23.0873 9.14881 23.0227 9.10678 23.0227 9.10678C23.0499 9.15759 23.0825 9.20536 23.1198 9.24929C23.2006 9.36257 23.3267 9.50529 23.3916 9.59233C23.4711 9.70313 23.5282 9.82844 23.5597 9.96118C23.5985 9.96758 23.8477 10.0162 24.1585 9.50486C24.4693 8.9935 24.8768 8.43372 24.8768 8.43372L25.524 7.47244L25.9319 6.65708L26.4439 5.74444L26.5218 5.31073H26.5212Z" fill="#AC8132"/>
<path fill-rule="evenodd" clip-rule="evenodd" d="M27.1847 4.65707C27.1847 4.65707 26.793 4.97707 26.6409 5.16907C26.4888 5.36107 26.1289 5.86497 26.1289 5.86497L26.2584 5.84875L26.9155 5.26635L27.1715 4.81003L27.1845 4.65793L27.1847 4.65707Z" fill="#A88F33"/>
<path fill-rule="evenodd" clip-rule="evenodd" d="M27.0647 30.3755C27.0647 30.3755 27.0583 30.1101 27.2072 29.9516C27.3593 29.7929 27.7444 29.5599 28.1198 28.6861C28.4953 27.8123 28.5371 27.6149 28.5371 27.6149C28.5371 27.6149 27.8641 28.1909 27.4491 28.3268C27.5462 28.1261 27.6012 27.9838 27.6499 27.8801C27.5948 27.8317 27.3619 27.7767 27.3393 27.7508C27.4685 27.6213 27.5398 27.3041 27.802 27.0938C28.1386 26.8378 28.7534 26.3979 29.2313 26.0058C29.7092 25.6137 30.6487 24.7017 30.7686 24.4363C30.8398 24.5397 30.8558 24.6044 30.8558 24.6044C30.8558 24.6044 30.3835 25.2194 30.1375 25.6109C29.9206 25.9475 29.9368 26.1385 29.9368 26.1385L30.3835 25.9465C30.3835 25.9465 30.5128 26.4254 29.9272 27.1537C30.1832 27.0567 30.2865 27.1149 30.432 27.0338C30.1924 27.1861 29.8624 27.3933 29.5517 27.9627C29.2475 28.5323 28.8332 29.1957 28.1344 29.6098C27.4547 30.0467 27.063 30.3736 27.063 30.3736L27.0647 30.3755Z" fill="#A67A2E"/>
<path fill-rule="evenodd" clip-rule="evenodd" d="M25.3107 8.52116C25.3107 8.52116 25.0454 9.07433 25.0065 9.50484C25.0001 9.60852 24.9741 9.68937 24.9741 9.80905C24.9677 10.1941 24.9967 10.6246 24.9101 10.8252C24.8777 10.7443 24.8615 10.6893 24.829 10.6571C24.7806 10.7929 24.6931 11.2168 24.6219 11.3753C24.5897 11.2719 24.5184 10.9126 24.525 10.4887C24.5317 10.0648 24.541 9.98377 24.541 9.89652C24.525 10.0258 24.4376 10.2007 24.4052 10.3042C24.3567 10.2169 24.3017 10.1037 24.2368 10.0098C24.198 10.0738 24.1496 10.1683 24.1076 10.2169C24.1009 10.1781 24.0849 10.0744 24.0751 9.92895C24.0687 9.76063 24.0589 9.54388 24.0687 9.49844C24.0847 9.41119 24.2208 9.06815 24.5088 8.75412C24.8519 8.37865 25.2047 7.65716 25.3082 7.4338C25.4116 7.21044 25.8517 6.2818 25.8517 6.2818H26.1884L25.6996 7.39497C25.6996 7.39497 25.4052 8.0034 25.2531 8.22697C25.101 8.45055 24.7806 9.09119 24.6381 9.34036C24.7416 9.20447 24.829 9.13321 24.9327 9.00372C25.033 8.91305 25.3112 8.52159 25.3112 8.52159L25.3107 8.52116Z" fill="#8C6228"/>
<path fill-rule="evenodd" clip-rule="evenodd" d="M27.191 4.61484C27.136 4.78408 27.0491 4.94122 26.935 5.07777C26.7343 5.31734 26.3038 5.63756 26.0936 5.89313C25.9016 6.1423 25.5177 6.82198 25.6922 7.62774C25.7562 7.45302 25.8767 7.10678 26.1971 6.7151C26.5175 6.32342 26.8606 5.87372 27.0291 5.52428C27.1972 5.17142 27.2198 4.89324 27.2198 4.89324L27.2838 4.81238L27.245 4.62785L27.1899 4.61484H27.191Z" fill="#CBA94C"/>
<path fill-rule="evenodd" clip-rule="evenodd" d="M33.7444 26.0808C33.7444 26.0808 33.6149 25.7281 33.5761 25.4077C33.5372 25.0873 33.6401 25.0237 33.521 24.657C33.4498 24.4336 33.3205 24.465 33.2881 24.4336C33.2556 24.4023 33.233 24.0648 33.2394 23.8802C33.2458 23.6957 33.233 23.4564 33.2006 23.3527C33.1522 23.3138 33.1197 23.2814 33.0485 23.0421C32.9676 22.8025 32.9288 22.6828 32.89 22.6118C32.8512 22.5407 32.7377 22.4759 32.7377 22.4046C32.7377 22.2621 32.8672 22.1879 32.8672 22.1486C32.8608 22.0678 32.7637 22.1326 32.7377 22.1098C32.7054 22.071 32.8187 21.838 32.7767 21.8056C32.7605 21.7896 32.6472 21.9255 32.618 21.8867C32.5856 21.8476 32.5467 21.4625 32.4885 21.207C32.4337 20.9578 32.3752 20.7767 32.3688 20.7022C32.3624 20.631 31.9221 19.3753 31.8154 19.0711C31.7295 18.814 31.6571 18.5526 31.5987 18.2879C31.5662 18.1358 31.5436 17.825 31.5274 17.8574C31.5112 17.8899 31.521 18.0484 31.495 18.042C31.4724 18.0354 31.3915 17.4822 31.3657 17.3947C31.3431 17.3073 31.207 17.0107 31.1737 16.7961C31.1413 16.5792 31.0702 16.0128 31.0216 15.6277C30.973 15.2426 30.9503 15.0841 30.9503 14.9877C30.9583 14.7518 30.9453 14.5158 30.9115 14.2822C30.8475 13.8743 30.7195 13.3792 30.6073 13.0914C30.3906 12.5476 29.8143 11.156 29.7113 10.8098C29.7113 10.7223 29.8246 10.771 29.8246 10.771C29.8246 10.771 30.106 11.4765 30.3131 12.02C30.5139 12.5638 30.7048 13.0427 30.7534 13.0914C30.7923 13.1398 31.0965 13.6738 31.2324 14.5476C31.3683 15.4214 31.4167 16.2272 31.4978 16.7643C31.5366 17.0203 31.569 17.2919 31.6499 17.5637C31.7371 17.8583 31.873 18.1625 32.0512 18.6284C32.2033 19.0201 32.3165 19.3469 32.378 19.6285C32.4492 19.9878 32.4492 20.2596 32.4913 20.4377C32.5303 20.5898 32.5883 20.8938 32.7244 21.3337C32.8605 21.7736 33.0609 22.3402 33.1968 22.6928C33.4624 23.3983 33.5808 23.9873 33.6209 24.3014C33.6563 24.625 33.7762 25.7448 33.7437 26.0812L33.7444 26.0808Z" fill="#A88F33"/>
<path fill-rule="evenodd" clip-rule="evenodd" d="M27.2072 4.57601L27.191 4.61483C27.191 4.61483 27.2394 4.63105 27.2298 4.6959C27.2305 4.78463 27.2251 4.8733 27.2136 4.96129C27.1976 5.07457 27.1652 5.16182 27.1588 5.23308C27.1588 5.38518 27.1814 5.5599 26.9668 5.99361C26.9028 6.11329 26.8633 6.21676 26.8309 6.28801C26.7501 6.46273 26.7338 6.48876 26.6626 6.56961C26.7759 6.50561 27.1838 6.24961 27.3907 6.28801C27.2484 6.36887 27.0314 6.52759 26.8956 6.73473C26.928 6.74113 27.0639 6.76716 27.2795 6.73473C27.6388 6.67969 28.0401 6.5502 28.3927 6.57601C28.778 6.59863 28.6259 6.11329 28.6259 6.11329L28.1813 5.13601L27.3399 4.54401L27.2072 4.57622V4.57601Z" fill="#BE9C44"/>
<path fill-rule="evenodd" clip-rule="evenodd" d="M29.4014 11.8966C29.4014 11.8966 29.0259 11.5211 28.8738 10.2326C28.7217 8.93806 28.7541 7.03256 28.7541 7.03256L28.4499 6.28824C28.4499 6.28824 28.3859 5.79309 28.2266 5.60877C28.0672 5.42444 27.7542 5.11362 27.6117 4.96151C27.4692 4.8094 27.3075 4.60225 27.2104 4.56983C27.2589 4.48897 27.4758 4.03265 28.3074 4.02625C29.139 4.01985 29.3954 4.48257 29.4822 4.65089C29.5691 4.81921 29.9612 5.5469 30.1067 6.93357C30.2426 8.31854 30.2492 8.42222 30.2266 8.90116C30.2103 9.16655 30.1229 9.78138 29.9706 10.4382C29.8315 10.995 29.6794 11.6165 29.401 11.8979L29.4014 11.8966Z" fill="#A17C34"/>
<path fill-rule="evenodd" clip-rule="evenodd" d="M28.224 13.0001C28.3492 13.0091 28.4742 12.9809 28.5833 12.919C28.703 12.9126 29.1367 12.9677 29.47 12.5438C29.4926 12.6406 29.551 12.903 29.3987 13.136C29.4798 13.0549 29.5994 13.0227 29.6157 13.0001C29.6221 13.1198 29.7353 13.4886 29.2564 14.3851C29.3857 14.2428 29.5378 14.2492 29.6737 14.233C29.6803 14.4013 29.7708 14.9675 29.5314 15.2719C29.3729 15.479 29.1139 15.4142 29.1139 15.4142C29.1177 15.369 29.1177 15.3235 29.1139 15.2783C29.1075 15.1908 29.0751 15.1036 29.0979 15.0453C28.9727 14.9882 28.8587 14.9092 28.7612 14.8122C28.4796 14.5468 28.114 14.0939 28.0881 13.7572C28.0557 13.3818 28.3924 13.3009 28.3924 13.3009C28.3642 13.2757 28.3401 13.2462 28.3211 13.2134C28.3049 13.1586 28.2887 13.0712 28.224 13.0001Z" fill="#8C6228"/>
<path fill-rule="evenodd" clip-rule="evenodd" d="M25.728 8.92884C25.728 8.92884 25.7118 8.90623 25.6245 9.0097C25.6407 8.90623 25.6569 8.80895 25.6633 8.71508C25.7046 8.62818 25.7581 8.54759 25.8221 8.47572C25.7734 8.57258 25.741 8.66004 25.741 8.66004C25.741 8.66004 25.8609 8.43668 26.0356 8.30079C26.1553 8.20372 26.3074 8.1585 26.372 8.06783C26.4433 7.97076 26.4271 7.95455 26.4433 7.93834C26.4433 7.93834 26.602 7.83487 26.8448 7.53044C26.877 7.49162 26.9256 7.44959 26.958 7.41076C27.0129 7.38815 27.1424 7.32991 27.2945 7.25204C27.4532 7.16479 27.6311 7.04511 27.7412 6.99604C27.9579 6.89898 28.1879 6.90879 28.2946 6.75647C28.3754 6.73386 28.4627 6.49108 28.4467 6.28415C28.5663 6.33258 29.1811 6.71444 29.3917 7.54943C29.5438 8.14164 29.2718 9.05428 29.1585 9.4946C29.0453 9.93492 29.0293 10.2615 28.8705 10.4621C28.6698 10.7277 28.0228 11.1021 27.864 11.2875C27.7282 11.4396 27.3205 11.8246 27.3365 12.1028C27.3527 12.31 27.6083 12.4228 27.6635 12.4621C27.7188 12.5013 27.7183 12.5495 27.822 12.5261C27.9257 12.5026 27.9643 12.4548 28.0066 12.4548C28.055 12.4612 28.055 12.471 28.0776 12.471C28.094 12.4705 28.1103 12.4683 28.1262 12.4644C28.1262 12.4644 28.11 12.759 27.4207 12.8484C27.3721 12.855 27.3237 12.871 27.262 12.8808C27.3431 12.842 27.3915 12.842 27.479 12.7223C27.3819 12.7061 27.1035 12.6899 27.0323 12.6673C27.0549 12.6285 27.1293 12.5248 27.1908 12.4764C27.2458 12.4279 27.1844 12.4124 27.136 12.4375C27.0526 12.4943 26.9726 12.5558 26.8964 12.6219C26.8155 12.6931 26.7443 12.7902 26.6148 12.8779C26.576 12.7484 26.5824 12.5024 26.7347 12.3245C26.6956 12.3309 26.6212 12.4442 26.5502 12.4215C26.5373 12.3035 26.545 12.1841 26.5728 12.0687C26.6116 11.923 26.8219 11.6674 26.8219 11.6674L27.838 9.85172L28.0548 8.47636L25.728 8.92842V8.92884Z" fill="#92723A"/>
<path fill-rule="evenodd" clip-rule="evenodd" d="M25.6732 9.0065C25.6732 9.0065 25.6181 9.04533 25.7282 9.11978C25.712 9.14239 25.6732 9.22325 25.6245 9.27829C25.5697 9.34229 25.5112 9.38197 25.4886 9.43701C25.4402 9.55029 25.4014 9.62794 25.4014 9.67658C25.4014 9.72522 25.3851 10.0358 25.2492 10.2364C25.2006 10.3076 25.1456 10.4273 25.1067 10.5082C25.0259 10.6504 24.9546 10.7642 24.9384 10.8282C24.9062 10.9414 24.8836 11.252 24.8836 11.252C24.8836 11.252 24.9548 11.1646 24.9806 11.1324C24.9416 11.2132 24.8996 11.3005 24.8381 11.3653C24.877 11.3329 24.9902 11.252 25.1812 11.0837C25.4466 10.8606 25.8609 10.4851 26.3659 10.1877C26.2135 10.2428 26.0843 10.2428 25.9808 10.259C26.0616 10.1781 26.7898 9.32373 27.1717 9.24287C27.1948 9.21347 27.2064 9.17656 27.2041 9.13919L26.877 9.10698L26.2135 9.24927L26.1167 8.73727L25.6732 9.00586V9.0065Z" fill="#B18E3E"/>
<path fill-rule="evenodd" clip-rule="evenodd" d="M26.7283 11.9191C26.7283 11.9191 26.6409 12.0064 26.56 12.2234C26.4978 12.1584 26.4444 12.0854 26.4013 12.0064C26.2816 11.8059 26.0973 11.5501 25.6668 11.6958C25.6604 11.5599 25.6506 11.4886 25.6668 11.3916C25.738 11.3756 25.9548 11.2008 26.1715 10.9451C26.3238 10.7703 26.4661 10.5696 26.5632 10.314C26.6272 10.2654 26.7379 10.1845 26.8832 10.0907C27.0903 9.94837 27.3395 9.75402 27.3783 9.53727C27.2813 9.5761 27.0741 9.67317 26.7633 9.65717C26.8832 9.60213 27.0675 9.54389 27.0449 9.30431C27.0935 9.27189 27.1324 9.24927 27.1324 9.24927C27.0959 9.23711 27.0575 9.23161 27.0191 9.23306C27.0125 9.21045 27.0029 9.17823 26.9478 9.19423C26.8928 9.21023 26.8838 9.21045 26.8766 9.23306C26.854 9.23967 26.7795 9.23306 26.7245 9.2721C26.6694 9.31114 26.5173 9.44021 26.4591 9.46282C26.4817 9.42399 26.5139 9.36597 26.5139 9.36597C26.5139 9.36597 26.3554 9.38197 26.2421 9.42997C26.035 9.50122 25.7956 9.63071 25.5529 9.75679C25.5755 9.71797 25.5853 9.69279 25.6013 9.68554C25.6173 9.67829 25.6563 9.66954 25.6563 9.66293C25.6563 9.65631 25.6403 9.59893 25.6499 9.57567C25.7225 9.42191 25.8081 9.27467 25.9059 9.13557C26.0192 8.98325 26.0418 8.7665 26.0418 8.7665L26.537 8.51733L27.9285 8.19733L28.8316 8.25237L28.7183 8.87701L28.185 9.96757L27.7286 10.9611L27.2075 11.5697L26.7285 11.9191H26.7283Z" fill="#543E26"/>
<path fill-rule="evenodd" clip-rule="evenodd" d="M28.9839 9.216C28.9839 9.216 28.4401 9.88906 28.288 9.99274C28.385 9.7856 28.9839 8.55253 29.2006 8.20949C29.1522 8.17066 29.0873 8.17066 29.2394 7.56949C29.1101 7.87349 29.0647 8.03221 28.958 8.11306C28.8514 8.19391 28.8381 8.1681 28.766 8.1681C28.7797 8.14347 28.7853 8.11521 28.782 8.08725C28.782 8.08725 28.3257 8.03221 28.0141 8.03221C27.7024 8.03221 27.0854 8.20053 26.7422 8.33642C26.4704 8.4497 26.3183 8.4497 26.2212 8.52074C26.1242 8.6016 26.0691 8.68906 26.0205 8.71167C25.9817 8.73429 25.7973 8.79253 25.7551 8.85397C25.7163 8.91797 25.6516 8.98986 25.6516 9.00608C25.6516 9.02229 25.6354 9.04511 25.6841 9.02869C25.7001 9.02229 25.82 8.95743 25.9559 8.87658C26.1402 8.77311 26.3635 8.65344 26.5254 8.58218C26.9882 8.39765 27.1339 8.43007 27.3408 8.39125C27.5575 8.35242 27.8684 8.26175 28.0753 8.26175C28.2824 8.25535 28.6741 8.26175 28.7648 8.27797C28.7259 8.3104 28.6935 8.34922 28.7097 8.48511C28.7097 8.52394 28.6773 8.56597 28.6457 8.65983C28.5489 8.92522 28.3643 9.36533 28.2617 9.58869C28.1194 9.89269 27.9577 10.1485 27.8777 10.307C27.7977 10.4655 27.6217 10.883 27.4475 11.1063C27.2732 11.3297 27.1821 11.4656 27.1275 11.5142C27.0728 11.5629 26.6807 11.8507 26.71 11.9543C26.7812 11.9317 27.2311 11.7623 27.5577 11.3946C27.8844 11.0268 27.9494 10.8023 28.205 10.6016C28.4606 10.4008 28.6613 10.0644 28.781 9.78624C28.8812 9.52725 28.8586 9.4464 28.9847 9.21663L28.9839 9.216Z" fill="#806031"/>
<path fill-rule="evenodd" clip-rule="evenodd" d="M17.2655 14.2396C17.2655 14.2396 17.1943 14.534 17.0324 14.6797C16.8738 14.8222 16.5922 14.9451 16.56 15.1846C16.5212 15.424 16.8416 15.5439 16.8416 15.5439C16.8416 15.5439 16.6667 15.8319 16.6667 16.0486C16.6667 16.272 16.6603 16.314 16.6829 16.5276C16.6572 16.5441 16.6354 16.5659 16.6189 16.5916C16.6189 16.5916 16.6349 16.7987 16.7936 16.928C16.9524 17.0573 17.088 17.1351 17.1689 17.1027C17.1812 17.1291 17.1921 17.1562 17.2013 17.1838C17.2013 17.1838 17.3212 16.8796 17.4021 16.6142C17.4829 16.3424 17.5542 16.381 17.5864 16.0154C17.6186 15.6497 17.9704 15.0219 17.9704 15.0219L18.2104 14.4853L17.8189 14.1811L17.2655 14.2394V14.2396Z" fill="#B6903C"/>
<path fill-rule="evenodd" clip-rule="evenodd" d="M17.9936 14.7669C17.9128 14.8498 17.8383 14.9385 17.7706 15.0323C17.6672 15.1748 17.5863 15.3041 17.4342 15.3594C17.2821 15.4146 17.185 15.4142 17.1946 15.5665C17.2042 15.7188 17.3467 15.7833 17.4276 15.8609C17.5151 15.9418 17.5863 16.0777 17.5475 16.23C17.5959 16.2074 17.6834 16.1813 17.7642 16.0066C17.8451 15.8319 18.4106 14.7672 18.4106 14.7672H17.9936V14.7669Z" fill="#685026"/>
<path fill-rule="evenodd" clip-rule="evenodd" d="M20.2239 12.3106C20.2239 12.3106 20.2724 12.1813 20.2239 12.0875C20.1753 11.9904 19.8809 11.958 19.7352 11.8479C19.5831 11.7346 19.3986 11.6559 19.2465 11.7056C19.2691 11.6506 19.3597 11.5307 19.2853 11.5049C19.214 11.4822 18.9489 11.6019 18.8776 11.657C18.8064 11.712 18.6444 11.7766 18.6122 11.8157C18.58 11.8547 18.5248 11.929 18.4923 11.8965C18.4599 11.8739 18.4439 11.8157 18.3889 11.8479C18.3338 11.8801 18.0689 12.0971 18.02 12.2234C17.9712 12.3496 17.8613 12.6312 17.5313 12.9515C17.2012 13.2717 17.0587 13.479 17.1558 13.5987C17.2529 13.7184 17.2983 13.6311 17.3145 13.7346C17.327 13.8362 17.3215 13.9391 17.2983 14.0388C17.2595 14.2071 17.1948 14.3656 17.2821 14.3981C17.5054 14.4693 17.7224 14.3341 17.7708 14.3755C17.8679 14.4627 17.7158 14.7767 17.9456 14.8382C18.1787 14.9022 18.4085 14.7831 18.4085 14.7831L19.2563 14.3268L20.0718 13.8965L20.4891 13.0711L20.2653 12.3819L20.2227 12.3106H20.2239Z" fill="#D4B968"/>
<path fill-rule="evenodd" clip-rule="evenodd" d="M19.424 14.2816C19.424 14.2816 19.2815 14.0649 19.4564 13.8737C19.6313 13.6826 19.8803 13.6019 19.9774 13.4822C19.9589 13.4595 19.9341 13.4426 19.9061 13.4338C19.9706 13.3185 20.0689 13.2258 20.1877 13.1682C20.1393 13.1198 20.0744 13.081 20.0034 13.081C19.8447 13.081 19.7474 13.178 19.6019 13.178C19.4596 13.178 19.4434 13.1068 19.4434 13.1068C19.4434 13.1068 19.683 13.0842 19.6601 12.9773C19.6375 12.864 19.5961 12.864 19.5961 12.864C19.5961 12.864 20.0589 12.672 20.1397 12.5696C20.2206 12.4672 20.211 12.3463 20.2272 12.2978C20.282 12.2978 20.6024 12.1295 20.7319 12.2008C20.8614 12.272 20.7708 12.4661 20.7708 12.4661C20.7708 12.4661 21.1627 12.1715 21.3623 11.8827C21.5371 11.8989 21.6183 11.763 21.7463 11.763C21.9051 11.763 22.1542 11.9797 22.2027 12.4425C22.2351 12.7078 22.2835 12.86 22.2351 13.3293C22.2125 13.5947 22.2189 14.1613 22.2991 14.4425C22.3539 14.6658 22.4834 14.6432 22.4834 14.6432C22.4635 14.7113 22.4242 14.772 22.3701 14.8179C22.2827 14.8988 22.2731 15.1125 22.2827 15.1934C22.2956 15.2525 22.3118 15.3108 22.3313 15.3681C22.3313 15.3681 22.2278 15.4878 22.2018 15.5689C22.1792 15.6497 22.0725 15.7047 21.9947 15.7047C21.9168 15.7047 21.9558 15.6981 21.8524 15.7047C21.7489 15.7114 21.7165 15.7274 21.6516 15.7047C21.5868 15.6821 21.5383 15.6561 21.5644 15.4487C21.587 15.2416 20.765 14.7595 20.765 14.7595L19.421 14.2805L19.424 14.2816Z" fill="#CCA849"/>
<path fill-rule="evenodd" clip-rule="evenodd" d="M17.8803 16.3268C17.8803 16.3268 18.1747 16.7185 19.3852 16.7185C19.9612 16.7185 20.162 16.6635 20.2812 16.631C20.4107 16.5986 20.8961 16.4079 21.3848 15.8317C21.8249 15.3107 21.7279 15.0972 21.7279 15.0972L21.4719 15.0583L20.6399 15.1716L18.1779 16.2202L17.8793 16.3268H17.8803Z" fill="#585136"/>
<path fill-rule="evenodd" clip-rule="evenodd" d="M18.7832 16.4238C18.7832 16.4238 17.7346 16.657 17.7346 15.9936C17.7346 15.3463 18.3819 14.6667 18.5438 14.547C18.7121 14.4271 19.1134 14.291 19.1134 14.291H20.0811L20.2654 14.7797L20.1845 15.8346L18.7832 16.4236V16.4238Z" fill="#252211"/>
<path fill-rule="evenodd" clip-rule="evenodd" d="M19.7508 14.4887C19.7508 14.4887 19.5503 14.3042 19.094 14.5528C18.6377 14.8013 18.2686 15.3208 18.246 15.7924C18.2234 16.2097 18.589 16.5206 19.1586 16.5368C19.5825 16.5528 19.8383 16.5043 19.9678 16.4728C19.9354 16.4339 19.7671 16.2236 19.7671 16.2236L19.7511 14.489L19.7508 14.4887Z" fill="#C3B378"/>
<path fill-rule="evenodd" clip-rule="evenodd" d="M19.5535 14.592C19.5535 14.592 19.5051 14.5532 19.3615 14.6308C19.2418 14.6948 19.0671 14.864 18.9312 14.9837C18.8438 15.0549 18.7887 15.0871 18.7392 15.1422C18.5385 15.3818 18.3702 15.7734 18.4674 15.9676C18.5647 16.1617 18.8849 16.385 19.7005 16.2329L19.5512 14.5922L19.5535 14.592Z" fill="#E6D89C"/>
<path fill-rule="evenodd" clip-rule="evenodd" d="M19.2881 14.9935C19.2881 14.9935 19.1586 15.1943 19.1586 15.5147C19.1586 15.8415 19.3431 16.3625 20.0228 16.4013C20.5437 16.4337 20.8931 15.6506 21.2718 15.3464C21.5598 15.1134 21.7345 15.1068 21.7345 15.1068C21.7345 15.1068 21.4401 14.7868 20.6538 14.3723C19.8771 13.9548 19.0065 13.8997 18.5339 14.5406C18.7573 14.5244 19.479 14.3398 19.479 14.3398L19.8318 14.4531L19.2881 14.9937V14.9935Z" fill="#252211"/>
<path fill-rule="evenodd" clip-rule="evenodd" d="M20.3042 15.4174C20.2816 15.3689 20.2654 15.3041 20.3592 15.2881C20.4531 15.2721 20.4951 15.2815 20.5275 15.3521C20.5599 15.4227 20.5915 15.4816 20.5435 15.5108C20.4951 15.5366 20.3688 15.5108 20.304 15.4169L20.3042 15.4174ZM20.1521 14.9611C20.1521 14.9611 20.1197 14.9837 20.1359 14.9384C20.1423 14.8836 20.1845 14.7863 20.288 14.8092C20.3914 14.832 20.369 14.9451 20.352 14.9775C20.3349 15.0099 20.2485 15.0647 20.1837 15.0415C20.1754 15.0394 20.1678 15.0354 20.1615 15.0298C20.1551 15.0242 20.1501 15.0172 20.1469 15.0093C20.1438 15.0014 20.1425 14.9929 20.1433 14.9844C20.144 14.976 20.1468 14.9678 20.1512 14.9606L20.1521 14.9611Z" fill="#6F674D"/>
<path fill-rule="evenodd" clip-rule="evenodd" d="M11.392 15.168C11.392 15.168 11.648 15.36 11.9454 15.3525C12.2398 15.3459 12.6184 15.0419 12.7931 14.8476C12.8966 14.7343 12.9851 14.6146 13.0811 14.5208C13.1622 14.4399 13.217 14.4011 13.2559 14.346C13.3109 14.282 13.3691 14.1617 13.3984 14.1227C13.3271 14.1777 13.2236 14.275 13.1168 14.3396C13.0133 14.4036 12.7899 14.524 12.6993 14.5564C12.612 14.5888 11.7058 15.0684 11.7058 15.0684L11.392 15.168Z" fill="#AC924C"/>
<path fill-rule="evenodd" clip-rule="evenodd" d="M11.7832 12.7768C11.7832 12.7768 11.9255 12.6797 12.2007 12.618C12.4661 12.554 13.0001 12.5048 13.0001 12.5048L13.4402 12.6968L13.6149 13.3602L13.2949 14.0497L12.8872 14.3057L12.4243 13.5614L11.7843 12.778L11.7832 12.7768Z" fill="#9F8E57"/>
<path fill-rule="evenodd" clip-rule="evenodd" d="M11.2073 13.369L11.0549 13.4827C11.0549 13.4827 11.094 13.4114 11.1262 13.1947C11.1584 12.9779 11.3269 12.4503 11.5729 12.1461C11.8189 11.8419 11.8125 11.8581 11.8125 11.8581C11.7898 11.854 11.7666 11.8547 11.7443 11.8603C11.7219 11.8658 11.701 11.8761 11.683 11.8903C11.7154 11.8187 11.9226 11.5627 12.1297 11.4347C12.3369 11.3067 12.4177 11.2663 12.6345 11.3707C12.8512 11.475 12.9062 11.5292 13.065 11.5228C13.2237 11.5164 13.3594 11.348 13.3594 11.348C13.3594 11.348 13.3918 11.4515 13.2721 11.6911C13.1524 11.9307 12.6799 12.4192 12.6799 12.4192L11.696 13.0923L11.2073 13.3696V13.369Z" fill="#EAC970"/>
<path fill-rule="evenodd" clip-rule="evenodd" d="M11.9352 12.6959C11.9352 12.6959 12.6473 12.793 12.864 12.5924C12.8704 12.615 12.8965 12.615 12.8965 12.6312C12.8947 12.6435 12.889 12.6548 12.8802 12.6635C12.9038 12.6597 12.9276 12.6576 12.9515 12.6571C12.98 12.6655 13.0093 12.671 13.039 12.6733C13.0628 12.6728 13.0867 12.6705 13.1102 12.6667C13.108 12.6827 13.1025 12.6982 13.0941 12.7121C13.0858 12.7261 13.0747 12.7382 13.0616 12.7477C13.094 12.7477 13.1256 12.7541 13.1256 12.7799C13.1256 12.8057 13.132 12.8836 13.0932 12.8998C13.061 12.9087 13.0267 12.9064 12.9961 12.8932C12.9987 12.9545 13.0153 13.0143 13.0447 13.0681C13.1087 13.1878 13.2453 13.3241 13.4287 13.2849C13.4287 13.2849 13.5256 13.5179 13.1179 14.0356C13.0631 14.1069 13.0046 14.2039 12.9336 14.2848C12.9055 14.346 12.8841 14.41 12.8696 14.4757C12.8696 14.4757 13.5591 14.2103 13.7564 13.6051C13.9572 12.9967 13.996 12.3981 13.9572 11.8383C13.9505 11.6796 13.9247 11.5665 13.8859 11.4854C13.7888 11.2847 13.5168 11.3171 13.407 11.4304C13.2482 11.5891 12.9829 11.9838 12.614 12.2556C12.2385 12.5273 12.2225 12.5756 11.9343 12.6959H11.9352Z" fill="#D7BC6B"/>
<path fill-rule="evenodd" clip-rule="evenodd" d="M11.081 13.5697C11.081 13.5697 10.9451 13.6506 10.8738 13.9537C10.8026 14.2643 10.9378 14.643 11.0161 14.7627C11.0944 14.8823 11.2722 15.2094 11.6408 15.2256C11.7321 15.2251 11.8223 15.2064 11.9062 15.1706C12.0349 15.1116 12.1556 15.0365 12.2655 14.9472C12.4242 14.8275 12.5535 14.7241 12.5373 14.7142C12.4984 14.698 11.56 13.9213 11.56 13.9213L11.2071 13.5275L11.0808 13.5701L11.081 13.5697Z" fill="#585136"/>
<path fill-rule="evenodd" clip-rule="evenodd" d="M11.968 14.8576C11.968 14.8576 12.159 14.8416 12.2722 14.7703C12.3855 14.6991 11.6088 13.929 11.6088 13.929L11.6638 14.761L11.968 14.8576Z" fill="#453A25"/>
<path fill-rule="evenodd" clip-rule="evenodd" d="M11.1424 13.5113C11.1424 13.5113 11.0453 13.6958 11.0453 13.7444C11.0291 13.9029 11.0777 14.4013 11.1166 14.5598C11.1554 14.7281 11.3657 14.9837 11.6377 14.9837C11.8058 14.9837 12.039 14.8802 12.039 14.8544C12.039 14.822 11.7994 14.7904 11.7348 14.6699C11.696 14.6059 11.6798 14.4467 11.6708 14.2859C11.6644 14.1824 11.6644 14.0691 11.7032 14.0299C11.7907 13.9328 11.8067 13.6544 11.8067 13.6544L12.1173 13.0773H11.7088L11.22 13.3815L11.1424 13.5113Z" fill="#84754B"/>
<path fill-rule="evenodd" clip-rule="evenodd" d="M11.0227 13.6894C11.0227 13.6894 11.3427 13.2655 11.6311 13.1682C11.9195 13.0709 12.0486 13.1294 12.0486 13.1294L11.8803 13.5599L11.6407 13.8253L11.6569 13.9612C11.6569 13.9612 11.6179 14.3204 11.8575 14.5696C12.097 14.8188 12.275 14.8092 12.3786 14.8092C12.4823 14.8092 12.7799 14.7217 12.932 14.3624C13.0679 14.026 13.1812 13.5944 12.9094 13.1618C12.6438 12.7313 12.1747 12.7147 12.084 12.7147C11.9934 12.7147 11.2815 12.7503 11.0227 13.6887V13.6894Z" fill="#252211"/>
<path fill-rule="evenodd" clip-rule="evenodd" d="M19.2394 15.1294C19.1197 15.0743 19.233 14.7379 19.3527 14.6342C19.4724 14.5305 19.6245 14.4111 19.8901 14.3947C19.9869 14.3883 20.0808 14.4497 20.0648 14.5145C20.0422 14.6342 19.8739 14.8025 19.7218 14.9222C19.5114 15.0873 19.3753 15.1908 19.2394 15.1294Z" fill="#F7F7E7"/>
<path fill-rule="evenodd" clip-rule="evenodd" d="M12.767 13.2945C12.8544 13.2881 12.9677 13.3585 12.9903 13.4532C13.013 13.5567 12.9353 13.7638 12.767 13.7638C12.6311 13.7638 12.5598 13.5955 12.5598 13.5471C12.5613 13.5073 12.5725 13.4684 12.5922 13.4338C12.5986 13.424 12.6149 13.3107 12.767 13.2945Z" fill="#F8F6DE"/>
<path fill-rule="evenodd" clip-rule="evenodd" d="M11.5048 13.369C11.5048 13.369 11.2815 13.4724 11.178 13.6889C11.1041 13.8488 11.0817 14.0278 11.114 14.2009C11.1302 14.2818 11.2111 14.4823 11.2661 14.5536C11.3211 14.6248 11.3956 14.6735 11.4506 14.6668C11.5057 14.6602 11.6188 14.5147 11.6188 14.4275C11.6188 14.3402 11.6254 13.9712 11.732 13.7704C11.8259 13.5699 11.5055 13.3692 11.5055 13.3692L11.5048 13.369Z" fill="#D4C38B"/>
<path fill-rule="evenodd" clip-rule="evenodd" d="M11.5372 13.3527C11.4984 13.3753 11.4338 13.4078 11.4498 13.4498C11.466 13.4886 11.6019 13.5138 11.6505 13.6085C11.7055 13.7056 11.7055 13.809 11.6893 13.8577C11.7316 13.8376 11.77 13.8101 11.8026 13.7766C11.8739 13.6958 11.9611 13.5859 12.0356 13.5859C12.0842 13.5859 12.1326 13.6085 12.1781 13.6085C12.2493 13.6085 12.3204 13.5859 12.3302 13.5114C12.3462 13.4144 12.1943 13.3269 12.1068 13.3431C12.123 13.2791 12.1457 13.1846 12.0744 13.1198C12.0032 13.0549 11.78 13.1684 11.7314 13.2008C11.6827 13.2333 11.5372 13.3529 11.5372 13.3529V13.3527Z" fill="#E2D59D"/>
<path fill-rule="evenodd" clip-rule="evenodd" d="M16.6797 20.1521L17.1586 20.0107L17.2945 20.1077C17.2945 20.1077 17.3914 20.3149 17.5437 20.3407C17.4951 20.4442 17.3688 20.5327 17.3754 20.6061C17.382 20.6795 17.4466 20.7356 17.4466 20.7356C17.4466 20.7356 17.0161 21.4475 17.8641 22.1649C17.6634 22.2458 17.4078 22.3569 17.2719 22.4209C17.3688 22.4435 17.5759 22.4849 17.6634 22.5634C17.7509 22.6419 17.7509 22.6669 17.8317 22.7155C17.9126 22.7642 17.961 22.8288 17.945 22.8578C17.89 22.8254 17.7054 22.7285 17.6732 22.819C17.641 22.9095 16.8738 22.874 16.8738 22.874L15.5793 23.1232C15.5793 23.1232 15.6278 22.9937 15.4919 22.874C15.3334 22.7317 15.1392 22.8804 14.9321 22.7219C14.6603 22.5148 14.6505 22.2752 14.5632 22.1848C14.6505 22.1297 14.8286 22.0489 15.2525 21.9928C15.2363 21.9603 15.1813 21.8633 15.2137 21.776C15.2525 21.6627 15.4142 21.5915 15.3658 21.456C15.437 21.4398 15.4693 21.4398 15.6474 21.2164C15.8157 20.9931 15.9192 20.9447 16.0487 20.9284C16.1782 20.9122 16.2558 20.9284 16.4954 20.7051C16.6635 20.5466 16.6087 20.4107 16.6087 20.4107C16.6087 20.4107 16.7185 20.3751 16.6799 20.1517L16.6797 20.1521Z" fill="#CBAC5A"/>
<path fill-rule="evenodd" clip-rule="evenodd" d="M15.2655 20.2241C15.2719 20.1916 15.2979 20.1754 15.4727 20.1916C15.6474 20.2078 16.7542 20.0882 17.0552 20.072C17.3594 20.0494 18.4306 20.0654 18.9517 20.1754C19.4729 20.2855 20.0003 20.415 20.2558 20.4796C20.5118 20.5509 20.5925 20.5765 20.5827 20.6089C20.5763 20.6413 20.5187 20.6729 20.4856 20.6639C20.4534 20.6575 19.6054 20.3986 19.3434 20.3439C19.0814 20.2893 18.175 20.1432 17.6794 20.152C17.2167 20.1586 17.0321 20.1456 16.6407 20.1908C16.249 20.2394 15.6017 20.3041 15.4076 20.2782C15.2156 20.2556 15.2553 20.2556 15.2651 20.2232L15.2655 20.2241Z" fill="#D6BC6F"/>
<path fill-rule="evenodd" clip-rule="evenodd" d="M17.8704 22.7605C17.8704 22.7605 18.5339 23.1198 18.7735 23.5599C18.9482 23.8867 18.67 24.0486 18.67 24.0486C18.67 24.0486 19.0455 24.0486 18.9968 24.2558C18.9742 24.3851 18.3496 24.7345 17.9321 24.919C17.5082 25.1036 17.5244 25.094 17.3173 25.1262C17.1165 25.1586 16.5663 25.0622 16.453 25.2232C16.3398 25.3843 16.389 25.5503 16.4206 25.5761C16.453 25.5987 16.7152 25.6311 16.7152 25.6311C16.7152 25.6311 16.6602 25.7832 16.1166 25.7995C15.5731 25.8157 15.4369 25.8543 15.4045 25.9127C15.3721 25.9676 15.508 25.9353 15.7574 25.9767C16.0065 26.0156 16.356 26.0407 16.356 26.0407C16.356 26.0407 16.2427 26.1378 15.9483 26.2154C15.6117 26.3027 15.0841 26.3838 14.9256 26.4808C15.0064 26.5359 15.1263 26.6167 15.1816 26.6231C15.0457 26.6555 14.8545 26.7268 14.8223 26.7526C14.8708 26.785 14.9356 26.8239 14.9356 26.8239C14.9356 26.8239 14.6636 27.1507 14.5051 27.2318C14.3466 27.3128 13.434 27.7365 13.1199 27.6556C12.3368 27.4485 12.2397 26.5909 12.0488 26.5263C11.7608 26.4292 11.6249 26.6231 11.3691 26.4872C11.4824 26.4064 11.5441 26.358 11.6637 26.3029C11.5342 26.2389 10.8644 25.8142 10.8644 25.8142C10.7943 25.6615 10.7166 25.5125 10.6314 25.3677C10.5019 25.1443 10.3114 24.8465 10.1685 24.5843C9.85787 24.0083 9.84166 23.7429 9.56006 23.4161C9.6087 23.3521 9.7768 23.3611 9.7768 23.3611L12.1363 24.1378L16.3199 24.259L17.4079 22.7057L17.8706 22.7608L17.8704 22.7605Z" fill="#DFC677"/>
<path fill-rule="evenodd" clip-rule="evenodd" d="M11.6732 25.1294C11.6985 25.1575 11.7279 25.1815 11.7605 25.2007C11.8415 25.2557 11.9612 25.3205 12.0421 25.4174C12.0745 25.369 12.1554 25.2815 12.2981 25.4174C12.4408 25.5533 12.6181 25.4564 12.7284 25.4887C12.8416 25.5277 12.848 25.5437 12.848 25.5437C12.848 25.5437 12.912 25.4887 13.0552 25.4304C13.1427 25.398 13.2461 25.3754 13.3594 25.3432C13.4629 25.3205 13.5762 25.2881 13.654 25.2881C13.7253 25.3365 13.9808 25.6081 15.0068 25.2073C15.9744 24.8318 16.1976 24.7898 16.3595 24.8478C16.3757 24.809 16.3919 24.7345 16.6411 24.7443C16.6411 24.6409 16.434 24.288 16.434 24.288L15.2916 23.8965H14.6667L12.793 24.2396L11.7547 24.832L11.6739 25.1307L11.6732 25.1294Z" fill="#C4A859"/>
<path fill-rule="evenodd" clip-rule="evenodd" d="M11.0486 24.4725C11.0486 24.4725 11.0712 24.6472 11.3302 24.8318C11.5862 25.0161 11.6666 25.1262 11.6666 25.1262C11.6666 25.1262 11.7152 25.0622 11.7541 24.9969C11.7929 24.9256 11.8253 24.8448 11.89 24.8222C12.0195 24.7671 12.3139 24.8706 12.3787 24.8544C12.4338 24.8384 12.4175 24.7251 12.4758 24.7251C12.6117 24.7185 12.6989 24.8124 12.7476 24.8124C12.7962 24.8124 12.9157 24.806 12.9319 24.7801C12.9481 24.7543 12.9545 24.4855 13.139 24.356C13.3398 24.2137 13.5858 24.2752 13.651 24.3076C13.651 24.356 13.6574 24.4759 13.7869 24.4823C13.9164 24.4887 13.9292 24.4661 14.0429 24.5049C14.1566 24.5438 14.2921 24.4985 14.3535 24.6893C14.4086 24.6733 14.5381 24.6571 14.5056 24.4725C14.5696 24.4241 14.6255 24.3917 14.7616 24.2007C14.7941 24.1523 14.8489 24.0973 14.8911 24.026C15.0044 24.026 15.1403 24.0034 15.3214 24.1619C15.2664 24.2007 15.234 24.2259 15.218 24.2654C15.2653 24.3123 15.3086 24.3632 15.3472 24.4175C15.3959 24.4815 15.4283 24.56 15.4898 24.5762C15.6256 24.615 15.849 24.56 16.0982 24.5762C16.3378 24.5924 16.5383 24.6797 16.6258 24.7347C16.6582 24.7187 16.6582 24.7121 16.739 24.7283C16.8199 24.7445 16.8813 24.7509 16.7941 24.6475C16.8425 24.6701 16.8975 24.7187 16.9462 24.6701C16.9948 24.6214 17.0334 24.5504 17.1693 24.5342C17.3052 24.518 17.3539 24.5406 17.4089 24.3983C17.4802 24.2236 17.2342 24.2236 17.2342 24.2236C17.2342 24.2236 17.3475 24.1199 17.4738 23.984C17.6259 23.8417 17.8006 23.6572 17.8426 23.4306C17.9139 23.0131 17.5062 22.9583 17.5062 22.9583L15.5288 23.5667L13.1113 23.4468L11.0499 24.4727L11.0486 24.4725Z" fill="#927D49"/>
<path fill-rule="evenodd" clip-rule="evenodd" d="M9.27185 18.7606C9.27185 18.7606 9.20785 18.8414 9.16839 19.0323C9.12892 19.2233 9.14577 19.2007 9.11335 19.3366C9.08092 19.4725 8.68263 20.8252 8.83196 21.2816C8.98129 21.7379 9.23985 21.9062 9.40156 22.2751C9.43399 22.3559 9.46556 22.4046 9.48241 22.4758C9.53745 22.7152 9.48903 22.8997 9.55367 23.1393C9.57628 23.2201 9.63473 23.314 9.72199 23.4111C9.91399 23.6116 10.2269 23.8025 10.362 23.9384C10.5527 24.1392 10.8247 24.5471 11.1709 24.5857C11.3555 24.6083 11.6177 24.5307 11.8344 24.4014C12.0264 24.2815 12.145 24.1134 12.3464 24.0174C12.4887 23.9461 12.6408 23.9203 12.7767 23.8879C13.0583 23.8328 13.3141 23.8239 13.4662 23.8555C13.6992 23.9041 14.2493 24.0724 14.5542 24.0724C14.7924 24.0686 15.0293 24.036 15.2597 23.9754C15.7224 23.8395 16.2822 23.6063 16.6513 23.5028C16.868 23.4388 17.0427 23.422 17.2209 23.3831C17.5251 23.3119 17.7807 23.2148 17.9264 23.0303C17.8293 22.917 17.7096 22.7423 17.0621 22.7487C16.3276 22.7649 15.4796 23.1726 15.0621 23.2374C14.6447 23.3023 14.4635 23.3571 13.9974 23.1888C13.5404 23.0188 13.5253 22.9063 13.5253 22.9063C13.5253 22.9063 13.0455 22.5707 12.8448 21.7153C12.644 20.8598 12.8448 20.2364 13.3659 19.644C13.5018 19.4919 13.4694 19.356 13.4694 19.356C13.4694 19.356 13.8124 18.8933 13.7186 18.46C13.6151 18.0295 12.9516 18.1169 12.9516 18.1169L9.27207 18.7606H9.27185Z" fill="#6E6342"/>
<path fill-rule="evenodd" clip-rule="evenodd" d="M9.82528 20.2007C9.79675 20.2544 9.78333 20.3148 9.78645 20.3755C9.79285 20.4627 9.81888 20.576 10.0809 20.8318C10.3042 21.0549 10.2556 21.3041 10.2556 21.3041C10.2556 21.3041 10.368 21.3267 10.6731 21.184C10.9126 21.0707 10.9931 21.2714 10.9931 21.2714C11.0628 21.2349 11.1384 21.2108 11.2164 21.2002C11.2871 21.1937 11.3556 21.1718 11.417 21.1362C11.417 21.1362 11.6986 21.4242 11.9445 21.5601C12.1679 21.68 12.2974 21.7608 12.4075 21.68C12.5109 21.6087 12.5109 21.463 12.5043 21.3984C12.4786 21.3387 12.4461 21.2822 12.4075 21.2301C12.3362 21.1266 12.2229 21.0067 12.2155 20.9101C12.1992 20.6869 12.3838 20.4213 12.3447 20.3567C12.3057 20.292 12.1604 20.2758 11.8012 20.4053C11.4291 20.5282 9.82379 20.2014 9.82379 20.2014L9.82528 20.2007Z" fill="#39331F"/>
<path fill-rule="evenodd" clip-rule="evenodd" d="M10.6731 21.6474C10.6731 21.6474 10.4888 21.4727 10.5534 20.6247C10.6317 20.6235 10.7098 20.6311 10.7863 20.6473C10.7863 20.6473 10.8868 21.3044 10.6731 21.6474Z" fill="#292311"/>
<path fill-rule="evenodd" clip-rule="evenodd" d="M9.35937 18.1133C9.38509 18.0942 9.40895 18.0728 9.43063 18.0493C9.36663 18.169 9.07116 18.6479 9.31073 19.402C9.55031 20.1527 10.1521 20.7125 10.8932 20.7385C11.6344 20.7646 12.0239 20.4019 12.4693 19.8583C12.6441 19.6416 12.8448 19.3696 13.0227 19.1853C13.2881 18.8971 13.4953 18.8162 13.4953 18.538C13.4953 17.9684 12.9127 17.7126 12.0551 17.4571C11.1975 17.2015 10.4239 17.2331 10.0226 17.408C9.63116 17.5987 9.46284 17.7995 9.35916 18.1135L9.35937 18.1133Z" fill="#252211"/>
<path fill-rule="evenodd" clip-rule="evenodd" d="M12.1133 21.9029L12.1773 21.8705C12.1773 21.8705 12.1933 21.6145 12.297 21.6213C12.4004 21.6375 12.4491 21.7736 12.4393 21.8221C12.4329 21.8705 12.407 21.9516 12.3034 21.9418C12.1675 21.945 12.1127 21.9029 12.1127 21.9029H12.1133Z" fill="#3F3824"/>
<path fill-rule="evenodd" clip-rule="evenodd" d="M11.8253 20.8156C11.8253 20.8156 11.8893 20.793 11.9676 20.8706C12.0316 20.8706 12.3106 20.8382 12.3981 20.8932C12.4856 20.9482 12.5114 20.9967 12.5114 20.9967C12.5114 20.9967 12.1846 21.0679 12.0064 20.9967C11.8253 20.9352 11.8253 20.8156 11.8253 20.8156Z" fill="#2D2815"/>
<path fill-rule="evenodd" clip-rule="evenodd" d="M13.2655 20.864C13.2655 20.8478 13.0908 20.7281 12.9062 20.6891C12.8738 20.6827 12.8672 20.7053 12.8422 20.7053C12.826 20.6989 12.8196 20.6502 12.8196 20.6502L12.7146 20.7055C12.7146 20.7055 12.6984 20.7281 12.7535 20.7695C12.8019 20.8083 12.883 20.8407 12.9056 20.9053C12.9282 20.97 12.9282 20.9926 12.938 21.0024C12.9444 21.0088 13.0577 21.0024 13.1127 20.97C13.1678 20.9376 13.2715 20.8847 13.2648 20.8633L13.2655 20.864Z" fill="#82764F"/>
<path fill-rule="evenodd" clip-rule="evenodd" d="M11.6311 21.5211C11.6311 21.5211 11.6633 21.2979 11.8803 21.2881C12.1034 21.2719 12.1457 21.4886 12.1457 21.4886L12.0162 21.6181C12.0162 21.6149 11.9191 21.479 11.6322 21.5211H11.6311Z" fill="#2D2816"/>
<path fill-rule="evenodd" clip-rule="evenodd" d="M13.0389 20.5598C13.0389 20.5598 12.9191 20.6893 12.6539 20.7281C12.6313 20.6957 12.5826 20.631 12.6539 20.5275C12.7251 20.4241 12.806 20.3916 12.8868 20.4238C12.9225 20.4296 12.9558 20.4455 12.9827 20.4696C13.0097 20.4937 13.0292 20.525 13.0389 20.5598Z" fill="#574F35"/>
<path fill-rule="evenodd" clip-rule="evenodd" d="M13.5275 20.7185C13.5341 20.6861 13.5115 20.6797 13.5275 20.6635C13.5435 20.6472 13.6312 20.615 13.6474 20.631C13.6538 20.6376 13.6474 20.6635 13.6474 20.695C13.6474 20.7266 13.6474 20.759 13.6312 20.7823C13.6085 20.8147 13.5439 20.8309 13.5115 20.8213C13.4791 20.8117 13.4727 20.7663 13.4727 20.7573C13.4887 20.7509 13.5275 20.7347 13.5275 20.7185ZM14.08 20.3691C14.08 20.3529 14.1351 20.3204 14.1675 20.3204C14.2159 20.3204 14.2159 20.3593 14.2225 20.3691C14.2385 20.3755 14.2385 20.3625 14.2547 20.3917C14.2709 20.4209 14.2938 20.4725 14.2773 20.505C14.2609 20.5374 14.1965 20.5598 14.1805 20.5534C14.1579 20.5372 14.0866 20.3917 14.08 20.3691Z" fill="#82764F"/>
<path fill-rule="evenodd" clip-rule="evenodd" d="M12.9677 20.793C12.9677 20.793 13.0389 20.809 13.136 20.89C13.1035 20.9126 13.0549 20.9385 13.0549 20.9385C13.0549 20.9385 13.0485 20.864 12.9677 20.7928V20.793Z" fill="#6E6342"/>
<path fill-rule="evenodd" clip-rule="evenodd" d="M12.8092 20.0809C12.793 20.0649 12.8576 20.0261 12.8965 20.0325C12.9353 20.0389 12.9515 20.0649 12.9935 20.0713C13.0356 20.0777 13.0422 20.0551 13.0575 20.0389C13.0729 20.0227 13.1288 20.0325 13.1384 20.0389C13.1444 20.046 13.1498 20.0535 13.1546 20.0615C13.1553 20.0492 13.1585 20.0371 13.164 20.0261C13.1696 20.0151 13.1773 20.0054 13.1868 19.9975C13.1992 19.9884 13.2135 19.9822 13.2287 19.9794C13.2438 19.9765 13.2594 19.9772 13.2743 19.9813C13.2807 20.0039 13.3131 20.0847 13.3067 20.101C13.3003 20.1172 13.2032 20.14 13.1868 20.1236C13.203 20.1626 13.2743 20.2435 13.2839 20.2595C13.2935 20.2755 13.2126 20.3145 13.1804 20.3081C13.1352 20.3049 12.8568 20.143 12.8083 20.0815L12.8092 20.0809ZM13.2331 19.5437C13.2271 19.5274 13.2156 19.5137 13.2007 19.5049C13.1781 19.4985 13.1036 19.5049 13.1036 19.5437C13.1036 19.5825 13.1676 19.7997 13.2395 19.9128C13.3206 20.0261 13.3754 20.1197 13.4304 20.1458C13.4477 20.1536 13.4673 20.1547 13.4854 20.1486C13.5034 20.1426 13.5184 20.13 13.5275 20.1133C13.5339 20.0971 13.5501 19.9774 13.5437 19.6958C13.5373 19.4142 13.5275 19.1424 13.5113 19.1262C13.4951 19.11 13.4304 19.1102 13.4078 19.1424C13.3852 19.1746 13.2395 19.4953 13.2329 19.5437H13.2331Z" fill="#585136"/>
<path fill-rule="evenodd" clip-rule="evenodd" d="M12.945 21.2007C12.945 21.2007 12.8318 21.1295 12.7217 21.1781C12.6182 21.2267 12.6246 21.4176 12.6246 21.4176C12.6479 21.4267 12.673 21.43 12.6979 21.4272C12.7227 21.4244 12.7465 21.4155 12.7671 21.4014C12.8384 21.353 12.9288 21.2721 12.945 21.2009V21.2007Z" fill="#574F35"/>
<path fill-rule="evenodd" clip-rule="evenodd" d="M13.1586 21.4564C13.1522 21.3924 13.0946 21.3924 13.0946 21.3593C13.0986 21.3435 13.1077 21.3295 13.1206 21.3195C13.1335 21.3095 13.1494 21.3042 13.1656 21.3043C13.1981 21.3043 13.2296 21.3431 13.2693 21.3683C13.3082 21.3909 13.3664 21.4323 13.3728 21.4816C13.3792 21.5308 13.3088 21.6659 13.2305 21.6659C13.1522 21.6659 13.1755 21.5202 13.1592 21.4555L13.1586 21.4564ZM13.7832 21.3689C13.7832 21.3689 13.6538 21.4078 13.6634 21.3689C13.673 21.3301 13.7024 21.3205 13.7444 21.3205C13.7658 21.2981 13.7945 21.2843 13.8253 21.2815C13.8429 21.2806 13.8602 21.2864 13.8737 21.2977C13.8737 21.2977 13.9612 21.2588 13.987 21.2815C14.0128 21.3041 13.9936 21.3041 14.0096 21.3301C14.03 21.359 14.0433 21.3922 14.0486 21.4272C14.0486 21.453 13.9516 21.508 13.8737 21.4984C13.7832 21.479 13.7992 21.3851 13.7832 21.3689ZM14.5372 21.2232C14.5372 21.2232 14.576 21.2458 14.5438 21.2719C14.5212 21.2945 14.4079 21.3359 14.3106 21.3431C14.2135 21.3431 14.1263 21.3591 14.1263 21.3269C14.1263 21.2947 14.2071 21.2298 14.2556 21.2136C14.2653 21.2014 14.2776 21.1916 14.2917 21.1849C14.3057 21.1782 14.3211 21.1747 14.3366 21.1748C14.3755 21.1748 14.5274 21.1586 14.5696 21.1522C14.6084 21.1456 14.6408 21.1682 14.618 21.2006C14.6084 21.2232 14.5372 21.2232 14.5372 21.2232ZM14.7605 20.2239C14.7605 20.2239 14.7119 20.3274 14.6571 20.3274C14.602 20.321 14.602 20.3048 14.602 20.2886C14.602 20.266 14.6571 20.2077 14.6504 20.1915C14.6344 20.1915 14.5954 20.1915 14.602 20.1527C14.602 20.1203 14.6571 20.0814 14.7055 20.0887C14.7421 20.0586 14.7876 20.0416 14.835 20.0403C14.89 20.0403 14.9384 20.0563 14.9384 20.0887C14.9384 20.1211 14.8744 20.1921 14.851 20.2086C14.8252 20.2344 14.7927 20.2512 14.7605 20.2246V20.2239ZM14.0226 22.1365C14.0226 22.1365 13.9586 22.1431 13.9586 22.1753C13.9586 22.1916 13.9746 22.1916 13.9974 22.182C14.0106 22.1812 14.0236 22.179 14.0363 22.1753C14.0427 22.182 14.0427 22.2142 14.0913 22.2142C14.1312 22.2088 14.1697 22.1956 14.2046 22.1753C14.2434 22.1593 14.2758 22.1429 14.2758 22.1113C14.2596 22.0563 14.2272 22.0303 14.1788 22.0303C14.1539 22.0287 14.1292 22.0343 14.1075 22.0465C14.1075 22.0465 14.0913 22.0141 14.0363 22.0465C13.9812 22.0789 13.9876 22.0789 14.0038 22.0951C14.0328 22.1209 14.0232 22.1378 14.0232 22.1378L14.0226 22.1365ZM13.657 22.4732C13.657 22.4569 13.7378 22.4245 13.7604 22.4343C13.783 22.4407 13.8477 22.5636 13.8477 22.5766C13.8477 22.5928 13.7668 22.6317 13.7344 22.6317C13.702 22.6317 13.6471 22.5766 13.6471 22.5677C13.6471 22.5613 13.686 22.5517 13.686 22.5451C13.6956 22.5291 13.657 22.49 13.657 22.4738V22.4732ZM13.401 22.0006C13.4172 21.9942 13.4172 21.978 13.4398 21.9618C13.4469 21.9571 13.4549 21.9541 13.4634 21.9529C13.4718 21.9518 13.4804 21.9527 13.4884 21.9554C13.4941 21.9452 13.502 21.9364 13.5115 21.9297C13.5211 21.9229 13.532 21.9184 13.5435 21.9163C13.5823 21.9099 13.6147 21.9163 13.6075 21.9326C13.6075 21.9812 13.6399 22.0134 13.6399 22.0522C13.6399 22.0911 13.6173 22.1397 13.5364 22.1721C13.4556 22.1948 13.3455 22.1948 13.3293 22.1884C13.3131 22.182 13.2968 22.1171 13.3131 22.0847C13.3293 22.0522 13.3745 22.0168 13.4005 22.0006H13.401Z" fill="#82764F"/>
<path fill-rule="evenodd" clip-rule="evenodd" d="M13.5041 22.0226C13.5041 22.0226 13.449 22.055 13.449 22.0712C13.4441 22.0869 13.442 22.1033 13.4426 22.1197C13.4426 22.1293 13.5139 22.1133 13.5235 22.1035C13.5267 22.0971 13.5041 22.0395 13.5041 22.0226Z" fill="#6E6342"/>
<path fill-rule="evenodd" clip-rule="evenodd" d="M13.0227 21.8705C13.0549 21.8771 13.11 21.8705 13.152 21.8867C13.1844 21.9029 13.207 21.9353 13.1746 21.9742C13.1422 22.013 13.1106 22.0712 13.0387 22.0614C12.9579 22.055 12.8802 22.013 12.8802 21.9806C12.8789 21.96 12.8816 21.9395 12.8883 21.92C12.8949 21.9006 12.9054 21.8827 12.919 21.8673C12.9515 21.8415 12.9675 21.8577 13.0225 21.8705H13.0227Z" fill="#585136"/>
<path fill-rule="evenodd" clip-rule="evenodd" d="M12.9839 21.9029C12.9839 21.9029 12.8804 21.9838 12.8544 22.0228C12.822 22.0616 12.6635 22.2622 12.615 22.3042C12.6311 22.2758 12.6495 22.2488 12.6699 22.2234C12.6059 22.2643 12.5579 22.326 12.534 22.3981C12.4952 22.518 12.7509 22.5826 12.919 22.6312C13.0871 22.6799 13.1522 22.6952 13.1522 22.6952C13.0903 22.6022 13.0372 22.5037 12.9935 22.4008C12.9295 22.2487 12.8964 22.2325 12.9384 22.1613C12.9709 22.09 13.0195 22.0416 13.0195 21.9866C13.0001 21.9354 12.9839 21.9029 12.9839 21.9029Z" fill="#574F35"/>
<path fill-rule="evenodd" clip-rule="evenodd" d="M9.29449 22.1587C9.31805 22.163 9.34219 22.163 9.36575 22.1587C9.41417 22.1521 9.91913 21.9667 10.4467 22C10.8417 22.0239 11.2331 22.0882 11.6149 22.192C12.2784 22.3667 13.1036 22.713 13.6375 22.9105C13.7798 22.9654 13.9191 23.0626 14.0215 23.1013C14.4294 23.26 14.4454 23.26 14.685 23.302C14.9666 23.3408 15.2546 23.247 15.5556 23.1823C15.9245 23.1013 16.5555 23.0624 17.1089 22.9816C17.2878 22.9568 17.4643 22.9167 17.6365 22.8619C17.6365 22.8619 17.1964 23.302 16.1412 23.4605C15.7147 23.5253 15.2813 23.5307 14.8533 23.4767C14.5167 23.4443 14.2935 23.3957 14.1252 23.3472C13.9343 23.2922 13.5426 23.1465 13.0605 23.0272C12.7238 22.9398 12.3484 22.8751 11.9181 22.7943C10.8565 22.5999 9.70452 22.3768 9.29407 22.16L9.29449 22.1587Z" fill="#252211"/>
<path fill-rule="evenodd" clip-rule="evenodd" d="M8.10352 20.1587C7.84752 20.3755 7.57595 20.5826 7.31077 20.7831L6.51141 21.3973C6.23963 21.5979 5.97424 21.805 5.70224 22.0058C5.43024 22.2065 5.15867 22.3972 4.87024 22.5818C5.12624 22.365 5.39781 22.1643 5.6696 21.9669C5.94139 21.7696 6.2232 21.5761 6.48539 21.376L7.28475 20.761C7.55973 20.5604 7.82512 20.3533 8.10352 20.1591V20.1587ZM6.68933 22.4241C6.68933 22.4241 6.97733 22.1845 7.33659 21.8481C7.78309 21.4308 8.33008 20.8966 8.5048 20.7998L6.68912 22.4243L6.68933 22.4241Z" fill="#CFB66C"/>
<path fill-rule="evenodd" clip-rule="evenodd" d="M6.68933 22.4239C6.83184 22.2816 6.98394 22.1425 7.13605 22.0064L7.36901 21.8059C7.44027 21.7419 7.52133 21.67 7.59237 21.5987C7.73467 21.4564 7.87397 21.3041 8.01627 21.1586C8.08679 21.0855 8.16136 21.0163 8.23963 20.9515C8.27875 20.9168 8.32221 20.8874 8.36891 20.864C8.40795 20.8414 8.44997 20.8 8.5048 20.7928C8.47259 20.8414 8.43376 20.864 8.40133 20.906C8.36251 20.9385 8.33008 20.9773 8.29786 21.0095C8.22661 21.0808 8.14576 21.1454 8.0745 21.2102C7.9224 21.3397 7.76389 21.4662 7.61178 21.6017C7.45968 21.7372 7.31738 21.8833 7.16506 22.0192C7.00016 22.1585 6.84805 22.2944 6.68933 22.4245V22.4239ZM8.62469 21.1294C8.62469 21.1294 7.56976 22.1619 7.3528 22.33L8.62469 21.1294Z" fill="#CFB66C"/>
<path fill-rule="evenodd" clip-rule="evenodd" d="M8.62468 21.1294C8.52978 21.2392 8.42803 21.343 8.32004 21.44L8.00004 21.7442C7.89657 21.8477 7.79929 21.9514 7.68942 22.0548C7.57614 22.1519 7.47268 22.2468 7.35278 22.3364L7.6634 22.0322C7.76708 21.9288 7.88036 21.8415 7.99044 21.7378L8.30105 21.4336C8.40772 21.3269 8.5114 21.2233 8.62468 21.1294ZM8.6731 21.6892C8.57586 21.9606 8.46128 22.2254 8.33006 22.4821C8.05828 23.0259 7.6506 23.7054 7.47246 24.0518L8.6731 21.6892Z" fill="#CFB66C"/>
<path fill-rule="evenodd" clip-rule="evenodd" d="M8.67303 21.6894C8.67303 21.8091 8.6406 21.9128 8.60177 22.0162C8.56392 22.1198 8.52077 22.2213 8.47249 22.3204C8.42385 22.4175 8.36881 22.5212 8.31377 22.615C8.25873 22.7089 8.19409 22.8058 8.14545 22.903L7.81863 23.479C7.70535 23.671 7.59527 23.8641 7.47559 24.0486C7.55644 23.8415 7.66652 23.6474 7.7702 23.4564C7.88348 23.2644 7.98695 23.0724 8.0902 22.8738C8.14061 22.7748 8.18597 22.6734 8.22609 22.5698C8.27452 22.4661 8.32295 22.3691 8.36199 22.2752C8.41041 22.1717 8.44924 22.0745 8.49788 21.9808C8.55271 21.8803 8.59815 21.7833 8.6726 21.6894H8.67303Z" fill="#CFB66C"/>
<path fill-rule="evenodd" clip-rule="evenodd" d="M9.82528 24.343C9.82528 24.343 9.50528 24.7669 9.53728 25.3041C9.62454 25.0227 9.73462 24.5922 9.82528 24.343ZM10.1295 24.768C10.1295 24.768 10.0162 25.92 9.92235 26.4864C10.055 25.8317 10.0809 25.8867 10.1295 24.768ZM12.2492 26.5545C12.2492 26.5545 11.7703 27.9625 11.7604 28.3537C11.8641 27.9514 12.0647 27.1294 12.2492 26.5534V26.5545Z" fill="#DEC270"/>
<path fill-rule="evenodd" clip-rule="evenodd" d="M13.369 24.256C13.369 24.256 14.1458 25.5375 14.7284 26.6313C14.5707 26.0809 14.2081 25.0714 13.369 24.256Z" fill="#CBAF59"/>
<path fill-rule="evenodd" clip-rule="evenodd" d="M15.4564 26.1425C15.8829 26.8964 16.2675 27.6732 16.6084 28.4693C16.5438 27.9192 16.3688 26.9775 15.4564 26.1425Z" fill="#E3C677"/>
<path fill-rule="evenodd" clip-rule="evenodd" d="M21.5923 28.0319C21.7216 27.9511 21.9774 27.5108 22.2008 27.4009C22.4239 27.2876 22.5922 27.265 22.793 27.0416C22.9935 26.8085 23.049 26.6662 23.4887 26.4818C24.1037 26.2162 23.6807 25.8732 23.6807 25.8732C23.7484 25.8067 23.8208 25.7451 23.8974 25.6889C24.0561 25.5692 24.2404 25.4235 24.2244 25.1677C24.2018 24.7374 24.121 24.1128 23.7681 23.7503C24.1112 23.6791 24.768 23.6306 25.1761 23.5272C25.6484 23.4073 25.8654 23.239 25.8654 23.239C25.8654 23.239 25.5936 22.7763 26.0337 22.3103C26.4738 21.8444 26.8331 21.566 27.0985 21.0448C26.7943 21.006 26.3305 20.8443 25.1469 21.294C25.2108 21.3241 25.2725 21.3586 25.3314 21.3975C25.3314 21.3975 24.6033 21.5982 24.3379 21.8216C23.875 22.213 23.8168 22.5335 23.3152 22.773C22.8137 23.0126 22.3087 22.9478 21.8914 23.1419C21.4741 23.336 21.4125 23.5012 21.2602 23.5724C21.2926 23.6112 21.2538 23.6759 21.3152 23.7309C21.2764 23.786 21.0498 24.1548 20.8201 24.1548C20.8427 24.2423 21.0368 24.3069 21.0368 24.3069C21.0368 24.3069 20.8945 24.4106 20.5321 24.4364C20.7164 24.6284 20.8913 24.8377 21.3734 25.1419C21.3346 25.2228 21.1727 25.3426 21.2376 25.4948C21.3088 25.6469 21.4936 25.854 22.231 26.0223C21.8556 26.0383 21.4157 26.1258 20.823 26.0449C20.2308 25.9737 20.1338 25.9317 19.7681 26.0223C19.8069 26.0612 19.9104 26.0612 20.0011 26.1646C19.904 26.171 19.2956 26.0934 19.0884 26.3654C18.8717 26.6468 18.7778 27.1097 18.794 27.4203C18.6807 27.4753 18.5707 27.5724 18.6257 27.7732C18.6807 27.9739 18.9687 28.0385 19.1533 28.1646C19.3376 28.3005 19.3538 28.3489 19.5287 28.3167C19.7131 28.2779 19.9849 28.0936 20.1436 28.0936C20.3023 28.0936 20.4154 28.2133 20.4154 28.2133C20.4154 28.2133 20.8459 28.0061 20.8879 28.0449C20.9267 28.0838 20.8943 28.3329 20.9363 28.3718C20.979 28.401 21.4639 28.113 21.5934 28.0319H21.5923Z" fill="#ECD592"/>
<path fill-rule="evenodd" clip-rule="evenodd" d="M31.0001 15.081C28.9775 9.8577 23.9774 8.89001 23.9774 8.89001H9.71201L9.76705 14.2103H12.608V26.0907H9.71179V31.4014H23.5825C26.9254 31.4014 29.6051 28.042 29.6051 28.042C33.8963 21.9516 30.9999 15.081 30.9999 15.081H31.0001ZM23.657 24.4627C23.657 24.4627 22.569 26.0324 21.3852 26.0324H19.0172L18.9611 14.2234H22C22 14.2234 23.408 14.5178 24.3917 17.3041C24.3917 17.3041 25.6958 21.2934 23.657 24.4627Z" fill="white" fill-opacity="0.8"/>
</svg>
