<svg style="enable-background:new 0 0 20 20" version="1.1" viewBox="0 0 20 20" x="0px" xmlns="http://www.w3.org/2000/svg" y="0px">
						<style>
						.st0 { fill: #70757C } .st1 { fill: #8F939A } 
						</style>
						<path class="st0" d="M10.8,9.2h4.5c0.4,0,0.8,0.3,0.8,0.8c0,0.4-0.3,0.8-0.8,0.8h-4.5H9.2H4.8C4.3,10.8,4,10.4,4,10s0.3-0.8,0.8-0.8 h4.5H10.8z"></path>
						<path class="st1" d="M10,4c0.4,0,0.8,0.3,0.8,0.8v4.5v1.5v4.5c0,0.4-0.3,0.8-0.8,0.8c-0.4,0-0.8-0.3-0.8-0.8v-4.5V9.2V4.8 C9.2,4.3,9.6,4,10,4z"></path></svg>